<svg width="547" height="225" viewBox="0 0 547 225" fill="none" xmlns="http://www.w3.org/2000/svg">
<path d="M100.63 129.093C92.6517 129.093 85.813 134.602 85.813 144.1C85.813 155.688 95.8811 167.276 106.899 167.276C113.738 167.276 121.146 162.717 121.146 151.889C121.146 136.502 107.659 129.093 100.63 129.093Z" fill="#ACA199"/>
<path d="M71.5656 160.247C67.9563 160.247 67.7664 162.337 67.7664 164.616C67.7664 172.215 81.0639 185.512 87.9026 185.512C89.9922 185.512 91.8918 184.563 91.8918 181.523C91.8918 174.684 79.1642 160.437 71.5656 160.247Z" fill="#ACA199"/>
<path d="M86.7631 112.757C86.7631 102.688 81.0641 94.52 74.0355 94.52C67.1967 94.52 61.4978 102.688 61.4978 112.757C61.4978 122.825 67.0068 130.803 74.0355 130.993C81.0641 130.993 86.7631 122.825 86.7631 112.757Z" fill="#ACA199"/>
<path d="M53.329 126.054C51.0494 126.054 50.0996 129.853 50.0996 133.273C50.0996 140.871 55.6086 154.739 61.3075 154.929C63.3971 154.929 64.5369 152.269 64.5369 149.04C64.5369 141.441 59.5978 126.054 53.329 126.054Z" fill="#ACA199"/>
<path d="M100.63 96.4195C107.659 96.4195 121.146 89.0108 121.146 73.8137C121.146 62.7958 113.738 58.2366 106.899 58.4266C95.8811 58.4266 85.813 69.8244 85.813 81.6022C85.813 91.1004 92.8417 96.6094 100.63 96.4195Z" fill="#ACA199"/>
<path d="M71.5656 65.2653C79.1642 65.2653 91.8918 50.828 91.8918 43.9893C91.8918 40.9498 89.9922 40 87.9026 40C81.0639 40 67.7664 53.2975 67.7664 60.8961C67.7664 63.1757 67.9563 65.2653 71.5656 65.2653Z" fill="#ACA199"/>
<path d="M53.329 99.649C59.5978 99.649 64.5369 84.2619 64.5369 76.8533C64.5369 73.6239 63.3971 70.9644 61.3075 70.9644C55.6086 70.9644 50.0996 84.8318 50.0996 92.6203C50.0996 95.8497 51.0494 99.649 53.329 99.649Z" fill="#ACA199"/>
<path d="M138.053 90.7207C125.895 90.7207 116.017 100.599 116.017 112.757C116.017 124.914 125.895 134.792 138.053 134.792C150.401 134.792 160.279 124.914 160.279 112.757C160.279 100.599 150.401 90.7207 138.053 90.7207Z" fill="#ACA199"/>
<path d="M46.1105 100.599C44.9707 100.599 43.8309 106.108 44.0209 112.756C44.0209 119.595 44.9707 124.914 46.1105 124.914C47.2503 124.914 48.39 119.405 48.39 112.756C48.39 106.108 47.4402 100.599 46.1105 100.599Z" fill="#ACA199"/>
<path d="M191.813 106.488C191.053 107.058 190.483 107.628 189.724 108.197C188.964 107.248 187.634 105.728 186.494 105.158C190.673 102.119 193.713 98.3193 195.422 94.8999L199.982 95.8497C199.412 96.7995 198.842 97.7494 198.082 98.6992H203.971C203.591 97.7494 203.211 96.7995 202.831 96.0397L207.01 94.8999C207.77 96.0397 208.34 97.5594 208.91 98.8892H219.738V102.309H208.15V103.828H218.028V106.678H208.15V108.387H218.028V111.237H208.15V112.947H220.688V116.366H196.372V117.316H191.813V106.488ZM201.121 124.534C198.462 126.624 193.713 128.714 189.724 129.663C189.154 128.714 187.824 127.004 186.874 126.244C190.673 125.674 195.233 124.534 197.702 123.015L201.121 124.534ZM206.82 122.255V130.613H202.261V122.255H187.444V118.645H202.261V116.746H206.82V118.645H221.638V122.255H206.82ZM203.971 102.309H196.372V103.828H203.971V102.309ZM203.971 106.868H196.372V108.387H203.971V106.868ZM203.971 111.237H196.372V112.947H203.971V111.237ZM210.81 122.635C214.229 123.774 219.168 125.484 221.828 126.814L218.978 129.853C216.509 128.714 211.569 126.624 208.15 125.484L210.81 122.635Z" fill="#ACA199"/>
<path d="M227.147 126.243C228.856 123.964 230.376 120.544 231.136 117.505L235.315 119.025C234.365 122.254 233.036 126.053 231.326 128.523L227.147 126.243ZM242.724 114.655H230.756V96.6089H257.921V114.655H243.484C245.953 115.985 248.993 117.885 250.512 119.405L247.283 122.444C245.763 120.734 242.534 118.455 239.874 116.935L242.724 114.655ZM235.125 103.828H242.344V100.598H235.125V103.828ZM235.125 110.856H242.344V107.437H235.125V110.856ZM248.613 125.863C250.132 125.863 250.512 125.294 250.702 121.494C251.652 122.254 253.552 122.824 254.692 123.204C254.122 128.523 252.792 130.043 248.993 130.043H242.724C237.785 130.043 236.455 128.713 236.455 124.724V118.455H241.014V124.724C241.014 125.863 241.394 126.053 243.294 126.053H248.613V125.863ZM253.552 100.598H246.523V103.828H253.552V100.598ZM253.552 107.437H246.523V110.856H253.552V107.437ZM257.161 117.125C259.251 119.974 261.34 123.584 262.1 126.243L257.731 128.143C257.161 125.673 255.071 121.684 253.172 118.835L257.161 117.125Z" fill="#ACA199"/>
<path d="M291.165 98.6987C294.584 101.928 299.143 106.677 301.233 109.907L297.433 112.756C296.863 111.996 296.294 110.856 295.534 109.907C275.397 110.856 272.738 111.046 270.648 111.616C270.458 110.666 269.699 108.387 269.129 107.247C270.078 107.057 271.028 106.297 272.358 104.968C273.688 103.828 277.867 99.2686 280.337 94.7095L284.896 96.6091C282.426 100.218 279.577 103.448 276.537 106.297L292.114 105.727C290.595 104.018 289.075 102.498 287.745 100.978L291.165 98.6987ZM271.598 113.896H297.243V130.613H292.304V128.713H276.157V130.613H271.598V113.896ZM276.347 118.265V124.344H292.494V118.265H276.347Z" fill="#ACA199"/>
<path d="M327.828 109.907C330.297 117.315 334.856 123.204 342.075 126.244C340.935 127.193 339.416 129.283 338.656 130.423C331.817 127.193 327.448 121.684 324.408 114.276C322.319 120.545 318.33 126.623 310.161 130.423C309.401 129.093 308.071 127.573 306.742 126.623C315.48 122.824 319.089 116.365 320.609 109.907H307.502V105.157H321.369C321.749 101.548 321.749 98.1288 321.749 95.0894H326.688C326.688 98.1288 326.688 101.738 326.308 105.157H341.315V109.907H327.828Z" fill="#ACA199"/>
<path d="M367.53 96.2291C367.34 96.4191 367.15 96.799 366.96 96.989C370.38 100.028 376.648 102.688 382.727 103.828C381.777 104.588 380.448 106.297 379.878 107.247C379.118 107.057 378.358 106.867 377.598 106.487V116.365H351.193V106.867C350.433 107.057 349.673 107.437 348.914 107.627C348.534 106.867 347.204 104.967 346.444 104.208C353.473 102.498 360.122 99.4585 363.731 95.0894L367.53 96.2291ZM376.079 106.107C374.369 105.537 372.659 104.588 370.95 103.828V104.778H357.652V104.018C356.132 104.778 354.613 105.537 353.093 106.107H376.079ZM353.283 117.695H375.699V130.613H371.139V129.663H357.842V130.613H353.473V117.695H353.283ZM357.462 113.706C357.272 112.566 356.702 111.046 356.132 109.717L358.982 108.957H354.613V113.706H357.462ZM357.652 120.545V122.064H370.95V120.545H357.652ZM370.95 126.623V125.104H357.652V126.623H370.95ZM362.211 108.767H359.362C360.122 110.097 360.691 111.616 360.881 112.756L358.412 113.516H362.211V108.767ZM367.72 101.738C366.58 100.978 365.441 100.028 364.491 99.2686C363.541 100.028 362.401 100.978 361.261 101.738H367.72ZM366.01 108.767V113.516H369.62L367.34 112.946C367.91 111.806 368.48 110.097 368.86 108.767H366.01ZM373.419 108.767H369.43L372.469 109.527C371.709 111.046 370.95 112.566 370.38 113.516H373.419V108.767Z" fill="#ACA199"/>
<path d="M398.875 104.968H386.527V101.358H391.846C391.466 100.028 390.706 97.9388 389.946 96.4191L393.176 95.2793C394.125 96.799 395.075 99.0786 395.265 100.408L392.416 101.548H398.875V104.968ZM397.925 128.523H390.896V130.043H387.667V117.125H397.925V128.523ZM387.857 106.677H397.925V110.097H387.857V106.677ZM387.857 111.806H397.925V115.226H387.857V111.806ZM390.896 120.545V125.104H394.695V120.545H390.896ZM420.151 121.684C419.201 123.204 417.871 124.534 416.541 125.864C417.111 126.813 417.681 127.383 418.441 127.383C419.011 127.383 419.391 126.433 419.581 124.344C420.34 125.104 421.29 125.484 422.24 125.864C421.67 129.473 420.53 130.803 418.251 130.803C416.351 130.803 414.832 129.853 413.692 128.143C412.362 128.903 411.032 129.663 409.892 130.233C409.513 129.473 408.563 128.523 407.803 127.953C409.323 127.383 411.032 126.433 412.552 125.294C411.982 123.774 411.602 121.874 411.412 119.785H407.803V121.304L410.842 120.925V124.154L407.803 124.534V127.003C407.803 128.713 407.423 129.473 406.283 130.043C405.143 130.613 403.434 130.613 401.154 130.613C400.964 129.663 400.584 128.333 400.014 127.383C401.344 127.383 402.674 127.383 403.244 127.383C403.624 127.383 403.814 127.193 403.814 126.813V124.914C402.104 125.104 400.584 125.294 399.254 125.484L398.875 122.064C400.394 121.874 401.914 121.874 403.814 121.684V119.785H399.064V116.555H403.814V114.846C402.674 115.036 401.344 115.036 400.204 115.226C400.014 114.466 399.634 113.326 399.254 112.566C402.484 112.186 406.283 111.616 408.563 111.046L410.842 113.706C410.842 112.946 410.842 112.186 410.842 111.616H414.642C414.642 113.326 414.642 115.036 414.832 116.555H418.821C418.061 115.416 416.541 114.086 415.211 113.136L417.871 111.426C419.201 112.376 420.91 113.896 421.67 114.846L419.201 116.555H421.86V119.785H415.211C415.401 120.925 415.591 121.684 415.781 122.634C416.541 121.874 417.111 121.114 417.491 120.355L420.151 121.684ZM421.48 110.666H398.875V107.437H407.993V105.917H401.154V103.068H407.993V101.548H400.014V98.5087H404.194C403.814 97.7489 403.244 96.799 402.674 96.2291L405.903 95.0894C406.663 96.2291 407.613 97.5589 407.993 98.5087H412.742C413.312 97.3689 414.072 96.0392 414.452 95.0894L418.441 96.0392C417.871 96.989 417.301 97.7489 416.731 98.5087H420.91V101.548H412.552V103.068H419.771V105.917H412.552V107.437H421.67L421.48 110.666ZM410.842 116.555C410.842 115.606 410.652 114.656 410.652 113.706C409.702 113.896 408.563 114.276 407.423 114.466V116.555H410.842Z" fill="#ACA199"/>
<path d="M459.663 101.738V120.735H454.914V118.835H446.365V130.613H441.616V118.835H433.068V120.925H428.509V101.738H441.616V95.0894H446.365V101.738H459.663ZM441.616 114.276V106.107H433.068V114.276H441.616ZM454.914 114.276V106.107H446.365V114.276H454.914Z" fill="#ACA199"/>
<path d="M473.72 108.957C473.15 113.896 472.2 120.355 470.871 124.724L466.312 122.824C467.641 118.835 468.781 113.136 469.161 108.007L473.72 108.957ZM480.939 105.917V123.584C480.939 125.294 481.319 125.674 483.028 125.674H488.537C490.437 125.674 490.817 124.534 491.007 118.455C492.147 119.215 494.046 119.975 495.186 120.355C494.616 127.573 493.476 129.853 488.727 129.853H482.458C477.519 129.853 476.19 128.333 476.19 123.584V105.917H480.939ZM480.559 95.6592C483.978 97.7488 488.727 101.168 491.007 103.448L487.588 107.057C485.498 104.777 480.939 101.168 477.329 98.6986L480.559 95.6592ZM497.086 107.057C499.175 111.616 501.265 117.315 502.025 121.114L497.466 123.014C496.896 119.215 494.996 113.136 492.907 108.767L497.086 107.057Z" fill="#ACA199"/>
</svg>
