<svg width="547" height="225" viewBox="0 0 547 225" fill="none" xmlns="http://www.w3.org/2000/svg">
<g clip-path="url(#clip0_156_60)">
<path d="M67.6342 132.405C58.1054 132.405 49.9378 138.985 49.9378 150.329C49.9378 164.168 61.9623 178.008 75.1211 178.008C83.2887 178.008 92.1369 172.562 92.1369 159.63C92.1369 141.253 76.0287 132.405 67.6342 132.405Z" fill="#ACA199"/>
<path d="M32.9221 169.613C28.6114 169.613 28.3845 172.108 28.3845 174.831C28.3845 183.906 44.2659 199.787 52.4335 199.787C54.9291 199.787 57.1979 198.653 57.1979 195.023C57.1979 186.855 41.9971 169.84 32.9221 169.613Z" fill="#ACA199"/>
<path d="M51.0722 112.894C51.0722 100.869 44.2659 91.1138 35.8715 91.1138C27.7039 91.1138 20.8976 100.869 20.8976 112.894C20.8976 124.918 27.477 134.447 35.8715 134.674C44.2659 134.674 51.0722 124.918 51.0722 112.894Z" fill="#ACA199"/>
<path d="M11.1419 128.775C8.41936 128.775 7.28498 133.313 7.28498 137.397C7.28498 146.472 13.8644 163.034 20.6707 163.261C23.1664 163.261 24.5276 160.084 24.5276 156.227C24.5276 147.152 18.6288 128.775 11.1419 128.775Z" fill="#ACA199"/>
<path d="M67.6342 93.3826C76.0287 93.3826 92.1369 84.5344 92.1369 66.3843C92.1369 53.2254 83.2887 47.7804 75.1211 48.0073C61.9623 48.0073 49.9378 61.6199 49.9378 75.6862C49.9378 87.0301 58.3323 93.6095 67.6342 93.3826Z" fill="#ACA199"/>
<path d="M32.9221 56.1746C41.9971 56.1746 57.1979 38.932 57.1979 30.7644C57.1979 27.1344 54.9291 26 52.4335 26C44.2659 26 28.3845 41.8814 28.3845 50.9564C28.3845 53.679 28.6114 56.1746 32.9221 56.1746Z" fill="#ACA199"/>
<path d="M11.1419 97.2394C18.6288 97.2394 24.5276 78.8623 24.5276 70.0141C24.5276 66.1572 23.1664 62.981 20.6707 62.981C13.8644 62.981 7.28498 79.543 7.28498 88.8449C7.28498 92.7018 8.41936 97.2394 11.1419 97.2394Z" fill="#ACA199"/>
<path d="M112.329 86.5762C97.8088 86.5762 86.0112 98.3738 86.0112 112.894C86.0112 127.414 97.8088 139.212 112.329 139.212C127.076 139.212 138.874 127.414 138.874 112.894C138.874 98.3738 127.076 86.5762 112.329 86.5762Z" fill="#ACA199"/>
<path d="M2.52057 98.3735C1.1593 98.3735 -0.201956 104.953 0.0249204 112.894C0.0249204 121.061 1.1593 127.414 2.52057 127.414C3.88183 127.414 5.24309 120.834 5.24309 112.894C5.24309 104.953 4.1087 98.3735 2.52057 98.3735Z" fill="#ACA199"/>
<path d="M176.535 105.407C175.628 106.087 174.947 106.768 174.039 107.449C173.132 106.314 171.544 104.499 170.183 103.819C175.174 100.189 178.804 95.6512 180.846 91.5674L186.291 92.7018C185.61 93.8362 184.93 94.9705 184.022 96.1049H191.055C190.601 94.9705 190.148 93.8362 189.694 92.9286L194.685 91.5674C195.593 92.9286 196.273 94.7437 196.954 96.3318H209.886V100.416H196.046V102.231H207.844V105.634H196.046V107.676H207.844V111.079H196.046V113.121H211.02V117.204H181.98V118.339H176.535V105.407ZM187.652 126.96C184.476 129.456 178.804 131.951 174.039 133.086C173.359 131.951 171.771 129.91 170.636 129.002C175.174 128.321 180.619 126.96 183.568 125.145L187.652 126.96ZM194.458 124.238V134.22H189.013V124.238H171.317V119.927H189.013V117.658H194.458V119.927H212.155V124.238H194.458ZM191.055 100.416H181.98V102.231H191.055V100.416ZM191.055 105.861H181.98V107.676H191.055V105.861ZM191.055 111.079H181.98V113.121H191.055V111.079ZM199.223 124.691C203.307 126.053 209.205 128.095 212.382 129.683L208.978 133.313C206.029 131.951 200.13 129.456 196.046 128.095L199.223 124.691Z" fill="#ACA199"/>
<path d="M218.734 129.002C220.776 126.279 222.591 122.195 223.499 118.565L228.49 120.38C227.355 124.237 225.767 128.775 223.725 131.724L218.734 129.002ZM237.338 115.162H223.045V93.6089H255.488V115.162H238.246C241.195 116.75 244.825 119.019 246.64 120.834L242.783 124.464C240.968 122.422 237.111 119.7 233.935 117.885L237.338 115.162ZM228.263 102.23H236.884V98.3733H228.263V102.23ZM228.263 110.625H236.884V106.541H228.263V110.625ZM244.371 128.548C246.186 128.548 246.64 127.867 246.867 123.33C248.001 124.237 250.27 124.918 251.631 125.372C250.951 131.724 249.363 133.539 244.825 133.539H237.338C231.439 133.539 229.851 131.951 229.851 127.187V119.7H235.296V127.187C235.296 128.548 235.75 128.775 238.019 128.775H244.371V128.548ZM250.27 98.3733H241.876V102.23H250.27V98.3733ZM250.27 106.541H241.876V110.625H250.27V106.541ZM254.581 118.112C257.076 121.515 259.572 125.825 260.48 129.002L255.261 131.27C254.581 128.321 252.085 123.557 249.816 120.153L254.581 118.112Z" fill="#ACA199"/>
<path d="M295.192 96.1047C299.275 99.9617 304.72 105.634 307.216 109.49L302.679 112.894C301.998 111.986 301.317 110.625 300.41 109.49C276.361 110.625 273.185 110.852 270.689 111.532C270.462 110.398 269.555 107.675 268.874 106.314C270.008 106.087 271.143 105.18 272.731 103.592C274.319 102.23 279.31 96.7854 282.26 91.3403L287.705 93.6091C284.755 97.9198 281.352 101.777 277.722 105.18L296.326 104.499C294.511 102.457 292.696 100.642 291.108 98.8273L295.192 96.1047ZM271.823 114.255H302.452V134.22H296.553V131.951H277.268V134.22H271.823V114.255ZM277.495 119.473V126.733H296.78V119.473H277.495Z" fill="#ACA199"/>
<path d="M338.979 109.49C341.928 118.339 347.373 125.372 355.995 129.002C354.633 130.136 352.818 132.632 351.911 133.993C343.743 130.136 338.525 123.557 334.895 114.708C332.399 122.195 327.635 129.455 317.879 133.993C316.972 132.405 315.384 130.59 313.796 129.455C324.232 124.918 328.543 117.204 330.358 109.49H314.703V103.818H331.265C331.719 99.5078 331.719 95.424 331.719 91.7939H337.618C337.618 95.424 337.618 99.7346 337.164 103.818H355.087V109.49H338.979Z" fill="#ACA199"/>
<path d="M386.396 93.1552C386.169 93.3821 385.942 93.8358 385.716 94.0627C389.799 97.6927 397.286 100.869 404.546 102.23C403.412 103.138 401.824 105.18 401.143 106.314C400.236 106.087 399.328 105.86 398.421 105.407V117.204H366.885V105.86C365.977 106.087 365.07 106.541 364.162 106.768C363.708 105.86 362.12 103.592 361.213 102.684C369.607 100.642 377.548 97.0121 381.859 91.7939L386.396 93.1552ZM396.606 104.953C394.564 104.272 392.522 103.138 390.48 102.23V103.365H374.599V102.457C372.784 103.365 370.969 104.272 369.153 104.953H396.606ZM369.38 118.792H396.152V134.22H390.707V133.086H374.825V134.22H369.607V118.792H369.38ZM374.372 114.028C374.145 112.667 373.464 110.852 372.784 109.263L376.187 108.356H370.969V114.028H374.372ZM374.599 122.195V124.01H390.48V122.195H374.599ZM390.48 129.455V127.64H374.599V129.455H390.48ZM380.044 108.129H376.64C377.548 109.717 378.229 111.532 378.455 112.893L375.506 113.801H380.044V108.129ZM386.623 99.7346C385.262 98.8271 383.9 97.6927 382.766 96.7852C381.632 97.6927 380.27 98.8271 378.909 99.7346H386.623ZM384.581 108.129V113.801H388.892L386.169 113.12C386.85 111.759 387.531 109.717 387.984 108.129H384.581ZM393.429 108.129H388.665L392.295 109.037C391.387 110.852 390.48 112.667 389.799 113.801H393.429V108.129Z" fill="#ACA199"/>
<path d="M423.831 103.592H409.084V99.2809H415.436C414.983 97.6927 414.075 95.1971 413.168 93.3821L417.024 92.0208C418.159 93.8358 419.293 96.5584 419.52 98.1465L416.117 99.5078H423.831V103.592ZM422.696 131.724H414.302V133.539H410.445V118.112H422.696V131.724ZM410.672 105.633H422.696V109.717H410.672V105.633ZM410.672 111.759H422.696V115.843H410.672V111.759ZM414.302 122.195V127.64H418.84V122.195H414.302ZM449.241 123.557C448.107 125.372 446.518 126.96 444.93 128.548C445.611 129.682 446.292 130.363 447.199 130.363C447.88 130.363 448.333 129.229 448.56 126.733C449.468 127.64 450.602 128.094 451.737 128.548C451.056 132.859 449.695 134.447 446.972 134.447C444.703 134.447 442.888 133.312 441.527 131.271C439.939 132.178 438.351 133.086 436.99 133.766C436.536 132.859 435.402 131.724 434.494 131.044C436.309 130.363 438.351 129.229 440.166 127.867C439.485 126.052 439.032 123.784 438.805 121.288H434.494V123.103L438.124 122.649V126.506L434.494 126.96V129.909C434.494 131.951 434.04 132.859 432.679 133.539C431.318 134.22 429.276 134.22 426.553 134.22C426.326 133.086 425.873 131.497 425.192 130.363C426.78 130.363 428.368 130.363 429.049 130.363C429.503 130.363 429.73 130.136 429.73 129.682V127.414C427.688 127.64 425.873 127.867 424.285 128.094L423.831 124.01C425.646 123.784 427.461 123.784 429.73 123.557V121.288H424.058V117.431H429.73V115.389C428.368 115.616 426.78 115.616 425.419 115.843C425.192 114.935 424.738 113.574 424.285 112.667C428.141 112.213 432.679 111.532 435.401 110.852L438.124 114.028C438.124 113.12 438.124 112.213 438.124 111.532H442.662C442.662 113.574 442.662 115.616 442.888 117.431H447.653C446.745 116.07 444.93 114.482 443.342 113.347L446.518 111.305C448.107 112.44 450.149 114.255 451.056 115.389L448.107 117.431H451.283V121.288H443.342C443.569 122.649 443.796 123.557 444.023 124.691C444.93 123.784 445.611 122.876 446.065 121.969L449.241 123.557ZM450.829 110.398H423.831V106.541H434.721V104.726H426.553V101.323H434.721V99.5078H425.192V95.8777H430.183C429.73 94.9702 429.049 93.8358 428.368 93.1552L432.225 91.7939C433.133 93.1552 434.267 94.7433 434.721 95.8777H440.393C441.073 94.5165 441.981 92.9283 442.435 91.7939L447.199 92.9283C446.518 94.0627 445.838 94.9702 445.157 95.8777H450.148V99.5078H440.166V101.323H448.787V104.726H440.166V106.541H451.056L450.829 110.398ZM438.124 117.431C438.124 116.297 437.897 115.162 437.897 114.028C436.763 114.255 435.402 114.709 434.04 114.935V117.431H438.124Z" fill="#ACA199"/>
<path d="M496.431 99.7346V122.422H490.759V120.154H480.55V134.22H474.878V120.154H464.669V122.649H459.224V99.7346H474.878V91.7939H480.55V99.7346H496.431ZM474.878 114.708V104.953H464.669V114.708H474.878ZM490.759 114.708V104.953H480.55V114.708H490.759Z" fill="#ACA199"/>
<path d="M513.22 108.356C512.54 114.255 511.405 121.969 509.817 127.187L504.372 124.918C505.96 120.154 507.321 113.347 507.775 107.222L513.22 108.356ZM521.842 104.726V125.826C521.842 127.867 522.295 128.321 524.337 128.321H530.917C533.185 128.321 533.639 126.96 533.866 119.7C535.227 120.607 537.496 121.515 538.857 121.969C538.177 130.59 536.815 133.312 531.144 133.312H523.657C517.758 133.312 516.17 131.497 516.17 125.826V104.726H521.842ZM521.388 92.4746C525.472 94.9703 531.144 99.054 533.866 101.777L529.782 106.087C527.287 103.365 521.842 99.054 517.531 96.1046L521.388 92.4746ZM541.126 106.087C543.622 111.532 546.117 118.339 547.025 122.876L541.58 125.145C540.899 120.607 538.63 113.347 536.135 108.129L541.126 106.087Z" fill="#ACA199"/>
</g>
<defs>
<clipPath id="clip0_156_60">
<rect width="547" height="225" fill="white"/>
</clipPath>
</defs>
</svg>
