<svg width="380" height="194" viewBox="0 0 380 194" fill="none" xmlns="http://www.w3.org/2000/svg">
<g clip-path="url(#clip0_242_19527)">
<path d="M314.461 87.0129C314.796 90.604 315.427 94.195 315.389 97.7731C315.311 103.879 314.1 109.843 311.06 115.21C307.711 121.121 302.532 124.79 296.091 126.709C292.149 127.889 288.155 128.433 284.02 128.29C279.228 128.122 274.423 128.239 269.618 128.239C269.502 128.239 269.386 128.239 269.257 128.239C269.051 128.239 268.845 128.239 268.639 128.239C268.394 128.187 268.149 128.148 267.904 128.096C267.634 127.539 267.132 126.981 267.132 126.424C267.093 107.185 267.119 87.9464 267.106 68.7077C267.106 64.8444 266.938 65.0778 270.816 65.0907C275.402 65.0907 280.001 65.0778 284.587 65.1037C285.36 65.1037 286.146 65.3371 286.919 65.4537C287.395 65.8686 287.808 66.5298 288.362 66.6724C290.835 67.3206 293.592 66.6205 295.859 68.2929C295.898 68.3188 295.962 68.2929 296.014 68.2929C298.989 68.604 301.643 69.7967 303.859 71.7024C305.83 73.4007 307.659 75.3064 309.321 77.3288C311.241 79.6623 312.709 82.2811 312.889 85.4313C312.941 86.4814 313.418 87.0259 314.474 87.0129H314.461ZM279.576 75.4101C278.468 75.5138 278.249 76.2658 278.249 77.2251C278.249 90.0854 278.236 102.959 278.313 115.819C278.313 116.532 279.125 117.245 279.55 117.958C280.053 118.075 280.568 118.321 281.057 118.282C283.26 118.114 285.476 117.906 287.679 117.647C291.75 117.167 295.215 115.443 297.907 112.319C301.476 108.17 302.236 103.049 302.584 97.8509C302.828 94.2858 302.442 90.7725 301.386 87.2852C299.75 81.8662 296.593 78.1196 291.157 76.3176C287.344 75.0471 283.453 75.4749 279.576 75.3972V75.4101Z" fill="#3A82DC"/>
<path d="M323.35 128.148C323.157 127.37 322.783 126.592 322.783 125.814C322.758 112.928 322.77 100.029 322.77 87.1424C322.77 80.4789 322.809 73.8154 322.745 67.1648C322.732 65.5573 323.208 65.0258 324.844 65.0517C331.092 65.1424 337.34 65.0646 343.575 65.1035C344.889 65.1035 346.203 65.3369 347.517 65.4536C347.517 66.6463 348.2 67.0092 349.269 67.0222C350.493 67.0222 351.833 66.8148 352.902 67.2296C355.569 68.2668 358.21 69.4465 360.67 70.8985C363.053 72.2986 364.818 74.4636 365.398 77.2638C365.63 78.4046 366.068 78.7287 367.073 78.625C370.448 89.6445 364.651 102.829 350.892 105.033C348.509 105.422 346.074 105.474 343.665 105.668C343.756 104.825 343.511 104.385 342.545 104.411C340.651 104.462 338.744 104.462 336.851 104.411C335.833 104.385 335.382 104.825 335.369 105.798C335.382 105.875 335.369 105.953 335.318 106.018C335.279 106.355 335.24 106.692 335.189 107.029C335.215 113.511 335.228 119.98 335.253 126.462C335.253 127.759 334.648 128.277 333.385 128.264C330.513 128.212 327.64 128.225 324.767 128.212C324.303 128.187 323.827 128.161 323.363 128.135L323.35 128.148ZM335.331 95.7116C335.434 95.8154 335.55 95.9191 335.653 96.0228C339.092 95.8283 342.545 95.8024 345.959 95.4005C353.392 94.5319 356.999 89.0092 355.066 81.7364C354.126 78.1972 351.215 75.7989 346.847 75.4488C343.034 75.1377 339.195 75.2285 335.382 75.1377C335.292 75.2544 335.215 75.3581 335.125 75.4748C335.137 81.6716 335.15 87.8684 335.176 94.0652C335.176 94.3115 335.176 94.5449 335.176 94.7912C335.189 94.9857 335.215 95.1801 335.228 95.3616L335.331 95.7116Z" fill="#3A82DC"/>
<path d="M237.85 65.1165C240.311 65.1165 242.836 64.8054 245.245 65.1813C249.947 65.9332 254.095 68.0464 257.702 71.2226C258.81 72.2078 258.99 72.9987 257.895 74.1395C256.414 75.6822 255.087 77.3675 253.644 78.9491C253.167 79.4807 252.549 79.8826 251.982 80.3493C249.045 77.3935 245.644 75.6563 241.676 75.384C235.029 74.9303 228.717 79.4159 226.282 86.196C225.625 88.0369 225.123 89.9427 224.543 91.8224C223.474 91.8873 223.203 92.5484 223.074 93.5337C222.508 98.0063 223.847 102.284 224.53 106.601C224.723 107.846 225.535 109.544 227.338 109.881C229.825 113.926 233.161 116.778 237.941 117.686C242.089 118.477 245.825 117.388 249.316 115.21C250.488 114.484 251.531 113.537 252.575 112.617C253.232 112.033 253.734 111.969 254.327 112.656C255.937 114.522 257.522 116.402 259.196 118.217C260.201 119.319 259.892 120.149 258.939 121.043C255.151 124.583 250.81 127.214 245.709 128.122C235.699 129.885 226.836 127.448 219.699 119.916C215.5 115.469 213.219 109.985 212.279 103.983C211.789 100.845 211.403 97.5914 211.661 94.4412C212.382 85.146 215.564 76.8749 222.92 70.6781C223.165 70.4707 223.461 70.341 223.731 70.1855C224.182 70.3929 224.723 70.8725 225.058 70.7559C226.063 70.4058 227.081 69.9391 227.944 69.3169C229.928 67.8908 232.208 67.463 234.501 66.9444C235.686 66.6722 236.73 65.7518 237.85 65.1295V65.1165Z" fill="#3A82DC"/>
<path d="M314.461 87.0131C313.405 87.0131 312.928 86.4816 312.877 85.4315C312.709 82.2812 311.228 79.6495 309.308 77.3289C307.659 75.3195 305.83 73.4008 303.846 71.7026C301.618 69.7968 298.964 68.6041 296.001 68.293C295.949 68.293 295.885 68.306 295.846 68.293C293.579 66.6336 290.822 67.3207 288.349 66.6725C287.808 66.5299 287.383 65.8687 286.906 65.4539C290.462 65.1687 293.85 66.0373 297.199 67.0485C307.118 70.0432 312.503 77.0308 314.448 87.0261L314.461 87.0131Z" fill="#3A82DC"/>
<path d="M367.06 78.6251C366.055 78.7158 365.63 78.3917 365.385 77.2639C364.792 74.4636 363.04 72.3116 360.657 70.8985C358.197 69.4465 355.556 68.2668 352.889 67.2297C351.807 66.8019 350.48 67.0352 349.256 67.0223C348.187 67.0223 347.504 66.6463 347.504 65.4536C349.682 65.7648 351.91 65.8685 354.023 66.413C357.54 67.3075 360.85 68.6557 363.388 71.4949C365.243 73.5691 366.48 75.9156 367.06 78.638V78.6251Z" fill="#3A82DC"/>
<path d="M227.338 109.894C225.535 109.557 224.723 107.859 224.53 106.614C223.847 102.297 222.507 98.0193 223.074 93.5467C223.203 92.5614 223.473 91.9003 224.543 91.8354L224.53 91.9651C224.556 92.1336 224.581 92.3022 224.62 92.4707C224.234 96.2303 224.066 100.003 225.148 103.685C225.767 105.785 226.604 107.82 227.351 109.881L227.338 109.894Z" fill="#3A82DC"/>
<path d="M237.85 65.1167C236.742 65.739 235.699 66.6594 234.501 66.9316C232.195 67.4632 229.928 67.878 227.944 69.3041C227.081 69.9263 226.063 70.393 225.058 70.7431C224.723 70.8597 224.182 70.3801 223.731 70.1727C228.021 67.3206 232.517 65.0389 237.85 65.1167Z" fill="#3A82DC"/>
<path d="M335.356 105.811C335.382 104.838 335.82 104.398 336.838 104.423C338.731 104.475 340.638 104.475 342.532 104.423C343.485 104.398 343.743 104.838 343.652 105.681C340.883 105.733 338.113 105.772 335.356 105.824V105.811Z" fill="#3A82DC"/>
<path d="M335.176 107.055C335.215 106.718 335.253 106.381 335.305 106.044C335.266 106.381 335.228 106.718 335.176 107.055Z" fill="#3A82DC"/>
<path d="M224.607 92.4836C224.582 92.3151 224.556 92.1466 224.517 91.978C224.543 92.1466 224.569 92.3151 224.607 92.4836Z" fill="#3A82DC"/>
<path d="M279.627 109.609C279.627 109.817 279.627 110.011 279.627 110.219C279.627 110.439 279.627 110.672 279.627 110.893C279.627 111.632 279.627 112.371 279.627 113.123C279.627 113.239 279.627 113.356 279.627 113.486C279.602 114.976 279.589 116.467 279.563 117.958C279.125 117.245 278.326 116.532 278.326 115.819C278.249 102.959 278.275 90.0855 278.262 77.2251C278.262 76.2658 278.481 75.5139 279.589 75.4102C279.589 75.9417 279.602 76.4602 279.615 76.9918C279.615 77.1084 279.615 77.2251 279.627 77.3548C279.627 78.4178 279.653 79.4809 279.666 80.5439C279.666 80.7643 279.666 80.9977 279.666 81.218C279.666 82.3848 279.653 83.5645 279.64 84.7313C279.64 84.848 279.64 84.9776 279.64 85.0943C279.64 92.2893 279.64 99.4844 279.64 106.679C279.64 106.796 279.64 106.926 279.64 107.042C279.64 107.781 279.64 108.52 279.64 109.259C279.64 109.376 279.64 109.506 279.64 109.622L279.627 109.609Z" fill="#3A82DC"/>
<path d="M279.627 85.0944C279.627 84.9778 279.627 84.8481 279.627 84.7314C279.666 84.8222 279.705 84.9 279.73 84.9907C279.73 85.0167 279.666 85.0555 279.627 85.0944Z" fill="#3A82DC"/>
<path d="M279.627 107.029C279.627 106.913 279.627 106.783 279.627 106.667C279.666 106.757 279.705 106.835 279.73 106.926C279.73 106.952 279.666 106.991 279.627 107.029Z" fill="#3A82DC"/>
<path d="M279.627 109.609C279.627 109.492 279.627 109.363 279.627 109.246C279.666 109.337 279.705 109.415 279.73 109.505C279.73 109.531 279.666 109.57 279.627 109.609Z" fill="#3A82DC"/>
<path d="M279.615 77.342C279.615 77.2253 279.615 77.1086 279.602 76.979C279.64 77.0568 279.692 77.1475 279.718 77.2253C279.718 77.2512 279.653 77.2901 279.615 77.329V77.342Z" fill="#3A82DC"/>
<path d="M279.615 113.486C279.615 113.369 279.615 113.252 279.615 113.123C279.653 113.213 279.692 113.291 279.718 113.382C279.718 113.408 279.653 113.447 279.615 113.486Z" fill="#3A82DC"/>
</g>
<g clip-path="url(#clip1_242_19527)">
<path d="M55.1865 101.286C54.0579 102.51 52.9769 103.666 51.9162 104.836C50.5428 106.345 49.2102 107.888 47.8096 109.37C47.3745 109.833 47.1569 110.261 47.1569 110.9C47.1773 116.387 47.1705 121.867 47.1705 127.354C47.1705 128.34 47.0278 128.489 46.0079 128.53C45.3008 128.557 44.5937 128.544 43.8934 128.557C41.7245 128.598 39.5557 128.652 37.3936 128.68C35.9182 128.693 35.6462 128.408 35.6462 126.959C35.6462 106.766 35.6462 86.5666 35.6462 66.3736C35.6462 65.1158 35.7142 65.0478 36.972 65.041C39.712 65.0342 42.452 65.0138 45.1852 65.007C45.4096 65.007 45.6408 64.9934 45.8651 65.007C47.0414 65.075 47.1773 65.211 47.1773 66.394C47.1773 74.8044 47.1773 83.2147 47.1773 91.6251C47.1773 91.8494 47.1773 92.067 47.1773 92.5429C48.1292 91.5027 48.9383 90.612 49.7474 89.7146C50.5496 88.8239 51.3383 87.9196 52.1406 87.0222C54.0035 84.9417 55.8596 82.8612 57.7362 80.7875C58.9192 79.4821 60.1226 78.1971 61.2988 76.8849C63.1686 74.8112 65.0111 72.7103 66.9012 70.6502C68.5466 68.8553 70.2259 67.0875 71.9121 65.3334C72.0752 65.1634 72.388 65.0546 72.6328 65.0546C76.8957 65.041 81.1587 65.0546 85.4217 65.041C86.5095 65.041 86.8019 65.6937 86.3123 66.666C86.02 67.2439 85.5237 67.7334 85.0749 68.2229C83.7151 69.7119 82.3281 71.1737 80.9751 72.6627C79.255 74.5664 77.562 76.4973 75.8419 78.401C74.1217 80.3116 72.3744 82.2017 70.6543 84.1122C69.4372 85.4584 68.2542 86.8318 67.044 88.178C65.8474 89.5106 64.6303 90.8228 63.3997 92.169C64.4468 93.7396 65.4666 95.2965 66.5069 96.8399C71.2934 103.924 76.0867 111.009 80.8663 118.1C82.7905 120.956 84.701 123.825 86.6115 126.687C86.8699 127.075 87.2982 127.49 86.8359 127.932C86.5095 128.238 86.02 128.537 85.5984 128.544C83.3956 128.598 81.1927 128.557 78.9898 128.557C77.494 128.557 75.9983 128.544 74.5025 128.571C73.843 128.584 73.469 128.312 73.0951 127.755C70.2395 123.458 67.3295 119.188 64.44 114.905C61.5096 110.56 58.5792 106.209 55.6489 101.858C55.5129 101.66 55.3497 101.484 55.1865 101.286Z" fill="#3D3A39"/>
<path d="M113.923 99.1447C113.848 95.1673 112.019 92.4341 107.852 91.8562C104.438 91.3803 101.359 92.4137 98.2922 93.5968C96.9664 94.1067 95.7154 94.807 94.4371 95.4257C93.8864 95.6977 93.4989 95.7113 93.1521 95.0721C92.0371 93.0257 90.8677 91.0064 89.6982 88.9803C89.1679 88.0692 89.977 87.6748 90.4597 87.3961C93.8524 85.4652 97.4355 83.9898 101.257 83.1127C104.133 82.4464 107.042 82.1609 109.973 82.3172C113.57 82.5076 117.037 83.2691 119.967 85.5332C122.687 87.6408 124.455 90.4012 125.305 93.7191C126.338 97.7374 126.481 101.83 126.433 105.957C126.365 111.866 126.42 117.774 126.413 123.682C126.413 124.967 126.413 126.252 126.284 127.524C126.243 127.891 125.74 128.238 125.393 128.523C125.25 128.639 124.958 128.591 124.733 128.584C122.388 128.584 120.042 128.53 117.703 128.584C116.738 128.605 116.235 128.204 116.051 127.333C115.881 126.504 115.745 125.668 115.664 124.825C115.602 124.213 115.65 123.594 115.65 122.758C115.12 123.057 114.698 123.227 114.351 123.492C111.809 125.409 109.109 127.061 106.016 127.884C102.161 128.911 98.2922 128.986 94.6411 127.143C90.7861 125.198 88.3452 122.044 87.7265 117.774C86.8903 112.002 88.8892 107.426 94.0224 104.346C97.1975 102.442 100.665 101.382 104.262 100.661C106.342 100.246 108.429 99.8518 110.524 99.5051C111.639 99.3215 112.767 99.2603 113.937 99.1447H113.923ZM114.066 110.791C114.066 109.581 114.045 108.378 114.079 107.168C114.093 106.726 113.95 106.522 113.515 106.576C112.611 106.678 111.707 106.766 110.816 106.916C107.988 107.392 105.234 108.092 102.684 109.472C101.209 110.275 100.08 111.363 99.5024 112.947C98.8973 114.592 99.2304 116.414 100.495 117.672C102.467 119.637 104.901 119.664 107.423 119.079C109.66 118.563 111.475 117.298 113.196 115.863C113.807 115.354 114.161 114.776 114.093 113.912C114.005 112.879 114.073 111.832 114.073 110.791H114.066Z" fill="#3D3A39"/>
<path d="M180.717 123.03C178.636 124.301 176.719 125.627 174.659 126.687C171.524 128.306 168.104 128.87 164.623 128.469C161.333 128.088 158.389 126.721 156.172 124.192C154.398 122.159 153.453 119.719 153.079 117.026C152.643 113.831 153.425 110.955 155.132 108.31C156.607 106.025 158.817 104.543 161.224 103.387C162.624 102.714 164.079 102.096 165.575 101.701C168.111 101.028 170.688 100.498 173.272 99.9946C175.271 99.6071 177.297 99.3487 179.316 99.036C179.554 95.011 177.317 92.441 173.408 91.863C170.164 91.3871 167.18 92.237 164.249 93.4268C162.801 94.0183 161.414 94.739 160.007 95.4325C159.388 95.7385 158.987 95.6297 158.64 95.0246C157.512 93.0665 156.349 91.1219 155.207 89.1706C154.846 88.5587 154.772 88.076 155.56 87.6001C159.062 85.4924 162.835 84.119 166.779 83.0923C170.198 82.2085 173.686 82.2765 177.133 82.4804C180.356 82.6708 183.402 83.7858 185.938 85.8799C188.372 87.8924 189.861 90.5508 190.731 93.556C191.547 96.3708 191.731 99.2603 191.738 102.17C191.738 109.425 191.758 116.686 191.772 123.941C191.772 125.09 191.738 126.246 191.758 127.395C191.765 128.102 191.466 128.53 190.752 128.537C188.039 128.55 185.333 128.564 182.62 128.523C181.777 128.51 181.526 127.993 181.403 126.769C181.281 125.566 181.043 124.376 180.846 123.179C180.832 123.091 180.703 123.023 180.717 123.03ZM179.513 106.746C179.466 106.692 179.411 106.637 179.364 106.583C177.303 106.916 175.223 107.161 173.19 107.603C170.586 108.167 168.159 109.105 166.167 111.016C164.739 112.382 164.399 115.347 165.446 117.115C166.486 118.875 169.797 119.732 171.919 119.317C174.21 118.875 176.277 117.937 178.017 116.401C178.67 115.823 179.615 115.388 179.547 114.252C179.506 113.497 179.513 112.736 179.513 111.974C179.506 110.404 179.5 108.827 179.493 107.256C179.5 107.188 179.506 107.127 179.513 107.059C179.513 106.95 179.513 106.848 179.52 106.739L179.513 106.746Z" fill="#3D3A39"/>
<path d="M146.15 96.7855C146.15 106.964 146.15 117.149 146.15 127.327C146.15 128.36 146.048 128.51 145.028 128.523C141.982 128.557 138.93 128.571 135.884 128.55C134.776 128.544 134.626 128.34 134.626 127.265C134.626 106.936 134.626 86.6006 134.626 66.2716C134.626 65.1362 134.721 65.0478 135.891 65.041C138.658 65.0274 141.425 65.0206 144.192 65.007C144.417 65.007 144.648 64.9934 144.872 65.007C146.007 65.075 146.157 65.2314 146.157 66.3328C146.157 76.4837 146.157 86.6346 146.157 96.7855H146.15Z" fill="#3D3A39"/>
<path d="M12.5978 108.215C12.5978 101.857 12.6114 95.5004 12.5842 89.1433C12.5842 88.4295 12.7814 88.1575 13.5089 88.1575C16.4936 88.1575 19.4852 88.1303 22.47 88.1167C22.7215 88.1167 22.9799 88.1303 23.2247 88.1779C23.8706 88.3003 24.1425 88.6062 24.1425 89.3541C24.1085 102.014 24.1221 114.674 24.1221 127.333C24.1221 128.346 24.0065 128.53 23.0003 128.544C19.8659 128.571 16.7316 128.544 13.5973 128.55C12.8494 128.55 12.5842 128.21 12.5842 127.462C12.6046 121.051 12.5978 114.633 12.5978 108.221V108.215Z" fill="#3D3A39"/>
<path d="M18.2069 79.5567C14.8822 79.9783 10.9048 76.4632 11 72.2954C11.0952 68.2364 14.2907 65.204 17.7378 65.0409C22.701 64.8097 25.5498 68.3996 25.6654 72.2138C25.7946 76.4972 21.9871 79.9307 18.2069 79.5567Z" fill="#3A82DC"/>
</g>
<defs>
<clipPath id="clip0_242_19527">
<rect width="156.43" height="63.6794" fill="white" transform="translate(211.57 65)"/>
</clipPath>
<clipPath id="clip1_242_19527">
<rect width="180.778" height="63.6794" fill="white" transform="translate(11 65)"/>
</clipPath>
</defs>
</svg>
