<svg width="300" height="194" viewBox="0 0 300 194" fill="none" xmlns="http://www.w3.org/2000/svg">
<g clip-path="url(#clip0_242_19527)">
<path d="M209.405 13.8999V129.189L157.487 68.5559L209.405 13.8999Z" fill="black"/>
<path d="M50.321 144.813H41V180.231H50.321V144.813Z" fill="#E22718"/>
<path d="M68.1162 145.15H79.1319L61.5994 162.267L78.454 179.725H66.9295L50.321 162.523L68.1162 145.15Z" fill="#E22718"/>
<path d="M100.155 151.732H117.78V144.986H100.155C90.334 144.986 82.3726 152.914 82.3726 162.695C82.3726 171.149 88.3728 178.424 96.7012 180.066H117.611V173.489H98.2636C94.181 172.779 90.8458 169.845 89.6339 165.899H117.781V159.49H89.6339C91.0486 154.883 95.3185 151.737 100.156 151.737" fill="#E22718"/>
<path fill-rule="evenodd" clip-rule="evenodd" d="M135.421 179.72V167.745H152.538C158.763 168.23 164.202 163.598 164.689 157.399C165.17 151.267 160.62 145.885 154.47 145.313H125.422V179.72H135.421ZM135.421 151.891V161.673H152.537C155.218 159.778 155.848 156.078 153.945 153.408C153.518 152.809 152.984 152.295 152.368 151.891H135.421Z" fill="#E22718"/>
<path fill-rule="evenodd" clip-rule="evenodd" d="M210.6 176.475C210.912 177.569 211.224 178.667 211.536 179.767L211.535 179.766H200.892C200.654 178.332 200.413 176.899 200.167 175.47C199.922 174.042 199.67 172.619 199.122 171.24C198.659 170.071 197.982 168.933 197.032 168.189C196.026 167.401 194.711 167.054 193.397 166.708H180.606V179.766H171.012V144.87H180.606H202.305C206.035 145.391 209.176 147.911 210.48 151.431C212.436 156.709 209.725 162.566 204.425 164.513C205.619 165.488 206.816 166.466 207.623 167.695C208.431 168.924 208.859 170.41 209.278 171.866C209.726 173.422 210.163 174.944 210.6 176.475ZM180.606 151.674V160.563H197.768C200.51 158.454 201.238 154.637 199.462 151.674H180.606Z" fill="#E22718"/>
<path fill-rule="evenodd" clip-rule="evenodd" d="M260 162.59C260 172.758 249.937 181.001 237.523 181.001C225.109 181.001 215.045 172.758 215.045 162.59C215.045 152.422 225.109 144.179 237.523 144.179C249.937 144.179 260 152.422 260 162.59ZM248.9 162.59C248.9 169.458 243.806 175.026 237.523 175.026C231.239 175.026 226.145 169.458 226.145 162.59C226.145 155.722 231.239 150.155 237.523 150.155C243.806 150.155 248.9 155.722 248.9 162.59Z" fill="#E22718"/>
<path d="M178.472 131.62C174.462 129.9 170.45 128.181 166.894 125.731C163.885 123.66 161.202 121.068 158.879 118.234C154.189 112.512 150.971 105.806 147.254 99.3958C144.511 94.6676 141.496 90.1009 137.831 86.0583C135.143 83.0927 132.106 80.4098 128.779 78.1962C126.289 76.5403 123.638 75.146 120.953 73.8055C120.63 73.6439 120.367 73.3824 120.205 73.0602C119.79 72.2352 120.125 71.2312 120.953 70.8168C123.638 69.4763 126.289 68.0829 128.779 66.4261C132.106 64.2125 135.144 61.5286 137.831 58.564C141.496 54.5214 144.51 49.9537 147.254 45.2264C150.972 38.8154 154.19 32.1101 158.879 26.3885C161.201 23.5546 163.885 20.9621 166.894 18.8908C170.45 16.4426 174.462 14.7222 178.472 13.0019H91.1035V131.622V13V131.62H178.472Z" fill="#E22718"/>
</g>
<defs>
<clipPath id="clip0_242_19527">
<rect width="219" height="168" fill="white" transform="translate(41 13)"/>
</clipPath>
</defs>
</svg>
