<svg width="547" height="225" viewBox="0 0 547 225" fill="none" xmlns="http://www.w3.org/2000/svg">
<g clip-path="url(#clip0_156_60)">
<rect x="13" y="75" width="182" height="75" rx="33" fill="url(#paint0_radial_156_60)"/>
<g style="mix-blend-mode:color-burn" opacity="0.53" filter="url(#filter0_f_156_60)">
<path d="M179 103.5C179 117.148 169.68 122 148.091 122C126.502 122 109 111.385 109 103.5C109 95.6148 126.502 85 148.091 85C169.68 85 179 89.8525 179 103.5Z" fill="#5F89A9"/>
</g>
<g style="mix-blend-mode:luminosity" opacity="0.53" filter="url(#filter1_f_156_60)">
<path d="M179 104C179 120.23 167.949 126 142.351 126C116.752 126 96 113.377 96 104C96 94.623 116.752 82 142.351 82C167.949 82 179 87.7705 179 104Z" fill="#71C0FC"/>
</g>
<path d="M41 101.5L46.5 89.9999H83.5L78 101.5H68.5L55 134.5H37.5L52 101.5H41Z" fill="white"/>
<path d="M123 102.5L129 89.9999C108.6 87.5999 96.1667 91.9999 92.5 94.4999C76.5 102.1 76 114 76.5 120C79 132 98 134.667 106.5 134.5L111 121.5C88.6 120.7 92 112.5 96.5 108.5C102.9 100.9 116.833 101.333 123 102.5Z" fill="white"/>
<path d="M166.5 89.9999H143.5L110.5 134L128 134.5L137 121.5H148L146.5 134.5H161L166.5 89.9999Z" fill="white"/>
<path d="M41 101.5L46.5 89.9999H83.5L78 101.5H68.5L55 134.5H37.5L52 101.5H41Z" stroke="#116EAA"/>
<path d="M123 102.5L129 89.9999C108.6 87.5999 96.1667 91.9999 92.5 94.4999C76.5 102.1 76 114 76.5 120C79 132 98 134.667 106.5 134.5L111 121.5C88.6 120.7 92 112.5 96.5 108.5C102.9 100.9 116.833 101.333 123 102.5Z" stroke="#116EAA"/>
<path d="M166.5 89.9999H143.5L110.5 134L128 134.5L137 121.5H148L146.5 134.5H161L166.5 89.9999Z" stroke="#116EAA"/>
<path d="M140.5 116L150.5 102L149 116H140.5Z" fill="#3E7DCA" stroke="#116EAA"/>
<g clip-path="url(#clip1_156_60)">
<path d="M337.095 81.4041C337.57 80.1337 337.817 78.6727 338.601 77.6563C338.931 77.2328 340.994 77.4234 341.241 77.8892C341.757 78.8632 341.571 80.2396 341.674 81.4253C342.231 81.5947 342.788 81.8911 343.345 81.8911C348.646 81.9123 353.927 81.8911 359.228 81.8911C360.156 82.8016 360.651 83.9239 359.64 84.9402C358.918 85.6602 357.804 86.3589 356.856 86.3801C351.74 86.5283 346.625 86.4436 341.179 86.4436C341.035 87.947 340.89 89.4292 340.746 90.9325C340.89 90.9749 341.035 91.0172 341.179 91.0807C345.14 91.0807 349.1 91.0807 353.06 91.0807C353.225 91.1866 353.39 91.2925 353.555 91.3984C355.618 91.8218 356.773 93.1135 356.567 95.2521C356.196 98.9999 355.659 102.727 355.164 106.474C354.958 108.084 354.566 109.651 354.422 111.26C354.009 115.812 353.267 117.062 348.935 117.824C346.563 118.247 344.026 117.93 341.612 117.591C340.932 117.485 339.818 115.855 340.004 115.304C340.292 114.394 341.406 113.398 342.334 113.187C343.799 112.848 345.387 113.144 346.934 113.102C348.316 113.081 349.492 112.721 349.698 110.963C350.255 106.072 350.874 101.181 351.493 96.0779H339.983C339.529 99.5716 339.034 103.192 338.58 106.834C338.106 110.582 337.776 114.351 337.136 118.057C336.971 119.031 336.023 120.174 335.156 120.619C333.424 121.508 332.248 120.661 332.413 118.65C332.681 115.198 333.197 111.768 333.609 108.338C334.104 104.272 334.599 100.186 335.115 95.9296C331.773 95.9296 328.638 95.8238 325.503 96.0143C324.843 96.0567 323.791 97.1577 323.688 97.8988C322.821 103.722 322.182 109.587 321.357 115.431C321.233 116.32 320.635 117.358 319.934 117.908C319.377 118.353 318.222 118.48 317.562 118.205C317.025 117.972 316.51 116.892 316.571 116.236C316.798 113.081 317.211 109.947 317.582 106.792C317.974 103.425 318.366 100.059 318.758 96.6919C319.026 94.2992 319.913 92.33 322.264 91.4195C322.574 91.3137 322.863 91.2078 323.172 91.1019C323.585 91.1019 324.018 91.0807 324.43 91.0596C327.957 91.1866 331.505 91.3137 335.032 91.3984C335.301 91.3984 335.589 91.0807 335.858 90.8902C336.002 89.5562 336.167 88.2222 336.311 86.8883C336.167 86.7612 336.023 86.6342 335.899 86.5071C330.928 86.4859 325.936 86.4648 320.965 86.4224C319.851 86.4224 318.469 86.6765 318.325 84.9614C318.18 83.3733 318.49 81.9547 320.449 81.7853C325.73 81.8276 331.031 81.8911 336.311 81.8911C336.579 81.8911 336.848 81.5524 337.116 81.3618L337.095 81.4041Z" fill="#080707"/>
<path d="M419.953 119.01C418.385 118.057 417.993 116.956 418.509 114.966C419.21 112.298 419.231 109.439 419.582 106.665C419.87 104.4 420.077 102.134 420.572 99.9107C421.026 97.878 422.511 97.1792 424.532 97.2639C426.203 97.3274 428.266 97.9627 428.781 95.1677C428.451 95.2947 428.204 95.4006 427.956 95.4853C427.791 95.5911 427.647 95.697 427.482 95.8029C426.884 95.8029 426.285 95.8029 425.708 95.8029C425.563 95.697 425.419 95.5911 425.275 95.4853C425.151 95.337 425.027 95.1888 424.903 95.0194C423.996 93.0714 423.088 91.1446 422.201 89.1965C421.5 87.6508 421.603 86.2745 422.676 84.8558C423.955 83.1619 425.007 81.2774 426.182 79.4987C426.512 79.0117 426.904 78.3342 427.358 78.2283C428.183 78.0589 429.256 78.0165 429.895 78.44C430.308 78.7153 430.473 80.0493 430.205 80.6422C429.544 82.082 428.658 83.4795 427.647 84.7076C426.265 86.4015 426.059 87.9261 427.337 89.8106C428.162 91.0175 428.575 92.5209 429.153 93.8549C430.287 93.6219 431.648 93.3678 433.134 93.0714C432.659 92.1186 432.247 90.7634 431.442 89.7259C429.978 87.8202 430.576 86.0839 431.566 84.3688C432.494 82.7172 433.525 81.108 434.577 79.5411C434.969 78.9482 435.526 78.1436 436.104 78.0377C436.949 77.8895 438.125 78.0377 438.682 78.5671C439.074 78.9694 438.95 80.3457 438.6 81.0233C437.919 82.3784 436.991 83.6489 436.001 84.7923C434.969 85.9992 434.619 87.0156 435.671 88.4766C436.599 89.7682 437.156 91.314 437.857 92.7538C438.496 94.1089 437.981 95.21 436.764 95.6123C435.898 95.9088 434.846 95.5488 433.855 95.4853C433.835 95.2735 433.814 95.0406 433.794 94.8289C433.567 95.3582 433.34 95.8876 433.113 96.3958C433.113 96.7134 433.113 97.0098 433.113 97.3274C436.661 97.3698 440.208 97.3909 443.756 97.4333C444.024 97.5603 444.293 97.6662 444.561 97.7933C445.015 98.7037 445.963 99.6778 445.86 100.504C445.303 105.479 444.293 110.392 443.859 115.368C443.653 117.761 442.127 118.353 440.683 119.349C440.002 119.222 439.301 118.989 438.62 118.989C434.557 118.967 430.493 118.967 426.43 119.01C424.862 119.01 423.295 119.2 421.706 119.306C421.438 119.306 421.17 119.306 420.881 119.285C420.572 119.179 420.262 119.095 419.953 118.989V119.01ZM438.93 114.923C439.363 114.33 439.775 113.716 440.208 113.123L439.507 112.763C439.301 113.483 439.115 114.182 438.909 114.902C438.373 114.987 437.816 115.071 437.279 115.135C437.403 115.389 437.527 115.664 437.651 115.918C438.084 115.58 438.517 115.241 438.93 114.902V114.923ZM440.25 101.266C438.393 101.16 436.537 100.948 434.681 100.948C431.669 100.969 428.658 101.139 425.646 101.245C425.233 101.689 424.512 102.092 424.45 102.6C424.058 105.479 423.81 108.38 423.521 111.281C423.377 111.599 423.212 111.916 423.068 112.213C423.191 112.298 423.315 112.403 423.46 112.488C423.769 112.128 424.078 111.768 424.367 111.408C425.997 110.498 427.647 109.587 429.586 108.529C428.369 107.618 427.482 106.941 426.574 106.263C426.409 106.136 426.244 106.03 426.059 105.903C425.914 104.929 425.44 103.828 425.708 103.002C425.873 102.473 427.131 102.303 427.894 101.965C428.059 102.049 428.224 102.155 428.369 102.24C429.379 102.896 430.39 103.553 431.401 104.209C431.545 104.315 431.69 104.421 431.834 104.527C432.35 104.844 432.886 105.162 433.278 105.395C434.35 104.59 435.279 103.891 436.186 103.193C436.351 103.044 436.516 102.896 436.661 102.748C437.094 102.43 437.527 102.113 437.94 101.816C438.27 101.816 438.6 101.816 438.909 101.816C440.807 102.43 440.477 103.637 439.652 104.887C438.765 106.242 437.816 107.533 436.888 108.846C436.681 108.613 436.496 108.38 436.289 108.147C437.383 109.291 438.476 110.434 439.817 111.853C440.25 108.465 440.683 105.247 441.034 102.028C441.054 101.816 440.497 101.541 440.188 101.287L440.25 101.266ZM432.432 111.345C429.359 112.954 426.987 115.94 424.615 115.114H436.475C435.176 113.907 433.814 112.636 432.432 111.345Z" fill="#080707"/>
<path d="M396.851 112.022C397.14 111.937 397.408 111.81 397.697 111.747C398.522 111.556 399.491 111.069 400.131 111.345C400.646 111.577 401.121 112.763 401.038 113.483C400.605 117.549 398.088 119.962 394.499 119.941C391.323 119.941 388.146 120.28 384.97 120.301C383.464 120.301 381.938 120.09 380.473 119.751C378.225 119.243 377.359 117.718 377.194 114.478C377.008 114.33 376.802 114.034 376.616 114.034C372.862 114.034 369.108 114.097 365.354 114.118C362.899 113.547 362.177 111.959 362.775 108.825C363.167 106.729 363.394 104.611 363.621 102.473C363.807 100.779 364.529 99.5505 366.179 99C376.368 99 386.558 99 396.727 99C398.295 99.3388 398.583 100.546 398.398 101.901C397.944 105.289 397.408 108.655 396.892 112.043C395.943 112.721 394.974 113.398 394.004 114.076C393.117 114.076 392.21 114.097 391.323 114.118C389.425 114.118 387.528 114.118 385.63 114.097C384.743 114.097 383.856 114.097 382.948 114.097C382.722 114.351 382.515 114.605 382.288 114.859C382.907 115.177 383.526 115.749 384.165 115.77C386.867 115.876 389.57 115.982 392.251 115.77C396.273 115.452 396.727 114.944 396.81 112.001L396.851 112.022ZM387.858 110.286H388.703C390.023 110.18 391.364 110.053 392.684 109.947C393.592 108.91 393.179 108.571 392.024 108.592C389.033 108.634 386.022 108.655 383.031 108.698C382.866 109.206 382.701 109.735 382.515 110.307H387.858V110.286ZM367.788 103.785C367.932 104.039 368.097 104.272 368.241 104.526C371.232 104.526 374.244 104.484 377.235 104.526C378.576 104.548 378.885 104.018 378.349 102.705C375.44 102.705 372.511 102.642 369.603 102.748C368.984 102.769 368.386 103.404 367.788 103.764V103.785ZM367.746 108.655C367.581 108.888 367.437 109.1 367.272 109.333C367.767 109.693 368.242 110.328 368.737 110.349C371.645 110.455 374.553 110.392 377.524 110.392C377.668 109.756 377.792 109.206 377.915 108.655H367.746ZM393.757 103.298C393.612 103.108 393.489 102.917 393.344 102.727C390.436 102.727 387.507 102.663 384.599 102.79C384.124 102.79 383.691 103.574 383.237 103.997C386.537 104.526 389.446 104.59 392.375 104.484C392.849 104.484 393.282 103.722 393.757 103.298Z" fill="#080707"/>
<path d="M414.26 105.945H410.65C409.619 109.778 408.691 113.589 407.515 117.337C407.164 118.417 406.236 119.475 405.287 120.132C404.813 120.471 403.472 120.195 402.998 119.708C402.564 119.264 402.523 118.078 402.771 117.379C404.689 111.832 406.236 106.242 406.793 100.355C407.35 94.511 408.175 88.6881 408.959 82.8652C409.33 80.0914 411.021 78.7574 413.827 78.7786C415.291 78.7786 416.756 78.7786 418.22 78.7786C420.654 78.7786 421.768 80.4513 421.397 82.9711C420.799 86.9095 420.448 90.869 419.953 94.8286C419.437 98.8517 418.86 102.854 418.323 106.877C417.973 109.651 417.643 112.446 417.333 115.241C417.044 117.93 415.704 121.042 411.908 120.407C411.413 120.322 410.877 120.365 410.361 120.407C409.124 120.492 407.948 120.555 407.989 118.713C408.031 117.104 408.567 115.812 410.299 115.939C412.878 116.109 413.29 114.711 413.352 112.509C413.414 110.392 413.889 108.295 414.198 106.009L414.26 105.945ZM412.342 90.0644C413.538 90.0644 414.363 90.1703 415.126 90.0221C415.601 89.9374 416.343 89.5139 416.405 89.1539C416.694 87.2271 416.776 85.279 416.941 83.3522H413.414C413.063 85.5331 412.733 87.6506 412.342 90.0644ZM411.104 101.371C412.733 100.842 414.61 100.779 414.92 100.037C415.58 98.4494 415.415 96.5014 415.601 94.5745C414.487 94.5745 413.579 94.4687 412.754 94.6169C412.321 94.7016 411.723 95.2521 411.661 95.6544C411.413 97.306 411.331 98.9788 411.125 101.35L411.104 101.371Z" fill="#080707"/>
<path d="M232.435 119.052C229.753 118.459 229.052 117.464 229.423 114.013C229.856 110.011 230.599 106.051 231.073 102.049C231.341 99.7201 232.455 98.3226 234.662 97.8145C234.807 97.8145 234.972 97.8145 235.116 97.8145C244.213 97.8145 253.309 97.8145 262.405 97.8145C262.57 97.9203 262.735 98.0474 262.9 98.1532C264.901 98.7461 265.479 100.165 265.066 102.727C264.53 105.988 264.138 109.291 263.767 112.594C263.272 116.977 262.715 119.137 257.084 119.052C249.039 118.946 240.974 119.052 232.93 119.073C232.785 119.073 232.62 119.073 232.476 119.052H232.435ZM257.599 114.076C258.012 113.42 258.651 112.827 258.816 112.107C259.229 110.201 259.621 108.253 259.683 106.326C259.724 105.098 260.632 103.489 258.899 102.6C258.486 102.494 258.094 102.282 257.682 102.282C251.061 102.282 244.439 102.282 237.839 102.282C237.365 102.282 236.89 102.515 236.416 102.642C236.148 102.96 235.694 103.256 235.652 103.616C235.281 106.475 234.951 109.312 234.683 112.192C234.621 112.785 234.972 113.399 235.137 113.992C235.384 114.119 235.652 114.373 235.9 114.373C243.037 114.373 250.174 114.373 257.311 114.352C257.414 114.352 257.517 114.182 257.641 114.076H257.599Z" fill="#080707"/>
<path d="M299.389 91.1656C302.112 89.2599 304.381 87.7142 306.567 86.105C307.558 85.3639 308.321 84.157 309.393 83.7546C310.59 83.2888 312.405 82.9077 313.271 83.5006C314.756 84.5381 313.725 86.2109 312.652 87.0578C308.135 90.5939 303.535 93.9818 298.606 97.6661C298.049 101.329 297.306 105.67 296.749 110.032C296.357 113.144 297.306 114.965 300.544 115.029C305.784 115.135 306.134 113.144 307.248 108.105C307.434 107.3 307.846 106.348 308.465 105.945C309.043 105.564 310.095 105.585 310.796 105.839C311.229 106.009 311.683 106.983 311.621 107.533C311.312 110.201 311.167 112.975 310.28 115.474C309.352 118.142 306.65 119.306 304.154 119.751C301.535 120.217 298.729 120.026 296.048 119.751C293.779 119.497 291.757 116.956 291.902 114.521C292.149 110.476 292.686 106.453 293.139 102.409C293.573 98.4495 294.006 94.5111 294.48 90.5727C294.934 86.8461 295.285 83.1194 295.945 79.4351C296.233 77.7623 297.698 77.2753 299.348 77.4236C301.205 77.5718 300.709 78.9693 300.606 79.9433C300.276 82.9924 299.781 86.0415 299.348 89.0905C299.286 89.514 299.348 89.9799 299.348 91.208L299.389 91.1656Z" fill="#0A0A0A"/>
<path d="M531.358 89.0483C534.143 89.4718 533.648 91.6739 533.503 93.5161C533.38 95.2524 532.823 96.9675 532.699 98.7038C532.555 100.567 531.668 101.689 530.059 102.346C519.766 102.346 509.473 102.346 499.18 102.325C496.973 101.753 497.407 99.8895 497.489 98.3862C497.613 96.2899 497.963 94.1937 498.397 92.1398C498.582 91.2716 499.222 90.4882 499.655 89.6624C500.872 89.493 502.068 89.1966 503.285 89.1754C512.65 89.1119 521.994 89.0907 531.358 89.0483ZM523.829 98.6614C525.005 98.6614 526.037 98.7461 527.047 98.6191C527.604 98.5556 528.491 98.1956 528.594 97.8145C528.924 96.3746 529.007 94.8501 529.172 93.3044H526.738C525.686 95.2312 524.84 96.7981 523.829 98.6614ZM513.124 98.5556C513.351 96.6499 513.537 95.0195 513.722 93.2832H509.865V98.5556H513.124ZM504.688 93.0714C504.131 93.262 502.666 93.3679 502.481 93.9396C502.027 95.2312 502.192 96.7769 502.109 98.1956H506.317C505.76 96.4381 505.307 94.9983 504.708 93.0714H504.688ZM522.386 93.5373C521.107 93.2197 520.282 92.8809 519.436 92.8597C518.941 92.8597 518.075 93.2408 517.992 93.6008C517.621 95.2312 517.497 96.904 517.27 98.5767L517.951 98.9155C519.374 97.1792 520.797 95.4641 522.386 93.5584V93.5373Z" fill="#080707"/>
<path d="M504.069 103.722C511.103 103.722 518.157 103.722 525.191 103.722C525.335 103.722 525.5 103.722 525.644 103.722C526.222 103.722 526.82 103.722 527.398 103.722C527.583 103.828 527.769 103.912 527.955 104.018C530.306 105.458 529.027 107.766 529.068 109.65C529.11 111.683 528.635 113.737 528.285 115.77C527.996 117.379 527.398 118.84 525.706 119.475C525.541 119.56 525.356 119.666 525.191 119.751C516.981 119.751 508.751 119.793 500.542 119.793C500.273 119.666 499.985 119.539 499.717 119.412C499.263 118.353 498.355 117.273 498.417 116.278C498.644 113.017 499.118 109.735 499.778 106.517C499.964 105.585 501.099 104.865 501.779 104.039C501.944 103.955 502.13 103.849 502.295 103.764C502.728 103.764 503.161 103.722 503.615 103.722C503.759 103.722 503.924 103.722 504.069 103.722ZM523.85 114.055C523.417 113.885 522.984 113.547 522.55 113.547C516.631 113.504 510.711 113.525 504.791 113.547C504.399 113.547 503.986 113.779 503.594 113.906C503.429 114.478 503.285 115.05 503.058 115.833C509.659 115.833 515.95 115.833 522.22 115.833C523.479 115.833 523.932 115.24 523.85 114.034V114.055ZM523.85 107.808C517.538 107.808 511.247 107.808 504.935 107.808C504.667 108.084 504.399 108.338 504.131 108.613C504.131 108.909 504.11 109.206 504.089 109.502C504.213 109.629 504.358 109.756 504.481 109.883H524.221V108.147C524.097 108.02 523.974 107.914 523.85 107.787V107.808Z" fill="#080707"/>
<path d="M385.279 88.7092C384.97 91.2925 384.743 93.8969 384.248 96.459C384.124 97.1366 383.175 97.6448 382.598 98.2165C382.123 98.2165 381.649 98.2165 381.174 98.2165C379.174 97.5389 379.937 95.7814 379.978 94.4898C380.04 92.5418 380.453 90.6361 380.721 88.6881C380.597 88.5822 380.473 88.4551 380.349 88.3493C376.987 88.3493 373.604 88.3493 370.242 88.3493C370.098 88.3493 369.933 88.3493 369.788 88.3493C369.5 88.3493 369.211 88.3493 368.922 88.3493C368.736 88.434 368.551 88.5187 368.365 88.6245C367.973 89.7044 367.581 90.7631 367.21 91.843C366.859 92.8594 366.756 94.0875 366.096 94.8074C365.601 95.3579 364.384 95.4426 363.559 95.3156C363.209 95.2732 362.755 94.151 362.775 93.537C362.899 90.7208 362.383 87.6717 364.817 85.4908C365.312 85.0461 366.055 84.8555 366.674 84.5379C371.315 84.5803 375.935 84.6438 380.576 84.6438C380.906 84.6438 381.257 84.305 381.587 84.1144C381.587 83.8392 381.587 83.5851 381.587 83.3098C381.339 83.1404 381.071 82.844 380.824 82.844C377.297 82.844 373.749 82.9075 370.222 82.9287C369.788 82.9287 369.376 82.9287 368.943 82.9287C368.633 82.9287 368.324 82.8863 368.015 82.8652C366.241 81.7006 366.241 80.7266 368.015 79.202C378.905 79.202 389.776 79.1808 400.667 79.1597C401.801 81.0653 401.574 81.7217 399.285 82.971C398.253 82.971 397.222 82.971 396.191 82.9499C392.973 82.9499 389.735 82.9499 386.517 82.971C386.414 83.0769 386.29 83.1616 386.187 83.2675C386.166 83.5639 386.125 83.8392 386.104 84.1356C386.372 84.2838 386.661 84.5803 386.929 84.5803C391.797 84.5803 396.665 84.5379 401.512 84.5167C403.534 84.8979 403.658 86.7189 403.575 88.1164C403.472 90.022 402.998 92.0124 402.193 93.7275C401.801 94.5533 400.151 95.4426 399.367 95.2097C398.088 94.8498 397.531 93.6005 398.336 91.9701C398.81 91.0172 398.707 89.7679 398.852 88.6457C398.542 88.5398 398.233 88.434 397.923 88.3281C397.346 88.3281 396.768 88.3281 396.191 88.3281C393.241 88.3281 390.291 88.3069 387.362 88.2858C386.785 88.2858 386.207 88.2858 385.63 88.2858C385.506 88.4128 385.382 88.5398 385.259 88.6669L385.279 88.7092Z" fill="#080707"/>
<path d="M459.783 113.674C466.487 112.996 473.129 112.34 480.224 111.641C478.904 109.142 477.708 106.834 476.491 104.548C476.161 103.912 475.831 103.235 475.418 102.663C474.469 101.308 475.047 99.8893 476.037 99.4023C476.903 98.9788 478.595 99.2541 479.337 99.9105C480.451 100.863 481.132 102.409 481.854 103.764C483.628 107.173 485.402 110.582 487.01 114.055C487.526 115.156 487.794 116.511 487.691 117.697C487.629 118.48 486.866 119.56 486.165 119.835C485.072 120.259 483.751 120.026 483.421 118.48C482.823 115.812 481.462 115.706 479.007 116.172C473.933 117.146 468.715 117.506 463.578 118.078C459.206 118.565 454.812 118.988 450.439 119.475C449.202 119.602 448.046 119.285 448.232 117.866C448.377 116.829 449.263 115.855 449.882 114.923C450.047 114.669 450.542 114.478 450.831 114.542C453.492 115.071 454.688 113.398 455.843 111.366C458.834 106.072 461.949 100.842 465.002 95.5909C465.414 94.8922 465.662 93.9182 466.26 93.5582C467.106 93.0712 468.261 92.7959 469.21 92.923C469.601 92.9865 470.262 94.4475 470.076 95.0192C469.395 97.0943 468.57 99.1905 467.477 101.075C465.064 105.268 462.444 109.354 459.783 113.695V113.674Z" fill="#0A0A0A"/>
<path d="M286.106 86.3801C286.415 83.9662 286.704 81.5735 287.034 79.1597C287.364 76.9999 289.117 77.1058 290.375 77.5504C291.056 77.7833 291.778 79.3926 291.695 80.2819C291.159 85.6178 290.396 90.9325 289.674 96.2472C288.973 101.35 288.23 106.474 287.529 111.577C287.219 113.843 286.951 116.109 286.621 118.353C286.312 120.365 285.012 121.275 283.218 120.682C281.712 120.174 281.671 118.904 282.083 117.273C282.682 114.817 282.743 112.213 283.073 109.333C280.805 110.54 278.762 111.641 276.7 112.742C275.627 113.314 274.575 113.991 273.441 114.394C272.554 114.69 271.481 115.537 270.718 113.928C270.058 112.551 270.244 111.387 271.357 110.603C272.739 109.629 274.307 108.931 275.792 108.084C277.937 106.856 279.959 105.395 282.207 104.399C284.332 103.446 283.919 101.583 284.229 99.9739C284.703 97.3695 285.033 94.7439 285.466 91.8854C282.352 91.8854 279.361 92.0336 276.39 91.8007C275.38 91.716 273.75 90.7843 273.626 90.022C273.461 89.0904 274.596 87.9258 275.153 86.8671C278.412 86.8671 281.65 86.9094 284.909 86.8671C285.342 86.8671 285.755 86.5495 286.167 86.3589L286.106 86.3801Z" fill="#080707"/>
<path d="M259.765 88.2013C258.693 87.2061 257.641 86.2109 256.568 85.2369C255.165 83.9665 254.712 82.5266 256.052 80.9597C257.558 79.2023 258.94 80.1551 260.075 81.4679C263.251 85.1099 266.386 88.773 269.439 92.5208C270.636 94.003 270.285 95.7181 268.862 96.6921C267.315 97.7509 266.139 97.285 265.396 95.6546C263.746 92.055 260.611 93.2831 257.971 93.3043C255.702 93.3043 253.433 93.9395 251.143 94.1089C246.007 94.49 240.871 94.7229 235.735 95.0406C234.002 95.1464 232.29 95.337 230.558 95.5276C229.052 95.697 228.248 94.9982 228.021 93.4737C227.794 91.8856 228.825 90.6787 229.918 90.721C232.847 90.8692 234.106 88.646 235.611 86.952C237.798 84.4958 239.634 81.7432 241.676 79.1387C242.191 78.4612 242.851 77.593 243.553 77.466C244.44 77.2966 246.11 77.593 246.255 78.08C246.543 79.0752 246.399 80.5574 245.822 81.3832C244.027 83.9665 241.944 86.338 239.984 88.7942C239.778 89.0694 239.592 89.3447 239.035 90.1281C246.172 89.6623 252.793 89.2388 259.435 88.8153L259.745 88.1801L259.765 88.2013Z" fill="#0A0A0A"/>
<path d="M521.643 87.9046C517.827 87.9046 514.011 87.9046 510.216 87.7987C509.308 87.7775 508.421 87.2482 507.534 86.9306C507.534 86.74 507.555 86.5283 507.576 86.3377C505.678 86.9941 503.801 87.6505 501.903 88.3281C501.161 88.5822 500.397 88.8363 499.655 89.1115C499.139 89.1115 498.624 89.175 498.108 89.1539C497.076 89.1327 495.86 89.5985 495.674 87.7775C495.509 86.1048 496.128 85.1519 497.633 84.6226C501.883 83.1616 506.152 81.7429 510.36 80.176C511.907 79.6043 513.351 78.715 514.816 77.9315C516.631 76.9575 518.487 76.5129 520.323 77.6563C525.17 80.7054 530.306 82.9287 535.855 84.2415C537.154 84.5379 538.351 85.2366 537.918 87.0153C537.526 88.5822 535.772 89.5774 534.143 89.0268C531.379 88.0952 528.656 87.0153 526.49 86.2107C525.067 86.8882 524.036 87.3752 523.004 87.8834C522.551 87.8834 522.097 87.8834 521.643 87.8834V87.9046ZM513.805 83.6062H520.653C518.508 82.2793 516.225 82.2793 513.805 83.6062Z" fill="#080707"/>
<path d="M480.307 78.6729C480.596 78.6729 480.864 78.6729 481.153 78.6729C481.462 78.6729 481.771 78.6729 482.081 78.694C484.185 79.1175 484.329 81.0867 484.659 82.6113C485.752 87.6507 487.279 92.3726 491.115 96.0569C492.394 97.2638 492.209 99.0848 491.033 100.249C489.816 101.456 488.289 101.35 486.99 99.9741C483.277 96.0145 481.359 91.1868 480.307 85.9144C480.163 85.1522 479.771 84.4322 479.482 83.7123C479.172 83.5853 478.863 83.3524 478.554 83.3524C474.428 83.3524 470.303 83.3735 466.178 83.3947C465.022 83.0347 464.156 82.3148 464.507 80.9808C464.899 79.4986 465.889 78.5882 467.518 78.7152C471.788 78.7152 476.058 78.7152 480.328 78.7152L480.307 78.6729Z" fill="#080707"/>
<path d="M449.47 98.3861C449.594 98.1956 449.882 97.6239 450.295 97.1792C453.905 93.4314 457.638 89.8318 459.742 84.8346C460.402 83.2889 461.99 82.696 463.455 83.5218C464.816 84.2841 464.631 85.9145 463.867 87.0156C461.042 91.1869 458.113 95.2947 455.122 99.3601C454.544 100.144 453.554 100.715 452.626 101.118C450.934 101.88 449.408 100.736 449.449 98.3861H449.47Z" fill="#0D0E0E"/>
<path d="M439.198 86.507C439.445 85.9353 439.713 85.0037 440.208 84.1991C441.322 82.3781 442.395 80.4936 443.777 78.9267C444.313 78.3126 445.757 78.1432 446.665 78.355C448.191 78.7149 447.882 80.0277 447.263 81.0441C446.52 82.2934 445.757 83.585 444.746 84.6014C443.261 86.0624 443.839 87.1634 444.684 88.6456C445.633 90.2972 446.273 92.1817 446.727 94.0451C446.83 94.4897 445.84 95.5061 445.18 95.8025C444.684 96.0143 443.55 95.6543 443.282 95.2096C441.859 92.7958 440.621 90.2761 439.342 87.7775C439.218 87.5234 439.26 87.1846 439.198 86.507Z" fill="#0D0E0E"/>
<path d="M396.645 94.0451C396.934 94.8709 397.594 95.8026 397.387 96.4801C397.222 97.0518 396.088 97.6235 395.345 97.6659C392.788 97.8141 390.23 97.7294 387.672 97.7082C386.641 97.7082 385.548 97.7929 385.589 96.1837C385.63 94.638 386.476 94.0874 387.837 94.0874C390.395 94.0874 392.953 94.0451 395.51 94.0239C395.902 94.0239 396.273 94.0239 396.665 94.0239L396.645 94.0451Z" fill="#0A0A0A"/>
<path d="M369.376 97.7294C368.922 97.7294 368.489 97.7294 368.035 97.7505C367.87 97.6447 367.726 97.5388 367.561 97.4329C366.756 94.892 367.231 94.1297 369.727 94.1297C372.119 94.1297 374.512 94.0662 376.905 94.1721C377.606 94.1933 378.905 94.6803 378.885 94.8708C378.802 95.8025 378.41 96.713 378.101 97.6235C377.977 97.9834 377.75 98.2799 377.565 98.6187L377.544 98.661C377.193 98.3646 376.843 97.8352 376.472 97.8141C374.388 97.7294 372.305 97.7505 370.222 97.7294C369.953 97.7294 369.665 97.7294 369.397 97.7294H369.376Z" fill="#0D0E0E"/>
<path d="M396.211 89.5352C396.81 90.0222 397.387 90.488 397.985 90.975C397.325 91.7161 396.706 93.0501 395.985 93.1136C393.221 93.3677 390.415 93.283 387.651 93.1559C387.115 93.1348 386.146 92.2455 386.207 91.8855C386.331 91.0597 386.95 90.3186 387.383 89.5352C390.333 89.5352 393.262 89.5352 396.211 89.5352Z" fill="#080707"/>
<path d="M379.256 89.6199C379.937 92.2878 379.297 93.1771 376.802 93.2195C374.533 93.2618 372.264 93.1983 369.974 93.2407C368.778 93.2618 367.932 93.0077 367.994 91.5679C368.035 90.1704 368.736 89.5775 370.098 89.5987C373.109 89.641 376.1 89.5987 379.236 89.5987L379.256 89.6199Z" fill="#080707"/>
<path d="M377.544 98.6613L377.565 98.619C378.761 98.4919 379.978 98.3649 381.175 98.2379C381.649 98.2379 382.123 98.2379 382.598 98.2379C383.629 98.3861 384.64 98.5978 385.671 98.6402C389.363 98.8096 393.056 98.8943 396.748 99.0213C386.558 99.0213 376.368 99.0213 366.199 99.0213C367.169 98.8943 368.138 98.7884 369.067 98.5766C369.232 98.5343 369.273 98.0049 369.376 97.7085C369.644 97.7085 369.933 97.7085 370.201 97.7085C370.469 98.0049 370.737 98.5766 371.026 98.5766C373.192 98.6613 375.358 98.619 377.524 98.619L377.544 98.6613Z" fill="#5D5D5D"/>
<path d="M499.634 89.1116C500.377 88.8575 501.14 88.6034 501.882 88.3281C502.646 88.4552 503.429 88.6669 504.193 88.6669C512.547 88.6881 520.9 88.6669 529.254 88.7093C529.956 88.7093 530.657 88.921 531.358 89.048C521.994 89.0904 512.65 89.0904 503.285 89.1751C502.068 89.1751 500.872 89.4927 499.655 89.6621C499.655 89.4927 499.634 89.3021 499.614 89.1327L499.634 89.1116Z" fill="#C0C0C0"/>
<path d="M400.667 79.181C389.776 79.181 378.906 79.2022 368.015 79.2233C368.551 79.0751 369.087 78.7998 369.624 78.7998C379.442 78.7787 389.24 78.7575 399.058 78.7998C399.594 78.7998 400.131 79.0751 400.667 79.2022V79.181Z" fill="#5D5D5D"/>
<path d="M499.18 102.324C509.473 102.324 519.766 102.324 530.059 102.346C529.44 102.473 528.8 102.684 528.182 102.684C519.126 102.706 510.092 102.706 501.037 102.684C500.418 102.684 499.799 102.43 499.16 102.303L499.18 102.324Z" fill="#9B9B9C"/>
<path d="M396.212 89.5352C393.262 89.5352 390.333 89.5352 387.383 89.5352C387.383 89.1329 387.383 88.7306 387.383 88.3071C390.333 88.3071 393.283 88.3283 396.212 88.3495C396.212 88.7306 396.212 89.1329 396.212 89.5141V89.5352Z" fill="#E1E1E0"/>
<path d="M421.706 119.327C423.274 119.221 424.842 119.052 426.43 119.031C430.493 118.988 434.557 118.988 438.62 119.01C439.301 119.01 440.002 119.242 440.683 119.369C434.351 119.369 428.039 119.348 421.706 119.327Z" fill="#5D5D5D"/>
<path d="M401.533 84.5379C396.665 84.559 391.797 84.6014 386.95 84.6014C386.682 84.6014 386.393 84.305 386.125 84.1567C390.498 84.1567 394.871 84.1567 399.244 84.1991C400.007 84.1991 400.77 84.4108 401.554 84.5379H401.533Z" fill="#9B9B9C"/>
<path d="M381.587 84.1357C381.257 84.3263 380.906 84.6651 380.576 84.6651C375.935 84.6651 371.315 84.6016 366.674 84.5592C368.819 84.4534 370.964 84.3051 373.109 84.2628C375.935 84.1993 378.761 84.1993 381.587 84.1569V84.1357Z" fill="#9B9B9C"/>
<path d="M466.157 83.3523C470.282 83.3311 474.408 83.2888 478.533 83.31C478.842 83.31 479.152 83.5429 479.461 83.6699C475.027 83.5641 470.592 83.4582 466.157 83.3523Z" fill="#9B9B9C"/>
<path d="M365.375 114.139C369.129 114.097 372.883 114.055 376.637 114.055C376.822 114.055 377.029 114.351 377.214 114.499C373.955 114.499 370.696 114.499 367.458 114.478C366.757 114.478 366.076 114.266 365.375 114.161V114.139Z" fill="#C0C0C0"/>
<path d="M370.201 82.9499C373.728 82.9076 377.276 82.8652 380.803 82.8652C381.051 82.8652 381.319 83.1617 381.566 83.3311C378.472 83.3311 375.358 83.3311 372.264 83.2887C371.562 83.2887 370.882 83.077 370.18 82.9711L370.201 82.9499Z" fill="#C0C0C0"/>
<path d="M335.857 90.9116C335.589 91.081 335.3 91.4198 335.032 91.4198C331.505 91.3351 327.957 91.2081 324.43 91.081C328.246 91.0175 332.041 90.9751 335.857 90.9116Z" fill="#5D5D5D"/>
<path d="M286.106 86.3804C285.693 86.5498 285.26 86.8674 284.848 86.8886C281.589 86.9097 278.35 86.8886 275.091 86.8886C277.381 86.7403 279.67 86.5921 281.96 86.4862C283.342 86.4227 284.724 86.4439 286.106 86.4015V86.3804Z" fill="#5D5D5D"/>
<path d="M396.211 82.9712C397.243 82.9712 398.274 82.9712 399.305 82.9924C398.274 82.9924 397.243 82.9924 396.211 82.9712Z" fill="#E1E1E0"/>
<path d="M368.015 82.8862C368.324 82.8862 368.633 82.9286 368.943 82.9498C368.633 82.9498 368.324 82.9074 368.015 82.8862Z" fill="#C0C0C0"/>
<path d="M232.435 119.052C232.579 119.052 232.744 119.052 232.888 119.073C232.806 119.242 232.723 119.433 232.641 119.602C232.558 119.412 232.497 119.221 232.414 119.052H232.435Z" fill="#E1E1E0"/>
<path d="M482.06 78.694C481.751 78.694 481.441 78.694 481.132 78.6729C481.441 78.6729 481.751 78.6729 482.06 78.694Z" fill="#C0C0C0"/>
<path d="M367.561 97.4541C367.726 97.56 367.87 97.6658 368.035 97.7717C367.932 97.8352 367.85 97.8988 367.746 97.9623C367.685 97.7929 367.623 97.6235 367.561 97.4541Z" fill="#E1E1E0"/>
<path d="M353.555 91.3987L353.06 91.0811C353.225 91.1869 353.39 91.2928 353.555 91.3987Z" fill="#353636"/>
<path d="M341.179 91.0808C341.035 91.0385 340.89 90.9961 340.746 90.9326C340.89 90.975 341.035 91.0173 341.179 91.0808Z" fill="#353636"/>
<path d="M424.883 95.0405C425.007 95.1887 425.13 95.337 425.254 95.5064C425.13 95.3581 425.007 95.2099 424.883 95.0405Z" fill="#0D0E0E"/>
<path d="M368.345 88.6459C368.53 88.5612 368.716 88.4765 368.902 88.3706C368.716 88.4553 368.53 88.54 368.345 88.6459Z" fill="#E1E1E0"/>
<path d="M335.899 86.5283C336.043 86.6554 336.187 86.7824 336.311 86.9095C336.167 86.7824 336.022 86.6554 335.899 86.5283Z" fill="#E1E1E0"/>
<path d="M431.442 104.209C430.431 103.552 429.421 102.896 428.41 102.24C428.245 102.155 428.08 102.049 427.935 101.964C427.172 102.303 425.914 102.472 425.749 103.002C425.481 103.849 425.935 104.929 426.1 105.903C426.265 106.03 426.43 106.136 426.615 106.263C427.523 106.94 428.43 107.618 429.627 108.528C427.688 109.608 426.058 110.497 424.408 111.408C424.119 111.366 423.851 111.323 423.562 111.26C423.851 108.359 424.099 105.458 424.491 102.578C424.553 102.07 425.275 101.668 425.687 101.223C428.925 101.265 432.184 101.265 435.423 101.35C436.289 101.371 437.156 101.625 438.022 101.774C437.589 102.091 437.156 102.409 436.743 102.705C436.578 102.854 436.413 103.002 436.269 103.15C435.34 103.849 434.433 104.547 433.36 105.352C432.968 105.119 432.453 104.802 431.916 104.484C431.772 104.378 431.628 104.272 431.483 104.166L431.442 104.209Z" fill="#F6F6F6"/>
<path d="M432.432 111.323C433.814 112.615 435.175 113.885 436.475 115.092H424.615C426.966 115.918 429.359 112.932 432.432 111.323Z" fill="#F6F6F6"/>
<path d="M440.25 101.245C440.538 101.499 441.116 101.774 441.095 101.986C440.745 105.204 440.311 108.423 439.878 111.811C438.517 110.392 437.424 109.248 436.351 108.105C436.557 108.338 436.743 108.571 436.949 108.804C437.877 107.491 438.826 106.199 439.713 104.844C440.538 103.574 440.868 102.367 438.971 101.774C439.404 101.605 439.837 101.435 440.25 101.245Z" fill="#F6F6F6"/>
<path d="M440.25 101.244C439.816 101.414 439.383 101.583 438.971 101.774C438.641 101.774 438.311 101.774 438.001 101.774C437.135 101.626 436.269 101.371 435.402 101.35C432.164 101.266 428.926 101.266 425.667 101.223C428.678 101.117 431.69 100.948 434.701 100.927C436.557 100.927 438.414 101.117 440.27 101.244H440.25Z" fill="#5D5D5D"/>
<path d="M438.909 114.902C439.115 114.182 439.301 113.483 439.507 112.763L440.208 113.123C439.775 113.716 439.363 114.33 438.93 114.923H438.909V114.902Z" fill="#0A0A0A"/>
<path d="M438.929 114.902C438.496 115.241 438.063 115.579 437.651 115.918C437.527 115.664 437.403 115.389 437.279 115.135C437.816 115.05 438.373 114.965 438.909 114.902H438.929Z" fill="#353636"/>
<path d="M423.542 111.281C423.831 111.324 424.099 111.366 424.388 111.429C424.078 111.789 423.769 112.149 423.48 112.509C423.356 112.425 423.233 112.319 423.088 112.234C423.233 111.916 423.398 111.599 423.542 111.302V111.281Z" fill="#0A0A0A"/>
<path d="M427.915 101.964C428.08 102.049 428.245 102.155 428.389 102.24C428.224 102.155 428.059 102.049 427.915 101.964Z" fill="#0A0A0A"/>
<path d="M426.574 106.263C426.409 106.136 426.244 106.03 426.058 105.903C426.223 106.03 426.388 106.136 426.574 106.263Z" fill="#0A0A0A"/>
<path d="M436.228 103.171C436.393 103.023 436.558 102.875 436.702 102.727C436.537 102.875 436.372 103.023 436.228 103.171Z" fill="#0A0A0A"/>
<path d="M385.651 114.118C387.548 114.118 389.446 114.118 391.344 114.139C392.23 114.139 393.138 114.118 394.025 114.097C394.994 113.419 395.964 112.742 396.913 112.064L396.851 112.022C396.768 114.944 396.294 115.452 392.292 115.77C389.611 115.982 386.909 115.876 384.207 115.77C383.567 115.749 382.948 115.177 382.33 114.859C382.556 114.605 382.763 114.351 382.99 114.097C383.877 114.097 384.764 114.097 385.671 114.097L385.651 114.118Z" fill="#FCFDFD"/>
<path d="M367.788 103.785C368.386 103.425 368.984 102.79 369.603 102.769C372.511 102.663 375.44 102.726 378.349 102.726C378.885 104.039 378.576 104.569 377.235 104.547C374.244 104.505 371.233 104.547 368.242 104.547C368.097 104.293 367.932 104.06 367.788 103.806V103.785Z" fill="#FCFDFD"/>
<path d="M367.746 108.655H377.915C377.792 109.206 377.668 109.756 377.523 110.392C374.533 110.392 371.624 110.434 368.736 110.349C368.241 110.349 367.767 109.693 367.272 109.333C367.437 109.1 367.581 108.888 367.746 108.655Z" fill="#FCFDFD"/>
<path d="M393.757 103.298C393.303 103.701 392.849 104.463 392.375 104.484C389.467 104.59 386.538 104.548 383.237 103.997C383.691 103.574 384.124 102.79 384.599 102.79C387.507 102.684 390.436 102.727 393.344 102.727C393.489 102.917 393.613 103.108 393.757 103.298Z" fill="#FCFDFD"/>
<path d="M388.703 110.286C388.415 110.286 388.146 110.286 387.858 110.286C386.744 110.18 385.609 110.011 384.496 109.968C383.609 109.947 382.907 109.841 383.031 108.677C386.022 108.634 389.033 108.613 392.024 108.571C393.179 108.571 393.592 108.91 392.684 109.926C391.364 110.032 390.024 110.159 388.703 110.265V110.286Z" fill="#FCFDFD"/>
<path d="M383.031 108.677C382.887 109.863 383.588 109.947 384.496 109.968C385.63 109.99 386.744 110.159 387.858 110.286H382.515C382.701 109.714 382.866 109.185 383.031 108.677Z" fill="#C0C0C0"/>
<path d="M394.025 114.118C393.138 114.118 392.23 114.139 391.344 114.161C392.23 114.161 393.138 114.139 394.025 114.118Z" fill="#C0C0C0"/>
<path d="M412.362 90.0643C412.754 87.6504 413.084 85.533 413.435 83.3521H416.962C416.797 85.3001 416.694 87.2481 416.426 89.1538C416.364 89.5137 415.642 89.9372 415.147 90.0219C414.384 90.1701 413.559 90.0643 412.362 90.0643Z" fill="#FCFDFD"/>
<path d="M411.125 101.371C411.331 98.9998 411.413 97.327 411.661 95.6754C411.723 95.2731 412.321 94.7226 412.754 94.6379C413.6 94.4685 414.487 94.5955 415.601 94.5955C415.415 96.5224 415.58 98.4704 414.92 100.058C414.611 100.8 412.734 100.863 411.104 101.392L411.125 101.371Z" fill="#FCFDFD"/>
<path d="M235.096 114.013C242.604 114.034 250.091 114.055 257.6 114.097C257.496 114.182 257.393 114.373 257.27 114.373C250.133 114.394 242.996 114.415 235.859 114.394C235.611 114.394 235.343 114.14 235.096 114.013Z" fill="#9B9B9C"/>
<path d="M258.899 102.6C251.391 102.6 243.903 102.642 236.395 102.642C236.869 102.515 237.344 102.282 237.818 102.282C244.439 102.261 251.061 102.261 257.661 102.282C258.074 102.282 258.466 102.494 258.878 102.6H258.899Z" fill="#5D5D5D"/>
<path d="M523.829 98.6613C524.84 96.7979 525.706 95.2311 526.738 93.3042H529.172C528.986 94.8499 528.924 96.3533 528.594 97.8143C528.512 98.1954 527.604 98.5554 527.047 98.6189C526.036 98.746 525.005 98.6613 523.829 98.6613Z" fill="#F6F6F6"/>
<path d="M513.124 98.5556H509.865V93.2832H513.722C513.516 94.9983 513.33 96.6499 513.124 98.5556Z" fill="#F6F6F6"/>
<path d="M504.688 93.0713C505.307 95.0193 505.74 96.438 506.297 98.1954H502.089C502.171 96.7556 502.006 95.2311 502.46 93.9394C502.666 93.3677 504.131 93.2619 504.667 93.0713H504.688Z" fill="#F6F6F6"/>
<path d="M522.406 93.537C520.818 95.4426 519.395 97.1789 517.971 98.894L517.291 98.5552C517.518 96.9037 517.662 95.2097 518.013 93.5793C518.095 93.2193 518.962 92.817 519.457 92.8382C520.282 92.8594 521.107 93.1982 522.406 93.5158V93.537Z" fill="#F6F6F6"/>
<path d="M504.956 107.809C511.268 107.809 517.559 107.809 523.871 107.809C523.994 107.936 524.118 108.042 524.242 108.169V109.905H504.502C504.378 109.778 504.234 109.651 504.11 109.524C504.11 109.227 504.131 108.931 504.151 108.634C504.42 108.359 504.688 108.105 504.956 107.83V107.809Z" fill="#FCFDFD"/>
<path d="M523.85 114.034C523.932 115.241 523.479 115.834 522.22 115.834C515.929 115.812 509.659 115.834 503.058 115.834C503.264 115.05 503.429 114.478 503.594 113.907C510.36 113.949 517.105 114.013 523.871 114.055L523.85 114.034Z" fill="#F6F6F6"/>
<path d="M523.85 114.034C517.084 113.991 510.34 113.928 503.574 113.886C503.966 113.759 504.378 113.526 504.77 113.526C510.69 113.504 516.61 113.504 522.53 113.526C522.963 113.526 523.396 113.843 523.829 114.034H523.85Z" fill="#5D5D5D"/>
<path d="M513.805 83.6275C516.239 82.3006 518.521 82.3006 520.653 83.6275H513.805Z" fill="#F6F6F6"/>
<path d="M377.544 98.661C375.378 98.661 373.213 98.7033 371.047 98.6186C370.758 98.6186 370.49 98.0469 370.222 97.7505C372.305 97.7505 374.388 97.7505 376.472 97.8352C376.843 97.8352 377.194 98.3857 377.544 98.6822V98.661Z" fill="white"/>
</g>
<g clip-path="url(#clip2_156_60)">
<path d="M408.172 144.23C407.312 146.68 406.03 148.577 402.656 147.452C403.787 145.455 404.9 143.391 406.08 141.378C408.003 138.089 409.96 134.85 411.899 131.577C412.473 130.604 416.015 129.983 416.808 130.738C416.959 130.889 417.077 131.141 417.128 131.359C417.988 136.511 418.832 141.68 419.675 146.831C419.709 147.05 419.641 147.301 419.624 147.603H416.15C415.964 146.529 415.762 145.455 415.543 144.23H408.172ZM414.143 134.095C412.608 136.545 411.309 138.609 409.926 140.841H415.037C414.75 138.726 414.48 136.696 414.143 134.095Z" fill="#080707"/>
<path d="M314.039 142.032C312.353 147.268 307.883 148.224 303.835 147.972C301.575 147.838 299.23 145.086 298.707 142.854C297.797 139.011 298.944 135.672 301.322 132.786C304.273 129.194 312.741 128.506 314.646 133.96C314.798 134.38 314.899 134.833 315.051 135.42C313.803 135.622 312.707 135.789 311.492 135.991C311.172 134.497 310.548 133.406 308.878 133.339C306.803 133.239 304.898 133.507 303.767 135.487C302.57 137.602 301.912 139.766 302.57 142.317C303.38 145.506 307.006 145.438 308.979 143.66C311.189 141.679 311.121 141.629 314.022 142.032H314.039Z" fill="#0A0A0A"/>
<path d="M340.773 147.536C341.33 144.684 341.886 141.831 342.46 138.911C340.604 138.542 339.508 139.012 339.053 140.488C338.31 142.854 337.686 145.254 337.012 147.654H334.026C334.532 145.187 335.038 142.77 335.477 140.354C335.561 139.884 335.409 138.961 335.224 138.928C334.667 138.81 333.908 138.844 333.453 139.146C331.581 140.371 331.648 142.519 331.125 144.381C331.024 144.717 331.075 145.086 330.973 145.422C330.113 148.09 330.94 147.771 327.347 147.553C328.123 144.029 328.882 140.555 329.624 137.199C331.716 136.981 333.706 136.595 335.679 136.612C336.809 136.612 337.923 137.283 339.204 137.703C340.031 137.401 341.144 136.729 342.325 136.595C344.737 136.31 345.9 137.669 345.496 140.186C345.125 142.418 344.754 144.684 343.961 146.781C343.708 147.452 342.139 147.637 341.178 148.04C341.043 147.872 340.908 147.704 340.773 147.536Z" fill="#0D0E0E"/>
<path d="M349.729 146.513C349.375 147.687 348.886 148.678 348.835 149.684C348.734 151.933 347.52 152.302 345.327 151.832C346.356 146.916 347.401 141.965 348.413 137.166C350.336 136.964 352.141 136.78 353.946 136.578C356.358 136.31 358.668 137.535 358.55 140.707C358.449 143.459 358.027 145.808 355.447 147.301C353.575 148.392 351.348 148.157 349.746 146.496L349.729 146.513ZM355.582 141.395C355.582 139.784 354.789 138.743 353.49 138.726C351.939 138.693 350.572 140.656 350.556 142.922C350.556 144.684 351.213 145.489 352.664 145.523C354.334 145.556 355.565 143.811 355.582 141.395Z" fill="#0A0A0A"/>
<path d="M263.912 146.546C263.676 147.654 263.338 148.711 263.271 149.768C263.153 151.379 262.343 151.883 260.859 151.631C260.572 151.58 260.269 151.631 259.712 151.631C260.758 146.697 261.787 141.898 262.799 137.166C264.721 136.964 266.644 136.696 268.567 136.578C272.075 136.343 272.952 138.357 272.935 141.243C272.935 142.452 272.8 143.811 272.21 144.818C270.135 148.409 267.403 148.946 263.929 146.563L263.912 146.546ZM269.916 141.21C269.916 139.364 269.309 138.676 267.724 138.709C266.189 138.743 264.873 140.69 264.89 142.905C264.89 144.566 265.716 145.606 267.032 145.606C268.634 145.606 269.933 143.626 269.916 141.21Z" fill="#0A0A0A"/>
<path d="M246.809 130.52C246.202 133.558 247.079 133.356 243.942 133.356C243.098 133.356 242.272 133.356 241.192 133.356C240.147 138.055 239.118 142.737 238.038 147.57H234.226C235.238 142.871 236.25 138.24 237.296 133.407H232C232.287 132.282 232.54 131.359 232.776 130.437C237.465 130.453 242.137 130.487 246.826 130.504L246.809 130.52Z" fill="#080707"/>
<path d="M326.79 141.68C326.79 145.455 324.024 148.023 319.926 148.023C317.463 148.023 314.798 145.506 314.933 143.039C315.119 139.666 317.362 136.343 321.629 136.511C324.463 136.628 327.33 138.206 326.79 141.663V141.68ZM321.342 139.062C319.167 139.028 318.829 140.706 318.323 142.267C317.885 143.593 318.441 144.583 319.47 145.237C320.55 145.925 321.747 145.757 322.439 144.616C322.979 143.727 323.366 142.67 323.518 141.646C323.872 139.414 323.518 139.095 321.342 139.078V139.062Z" fill="#0D0E0E"/>
<path d="M451.097 136.545C454.319 136.377 456.849 138.424 456.714 141.428C456.528 145.304 454.353 147.989 449.765 147.956C447.184 147.939 444.975 146.278 444.84 143.509C444.671 139.683 447.218 136.377 451.097 136.545ZM451.401 139.079C449.343 139.062 448.146 140.455 448.095 142.787C448.061 144.583 448.82 145.539 450.305 145.556C452.109 145.573 453.442 143.777 453.526 141.394C453.577 139.767 453.071 138.844 451.401 139.062V139.079Z" fill="#0D0E0E"/>
<path d="M498.476 142.77C498.611 139.431 500.938 136.326 504.868 136.561C508.697 136.78 510.165 137.954 510.35 141.495C510.552 145.355 507.365 148.291 503.249 148.006C500.854 147.838 498.409 146.362 498.476 142.77ZM507.112 141.478C507.112 139.263 506.96 139.095 504.818 139.095C503.013 139.095 501.748 140.606 501.731 142.77C501.731 144.516 502.524 145.556 503.907 145.556C505.745 145.556 507.112 143.828 507.112 141.478Z" fill="#0D0E0E"/>
<path d="M482.065 140.522C481.896 139.985 481.845 139.112 481.474 138.927C480.918 138.659 480.074 138.743 479.433 138.927C478.287 139.229 477.173 139.699 476.043 140.102C475.891 139.867 475.757 139.632 475.605 139.397C476.178 138.726 476.684 137.988 477.325 137.4C478.927 135.991 483.228 136.242 484.493 137.937C484.949 138.541 485.117 139.582 485.016 140.371C484.713 142.72 484.207 145.052 483.718 147.805C482.959 147.62 481.862 147.217 480.766 147.167C479.906 147.133 479.046 147.536 478.168 147.754C476.583 148.157 474.761 147.217 474.39 145.808C473.969 144.247 474.913 142.099 476.364 141.696C478.101 141.226 479.889 140.958 482.065 140.522ZM481.255 142.904C480.176 143.055 479.13 143.089 478.185 143.408C477.797 143.525 477.342 144.297 477.409 144.666C477.477 145.019 478.185 145.455 478.641 145.506C480.361 145.69 480.985 145.069 481.272 142.904H481.255Z" fill="#0A0A0A"/>
<path d="M245.409 139.767C247.011 136.545 251.329 135.403 253.994 137.434C255.445 138.542 254.804 140.153 254.601 141.562C254.314 143.526 253.91 145.489 253.539 147.553C252.83 147.385 251.481 148.442 250.604 146.882C249.035 147.637 247.365 148.912 245.645 147.352C244.869 146.647 243.941 145.304 244.127 144.532C244.414 143.425 245.51 142.284 246.556 141.646C247.534 141.059 248.934 141.159 250.115 140.874C250.722 140.723 251.329 140.404 251.852 140.052C251.936 140.002 251.683 139.079 251.464 139.028C250.739 138.844 249.524 138.542 249.288 138.877C248.209 140.304 246.859 139.683 245.392 139.783L245.409 139.767ZM251.11 142.821C249.963 143.056 248.867 143.173 247.838 143.542C247.534 143.643 247.281 144.432 247.349 144.851C247.399 145.137 248.006 145.489 248.411 145.539C249.879 145.757 250.857 144.818 251.11 142.821Z" fill="#0A0A0A"/>
<path d="M361.333 136.964H364.488C363.965 139.381 363.526 141.764 362.919 144.079C362.632 145.204 363.071 145.455 364.015 145.523C365.618 145.623 366.613 144.784 367.068 143.391C367.54 141.982 368.097 140.505 368.097 139.045C368.097 136.981 369.143 136.729 370.762 136.914C370.998 136.947 371.234 136.914 371.69 136.914C370.947 140.471 370.222 143.945 369.413 147.838C368.401 147.62 367.355 147.335 366.309 147.184C365.921 147.134 365.466 147.318 365.061 147.452C363.425 147.973 361.688 148.761 360.44 146.915C359.967 146.211 359.731 145.12 359.849 144.281C360.203 141.831 360.811 139.431 361.333 136.947V136.964Z" fill="#0D0E0E"/>
<path d="M284.641 143.022C282.566 143.022 280.593 142.988 278.636 143.039C278.029 143.056 277.439 143.324 276.831 143.492C277 143.945 277.051 144.583 277.388 144.818C277.978 145.271 278.754 145.707 279.463 145.724C279.969 145.724 280.458 144.834 281.031 144.734C281.959 144.549 282.954 144.683 284.168 144.683C282.263 147.637 278.957 148.761 276.494 147.57C274.504 146.596 273.188 143.223 273.93 141.008C275.01 137.837 278.046 135.991 281.234 136.578C283.848 137.065 284.759 138.693 284.641 143.022ZM277.203 141.159H281.757C281.891 141.008 282.01 140.857 282.144 140.689C281.487 140.035 280.947 139.028 280.171 138.776C278.349 138.223 277.81 139.75 277.203 141.143V141.159Z" fill="#0A0A0A"/>
<path d="M389.652 143.039H381.489C382.18 144.029 382.535 145.086 383.192 145.338C383.918 145.606 384.93 145.136 385.824 145.002C386.869 144.834 387.915 144.666 389.366 144.432C387.746 147.368 384.626 148.711 382.535 147.821C379.6 146.579 378.2 143.895 379.043 141.075C379.937 138.055 383.226 135.907 386.144 136.595C388.927 137.232 390.226 138.525 389.652 143.039ZM386.819 141.176C387.274 139.766 386.549 138.994 385.402 138.776C383.563 138.424 382.771 139.615 382.4 141.176H386.819Z" fill="#0A0A0A"/>
<path d="M510.89 147.603C511.699 143.979 512.492 140.471 513.318 136.779C514.448 136.964 515.41 137.132 516.354 137.283C517.788 137.014 519.154 136.108 521.077 136.83C522.713 137.451 523.185 138.474 522.949 139.951C522.663 141.73 522.258 143.475 521.87 145.22C521.296 147.754 521.279 147.754 518.159 147.586C518.615 145.438 519.121 143.324 519.458 141.193C519.576 140.421 519.272 139.599 519.171 138.793C518.311 139.045 517.029 139.045 516.692 139.615C515.815 141.042 515.359 142.737 514.752 144.331C514.651 144.599 514.752 144.935 514.651 145.22C513.673 148.191 514.533 147.704 510.89 147.603Z" fill="#0A0A0A"/>
<path d="M432.426 139.23C431.094 139.767 430.048 140.287 428.783 139.129C428.226 138.626 426.978 138.827 426.051 138.827C425.848 138.827 425.427 139.347 425.477 139.549C425.545 139.867 425.865 140.253 426.169 140.371C427.366 140.824 428.682 141.025 429.761 141.646C430.52 142.083 431.296 142.955 431.482 143.777C431.802 145.07 431.381 146.295 429.947 147.016C427.434 148.275 424.954 148.61 422.526 146.983C421.817 146.513 421.395 145.623 420.636 144.667C422.407 144.449 423.656 143.66 424.87 145.321C425.224 145.808 426.945 145.288 428.024 145.237C427.855 144.751 427.839 144.029 427.484 143.811C426.827 143.391 425.983 143.24 425.207 142.972C423.656 142.435 422.391 141.629 422.526 139.75C422.644 138.089 423.892 137.317 425.258 136.88C427.4 136.192 430.419 136.26 431.971 138.206C432.14 138.424 432.207 138.726 432.409 139.213L432.426 139.23Z" fill="#0D0E0E"/>
<path d="M444.014 139.347C442.563 139.599 441.231 140.32 439.881 138.877C439.426 138.374 437.959 138.793 436.963 138.793C436.913 139.028 436.862 139.28 436.812 139.515C437.301 139.85 437.739 140.253 438.262 140.488C439.207 140.908 440.219 141.193 441.18 141.596C442.158 141.998 443.187 142.317 443.103 143.76C443.019 145.153 442.917 146.395 441.366 147.1C439.072 148.14 436.778 148.644 434.518 147.217C433.658 146.663 433.017 145.774 432.005 144.767C433.995 144.398 435.176 143.827 436.491 145.472C437.503 146.731 439.072 145.824 440.269 144.499C439.021 143.978 437.874 143.492 436.727 143.005C435.378 142.435 434.062 141.814 434.029 140.085C434.012 138.306 435.327 137.568 436.71 136.93C439.257 135.772 442.85 136.93 443.98 139.397L444.014 139.347Z" fill="#0D0E0E"/>
<path d="M468.588 140.035C468.082 140.152 467.576 140.404 467.087 140.371C466.564 140.32 465.923 140.136 465.603 139.766C464.641 138.642 463.09 138.374 462.246 139.582C461.487 140.656 461.015 142.015 460.762 143.324C460.644 143.962 461.167 145.187 461.656 145.354C462.331 145.573 463.427 145.237 464.051 144.767C465.67 143.559 465.788 143.441 467.745 144.18C466.024 147.888 462.348 149.13 459.295 147.033C457.794 146.009 457.068 143.425 457.844 141.193C459.092 137.535 462.398 135.538 466.193 137.014C467.289 137.434 468.082 138.676 469.01 139.548C468.875 139.716 468.74 139.884 468.605 140.052L468.588 140.035Z" fill="#0D0E0E"/>
<path d="M378.386 133.222C378.166 134.598 378.014 135.622 377.829 136.78C378.453 136.88 378.993 136.948 379.499 137.031C379.313 138.24 379.398 139.716 377.255 138.928C376.783 141.16 376.345 143.207 375.889 145.405C376.766 145.506 377.272 145.573 377.778 145.64C377.846 147.52 377.357 148.04 375.552 148.057C373.781 148.057 372.752 147.318 372.887 145.774C373.073 143.643 373.528 141.546 373.882 139.314C373.528 139.163 373.073 138.961 372.651 138.777C372.82 137.568 372.836 136.327 374.523 136.478C374.54 134.984 375.822 134.565 376.8 133.927C377.171 133.675 377.643 133.558 378.369 133.239L378.386 133.222Z" fill="#0A0A0A"/>
<path d="M492.91 139.062H491.122C490.751 140.908 490.346 142.653 490.093 144.415C490.026 144.868 490.43 145.439 490.734 145.858C491.071 146.328 491.527 146.68 492.151 147.301C491.071 147.654 490.549 147.872 490.009 148.006C487.968 148.476 486.332 146.748 486.838 144.717C487.276 142.921 487.631 141.109 488.035 139.213C487.58 139.112 487.108 139.011 486.635 138.911C486.686 137.417 487.26 136.511 488.727 136.343C488.727 134.296 490.7 134.296 491.83 133.44C491.915 133.373 492.05 133.407 492.454 133.373C492.235 134.464 492.016 135.471 491.78 136.662C492.336 136.813 492.927 136.964 493.568 137.132C493.348 137.786 493.146 138.391 492.91 139.062Z" fill="#0A0A0A"/>
<path d="M389.956 147.62C390.749 143.995 391.508 140.505 392.334 136.729C393.498 136.964 394.493 137.182 395.657 137.417C396.602 137.115 397.917 136.695 399.385 136.226C399.351 138.256 398.626 139.112 397.023 139.431C394.341 139.934 394.527 142.451 393.802 144.314C393.7 144.583 393.802 144.918 393.7 145.187C392.705 148.224 393.464 147.67 389.939 147.603L389.956 147.62Z" fill="#0A0A0A"/>
<path d="M288.115 147.62H284.978C285.771 144.029 286.547 140.538 287.339 136.998H290.527C289.734 140.538 288.942 143.995 288.132 147.62H288.115Z" fill="#0D0E0E"/>
<path d="M257.435 136.981H260.623C259.83 140.555 259.054 144.029 258.244 147.603H255.09C255.866 144.029 256.642 140.522 257.418 136.981H257.435Z" fill="#0A0A0A"/>
<path d="M470.983 136.998H474.087C473.817 138.357 473.564 139.683 473.311 140.991C473.007 142.468 472.754 143.962 472.383 145.438C471.776 147.821 471.759 147.821 468.808 147.57C469.516 144.096 470.224 140.656 470.967 137.014L470.983 136.998Z" fill="#0A0A0A"/>
<path d="M492.488 147.989C493.332 144.029 494.091 140.538 494.85 136.998H498.004C497.295 140.27 496.688 143.576 495.845 146.814C495.389 148.56 493.838 147.234 492.505 147.989H492.488Z" fill="#0D0E0E"/>
<path d="M261.23 132.718C261.382 135.319 260.876 135.722 258.11 135.353C258.042 133.474 259.082 132.595 261.23 132.718Z" fill="#0D0E0E"/>
<path d="M474.643 135.068H471.456C471.641 134.246 471.793 133.524 471.978 132.702H475.183C474.998 133.524 474.829 134.262 474.643 135.068Z" fill="#0D0E0E"/>
<path d="M498.931 132.735C498.746 133.574 498.577 134.33 498.408 135.085H495.288C495.457 134.296 495.592 133.574 495.777 132.735H498.948H498.931Z" fill="#0D0E0E"/>
<path d="M291 132.651C291.213 134.363 290.156 135.18 287.829 135.101C288.087 133.435 289.144 132.618 291 132.651Z" fill="#0D0E0E"/>
<path d="M246.809 130.52C242.12 130.503 237.448 130.47 232.759 130.453C233.619 130.352 234.479 130.184 235.356 130.184C238.645 130.151 241.934 130.151 245.24 130.184C245.763 130.184 246.286 130.403 246.809 130.52Z" fill="#5D5D5D"/>
<path d="M414.143 134.095C414.48 136.679 414.75 138.726 415.037 140.841H409.926C411.326 138.609 412.608 136.545 414.143 134.095Z" fill="#F6F6F6"/>
<path d="M355.582 141.394C355.582 143.811 354.334 145.556 352.664 145.522C351.196 145.489 350.539 144.683 350.555 142.921C350.555 140.656 351.939 138.692 353.49 138.726C354.789 138.76 355.599 139.783 355.582 141.394Z" fill="#F6F6F6"/>
<path d="M269.916 141.21C269.916 143.626 268.617 145.606 267.032 145.606C265.716 145.606 264.907 144.583 264.89 142.904C264.89 140.689 266.189 138.76 267.723 138.709C269.309 138.676 269.899 139.347 269.916 141.21Z" fill="#F6F6F6"/>
<path d="M321.342 139.062C323.535 139.062 323.872 139.397 323.518 141.629C323.35 142.653 322.962 143.71 322.439 144.599C321.747 145.757 320.55 145.908 319.47 145.22C318.441 144.566 317.902 143.576 318.323 142.25C318.829 140.689 319.167 139.011 321.342 139.045V139.062Z" fill="#FCFDFD"/>
<path d="M451.384 139.079C453.054 138.86 453.56 139.783 453.51 141.411C453.425 143.794 452.093 145.59 450.288 145.573C448.787 145.573 448.028 144.6 448.079 142.804C448.129 140.455 449.327 139.062 451.384 139.095V139.079Z" fill="#F6F6F6"/>
<path d="M507.129 141.478C507.129 143.827 505.762 145.556 503.924 145.556C502.541 145.556 501.731 144.516 501.748 142.77C501.765 140.606 503.047 139.095 504.835 139.095C506.977 139.095 507.129 139.263 507.129 141.478Z" fill="#FCFDFD"/>
<path d="M481.238 142.905C480.968 145.053 480.328 145.69 478.607 145.506C478.152 145.456 477.443 145.019 477.376 144.667C477.308 144.298 477.764 143.526 478.152 143.408C479.113 143.106 480.159 143.073 481.221 142.905H481.238Z" fill="#F6F6F6"/>
<path d="M251.11 142.837C250.84 144.834 249.862 145.774 248.411 145.556C248.006 145.489 247.399 145.153 247.349 144.868C247.281 144.448 247.534 143.66 247.838 143.559C248.85 143.207 249.963 143.072 251.11 142.837Z" fill="#F6F6F6"/>
<path d="M277.203 141.159C277.81 139.75 278.35 138.239 280.171 138.793C280.947 139.028 281.487 140.035 282.145 140.706C282.01 140.857 281.892 141.008 281.757 141.176H277.203V141.159Z" fill="#F6F6F6"/>
<path d="M386.819 141.176H382.4C382.771 139.616 383.563 138.424 385.402 138.777C386.549 138.995 387.274 139.783 386.819 141.176Z" fill="#F6F6F6"/>
</g>
</g>
<defs>
<filter id="filter0_f_156_60" x="3" y="-21" width="282" height="249" filterUnits="userSpaceOnUse" color-interpolation-filters="sRGB">
<feFlood flood-opacity="0" result="BackgroundImageFix"/>
<feBlend mode="normal" in="SourceGraphic" in2="BackgroundImageFix" result="shape"/>
<feGaussianBlur stdDeviation="53" result="effect1_foregroundBlur_156_60"/>
</filter>
<filter id="filter1_f_156_60" x="63" y="49" width="149" height="110" filterUnits="userSpaceOnUse" color-interpolation-filters="sRGB">
<feFlood flood-opacity="0" result="BackgroundImageFix"/>
<feBlend mode="normal" in="SourceGraphic" in2="BackgroundImageFix" result="shape"/>
<feGaussianBlur stdDeviation="16.5" result="effect1_foregroundBlur_156_60"/>
</filter>
<radialGradient id="paint0_radial_156_60" cx="0" cy="0" r="1" gradientUnits="userSpaceOnUse" gradientTransform="translate(104 112.5) rotate(90) scale(37.5 91)">
<stop stop-color="#0950A2"/>
<stop offset="1" stop-color="#024B9A"/>
</radialGradient>
<clipPath id="clip0_156_60">
<rect width="547" height="225" fill="white"/>
</clipPath>
<clipPath id="clip1_156_60">
<rect width="310" height="44" fill="white" transform="translate(228 77)"/>
</clipPath>
<clipPath id="clip2_156_60">
<rect width="291" height="22" fill="white" transform="translate(232 130)"/>
</clipPath>
</defs>
</svg>
