<svg width="344" height="225" viewBox="0 0 344 225" fill="none" xmlns="http://www.w3.org/2000/svg">
<path d="M51.0358 54.4502H14.2837V67.0509H25.4843V105.553H39.8352V67.0509H51.0358V54.4502Z" fill="#7EC513"/>
<path fill-rule="evenodd" clip-rule="evenodd" d="M83.2376 108.003C99.0894 108.003 111.939 95.4665 111.939 80.0016C111.939 64.5367 99.0894 52 83.2376 52C67.3859 52 54.536 64.5367 54.536 80.0016C54.536 95.4665 67.3859 108.003 83.2376 108.003ZM84.1358 69.1544C83.6164 68.134 82.1589 68.134 81.6394 69.1544L72.7069 86.7173C72.233 87.6488 72.9099 88.7521 73.9551 88.7521H91.8201C92.8653 88.7521 93.5422 87.6488 93.0683 86.7173L84.1358 69.1544Z" fill="#7EC513"/>
<path d="M176.693 55.1504H162.692V105.553H193.494V92.9526H176.693V55.1504Z" fill="#00A3EE"/>
<path d="M215.895 55.1504H202.245V105.553H215.895V55.1504Z" fill="#00A3EE"/>
<path d="M224.296 105.553V55.1504H237.597L261.748 90.5024V55.1504H273.999V105.553H261.748L237.597 71.9514V105.553H224.296Z" fill="#00A3EE"/>
<path d="M282.399 105.553V55.1504H296.05V77.2017L312.501 55.1504H327.552L309.701 79.6518L330.702 105.553H312.501L296.05 83.152V105.553H282.399Z" fill="#00A3EE"/>
<path d="M310.079 155.651V157.314H330.442V155.651H310.079ZM310.079 160.237V161.901H330.442V160.237H310.079ZM310.079 151.114V152.727H330.442V151.114H310.079ZM304.383 147.99H336.44V164.975H304.383V147.99ZM322.478 163.262H328.375V166.991C328.375 168.251 328.778 168.352 330.794 168.352C331.702 168.352 335.633 168.352 336.893 168.352C338.506 168.352 338.808 167.848 339.061 164.572C340.22 165.328 342.488 166.084 344 166.336C343.395 171.528 341.883 172.889 337.498 172.889C336.238 172.889 331.248 172.889 330.038 172.889C323.99 172.889 322.478 171.578 322.478 167.042V163.262ZM311.389 163.564H317.286C316.026 169.461 312.549 172.183 299.192 173.443C298.839 172.133 297.579 169.965 296.621 168.856C308.012 168.251 310.381 166.991 311.389 163.564ZM325.149 133.877H340.774V137.203H325.149V133.877ZM325.099 128.736H343.042V132.465H325.099V128.736ZM307.861 129.088H312.599V133.877H307.861V129.088ZM307.861 139.169H312.599V143.957H307.861V139.169ZM302.317 132.818H318.849V141.084H302.317V137.959H313.758V135.994H302.317V132.818ZM336.036 141.336V143.856H338.103V141.336H336.036ZM331.046 141.336V143.856H333.113V141.336H331.046ZM326.157 141.336V143.856H328.123V141.336H326.157ZM322.176 138.564H342.286V146.629H322.176V138.564ZM324.595 126.165L329.786 127.022C328.274 130.903 326.107 134.532 322.478 137.506C321.571 136.346 319.756 134.734 318.547 134.129C321.672 131.861 323.587 128.887 324.595 126.165ZM319.857 127.627V131.054H304.282V143.151H320.311V146.528H299.141V127.627H319.857Z" fill="#858585"/>
<path d="M249.343 145.368H281.702V150.409H249.343V145.368ZM247.982 153.836H283.97V158.927H247.982V153.836ZM255.744 141.185H261.289V156.205H255.744V141.185ZM253.224 155.701H258.769V168.402H253.224V155.701ZM268.799 141.185H274.444V156.155H268.799V141.185ZM242.236 128.282H248.335V143.251C248.335 152.122 247.529 165.277 242.236 173.594C241.027 172.636 238.305 171.074 236.793 170.469C241.833 162.707 242.236 151.316 242.236 143.251V128.282ZM245.966 128.282H281.248V142.042H245.966V136.951H275.15V133.372H245.966V128.282ZM248.033 167.243C252.972 166.739 260.382 165.731 267.488 164.673L267.74 169.864C261.188 170.973 254.132 171.981 248.89 172.788L248.033 167.243ZM267.388 155.953C270.059 162.455 275.754 166.89 284.525 168.503C283.315 169.713 281.702 171.981 280.946 173.493C271.42 171.124 265.674 165.58 262.398 157.011L267.388 155.953ZM277.619 158.271L282.156 161.346C279.434 163.312 276.057 165.177 273.486 166.386L269.605 163.513C272.125 162.203 275.603 159.935 277.619 158.271Z" fill="#858585"/>
<path d="M199.999 146.477H216.632V151.265H199.999V146.477ZM195.412 154.34H221.571V159.229H195.412V154.34ZM197.731 130.046H205.745V134.028H197.731V130.046ZM196.672 137.304L198.588 134.733C200.2 135.489 202.217 136.699 203.174 137.657L201.259 140.53C200.251 139.572 198.285 138.161 196.672 137.304ZM193.648 141.286L195.815 138.917C197.378 139.874 199.293 141.336 200.2 142.294L197.983 144.915C197.075 143.856 195.211 142.294 193.648 141.286ZM213.608 162.959L218.194 160.59C220.513 163.211 223.285 166.79 224.444 169.259L219.606 171.88C218.497 169.461 215.926 165.681 213.608 162.959ZM204.132 130.046H205.039L205.946 129.895L209.223 131.054C207.055 141.588 201.813 148.947 194.807 153.03C194.152 151.82 192.741 149.955 191.682 149.048C197.68 145.923 202.519 138.967 204.132 130.903V130.046ZM213.608 129.693H221.168V133.977H213.608V129.693ZM198.033 126.266L202.67 127.274C200.755 133.624 197.227 139.32 193.144 142.949C192.388 142.092 190.523 140.53 189.515 139.824C193.446 136.699 196.521 131.709 198.033 126.266ZM219.202 129.693H220.311L221.269 129.391L224.595 131.306C223.083 135.842 220.614 140.731 218.043 143.755C217.337 142.697 215.775 141.134 214.817 140.378C216.733 137.858 218.446 133.675 219.202 130.651V129.693ZM205.644 156.608H211.339V167.848C211.339 170.419 210.886 171.779 209.172 172.586C207.458 173.392 205.241 173.443 202.217 173.443C201.965 171.931 201.108 169.763 200.402 168.352C202.217 168.402 204.283 168.402 204.888 168.402C205.442 168.402 205.644 168.251 205.644 167.747V156.608ZM196.823 160.842L202.015 162.253C200.553 165.832 198.084 169.663 195.815 172.031C194.757 171.175 192.539 169.814 191.279 169.159C193.547 167.042 195.664 163.917 196.823 160.842ZM211.642 127.022C213.708 136.649 218.093 144.663 225.755 148.292C224.595 149.3 222.983 151.366 222.227 152.778C213.809 148.241 209.374 139.37 206.904 127.929L211.642 127.022ZM179.737 128.282H190.019V133.675H184.979V173.493H179.737V128.282ZM188.356 128.282H189.213L189.969 128.08L193.598 130.147C192.539 134.683 191.178 140.58 190.019 144.612C192.388 148.745 192.892 152.526 192.892 155.651C192.892 158.977 192.287 161.195 190.977 162.253C190.271 162.858 189.465 163.161 188.457 163.312C187.751 163.413 186.844 163.463 185.886 163.463C185.886 162.052 185.634 159.935 184.878 158.574C185.432 158.624 185.936 158.624 186.34 158.624C186.743 158.624 187.146 158.473 187.398 158.171C187.852 157.717 188.003 156.457 188.003 154.894C188.003 152.324 187.7 148.897 185.483 145.116C186.592 140.479 187.801 133.171 188.356 129.995V128.282Z" fill="#858585"/>
<path d="M127.872 138.766H155.997V142.999H127.872V138.766ZM148.134 136.044L150.806 133.423C152.519 134.229 154.586 135.54 155.594 136.649L152.822 139.522C151.814 138.413 149.797 137.001 148.134 136.044ZM150.201 144.411L154.888 145.318C152.368 154.239 147.479 161.094 140.876 165.328C140.271 164.421 138.608 162.505 137.6 161.699C143.9 158.12 148.235 152.122 150.201 144.411ZM127.318 158.019C130.997 157.616 136.29 156.961 141.582 156.255L141.733 160.288C136.844 161.044 131.904 161.8 127.872 162.405L127.318 158.019ZM133.064 148.393V151.618H136.441V148.393H133.064ZM129.183 145.167H140.473V154.794H129.183V145.167ZM141.38 134.431H146.42C146.773 146.981 148.487 158.826 151.814 159.632C152.368 159.784 152.771 157.818 153.023 154.844C153.931 155.802 155.745 157.213 156.753 157.717C155.997 163.967 153.275 165.882 149.949 164.37C143.648 162.354 142.136 148.947 141.38 134.431ZM120.362 128.282H163.557V173.594H157.56V133.725H126.058V173.594H120.362V128.282ZM123.941 166.084H160.836V171.477H123.941V166.084Z" fill="#858585"/>
<path d="M59.4251 128.03H78.0237V133.423H59.4251V128.03ZM64.8686 138.766H73.7395V143.655H64.8686V138.766ZM79.4854 160.036H87.0459V164.068H79.4854V160.036ZM95.2615 160.036H102.923V164.068H95.2615V160.036ZM64.8686 148.998H73.7395V153.937H64.8686V148.998ZM61.6932 130.903H66.6831V162.506H61.6932V130.903ZM70.5641 130.853H75.6044V173.443H70.5641V130.853ZM92.2878 151.014H97.1768V173.443H92.2878V151.014ZM77.8725 152.576H82.2576V165.933H77.8725V152.576ZM100.05 152.576H104.586V165.832H100.05V152.576ZM58.5178 161.246C62.298 160.742 67.6911 159.834 72.9834 158.927L73.4371 164.119C68.6488 165.076 63.6589 166.084 59.5259 166.84L58.5178 161.246ZM85.0297 151.064H89.8684V160.036C89.8684 165.681 88.81 170.671 81.7032 173.695C81.1487 172.536 79.7374 170.57 78.7294 169.764C84.2737 167.395 85.0297 163.867 85.0297 159.935V151.064ZM76.562 146.276C79.8886 146.074 84.4753 145.721 89.2636 145.369L89.314 149.25C84.9793 149.653 80.6951 150.107 77.1165 150.409L76.562 146.276ZM77.1669 136.044L79.687 132.516C81.9552 134.381 84.6769 136.951 85.7858 138.867L83.2152 142.748C82.1064 140.782 79.4854 137.959 77.1669 136.044ZM86.189 143L89.7172 141.992C90.9269 144.31 91.9349 147.385 92.0862 149.401L88.3563 150.611C88.2555 148.594 87.3483 145.419 86.189 143ZM83.2152 126.115L88.1043 127.576C86.2898 130.752 84.2737 134.482 82.7112 136.75L79.5358 135.49C80.8463 132.919 82.4088 128.887 83.2152 126.115ZM86.9451 132.617L91.3301 134.179C88.5075 138.967 84.8281 144.814 81.9048 148.342L78.8302 147.032C81.7032 143.201 85.0297 137.052 86.9451 132.617ZM91.1789 146.125C94.5559 145.923 99.1426 145.57 103.88 145.217L103.981 148.998C99.697 149.502 95.4632 149.955 91.9349 150.308L91.1789 146.125ZM90.7253 135.943L93.0942 132.264C95.564 134.078 98.3361 136.649 99.4954 138.615L96.9248 142.647C95.816 140.631 93.1446 137.808 90.7253 135.943ZM100.201 143.05L103.78 141.891C105.191 144.512 106.401 147.939 106.602 150.157L102.772 151.467C102.57 149.25 101.512 145.772 100.201 143.05ZM96.9248 126.115L101.915 127.627C100.1 130.853 98.0841 134.532 96.4712 136.851L93.0438 135.49C94.4551 132.919 96.068 128.937 96.9248 126.115ZM100.755 132.466L105.443 134.129C102.57 138.867 98.9409 144.713 95.9672 148.292L92.7918 146.83C95.6144 143.05 98.8905 136.851 100.755 132.466Z" fill="#858585"/>
<path d="M21.5725 141.235H42.5401V147.334H21.5725V141.235ZM0 164.874H46.0683V170.973H0V164.874ZM18.1451 126.719H24.647V168.251H18.1451V126.719Z" fill="#858585"/>
<path fill-rule="evenodd" clip-rule="evenodd" d="M138.608 55.1504H116.907V88.0523V89.4524V105.553H130.208V89.4524H138.608V89.3597C139.174 89.4209 139.749 89.4524 140.332 89.4524C149.431 89.4524 156.809 81.7736 156.809 72.3014C156.809 62.8291 149.431 55.1504 140.332 55.1504C139.749 55.1504 139.174 55.1818 138.608 55.2431V55.1504ZM130.908 66.001H137.316H137.496V66.0042C140.446 66.1069 142.808 68.7303 142.808 71.9514C142.808 75.1725 140.446 77.7958 137.496 77.8986V77.9017H137.316H130.908V66.001Z" fill="#7EC513"/>
</svg>
