<svg width="547" height="225" viewBox="0 0 547 225" fill="none" xmlns="http://www.w3.org/2000/svg">
<rect width="547" height="225" fill="white"/>
<g clip-path="url(#clip0_156_60)">
<path d="M70.1891 54.0001C95.8414 53.8183 116.665 69.4434 125.591 91.3215C127.632 96.3294 128.857 101.603 128.956 107.073C128.998 109.269 129.35 111.479 129.251 113.661C128.336 134.532 119.157 150.745 101.529 162.257C95.236 166.37 88.1542 168.566 80.9597 169.993C75.6377 171.042 69.9779 171.266 64.5715 170.734C54.9694 169.811 46.0151 166.566 37.8632 161.264C25.5439 153.235 17.1527 142.254 13.1542 128.195C10.7889 119.9 10.3524 111.409 11.9434 102.778C13.3372 95.2103 15.8011 88.1321 19.884 81.6554C27.1348 70.1569 37.2156 62.0855 50.098 57.4693C56.6308 55.1332 63.3325 54.1959 70.1891 54.0001ZM42.3404 134.14C42.2137 134.028 42.087 133.917 41.9602 133.805C41.8617 133.595 41.8054 133.343 41.6646 133.189C41.1859 132.686 40.665 132.21 40.1581 131.72C39.8202 132.308 39.2852 132.853 39.1726 133.483C38.7643 135.763 38.4968 138.085 38.1448 140.589C34.0759 139.288 29.9225 138.001 25.3468 138.463C27.5009 140.827 29.9507 142.45 33.9914 144.184C34.7517 144.506 35.5964 144.744 34.991 145.849C34.8643 145.947 34.7376 146.059 34.6109 146.156C33.0199 147.835 31.5979 149.626 30.9081 151.892C33.3438 151.025 34.0055 148.618 35.4838 146.954C35.6387 146.646 35.8076 146.352 35.9625 146.045C36.8354 145.933 37.8069 145.541 38.5672 145.779C40.6368 146.394 42.6501 146.828 44.9028 146.212C44.6212 143.625 44.7339 141.051 43.9877 138.757C43.34 136.798 43.5794 135.497 44.9732 134.196C45.3252 133.735 45.7053 133.301 46.0432 132.825C48.3522 129.636 50.6471 126.433 52.942 123.229C53.3785 125.453 53.8431 127.678 54.2655 129.916C55.4904 136.281 59.8409 139.988 65.3177 142.715C65.726 142.911 66.3877 142.603 66.9227 142.519C69.0627 144.436 71.2169 143.429 73.371 142.547C73.6103 142.436 73.8356 142.324 74.0749 142.212C74.6381 142.1 75.2858 142.128 75.7504 141.862C82.1142 138.239 86.2394 133.175 86.3802 125.523C86.3943 124.642 86.8026 123.775 87.0419 122.908C90.0971 126.936 93.1945 130.951 96.1793 135.036C96.5876 135.595 96.4609 136.532 96.5876 137.288C95.2079 136.714 94.3913 137.036 94.2223 138.645C94.1801 139.022 93.7295 139.372 93.462 139.722C92.3638 138.211 91.6176 139.512 91.0263 140.155C87.7459 143.695 85.5073 147.891 83.6629 152.297C83.156 153.514 83.8318 154.088 84.8174 154.312C85.986 154.578 87.2109 154.703 88.4217 154.731C92.4342 154.815 96.1512 153.5 99.854 152.186C100.938 151.808 102.05 151.542 103.163 151.234C104.486 150.997 105.795 150.745 107.119 150.507C107.781 150.997 108.442 151.486 109.118 151.976C109.273 151.85 109.442 151.724 109.597 151.598C108.78 150.409 107.964 149.206 107.147 148.017C106.359 146.898 105.556 145.779 104.725 144.604C108.865 143.373 112.089 141.624 114.665 138.896C114.567 138.673 114.468 138.435 114.37 138.211C112.3 138.351 110.216 138.491 108.147 138.631C108.147 138.141 108.119 137.651 108.119 137.162C114.384 133.959 120.001 128.251 119.945 124.964C115.552 125.971 112.075 128.671 108.794 130.951C107.598 128.503 106.57 126.335 105.443 124.209C105.289 123.901 104.641 123.635 104.289 123.719C103.993 123.775 103.641 124.334 103.599 124.698C103.289 127.37 103.064 130.056 102.811 132.728C102.332 132.965 101.867 133.217 101.389 133.455C101.051 132.867 100.699 132.28 100.361 131.678C99.7977 132.196 99.2345 132.686 98.6854 133.217C98.2349 133.665 97.8125 134.14 97.376 134.602C97.193 134.546 97.0241 134.49 96.841 134.434C96.7143 133.161 96.6017 131.888 96.475 130.615C96.3201 130.14 96.2638 129.608 95.9822 129.216C93.7718 126.027 91.505 122.88 89.2805 119.69C87.7459 117.494 85.7325 115.48 86.2675 112.43C86.352 111.927 86.5351 111.423 86.521 110.919C86.4787 108.373 86.3802 105.842 86.2957 103.296C86.0704 103.128 85.8592 102.96 85.634 102.792C85.0286 102.764 84.4232 102.75 83.8178 102.722C83.7192 102.666 83.6347 102.68 83.5362 102.722H82.3958C82.3113 102.68 82.2268 102.694 82.1423 102.736C81.1709 102.736 80.1853 102.75 79.2139 102.764C79.1294 102.708 79.0449 102.708 78.9745 102.764C78.707 102.764 78.4536 102.764 78.1861 102.75L77.5947 102.694C77.5103 102.638 77.4117 102.61 77.3132 102.596C76.4262 101.589 75.5392 100.582 74.6522 99.5747C74.1876 98.5955 73.737 97.6163 73.2724 96.6371C72.0194 95.6859 73.3287 95.2103 73.6666 94.5388C74.2721 94.6787 74.8775 94.9305 75.4829 94.9165C76.9189 94.8886 78.355 94.6508 79.7911 94.6228C83.4376 94.5808 87.0982 94.6088 90.8151 94.6088V90.0905C90.6884 90.0485 90.5758 89.9926 90.4491 89.9506C88.7596 89.9086 87.056 89.8247 85.3665 89.8107C81.5651 89.7828 77.7637 89.8107 73.9623 89.8107C73.737 89.7688 73.5259 89.7408 73.3006 89.6988C71.2873 88.9714 69.288 88.4958 67.2747 89.6988C67.1339 89.7268 66.9931 89.7548 66.8664 89.7827C61.2769 89.7967 55.7016 89.8247 50.1121 89.8387C49.9572 89.8807 49.8024 89.9226 49.6475 89.9646C49.5208 91.4474 49.38 92.9302 49.2251 94.6368H61.643C61.8823 94.6368 62.1217 94.6368 62.361 94.6368C62.5863 94.6368 62.8257 94.6368 63.0509 94.6368C63.1776 94.6368 63.2903 94.6368 63.417 94.6368C63.7549 94.6368 64.1069 94.6368 64.4448 94.6368C65.5429 94.8466 66.627 95.0424 67.7252 95.2523C67.8097 95.3782 67.8801 95.5041 67.9646 95.616C67.9646 95.9377 67.9646 96.2734 67.9646 96.5952C66.627 96.7071 65.6274 97.1547 65.8949 98.7774C64.9516 100.036 63.9942 101.295 63.0509 102.554C62.6989 102.61 62.347 102.666 61.995 102.722C61.5585 102.722 61.1361 102.722 60.6997 102.736C60.0661 102.736 59.4326 102.736 58.7849 102.75C58.6019 102.75 58.4048 102.75 58.2217 102.75C57.3629 102.75 56.49 102.75 55.6312 102.736C55.4341 102.736 55.237 102.736 55.0398 102.736C53.7727 102.582 53.2095 103.114 53.2377 104.401C53.294 107.059 53.2799 109.73 53.294 112.388C53.4207 114.766 53.0969 117.018 51.4778 118.921C49.9854 120.921 48.5493 122.964 47.0006 124.908C44.8465 127.594 42.6783 130.238 43.2696 134.014L43.2978 133.972C42.9599 134 42.6361 134.028 42.2982 134.056H42.3122L42.3404 134.14ZM89.0412 79.697C89.0552 79.5432 89.0834 79.3893 89.0975 79.2354C89.013 78.7458 88.9848 78.2422 88.844 77.7526C87.5347 73.0105 81.4947 72.5209 78.9745 74.871C78.2565 75.5424 77.2991 75.9621 76.4543 76.5076C75.7504 76.1439 74.8915 75.9341 74.3706 75.4025C71.9771 72.8566 68.2321 72.8007 65.8527 75.3746C65.5711 75.5564 65.3036 75.7523 65.022 75.9341C64.0505 75.9621 63.065 76.0041 62.0935 76.032L61.7275 75.7243C60.4885 73.626 58.4752 73.5701 56.3914 73.6959C55.6312 73.8638 54.7301 73.8358 54.1106 74.2275C51.9847 75.5844 50.6753 78.9137 51.5482 80.7741C52.3226 82.4388 54.716 84.7469 57.7994 84.4251C58.8412 85.2085 59.8831 85.9779 60.939 86.7612C63.3184 88.0062 65.9653 87.7824 67.4859 85.9079C66.4299 85.9919 65.6415 86.0618 64.839 86.1317C64.5715 84.2433 64.8953 83.8796 67.0072 83.7677C67.4155 84.2433 67.8238 84.7189 68.2321 85.1945L69.823 83.7957C69.9357 83.7957 70.0342 83.7957 70.1328 83.7397C70.7804 84.3132 71.4421 84.8728 72.0898 85.4603C73.8215 87.041 75.6941 88.23 78.172 87.2788C79.059 86.9291 79.8756 86.4115 80.7203 85.9639C81.6636 85.4603 82.5647 84.7749 83.5784 84.4951C85.7185 83.9216 87.7459 83.3061 88.6892 81.0399C88.8159 80.6482 88.9426 80.2566 89.0693 79.8649L89.1115 79.781L89.0552 79.711L89.0412 79.697ZM74.3565 150.311C73.8778 149.71 73.3991 149.108 72.9204 148.493C71.245 146.087 69.2458 146.045 67.5 148.381C67.3169 148.814 67.148 149.248 66.9649 149.696C66.8523 149.766 66.7538 149.821 66.6411 149.891C66.4018 150.017 66.1483 150.143 65.909 150.269C65.5429 150.311 65.1487 150.451 64.7967 150.381C63.1213 150.017 61.7697 150.605 60.8827 151.934C60.0239 153.221 61.3473 153.99 61.9527 154.913C61.8683 156.032 61.7838 157.165 61.6993 158.285C60.1647 159.837 60.1647 160.131 61.6993 161.418C62.1498 161.656 62.6145 162.117 63.065 162.089C65.9231 161.95 67.4999 163.81 69.0909 165.698C69.1331 166.622 69.1472 167.629 70.4284 167.671C71.78 167.713 71.4562 166.594 71.597 165.824C71.6111 165.712 71.6252 165.601 71.6533 165.489C72.484 164.523 73.3147 163.558 74.2439 162.481C74.6944 162.481 75.3421 162.537 75.9756 162.481C79.2561 162.173 79.9882 161.04 78.89 157.935C78.6929 157.571 78.4958 157.221 78.2987 156.858C78.2987 156.522 78.2706 156.186 78.2565 155.837C79.7207 154.578 79.6926 152.717 79.0871 151.388C78.7352 150.633 76.8063 150.563 75.5673 150.241C75.1872 150.143 74.7648 150.269 74.3565 150.297V150.311ZM106.739 92.1748C109.526 86.4815 109.245 80.6622 107.626 74.2975C104.852 77.4868 104.81 81.4036 103.205 84.5371C100.248 83.2361 97.6999 81.4736 94.3349 82.0471C95.8977 84.1594 97.5591 86.1038 99.4175 87.8523C101.051 89.3911 102.909 90.706 104.655 92.1188C104.528 92.4965 104.402 92.8602 104.275 93.2379C102.797 92.8462 101.332 92.4546 99.6991 92.0349C99.7554 92.6644 99.6991 92.8742 99.7836 93.0001C102.121 97.1267 105.626 100.176 109.245 103.114C110.568 104.191 111.314 103.967 112.159 102.4C114.567 97.966 115.031 93.2659 113.961 88.3839C113.792 87.6285 113.539 86.9011 113.328 86.1597C113.06 86.1317 112.793 86.0898 112.511 86.0618C111.047 89.2792 109.569 92.4825 108.062 95.7978C107.583 95.4061 107.133 95.0564 106.682 94.6927L106.725 92.1888L106.739 92.1748ZM39.1022 83.0962C43.3682 79.2634 47.1132 75.0948 48.2396 69.1357C47.4511 69.1637 46.7331 69.2616 46.2544 69.6533C42.7487 72.5769 40.3271 76.3538 38.2856 80.3405C37.9054 81.0679 37.2296 82.6626 39.1444 83.0403C38.4545 83.5579 37.7646 84.0754 36.9762 84.6769C35.3853 81.2218 35.526 77.347 32.7384 74.3954C32.4568 75.0668 32.1752 75.4585 32.147 75.8642C31.8795 78.9556 31.429 82.0611 31.5135 85.1525C31.5698 87.1249 32.2597 89.1533 32.9918 91.0277C33.6394 92.6644 34.4983 92.7623 35.9766 91.7411C36.7509 91.2096 37.5253 90.664 38.2011 90.0345C40.4819 87.8943 42.7346 85.7261 44.945 83.5159C45.2548 83.2081 45.2689 82.6206 45.4237 82.159C44.9732 82.103 44.5086 81.9352 44.0862 82.0191C42.4108 82.3269 40.7635 82.7185 39.1022 83.0822V83.0962ZM27.9092 127.09C28.8525 127.538 29.7958 127.901 30.4998 126.74C33.0059 122.6 35.2867 118.375 35.4134 113.2C32.0766 114.305 30.6546 117.242 28.6413 119.648C26.276 116.445 24.4739 112.976 20.3346 111.199C21.1512 116.627 22.6717 121.285 25.8114 125.356C25.4312 125.733 25.0511 126.125 24.671 126.503C23.7558 126.139 22.8407 125.733 21.9114 125.439C21.5313 125.314 21.0808 125.439 20.6725 125.439C20.7288 125.859 20.6443 126.363 20.8555 126.698C24.0656 132.056 28.3879 136.113 34.5264 137.945C35.6528 138.281 36.6524 137.959 36.8354 136.616C37.0044 135.427 37.0748 134.21 37.0888 133.007C37.1029 130.363 37.0888 127.734 36.9903 125.09C36.9762 124.712 36.4553 124.083 36.1174 124.055C35.6809 124.013 34.991 124.334 34.7939 124.712C33.6957 126.754 32.7102 128.853 31.6543 131.021C30.3871 130.168 28.9651 129.216 27.5431 128.265C27.6698 127.873 27.8106 127.496 27.9373 127.104L27.9092 127.09ZM56.3774 153.92C56.3774 153.333 56.5041 152.731 56.3633 152.2C54.9554 147.318 52.2522 143.191 48.6338 139.638C48.3381 139.344 47.8313 139.274 47.4371 139.092C47.254 139.54 46.9584 139.988 46.9302 140.435C46.7472 142.855 47.5497 145.023 48.662 147.136C49.0562 147.877 49.3096 148.702 49.7601 149.807C46.4234 148.353 38.3982 148.996 36.6524 150.717C43.0443 153.081 49.2251 156.13 56.4055 153.906L56.3774 153.92ZM40.8621 92.5665C40.665 92.4126 40.4819 92.2587 40.2848 92.1048C37.652 92.4546 35.3008 93.4617 33.203 95.0984C32.2034 95.8817 31.7387 95.8817 31.3445 94.4409C30.7391 92.2307 29.8521 90.0765 28.8947 87.9782C28.5287 87.1809 27.6276 86.6213 26.6702 85.6561C26.4027 87.6705 26.2901 89.0414 26.0367 90.3982C25.2623 94.6927 25.7128 98.7494 28.1345 102.484C29.12 103.995 30.0492 104.219 31.4149 103.002C33.5127 101.155 35.6105 99.281 37.4971 97.2386C38.7924 95.8398 39.7357 94.1192 40.8339 92.5525L40.8621 92.5665ZM22.8688 97.5464C22.6717 97.6583 22.4605 97.7562 22.2634 97.8681C22.2634 100.372 22.0382 102.904 22.3197 105.394C22.6717 108.597 23.7277 111.619 26.0226 114.067C27.0222 115.13 28.0218 115.172 29.0355 114.165C30.1055 113.102 31.1896 112.052 32.1611 110.891C34.1322 108.555 36.0751 106.177 37.1029 102.988C33.4705 103.128 31.2178 105.898 28.2893 107.129C27.0363 103.464 25.5439 100.134 22.8688 97.5464ZM104.669 113.549C105.345 117.872 106.936 121.719 109.02 125.37C109.273 125.817 109.555 126.265 109.892 126.643C111.019 127.86 112.173 127.846 113.342 126.643C116.242 123.691 117.861 120.054 118.959 116.165C119.354 114.766 119.537 113.311 119.889 111.479C119.03 111.815 118.453 111.871 118.157 112.178C116.594 113.815 115.074 115.494 113.581 117.2C112.92 117.956 112.356 118.781 111.695 119.648C108.625 115.186 106.88 113.661 104.669 113.521V113.549ZM111.737 107.226C109.146 105.828 106.865 103.561 103.571 102.89C103.613 103.422 103.571 103.659 103.641 103.855C105.556 108.192 108.611 111.689 112.075 114.85C112.314 115.074 113.314 114.906 113.609 114.584C117.904 110.136 118.34 104.513 118.27 98.7774C118.27 98.3997 117.636 98.022 117.002 97.3086C115.144 100.792 113.483 103.911 111.723 107.212L111.737 107.226ZM101.994 82.5507C102.571 78.4381 95.4472 68.8559 92.0963 69.2616C91.9696 73.2483 98.6854 82.2709 101.994 82.5507Z" fill="#0064A9"/>
<path d="M212.206 72.9406C213.501 72.9406 214.797 72.8706 216.078 72.9545C217.95 73.0665 219.612 72.8286 221.104 71.4857C221.653 70.9962 222.864 70.9122 223.681 71.0941C226.595 71.7236 229.467 72.5489 232.353 73.2763C233.691 73.612 233.987 75.3326 232.888 76.8434C231.931 78.1583 230.861 79.4033 229.904 80.7182C228.186 83.0682 227.032 85.5722 227.06 88.6077C227.074 90.2024 226.511 91.7971 226.313 93.3918C226.159 94.6787 225.426 95.2662 224.272 95.6719C221.315 96.6931 218.415 97.2946 215.557 95.3921C215.191 95.1543 214.698 95.0284 214.248 94.9865C212.685 94.8466 211.108 94.7487 209.545 94.6647C206.983 94.5248 206.335 95.0284 206.391 97.5743C206.462 100.876 206.8 104.177 206.898 107.492C206.997 111.185 207.715 114.934 206.349 118.557C205.068 121.956 201.069 123.103 198.169 120.865C197.789 120.571 197.55 119.858 197.564 119.354C197.592 117.844 197.733 116.333 197.888 114.822C198.451 109.521 199.042 104.219 199.633 98.9172C199.901 96.5951 199.535 96.1335 197.226 96.3993C194.326 96.735 191.284 96.777 188.609 97.7702C186.061 98.7074 183.836 100.61 181.64 102.288C180.19 103.394 178.824 104.205 177.05 103.408C174.896 102.442 173.122 101.155 172.911 98.4696C172.7 95.7838 173.559 93.3778 174.769 91.1396C176.628 87.6984 176.121 84.593 173.882 81.5995C173.249 80.7601 172.629 79.9208 171.925 79.1235C170.306 77.263 169.94 75.0668 170.208 72.7447C170.25 72.353 170.996 71.7096 171.405 71.7096C178.937 71.8355 186.483 72.0453 194.016 72.2271C194.072 72.2271 194.142 72.2411 194.185 72.2271C195.198 71.8774 196.198 71.5277 197.212 71.178C196.663 70.4086 196.184 69.5833 195.55 68.8839C193.157 66.296 192.847 64.5335 194.199 61.6658C194.903 60.183 199.76 58.0008 201.407 58.2386C206.082 58.938 207.18 62.8269 205.167 67.6389C204.674 68.8279 204.477 70.1848 204.322 71.4718C204.209 72.437 204.829 72.9266 205.87 72.9126C207.982 72.8846 210.094 72.9126 212.206 72.9126V72.9406ZM208.841 79.3333L208.306 79.4592C206.11 79.8929 205.265 80.8581 205.335 82.9983C205.378 84.3272 205.589 85.6421 205.659 86.971C205.73 88.4119 206.476 89.0693 207.898 89.0553C210.066 89.0413 212.234 89.0693 214.402 89.0134C217.345 88.9294 217.95 88.4538 218.823 85.6421C219.105 84.7609 219.372 83.8656 219.584 82.9563C220.133 80.5783 219.598 79.8649 217.092 79.4732C215.867 79.4172 214.656 79.3473 213.431 79.2913C211.91 79.2913 210.39 79.3053 208.855 79.3193L208.841 79.3333ZM196.156 79.3333C195.691 79.3333 195.227 79.3333 194.762 79.3193C194.41 79.3193 194.058 79.3193 193.706 79.3193C191.946 79.3193 190.186 79.3193 188.426 79.3193C188.018 79.3753 187.624 79.4172 187.216 79.4732C186.483 80.0467 185.287 80.5083 185.104 81.2218C184.597 83.2641 184.287 85.4183 184.343 87.5166C184.386 88.8175 185.005 90.3423 186.835 90.3842C189.693 90.4402 192.566 90.4542 195.424 90.3842C196.803 90.3563 197.536 89.433 197.564 88.1041C197.62 85.7261 197.634 83.348 197.55 80.97C197.536 80.4664 196.986 79.9768 196.677 79.4872C196.508 79.4312 196.339 79.3753 196.156 79.3333Z" fill="#0064A9"/>
<path d="M364.079 99.0291C370.316 99.0151 373.821 95.3361 375.905 90.0205C376.468 88.5657 376.356 86.8171 376.398 85.2084C376.426 84.1873 375.68 84.1173 374.779 84.2013C369.724 84.6909 364.684 85.2084 359.615 85.5302C356.701 85.712 355.828 84.523 356.349 81.6414C356.884 78.6338 358.728 76.8993 361.756 77.4868C366.627 78.438 371.498 78.5639 376.412 78.5639C377.046 78.5639 377.665 78.5639 378.27 78.5639C378.848 77.0811 378.397 76.046 377.44 75.1227C375.581 73.3182 374.216 71.3878 374.666 68.5341C375.046 66.1561 377.285 62.9667 380.34 63.4563C380.861 63.5402 381.396 63.4983 381.917 63.4563C384.62 63.2465 385.127 63.5402 385.831 66.7016C386.619 70.2127 386.549 73.6259 383.874 76.8013C387.408 78.1163 390.618 78.6478 394.025 77.6826C395.672 77.221 397.39 77.0112 399.094 76.7174C400.741 76.4376 402.416 76.3257 404.035 75.9201C405.655 75.5144 407.724 75.8781 408.766 77.0112C409.512 77.8225 409.935 80.9979 409.329 82.033C409.146 82.3548 408.597 82.6625 408.231 82.6625C406.133 82.6206 404.049 82.4807 401.952 82.3828C400.501 82.3128 399.051 82.2009 397.601 82.2569C395.799 82.3268 393.997 82.5926 392.195 82.6905C390.139 82.8164 389.351 83.4179 389.829 85.3903C390.252 87.1389 391.012 89.0133 392.195 90.3142C396.714 95.2802 402.599 98.1198 408.907 100.218C410.709 100.82 412.427 101.701 414.144 102.54C416.115 103.505 418.016 104.666 420.029 105.548C420.747 105.855 421.733 105.674 422.578 105.548C424.14 105.324 425.661 104.82 427.224 104.722C428.998 104.625 429.772 105.744 428.829 107.156C425.985 111.465 422.324 114.906 416.932 115.578C415.51 115.759 413.933 114.766 412.413 114.347C410.047 113.703 408.175 112.458 406.429 110.64C401.994 106.009 397.348 101.589 392.673 97.1826C391.026 95.6299 389.168 94.231 387.211 93.084C386.084 92.4265 384.55 92.1467 383.24 92.2447C381.41 92.3706 380.509 93.6995 380.65 95.7698C380.791 97.9939 380.34 99.6026 378.144 100.834C377.017 101.463 376.285 103.044 375.708 104.345C375.018 105.897 373.948 106.765 372.343 107.072C367.359 108.024 362.389 108.975 357.405 109.87C355.49 110.206 353.801 109.8 352.731 107.926C352.21 107.017 351.618 106.093 350.858 105.408C348.591 103.38 349.141 101.099 349.985 98.7074C350.309 97.7981 350.774 97.5743 351.703 97.8121C353.223 98.2178 354.772 98.4835 356.321 98.8193C356.448 98.8193 356.574 98.8472 356.701 98.8612C359.01 98.9032 361.319 98.9592 363.628 99.0151C363.783 98.9871 363.924 98.9731 364.079 98.9452V99.0291Z" fill="#0064A9"/>
<path d="M459.874 81.3198C461.211 80.6064 462.464 80.9142 463.605 81.7255C464.562 82.3969 465.407 83.2363 466.392 83.8517C466.871 84.1595 467.659 84.4113 468.11 84.2154C468.532 84.0336 468.941 83.2502 468.941 82.7327C468.997 77.8926 469.011 73.0666 468.898 68.2266C468.884 67.4432 468.152 66.6459 467.645 65.9324C467.392 65.5687 466.73 65.4708 466.547 65.0931C466.012 63.988 465.294 62.813 465.322 61.6799C465.322 61.2323 467.04 60.6448 468.039 60.407C470.588 59.8055 473.178 59.4138 475.727 58.8263C477.43 58.4346 478.965 58.7843 479.43 59.8894C480.063 61.3722 479.134 63.9601 477.656 64.5756C476.853 64.9113 475.952 64.9952 475.121 65.261C474.727 65.3869 474.403 65.7086 474.037 65.9324C474.375 66.2682 474.699 66.6319 475.079 66.9396C475.192 67.0236 475.417 66.9536 475.6 66.9816C476.487 67.1215 478.022 67.0375 478.148 67.4292C478.543 68.5903 478.472 69.9332 478.345 71.1921C478.317 71.4859 477.374 71.8916 476.853 71.8916C475.149 71.8776 474.333 72.7588 474.234 74.3116C474.136 75.9203 475.206 76.6337 476.642 76.7316C477.796 76.8155 478.543 77.1652 478.74 78.3682C478.965 79.6832 478.078 80.0329 477.121 80.4665C476.557 80.7183 476.163 81.3338 475.699 81.7954C476.219 82.271 476.684 83.0684 477.261 83.1663C478.683 83.4041 480.19 83.488 481.626 83.3342C485.653 82.9145 489.609 83.1104 493.635 83.6559C496.86 84.0896 500.196 83.7678 503.477 83.7958C504.42 83.9217 505.363 84.0476 506.307 84.1735C506.349 84.0056 506.377 83.8378 506.419 83.6699C505.575 82.9845 504.716 82.313 503.871 81.6276C502.759 81.082 501.703 80.2287 500.534 80.0469C498.366 79.6972 496.113 79.837 493.931 79.5573C492.298 79.3614 490.623 79.0117 489.102 78.4102C487.891 77.9206 486.976 77.8227 485.85 78.5641C484.709 79.3055 483.47 80.1588 481.992 79.1936C481.232 78.704 481.006 78.2004 481.879 77.6129C483.132 76.7596 484.442 75.9762 485.61 75.039C487.441 73.5702 487.539 72.8148 485.779 71.2621C483.667 69.4016 482.499 67.1215 481.851 64.3797C482.316 64.3098 482.71 64.2678 483.104 64.2119C485.667 63.7922 485.836 63.5964 485.892 60.9805C485.934 59.0501 488.961 57.1337 490.651 58.0289C490.918 58.1688 491.115 58.6584 491.158 59.0081C491.214 59.7635 491.129 60.5189 491.143 61.2743C491.186 63.8901 492.03 64.7434 494.72 64.9393C494.959 65.4289 495.198 65.9045 495.452 66.3941C492.763 68.6043 492.171 71.6118 492.242 74.8571C492.284 76.8715 493.016 77.5849 495.072 77.5149C497.282 77.445 499.492 77.2492 501.703 77.1652C503.519 77.0953 503.871 76.7036 503.871 74.6333C503.871 72.9127 503.252 72.2972 501.618 72.2273C500.591 72.1853 499.549 72.0874 498.535 71.8776C498.155 71.7936 497.606 71.36 497.592 71.0522C497.578 70.7165 498 70.171 498.352 70.0311C499.436 69.6114 500.591 69.4156 501.675 69.0099C502.139 68.8281 502.759 68.3385 502.801 67.9468C502.843 67.5831 502.266 66.9396 501.83 66.7997C500.675 66.3941 499.45 66.1982 498.253 65.9185C498.253 65.0092 498.253 64.1 498.253 63.2047C498.76 63.0788 499.267 62.827 499.774 62.841C503.392 62.9249 507.011 63.0228 510.629 63.2047C511.91 63.2606 512.305 64.1839 511.615 65.233C511.488 65.4289 511.333 65.6247 511.15 65.7506C507.87 68.0167 507.137 71.2621 507.405 74.969C507.518 76.4099 507.405 77.8786 507.405 79.3335C507.363 82.327 508.996 84.2154 512.023 84.4812C512.994 84.5652 513.98 84.3134 514.966 84.2854C515.515 84.2714 516.373 84.1875 516.556 84.4812C516.838 84.9149 516.923 85.8381 516.627 86.2158C514.937 88.5099 513.163 90.7341 511.305 92.9023C510.995 93.266 510.164 93.2101 509.559 93.336C509.461 92.7904 509.207 92.2309 509.278 91.7133C509.784 87.8665 509.404 87.4188 505.462 87.4048C494.508 87.3769 483.541 87.3629 472.587 87.2929C471.334 87.2929 470.503 87.6566 469.842 88.7198C468.49 90.902 467.054 93.0282 465.618 95.1545C465.195 95.77 464.703 96.3855 464.111 96.8191C462.337 98.1061 460.352 97.1688 460.268 94.9726C460.127 91.4895 460.099 87.9923 460.028 84.4952C460.014 83.7958 459.986 83.0964 459.972 82.383C459.972 82.1591 459.972 81.9353 459.972 81.7115C460 81.6695 460.042 81.6276 460.042 81.5856C460.028 81.5017 459.986 81.4177 459.958 81.3338L459.874 81.3198ZM487.849 70.2549C488.046 70.3388 488.257 70.4088 488.454 70.4927C488.989 69.6394 489.524 68.7721 490.045 67.9188C489.088 67.653 488.131 67.3873 487.173 67.1215C487.06 67.3033 486.948 67.4852 486.835 67.667C487.173 68.5343 487.511 69.3876 487.849 70.2549Z" fill="#0064A9"/>
<path d="M152.876 133.525C192.298 133.525 231.706 133.553 271.128 133.567C345.677 133.567 420.241 133.567 494.79 133.567C507.982 133.567 521.189 133.511 534.381 133.525C534.944 133.525 535.944 133.944 535.986 134.28C536.099 135.021 535.634 135.623 534.606 135.581C532.762 135.511 530.917 135.581 529.073 135.581C486.962 135.581 444.837 135.581 402.726 135.581C322.193 135.581 241.646 135.581 161.113 135.581C158.649 135.581 156.185 135.553 153.721 135.525C152.623 135.525 151.666 135.329 151.891 133.86C152.215 133.749 152.553 133.637 152.876 133.525Z" fill="#B04F1C"/>
<path d="M291.261 59.4415C291.12 61.2041 291.036 62.8128 290.839 64.4074C290.656 65.9322 291.402 66.3938 292.782 66.2959C294.795 66.142 296.738 66.2959 298.779 65.4986C300.328 64.897 302.398 65.6244 304.228 65.7783C305.101 65.8483 305.974 66.1001 306.819 66.0021C308.029 65.8623 309.184 65.3587 310.395 65.2048C311.845 65.009 313.013 65.3727 313.478 67.0513C314.083 69.2475 313.858 70.9821 312.408 71.7794C311.577 72.241 310.55 72.5488 309.606 72.5488C303.228 72.5488 296.865 72.4089 290.487 72.3809C289.684 72.3809 288.882 72.6607 288.079 72.8425C285.249 73.458 282.447 74.1854 279.603 74.689C277.492 75.0667 276.309 76.1298 276.422 78.312C276.745 85.2364 275.872 92.0208 273.859 98.6234C272.733 102.344 271.353 106.023 269.818 109.59C267.706 114.458 262.539 116.962 257.288 116.053C256.204 115.871 254.979 116.249 253.979 115.899C252.557 115.41 251.037 114.738 250.023 113.703C248.925 112.57 249.643 111.073 250.445 109.842C251.727 107.856 252.994 105.869 254.43 103.645C255.12 104.555 255.852 105.296 256.345 106.177C257.429 108.178 258.766 108.555 260.681 107.282C263.455 105.45 265.031 102.68 266.186 99.7564C269.706 90.9157 270.621 81.8511 267.932 72.5767C267.552 71.2618 267.369 69.863 267.312 68.4921C267.298 68.0025 267.847 67.2191 268.326 67.0093C270.213 66.226 272.24 66.2819 273.831 67.5689C277.027 70.1427 280.279 68.8138 283.475 67.8906C285.094 67.415 284.658 65.9042 284.179 64.7711C283.63 63.4982 282.842 62.3232 282.152 61.1062C281.926 60.7005 281.631 60.2948 281.532 59.8612C281.406 59.3156 281.208 58.5742 281.476 58.2245C281.715 57.9028 282.546 57.8608 283.067 57.9447C285.7 58.3644 288.333 58.882 291.275 59.4135L291.261 59.4415Z" fill="#0064A9"/>
<path d="M476.022 91.1957C478.303 91.1118 480.288 90.7621 482.006 92.2448C482.33 92.5246 482.992 92.4827 483.499 92.4827C486.906 92.5106 490.299 92.3987 493.706 92.5666C495.536 92.6505 497.423 92.9723 499.141 93.5877C501.027 94.2592 501.041 95.1265 499.521 96.3715C499.197 96.6233 498.901 96.903 498.577 97.1548C497.62 97.9102 496.226 98.7215 496.916 100.05C497.437 101.03 498.704 101.995 499.788 102.205C503.378 102.904 507.025 103.352 510.686 103.687C512.98 103.897 514.065 105.072 513.332 107.255C513.192 107.688 512.403 108.164 511.896 108.192C508.081 108.444 504.294 108.178 500.647 106.961C499.746 106.653 498.958 105.94 498.155 105.366C496.367 104.079 493.973 104.583 493.636 106.541C492.692 111.787 489.187 115.242 485.498 118.599C484.329 119.662 483.104 120.656 481.922 121.691C479.12 124.139 475.924 124.782 472.277 124.153C469.926 123.747 467.505 123.705 465.111 123.677C461.577 123.649 460.62 122.796 460.549 119.369C460.521 118.096 460.395 116.837 460.24 115.578C460.099 114.389 460.578 113.871 461.788 113.857C464.928 113.787 467.378 115.466 469.757 117.13C470.94 117.956 472.08 118.361 473.347 117.886C476.67 116.627 480.063 115.438 483.217 113.815C484.921 112.948 486.216 111.297 487.624 109.912C488.004 109.535 488.243 108.905 488.328 108.36C488.877 104.974 486.765 103.743 482.865 104.988C481.457 105.436 479.936 105.73 478.458 105.786C476.459 105.87 474.685 106.079 472.826 107.129C469.799 108.835 468.335 107.241 467.969 104.387C467.913 103.981 467.997 103.562 467.955 103.17C467.786 101.729 468.349 101.225 469.842 101.253C473.882 101.351 477.937 101.323 481.978 101.295C482.724 101.295 483.484 101.128 484.203 100.932C485.273 100.638 485.864 99.7707 485.484 98.8055C485.174 98.0081 484.442 97.0289 483.696 96.8191C482.471 96.4834 481.091 96.6233 479.796 96.7352C478.233 96.8611 476.191 95.3503 476.079 93.7836C476.022 92.9862 476.079 92.1749 476.079 91.2097L476.022 91.1957ZM491.087 95.3783C490.031 95.8679 488.637 96.0777 488.215 96.8191C487.863 97.4486 488.637 98.7075 488.933 99.6728C488.975 99.8266 489.13 99.9525 489.229 100.106C489.806 100.904 490.594 101.449 491.411 100.638C492.411 99.6588 494.199 99.1971 494.002 97.2947C493.973 97.0989 493.805 96.8331 493.622 96.7352C492.847 96.2735 492.031 95.8679 491.087 95.3643V95.3783Z" fill="#0064A9"/>
<path d="M309.536 100.554C304.805 100.554 300.061 100.428 295.33 100.61C292.556 100.722 289.811 101.323 287.037 101.715C286.629 101.771 286.235 101.939 285.841 101.967C282.645 102.19 280.758 101.827 282.447 97.854C283.982 94.2449 283.672 90.468 282.968 86.7191C282.729 85.4182 282.476 84.1032 282.419 82.7883C282.307 79.9906 283.56 78.7596 286.333 78.5498C287.713 78.4379 289.093 78.1861 290.43 77.8364C295.006 76.6334 299.624 77.2629 304.242 77.3048C306.044 77.3188 307.832 77.3048 309.634 77.1789C311.127 77.067 312.436 77.137 313.337 78.5358C313.816 79.2632 314.379 79.9347 314.914 80.6341C315.97 81.991 316.153 83.0961 314.379 84.1592C313.717 84.5509 313.168 85.642 313.098 86.4673C312.746 90.44 312.563 94.4268 312.324 98.4135C312.183 100.945 312.155 100.987 309.536 100.61V100.554ZM290.529 95.7697C295.034 95.7557 299.554 95.7417 304.059 95.6997C306.072 95.6857 308.142 94.3988 308.072 93.2797C308.001 92.1746 306.086 91.1255 304.059 91.1255C300.61 91.1255 297.146 91.0276 293.697 91.1535C291.36 91.2374 289.022 91.6291 286.643 91.8948C287.403 94.6646 288.164 95.4479 290.135 95.7417C290.261 95.7417 290.388 95.7557 290.529 95.7697ZM299.089 82.3127C295.949 82.5225 293.331 81.8651 291.092 83.7395C290.402 84.3131 289.121 84.4669 289.543 85.6C289.698 86.0197 291.008 86.0197 291.796 86.1875C291.951 86.2155 292.12 86.0616 292.289 86.0476C296.006 85.8798 299.737 85.7399 303.454 85.5441C304.735 85.4741 306.044 85.4042 307.283 85.1104C307.72 84.9985 307.973 84.1872 308.311 83.6976C307.818 83.3758 307.339 82.8163 306.819 82.7743C304.031 82.5365 301.243 82.4246 299.089 82.3127Z" fill="#0064A9"/>
<path d="M326.346 110.64C322.728 113.158 319.18 115.787 315.435 118.137C313.478 119.368 310.775 118.109 310.028 115.592C309.156 112.612 308.705 109.507 308.17 106.443C308.015 105.562 307.874 104.317 309.127 104.177C310.423 104.023 311.845 103.561 312.999 104.974C313.886 106.065 315.055 107.003 316.28 107.702C316.955 108.094 318.082 108.108 318.856 107.856C322.01 106.807 324.375 107.576 326.346 110.64Z" fill="#0064A9"/>
<path d="M302.412 113.479C302.074 115.634 301.848 117.354 301.525 119.061C301.215 120.725 299.877 121.411 298.455 121.383C297.582 121.369 296.555 120.641 295.907 119.942C294.471 118.403 294.274 116.445 294.401 114.389C294.485 113.074 294.401 111.647 293.978 110.402C293.218 108.108 293.88 106.135 295.02 104.261C295.682 103.184 297.442 103.45 298.047 104.708C298.554 105.744 299.089 106.457 300.328 106.583C300.624 106.611 301.018 107.184 301.116 107.576C301.609 109.646 302.031 111.731 302.412 113.479Z" fill="#0064A9"/>
<path d="M281.194 116.361C277.9 116.543 275.858 114.361 274.295 111.619C273.408 110.08 273.859 109.395 275.633 108.863C277.914 108.178 280.195 107.478 282.447 106.667C284.249 106.024 286.347 106.079 287.291 107.352C288.234 108.625 288.037 110.738 288.332 112.472C288.332 112.528 288.318 112.626 288.29 112.64C285.756 113.423 284.616 116.683 281.208 116.361H281.194Z" fill="#115994"/>
<path d="M495.41 66.3796C495.17 65.89 494.931 65.4144 494.677 64.9248C495.846 64.3373 497.015 63.7498 498.197 63.1763C498.197 64.0855 498.197 64.9948 498.197 65.89C497.268 66.0579 496.339 66.2118 495.41 66.3796Z" fill="#0064A9"/>
<path d="M459.902 82.3687C459.916 83.0681 459.944 83.7675 459.958 84.4809C459.944 83.7815 459.916 83.0821 459.902 82.3687Z" fill="#0064A9"/>
<path d="M356.701 98.9453C356.574 98.9453 356.448 98.9173 356.321 98.9033C356.448 98.9033 356.574 98.9313 356.701 98.9453Z" fill="#0064A9"/>
<path d="M459.874 81.3198C459.902 81.4038 459.944 81.4877 459.958 81.5716C459.958 81.6136 459.916 81.6555 459.888 81.6975C459.888 81.5716 459.888 81.4457 459.874 81.3198Z" fill="#0064A9"/>
<path d="M51.5059 118.991C53.125 117.088 53.4488 114.836 53.3221 112.458C57.3487 112.528 61.3895 112.598 65.4161 112.668H65.7118C66.1623 112.486 66.6129 112.304 67.0493 112.122C67.0775 112.094 67.1338 112.053 67.1338 112.025C67.1338 111.941 67.0916 111.871 67.0775 111.787C67.0775 109.185 67.0775 106.583 67.0775 103.995C67.1479 103.673 67.2183 103.338 67.2887 103.016C67.8941 102.918 68.4995 102.834 69.1049 102.736C69.5695 102.736 70.0341 102.736 70.4987 102.736C70.6254 102.736 70.7381 102.736 70.8648 102.75C71.1041 102.75 71.3294 102.722 71.5687 102.722C72.1178 102.82 72.681 102.932 73.2301 103.03C73.2864 103.156 73.3427 103.268 73.399 103.394C73.399 103.617 73.399 103.841 73.399 104.065C73.399 105.002 73.4131 105.94 73.4272 106.877C73.4272 108.276 73.4272 109.66 73.4131 111.059C73.4131 111.185 73.4131 111.311 73.4131 111.423C73.4413 111.647 73.4554 111.885 73.4835 112.108L73.6806 112.472C73.8073 112.57 73.92 112.668 74.0467 112.766C76.0741 112.78 78.1015 112.85 80.1289 112.808C82.1845 112.752 84.2541 112.598 86.3097 112.472C85.7747 115.522 87.788 117.536 89.3226 119.732C91.5472 122.908 93.8139 126.069 96.0243 129.258C96.2919 129.65 96.3622 130.182 96.5171 130.657C96.1088 130.545 95.7005 130.433 95.2922 130.322C93.7154 128.111 92.1526 125.887 90.5757 123.677C89.3649 122.11 88.1541 120.544 86.9292 118.991C82.6913 118.921 78.4535 118.823 74.2016 118.837C73.9341 118.837 73.6665 119.704 73.399 120.166C73.399 120.292 73.399 120.418 73.4131 120.544C73.4131 126.824 73.4131 133.119 73.4272 139.4C73.4272 139.526 73.4272 139.652 73.4272 139.778C73.4272 140.477 73.4413 141.163 73.4554 141.862C73.4272 142.1 73.399 142.338 73.385 142.575C71.2308 143.457 69.0767 144.478 66.9367 142.547C66.9648 141.862 67.0212 141.163 67.0352 140.477C67.0775 133.595 67.1197 126.712 67.1479 119.83C67.176 119.802 67.2464 119.774 67.2464 119.746C67.2464 119.662 67.2183 119.592 67.2042 119.508C66.6129 119.271 66.0215 118.851 65.4161 118.837C62.7411 118.767 60.066 118.725 57.391 118.837C55.8845 118.893 54.378 119.243 52.8715 119.466C52.4351 119.327 51.9986 119.173 51.5481 119.033L51.5059 118.991Z" fill="white"/>
<path d="M52.8293 119.424C54.3358 119.2 55.8423 118.851 57.3488 118.795C60.0238 118.697 62.6989 118.725 65.3739 118.795C65.9793 118.809 66.5566 119.228 67.162 119.466C67.0775 119.564 67.0634 119.676 67.1198 119.788C67.0775 126.67 67.0494 133.553 67.0071 140.435C67.0071 141.121 66.9508 141.82 66.9086 142.505C66.3595 142.575 65.6978 142.897 65.3035 142.701C59.8408 139.973 55.4762 136.266 54.2513 129.902C53.829 127.678 53.3644 125.453 52.9279 123.215C52.942 122.306 52.9842 121.397 52.9842 120.501C52.9842 120.138 52.8857 119.774 52.8434 119.41L52.8293 119.424Z" fill="#AC4523"/>
<path d="M73.4272 141.834C73.4272 141.135 73.4132 140.449 73.3991 139.75C73.4272 139.708 73.4976 139.666 73.4836 139.638C73.4836 139.554 73.4272 139.47 73.3991 139.372C73.3991 133.091 73.3991 126.796 73.385 120.516H73.5258H73.6666C74.7085 120.488 75.7644 120.488 76.8063 120.46C80.0726 120.362 83.3531 120.25 86.6195 120.152C86.7743 120.46 86.9292 120.781 87.0982 121.089C87.07 121.705 87.0418 122.306 87.0278 122.922C86.8025 123.789 86.3942 124.656 86.366 125.537C86.2112 133.189 82.1 138.253 75.7362 141.876C75.2575 142.142 74.624 142.114 74.0608 142.226C73.8496 142.1 73.6384 141.974 73.4272 141.848V141.834Z" fill="#AD4523"/>
<path d="M87.0278 122.936C87.056 122.32 87.0841 121.719 87.0982 121.103C87.9007 121.956 88.6892 122.796 89.4917 123.649C90.9419 125.705 92.3639 127.804 93.8844 129.818C94.1238 130.14 94.7855 130.154 95.2501 130.307C95.6584 130.419 96.0667 130.531 96.475 130.643C96.6017 131.916 96.7143 133.189 96.841 134.462C97.0241 134.518 97.193 134.574 97.3761 134.63C97.8125 134.168 98.2349 133.693 98.6854 133.245C99.2345 132.714 99.7977 132.224 100.361 131.706C100.699 132.294 101.051 132.881 101.389 133.483C101.389 135.665 101.389 137.847 101.389 140.393C103.881 139.75 106.007 139.204 108.147 138.659C110.216 138.519 112.3 138.379 114.37 138.239C114.468 138.463 114.567 138.701 114.665 138.924C112.089 141.652 108.879 143.415 104.725 144.632C105.556 145.807 106.345 146.926 107.147 148.045C106.964 148.451 106.781 148.856 106.598 149.276C106.302 148.898 106.007 148.507 105.725 148.129C105.598 147.919 105.458 147.695 105.331 147.485L104.979 147.094C104.641 146.73 104.303 146.352 103.951 145.989C102.966 145.961 101.966 145.821 100.994 145.947C99.2064 146.17 97.4465 146.562 95.1938 146.968C95.7006 143.471 96.1371 140.393 96.5735 137.316C96.4468 136.56 96.5735 135.623 96.1652 135.064C93.1805 130.979 90.083 126.964 87.0278 122.936Z" fill="#FAFCFD"/>
<path d="M67.0635 103.981C67.0635 106.583 67.0635 109.185 67.0635 111.772C67.0635 111.884 67.0635 111.996 67.0495 112.108C66.5989 112.29 66.1484 112.472 65.7119 112.654C65.6134 112.654 65.5148 112.654 65.4163 112.654C61.3896 112.584 57.3489 112.514 53.3222 112.444C53.3081 109.786 53.3222 107.114 53.2659 104.456C53.2377 103.17 53.8009 102.638 55.068 102.792C55.2651 102.792 55.4623 102.792 55.6594 102.792C56.5182 102.792 57.3911 102.792 58.2499 102.806C58.433 102.806 58.6301 102.806 58.8131 102.806C59.4467 102.806 60.0802 102.806 60.7279 102.792C61.1643 102.792 61.5867 102.792 62.0232 102.778L63.0791 102.61C64.0224 102.61 64.9517 102.596 65.895 102.582C66.1202 102.61 66.3455 102.624 66.5567 102.652C66.5848 102.764 66.6271 102.862 66.6834 102.96C66.8242 103.295 66.9509 103.631 67.0917 103.967L67.0635 103.981Z" fill="#AD4523"/>
<path d="M73.3849 111.059C73.3849 109.66 73.3849 108.276 73.399 106.877C73.399 105.939 73.3849 105.002 73.3708 104.065C73.3708 103.841 73.3708 103.617 73.3708 103.394C73.9481 103.268 74.5113 103.128 75.0885 103.002C75.8347 102.876 76.5809 102.764 77.313 102.638C77.4116 102.652 77.5101 102.694 77.5946 102.736C77.7917 102.75 77.9888 102.778 78.1859 102.792C78.4535 102.792 78.7069 102.792 78.9744 102.806L79.1011 102.876L79.2278 102.806C80.1993 102.806 81.1848 102.792 82.1563 102.778L82.283 102.848L82.4097 102.778C82.7898 102.778 83.17 102.778 83.5501 102.778L83.6909 102.848L83.8317 102.778C84.4371 102.806 85.0425 102.82 85.6479 102.848C85.8732 103.016 86.0844 103.184 86.3097 103.352C86.3941 105.898 86.4786 108.429 86.5349 110.975C86.5349 111.479 86.366 111.983 86.2815 112.486C84.2259 112.598 82.1563 112.766 80.1007 112.822C78.0733 112.878 76.0459 112.808 74.0185 112.78C73.8918 112.682 73.7791 112.584 73.6524 112.486C73.582 112.36 73.5257 112.248 73.4553 112.122C73.4272 111.899 73.4131 111.661 73.3849 111.437C73.4131 111.395 73.4694 111.353 73.4694 111.325C73.4553 111.241 73.4131 111.157 73.3849 111.073V111.059Z" fill="#AD4523"/>
<path d="M56.3774 153.934C49.197 156.158 43.0303 153.123 36.6243 150.745C38.3842 149.024 46.3952 148.381 49.732 149.835C49.2815 148.73 49.0281 147.905 48.6338 147.164C47.5357 145.065 46.7191 142.883 46.9021 140.463C46.9443 140.001 47.24 139.568 47.4089 139.12C47.8172 139.302 48.31 139.372 48.6057 139.666C52.224 143.219 54.9273 147.345 56.3352 152.227C56.49 152.745 56.3493 153.36 56.3493 153.948L56.3774 153.934Z" fill="#FCFDFE"/>
<path d="M103.163 151.262C102.064 151.584 100.938 151.836 99.854 152.213C96.1371 153.528 92.4343 154.843 88.4217 154.759C87.2109 154.731 85.986 154.605 84.8174 154.34C83.8319 154.116 83.142 153.542 83.6629 152.325C85.5073 147.905 87.7459 143.722 91.0263 140.183C91.6317 139.54 92.3639 138.239 93.462 139.75C92.744 142.869 92.026 146.002 91.2798 149.192C94.1519 149.192 97.2634 149.094 100.361 149.234C101.572 149.29 103.205 149.276 103.163 151.262Z" fill="#FCFDFE"/>
<path d="M44.9592 134.196C43.5794 135.497 43.3401 136.784 43.9736 138.757C44.7198 141.051 44.6213 143.625 44.8888 146.212C42.6502 146.828 40.6228 146.394 38.5531 145.779C37.7788 145.541 36.8214 145.933 35.9485 146.045L34.977 145.863C35.5824 144.758 34.7377 144.52 33.9774 144.198C29.9507 142.45 27.4869 140.841 25.3328 138.477C29.9226 138.029 34.0619 139.316 38.1308 140.603C38.4828 138.099 38.7503 135.791 39.1586 133.497C39.2712 132.867 39.8062 132.322 40.1441 131.734C40.651 132.224 41.1578 132.686 41.6506 133.203C41.8054 133.357 41.8477 133.609 41.9462 133.819C42.073 133.931 42.1997 134.042 42.3264 134.154H42.3123C42.6502 134.126 42.974 134.098 43.3119 134.07L43.2838 134.112C43.8329 134.154 44.396 134.182 44.9451 134.224L44.9592 134.196Z" fill="#FCFDFE"/>
<path d="M102.811 132.755C103.064 130.083 103.303 127.398 103.599 124.726C103.641 124.362 103.993 123.803 104.289 123.747C104.641 123.677 105.274 123.942 105.443 124.236C106.556 126.349 107.583 128.517 108.794 130.979C112.075 128.713 115.538 125.999 119.945 124.992C120.001 128.279 114.384 133.986 108.118 137.19C107.386 137.385 106.64 137.525 105.936 137.777C104.556 138.267 103.585 138.225 103.444 136.406C103.346 135.175 103.022 133.972 102.811 132.755Z" fill="#FCFDFE"/>
<path d="M40.862 92.5804C39.7639 94.1471 38.8206 95.8677 37.5253 97.2666C35.6387 99.3089 33.5409 101.183 31.443 103.03C30.0774 104.247 29.1481 104.009 28.1626 102.512C25.741 98.7773 25.2764 94.7207 26.0648 90.4262C26.3041 89.0693 26.4308 87.6984 26.6984 85.6841C27.6557 86.6493 28.5568 87.1948 28.9229 88.0062C29.8803 90.1045 30.7672 92.2587 31.3727 94.4689C31.7669 95.9097 32.2315 95.9097 33.2311 95.1263C35.3289 93.4897 37.6801 92.4685 40.313 92.1328C40.5101 92.2867 40.6931 92.4405 40.8902 92.5944L40.862 92.5804Z" fill="#FAFCFD"/>
<path d="M27.5008 128.265C28.9228 129.216 30.3589 130.181 31.6119 131.021C32.6819 128.853 33.6534 126.754 34.7516 124.712C34.9487 124.334 35.6527 124.013 36.075 124.054C36.4129 124.082 36.9339 124.712 36.9479 125.09C37.0465 127.719 37.0606 130.363 37.0465 133.007C37.0465 134.21 36.962 135.427 36.7931 136.616C36.61 137.959 35.6104 138.281 34.4841 137.945C28.3455 136.113 24.0232 132.056 20.8132 126.698C20.616 126.363 20.6864 125.859 20.6301 125.439C21.0525 125.439 21.503 125.313 21.8691 125.439C22.8124 125.733 23.7135 126.139 24.6286 126.502C25.5719 127.09 26.5293 127.691 27.4726 128.279L27.5008 128.265Z" fill="#FCFDFE"/>
<path d="M106.711 94.6788C107.161 95.0425 107.612 95.3922 108.09 95.7839C109.597 92.4826 111.075 89.2652 112.539 86.0479C112.807 86.0758 113.074 86.1178 113.356 86.1458C113.567 86.8872 113.821 87.6146 113.99 88.3699C115.045 93.2519 114.595 97.9521 112.187 102.386C111.343 103.953 110.596 104.177 109.273 103.1C105.655 100.162 102.149 97.1128 99.8118 92.9862C99.7414 92.8463 99.7836 92.6504 99.7273 92.021C101.36 92.4546 102.825 92.8463 104.303 93.224C105.106 93.6996 105.922 94.1752 106.725 94.6648L106.711 94.6788Z" fill="#FCFDFE"/>
<path d="M25.7974 125.341C22.6577 121.285 21.1372 116.613 20.3206 111.185C24.4598 112.962 26.262 116.431 28.6273 119.634C30.6265 117.228 32.0626 114.304 35.3994 113.185C35.2727 118.347 33.0059 122.586 30.4858 126.726C29.7818 127.887 28.8385 127.538 27.8952 127.076C27.1912 126.489 26.4873 125.901 25.7974 125.327V125.341Z" fill="#FCFDFE"/>
<path d="M22.8828 97.5742C25.5579 100.162 27.0503 103.491 28.3033 107.156C31.2318 105.911 33.4845 103.156 37.1169 103.016C36.0891 106.205 34.1462 108.569 32.1751 110.919C31.2036 112.066 30.1195 113.115 29.0495 114.193C28.0358 115.2 27.0362 115.158 26.0366 114.095C23.7416 111.647 22.6857 108.625 22.3337 105.422C22.0662 102.946 22.2774 100.414 22.2774 97.896C22.4745 97.784 22.6857 97.6861 22.8828 97.5742Z" fill="#FCFDFE"/>
<path d="M104.683 113.577C106.894 113.717 108.625 115.228 111.709 119.704C112.37 118.837 112.948 117.997 113.595 117.256C115.088 115.549 116.608 113.871 118.171 112.234C118.467 111.926 119.044 111.87 119.903 111.535C119.551 113.353 119.368 114.822 118.974 116.221C117.875 120.11 116.256 123.747 113.356 126.698C112.187 127.887 111.047 127.915 109.906 126.698C109.555 126.321 109.287 125.873 109.034 125.425C106.936 121.774 105.359 117.927 104.683 113.605V113.577Z" fill="#FCFDFE"/>
<path d="M111.751 107.24C113.511 103.939 115.186 100.806 117.031 97.3364C117.664 98.0359 118.298 98.4135 118.298 98.8052C118.368 104.541 117.932 110.164 113.638 114.612C113.342 114.92 112.342 115.102 112.103 114.878C108.639 111.717 105.584 108.219 103.67 103.883C103.585 103.687 103.627 103.435 103.599 102.918C106.894 103.589 109.16 105.855 111.765 107.254L111.751 107.24Z" fill="#FCFDFE"/>
<path d="M39.102 83.0961C40.7634 82.7323 42.4106 82.3407 44.0861 82.0329C44.5084 81.949 44.9731 82.1169 45.4236 82.1728C45.2687 82.6344 45.2546 83.222 44.9449 83.5297C42.7345 85.7399 40.4818 87.9081 38.2009 90.0483C37.5251 90.6778 36.7508 91.2234 35.9764 91.7549C34.4981 92.7621 33.6393 92.6782 32.9916 91.0415C32.2595 89.1671 31.5696 87.1387 31.5133 85.1664C31.4288 82.0749 31.8794 78.9694 32.1469 75.878C32.1891 75.4723 32.4566 75.0806 32.7382 74.4092C35.5259 77.3608 35.3851 81.2356 36.9761 84.6907C37.7645 84.0892 38.4544 83.5717 39.1443 83.0541L39.102 83.0961Z" fill="#FCFDFE"/>
<path d="M104.655 92.1329C102.895 90.7201 101.051 89.4051 99.4176 87.8664C97.5591 86.1178 95.9118 84.1734 94.335 82.0612C97.6999 81.4876 100.248 83.2502 103.205 84.5511C104.81 81.4177 104.852 77.5009 107.626 74.3115C109.245 80.6763 109.512 86.4955 106.739 92.1889C106.049 92.1749 105.345 92.1609 104.655 92.1469V92.1329Z" fill="#FCFDFE"/>
<path d="M73.9762 89.8525C77.7776 89.8525 81.579 89.8525 85.3804 89.8525C87.0699 89.8525 88.7735 89.9365 90.463 89.9924C90.5897 90.0344 90.7024 90.0903 90.8291 90.1323V94.6506C87.1122 94.6506 83.4656 94.6226 79.805 94.6646C78.369 94.6786 76.9329 94.9164 75.4968 94.9584C74.8914 94.9723 74.286 94.7205 73.6806 94.5807C73.6665 94.147 73.6524 93.7134 73.6243 93.2657C73.751 92.2166 73.8777 91.1675 74.0185 90.1323C74.0466 90.0344 74.0185 89.9365 73.9762 89.8525Z" fill="white"/>
<path d="M64.4728 94.6924C64.1349 94.6924 63.7829 94.6924 63.445 94.6924C63.3183 94.6924 63.2057 94.6924 63.079 94.6924C62.8537 94.6924 62.6144 94.6924 62.3891 94.6924C62.1497 94.6924 61.9104 94.6924 61.671 94.6924H49.2532C49.408 92.9858 49.5348 91.503 49.6755 90.0202C49.8304 89.9783 49.9853 89.9363 50.1402 89.8943C55.7296 89.8803 61.305 89.8524 66.8944 89.8384C66.8663 89.9503 66.9085 90.0202 67.0071 90.0762C66.641 91.0274 65.7822 92.1185 66.0074 92.9019C66.5143 94.6364 65.5991 94.6085 64.4728 94.6784V94.6924Z" fill="white"/>
<path d="M103.163 151.262C103.205 149.276 101.572 149.29 100.361 149.234C97.2635 149.094 94.166 149.192 91.2798 149.192C92.0119 146.003 92.7299 142.883 93.4621 139.75C93.7296 139.386 94.1801 139.05 94.2223 138.673C94.3772 137.05 95.1938 136.742 96.5877 137.316C96.1512 140.393 95.7147 143.471 95.2079 146.968C97.4606 146.562 99.2205 146.171 101.009 145.947C101.98 145.821 102.98 145.961 103.965 145.989C104.303 146.352 104.641 146.73 104.993 147.094C105.106 147.22 105.218 147.36 105.345 147.486C105.472 147.695 105.612 147.919 105.739 148.129C106.035 148.507 106.33 148.898 106.612 149.276C106.781 149.696 106.964 150.115 107.133 150.535L103.177 151.262H103.163Z" fill="#165692"/>
<path d="M88.6892 81.0261C87.76 83.3062 85.7185 83.9077 83.5785 84.4812C82.5648 84.747 81.6778 85.4464 80.7204 85.95C79.8756 86.3976 79.059 86.9292 78.172 87.2649C75.6941 88.2301 73.8216 87.0271 72.0898 85.4464C71.4422 84.8589 70.7805 84.2994 70.1328 83.7258C70.5974 83.2922 71.0761 82.8585 71.5407 82.4109C73.7089 82.4389 74.2158 80.7603 74.8775 79.2215H75.3984C75.7223 80.9281 75.2295 82.2151 73.6667 83.2083C72.4418 83.9776 72.5967 85.3065 73.9624 85.6702C75.3844 86.0479 76.9331 86.1179 78.4255 86.0899C78.9605 86.0899 79.8756 85.4464 79.9038 85.0408C79.9601 84.3553 79.5377 83.572 79.1717 82.9005C78.5522 81.7814 77.7778 80.7463 77.1724 79.6132C76.8204 78.9278 76.6797 78.1444 76.4544 77.389C76.4544 77.0813 76.4544 76.7875 76.4544 76.4798C77.2991 75.9482 78.2565 75.5146 78.9746 74.8431C81.4947 72.4931 87.5347 72.9826 88.8441 77.7248C88.9708 78.2004 89.013 78.704 89.0975 79.2075C89.0834 79.3614 89.0553 79.5153 89.0412 79.6692L89.0975 79.7391L89.0553 79.823C88.6188 79.6132 88.1964 79.4174 87.76 79.2075C87.7882 78.8438 87.8304 78.4941 87.8585 78.1304C87.8726 78.0885 87.9149 78.0465 87.9008 78.0185C87.8726 77.9486 87.8304 77.8786 87.7882 77.8087C85.9297 74.0598 81.5088 73.3044 78.7915 76.4518C81.354 77.6408 82.4803 79.7111 82.5366 82.4809C82.5366 83.2083 83.2124 83.7818 84.0431 83.2362C85.099 82.5368 86.0846 81.7255 87.0842 80.9561C87.6192 80.9561 88.1401 80.9841 88.6751 80.9981L88.6892 81.0261ZM78.7634 78.1024C78.4396 80.7323 79.7067 82.7047 81.4384 82.4809C81.1005 80.7743 80.5374 79.2635 78.7634 78.1024Z" fill="#C1D5E2"/>
<path d="M39.1443 83.0682C37.2295 82.6905 37.9194 81.0958 38.2855 80.3684C40.3411 76.3817 42.7486 72.6048 46.2543 69.6811C46.733 69.2895 47.4511 69.1916 48.2395 69.1636C47.0991 75.1087 43.3681 79.2913 39.1021 83.1241L39.1443 83.0822V83.0682Z" fill="#FAFCFD"/>
<path d="M101.994 82.5648C98.6853 82.285 91.9695 73.2624 92.0963 69.2757C95.4471 68.87 102.585 78.4521 101.994 82.5648Z" fill="#FAFCFD"/>
<path d="M44.9591 134.196C44.41 134.154 43.8468 134.126 43.2977 134.084C42.7064 130.307 44.8887 127.664 47.0287 124.978C48.5915 123.033 50.0135 120.991 51.5059 118.991C51.9424 119.131 52.3788 119.284 52.8294 119.424C52.8857 119.788 52.9702 120.152 52.9702 120.515C52.9702 121.425 52.942 122.334 52.9138 123.229C50.6189 126.433 48.324 129.622 46.015 132.825C45.6771 133.287 45.3111 133.735 44.945 134.196H44.9591ZM52.3788 121.201L51.872 120.823C49.5067 123.999 47.1273 127.174 44.762 130.335C44.945 130.461 45.114 130.601 45.297 130.727C48.0706 127.845 50.1825 124.488 52.3788 121.187V121.201Z" fill="#E4EFF5"/>
<path d="M65.909 150.269C66.1483 150.143 66.4018 150.017 66.6411 149.891C66.7537 149.821 66.8523 149.765 66.9649 149.695C67.148 149.262 67.3169 148.828 67.4999 148.38C67.7815 148.45 68.0631 148.534 68.3447 148.604C68.3447 149.234 68.3447 149.863 68.3447 150.507C68.1757 151.22 68.0068 151.933 67.8378 152.647C67.7534 153.039 67.8378 153.612 67.5844 153.808C66.6974 154.563 65.7119 155.221 64.5715 156.046C65.6415 157.039 66.796 158.102 67.9364 159.152C67.7956 159.193 67.6407 159.249 67.4999 159.291C67.6689 160.355 67.8378 161.404 68.0068 162.467C68.4573 163.306 68.8938 164.131 69.3443 164.971C69.2598 165.209 69.1613 165.446 69.0768 165.684C67.4859 163.796 65.909 161.935 63.0509 162.075C62.6144 162.103 62.1498 161.641 61.6852 161.404C61.826 161.264 61.9809 161.138 62.1217 160.998C62.7975 161.138 63.4733 161.39 64.135 161.362C64.7123 161.348 65.2895 161.012 65.8527 160.816C65.4584 159.865 65.1487 158.858 64.6137 157.99C64.3884 157.613 63.6845 157.501 63.1776 157.361C63.0931 157.333 62.882 157.753 62.713 157.949C62.5018 158.2 62.2625 158.424 62.0231 158.662C61.9105 158.522 61.7838 158.396 61.6711 158.256C61.7556 157.137 61.8401 156.004 61.9246 154.885C62.0372 154.731 62.1498 154.577 62.2625 154.423C62.713 154.815 63.1776 155.207 63.6422 155.598C64.7545 154.186 66.4862 153.318 65.8667 151.29C65.8667 150.94 65.8667 150.591 65.8808 150.241L65.909 150.269Z" fill="#D7E5EB"/>
<path d="M73.2865 96.665C73.7511 97.6442 74.2017 98.6234 74.6663 99.6026C73.6244 99.9384 72.5685 100.274 71.5266 100.61C70.5974 100.61 69.6541 100.582 68.7248 100.582C68.2461 100.47 67.7815 100.358 67.3028 100.246C66.9509 100.148 66.613 100.036 66.261 99.9384C66.1483 99.5747 66.0216 99.211 65.909 98.8473C65.6415 97.2246 66.6411 96.7909 67.9786 96.665C69.7526 96.665 71.5125 96.665 73.2865 96.665Z" fill="#FAFCFD"/>
<path d="M78.8901 157.935C79.9882 161.026 79.2561 162.173 75.9757 162.481C75.3421 162.537 74.6944 162.481 74.2439 162.481C73.3147 163.558 72.484 164.523 71.6533 165.488L71.7096 165.362L71.6252 165.251C71.6111 164.915 71.597 164.565 71.5829 164.229L72.3714 162.089C71.6674 161.949 70.9775 161.767 70.2736 161.683C69.7667 161.628 69.2458 161.697 68.7389 161.725C68.7389 161.012 68.7389 160.299 68.7249 159.585C69.8653 159.795 71.0057 160.019 71.8786 160.173C72.3573 159.529 72.8501 158.886 73.3288 158.256C73.4414 158.158 73.554 158.046 73.6526 157.949C73.7511 157.851 73.8497 157.753 73.9482 157.655C74.4269 157.389 74.9056 157.123 75.3843 156.857C75.5251 157.249 75.68 157.627 75.8208 158.018C75.1168 158.886 74.4129 159.739 73.7089 160.606C73.8356 160.76 73.9623 160.914 74.1031 161.082H78.8056C78.3973 159.781 78.1016 158.872 77.806 157.949C78.172 157.949 78.5381 157.949 78.8901 157.949V157.935Z" fill="#D7E5EB"/>
<path d="M67.0212 83.7677C64.9093 83.8936 64.5855 84.2433 64.853 86.1318C63.5577 86.0478 62.2765 85.9499 60.9812 85.866C60.6293 85.1666 60.2773 84.4811 59.9253 83.7817C62.0231 82.3409 63.6704 80.6623 62.9664 77.8086C63.3465 77.8785 64.0646 77.9345 64.0646 78.0044C64.1631 80.3825 65.388 82.159 67.0212 83.7537V83.7677Z" fill="#195B95"/>
<path d="M102.811 132.755C103.036 133.972 103.36 135.175 103.444 136.406C103.585 138.239 104.557 138.267 105.936 137.777C106.64 137.525 107.386 137.386 108.119 137.19C108.119 137.679 108.147 138.169 108.147 138.659C106.007 139.204 103.881 139.75 101.389 140.393C101.389 137.833 101.389 135.651 101.389 133.483C101.867 133.245 102.332 132.993 102.811 132.755Z" fill="#115791"/>
<path d="M78.2705 155.85C78.2705 156.186 78.2986 156.522 78.3127 156.872C77.3976 156.648 76.4965 156.41 75.5813 156.186C75.0886 155.823 74.5958 155.445 74.089 155.081C73.2442 154.382 72.3994 153.696 71.5547 152.997C71.6814 152.437 71.794 151.892 71.9208 151.332C71.9911 150.409 72.0756 149.472 72.146 148.548C72.4135 148.548 72.667 148.534 72.9345 148.521C73.4131 149.122 73.8918 149.724 74.3705 150.339C74.4832 150.647 74.5958 150.955 74.7084 151.262C74.5676 151.794 74.1593 152.479 74.3424 152.829C74.7929 153.668 75.525 154.354 76.1445 155.095C76.2571 155.151 76.3557 155.193 76.4683 155.249C76.8203 155.207 77.1723 155.179 77.5243 155.137C77.7777 155.375 78.017 155.627 78.2705 155.864V155.85Z" fill="#D7E5EB"/>
<path d="M67.0213 83.7673C65.4022 82.1726 64.1632 80.3961 64.0646 78.0181C64.0646 77.9341 63.3466 77.8782 62.9665 77.8222C61.7134 77.6823 61.3614 77.1368 62.1076 76.0457C63.0791 76.0177 64.0646 75.9757 65.0361 75.9478C65.205 76.815 65.3881 77.6823 65.557 78.5496C65.6697 81.5012 66.7256 82.7602 69.0628 82.7182C69.3162 83.0819 69.5696 83.4456 69.823 83.8093C69.288 84.2709 68.7671 84.7325 68.2321 85.2082C67.8238 84.7325 67.4155 84.2569 67.0072 83.7813L67.0213 83.7673Z" fill="#D7E5EB"/>
<path d="M69.8231 83.7956C69.5696 83.4319 69.3162 83.0682 69.0628 82.7045C68.2321 81.3196 67.4155 79.9068 66.5285 78.5639C66.43 78.41 65.895 78.5359 65.5571 78.5359C65.3881 77.6686 65.2051 76.8013 65.0361 75.9341C65.3177 75.7522 65.5852 75.5564 65.8668 75.3745C66.0639 75.4305 66.2469 75.4864 66.4441 75.5424C65.5993 76.1998 66.0639 76.6055 66.6412 77.179C67.7957 78.3261 68.8375 79.599 70.0483 80.9559C70.1891 80.83 70.696 80.4663 71.1043 80.0047C71.6393 79.4172 72.0898 78.7597 72.5685 78.1303C72.9346 78.2701 73.3147 78.41 73.6808 78.5499C72.9346 79.5711 72.1602 80.5782 71.4563 81.6274C71.3436 81.7952 71.5126 82.1589 71.5548 82.4387C71.0902 82.8724 70.6115 83.306 70.1469 83.7536C70.0483 83.8096 69.9498 83.8236 69.8371 83.8096L69.8231 83.7956Z" fill="#B5CCDB"/>
<path d="M57.8274 84.425C54.73 84.7607 52.3506 82.4526 51.5762 80.774C50.7033 78.9135 52.0127 75.5843 54.1386 74.2274C54.7581 73.8357 55.6451 73.8637 56.4195 73.6958C56.4195 74.0035 56.4195 74.3113 56.4336 74.619C53.1109 75.1366 52.421 77.3048 52.5758 79.6409C52.7166 81.7672 54.8426 83.3199 57.4895 83.4458C57.6021 83.7675 57.7148 84.1033 57.8415 84.425H57.8274Z" fill="#B5CCDB"/>
<path d="M64.4729 94.6928C65.5852 94.6229 66.5144 94.6508 66.0075 92.9163C65.7823 92.1329 66.6411 91.0418 67.0072 90.0906C67.1057 89.9787 67.2043 89.8668 67.3028 89.7689C69.3021 88.5519 71.3154 89.0275 73.3287 89.7689C73.3147 89.8808 73.3287 89.9927 73.3428 90.1046C73.2865 90.5522 73.2443 91.0138 73.1739 91.6433C72.0757 90.5802 69.4429 89.9087 68.3728 90.5942C67.7956 90.9579 67.7393 92.0909 67.4436 92.8883C67.4436 92.9442 67.4014 93.0002 67.4155 93.0422C67.4436 93.1401 67.4999 93.224 67.5422 93.3219C67.6266 93.6577 67.7111 93.9794 67.7956 94.3151C67.7956 94.6508 67.7815 95.0006 67.7674 95.3363C66.6693 95.1265 65.5852 94.9306 64.487 94.7208L64.4729 94.6928Z" fill="#5B83A7"/>
<path d="M66.4439 75.5422C66.2468 75.4862 66.0638 75.4303 65.8667 75.3743C68.2461 72.8004 71.9912 72.8564 74.3846 75.4023C74.8915 75.9479 75.7644 76.1437 76.4683 76.5074C76.4683 76.8151 76.4683 77.1089 76.4683 77.4167C76.1023 77.6684 75.7362 77.9202 75.3702 78.186C74.9196 78.2839 74.455 78.3819 74.0045 78.4798C73.8919 78.5217 73.7933 78.5497 73.6807 78.5637C73.3146 78.4238 72.9345 78.2839 72.5684 78.1441C73.1597 77.7244 73.7511 77.3047 74.4128 76.8291C73.3991 75.5981 72.4417 74.3811 70.6114 74.7029C69.2176 74.9547 67.8378 75.2624 66.4439 75.5562V75.5422Z" fill="#D7E5EB"/>
<path d="M71.5266 100.61C72.5685 100.274 73.6244 99.9383 74.6663 99.6025C75.5533 100.61 76.4403 101.617 77.3272 102.624C76.581 102.75 75.8348 102.862 75.1027 102.988C74.4551 102.148 73.8356 102.442 73.202 103.016C72.6529 102.918 72.0898 102.806 71.5407 102.708C71.5407 102.009 71.5407 101.309 71.5266 100.596V100.61Z" fill="#D7E5EB"/>
<path d="M62.1216 76.0319C61.3613 77.123 61.7274 77.6685 62.9804 77.8084C63.6985 80.6621 62.0512 82.3407 59.9393 83.7815C59.8126 83.5297 59.6859 83.2779 59.5733 83.0401C60.6574 81.7112 62.0371 80.5222 61.9949 78.6617C61.7978 78.5218 61.6007 78.368 61.4036 78.2281C60.587 79.1793 59.7563 80.1305 58.9397 81.0677C58.7848 80.6761 58.63 80.2984 58.4751 79.9067C59.3058 78.8156 60.1364 77.7245 61.1501 76.3956C61.1783 76.4515 60.939 76.0878 60.6996 75.7241C61.0516 75.7241 61.4036 75.7241 61.7556 75.7241L62.1216 76.0319Z" fill="#B5CCDB"/>
<path d="M35.4698 146.94C33.9915 148.619 33.3297 151.011 30.894 151.878C31.5839 149.626 33.0059 147.821 34.5969 146.143C34.8221 146.338 35.0474 146.52 35.2727 146.716C35.3431 146.786 35.4135 146.856 35.4839 146.926L35.4698 146.94Z" fill="#D7E5EB"/>
<path d="M59.5591 83.0403C59.6858 83.2921 59.8125 83.5439 59.9252 83.7817C60.2771 84.4812 60.6291 85.1666 60.9811 85.866C60.9811 86.1598 60.967 86.4675 60.9529 86.7613C59.9111 85.9779 58.8692 85.2086 57.8133 84.4252C57.7006 84.1035 57.588 83.7677 57.4613 83.446C57.4191 82.173 57.2783 80.8581 58.4468 79.9209C58.6017 80.3126 58.7566 80.6903 58.9115 81.0819C59.1086 81.7394 58.0104 82.8165 59.545 83.0543L59.5591 83.0403Z" fill="#D7E5EB"/>
<path d="M78.2705 155.85C78.017 155.613 77.7777 155.361 77.5243 155.123C77.7918 154.06 78.0593 153.011 78.3268 151.948C77.3553 151.738 76.3839 151.514 75.3983 151.304C75.173 151.262 74.9337 151.262 74.6943 151.234C74.5817 150.926 74.4691 150.619 74.3564 150.311C74.7647 150.283 75.1871 150.157 75.5673 150.255C76.8062 150.577 78.7351 150.647 79.0871 151.402C79.6925 152.731 79.7347 154.591 78.2564 155.85H78.2705Z" fill="#C1D5E2"/>
<path d="M60.9531 86.761C60.9531 86.4672 60.9672 86.1595 60.9813 85.8657C62.2766 85.9497 63.5578 86.0476 64.8531 86.1315C65.6556 86.0616 66.444 86.0056 67.5 85.9077C65.9935 87.7821 63.3325 88.006 60.9531 86.761Z" fill="#B5CCDB"/>
<path d="M73.2864 96.665C71.5124 96.665 69.7525 96.665 67.9785 96.665C67.9785 96.3433 67.9785 96.0075 67.9785 95.6858C68.246 95.6019 68.5135 95.504 68.7951 95.42C69.5695 95.42 70.3438 95.42 71.1041 95.42C71.3575 95.2941 71.625 95.1542 71.8785 95.0284C72.4557 94.4408 73.033 93.8673 73.6243 93.2798C73.6384 93.7134 73.6524 94.1471 73.6806 94.5947C73.3427 95.2522 72.0333 95.7278 73.2864 96.693V96.665Z" fill="#5B83A7"/>
<path d="M62.3046 154.452C62.1919 154.606 62.0793 154.759 61.9667 154.913C61.3613 154.004 60.0519 153.235 60.8967 151.934C61.7836 150.591 63.1353 150.003 64.8107 150.381C65.1486 150.451 65.5428 150.311 65.9229 150.269C65.9229 150.619 65.9229 150.969 65.9089 151.318C65.3316 151.318 64.7403 151.29 64.163 151.318C61.7414 151.346 61.1501 152.367 62.3187 154.466L62.3046 154.452Z" fill="#C1D5E2"/>
<path d="M65.9089 98.833C66.0215 99.1967 66.1482 99.5604 66.2608 99.9241C66.1341 100.819 66.0074 101.701 65.8666 102.596C64.9233 102.596 63.9941 102.61 63.0508 102.624C63.9941 101.365 64.9515 100.106 65.8948 98.847L65.9089 98.833Z" fill="#D7E5EB"/>
<path d="M61.7415 75.724C61.3895 75.724 61.0375 75.724 60.6855 75.724C59.5169 74.3951 57.9119 74.7169 56.4054 74.619C56.4054 74.3112 56.4054 74.0035 56.3914 73.6957C58.4751 73.5698 60.5025 73.6258 61.7274 75.724H61.7415Z" fill="#D7E5EB"/>
<path d="M72.9205 148.492C72.653 148.492 72.3996 148.506 72.1321 148.52C70.8508 147.625 69.5837 147.401 68.3448 148.618C68.0632 148.548 67.7816 148.464 67.5 148.394C69.2458 146.058 71.2451 146.086 72.9205 148.506V148.492Z" fill="#C1D5E2"/>
<path d="M71.6251 165.265L71.7096 165.376L71.6532 165.502C71.6392 165.614 71.6251 165.726 71.5969 165.838C71.4561 166.607 71.78 167.727 70.4283 167.685C69.1471 167.643 69.1331 166.635 69.0908 165.712C69.1753 165.474 69.2739 165.237 69.3583 164.999L69.485 164.901C70.2031 165.027 70.907 165.139 71.6251 165.265Z" fill="#195B95"/>
<path d="M107.119 150.535C106.95 150.115 106.767 149.696 106.598 149.276C106.781 148.87 106.964 148.465 107.147 148.045C107.964 149.234 108.78 150.437 109.597 151.626C109.442 151.752 109.273 151.878 109.118 152.004C108.456 151.514 107.795 151.024 107.119 150.535Z" fill="#D7E5EB"/>
<path d="M25.7972 125.342C26.5011 125.929 27.2051 126.517 27.895 127.09C27.7682 127.482 27.6275 127.86 27.5007 128.251C26.5574 127.664 25.6 127.062 24.6567 126.475C25.0369 126.097 25.417 125.705 25.7972 125.328V125.342Z" fill="#316A9D"/>
<path d="M104.655 92.1326C105.345 92.1466 106.049 92.1606 106.739 92.1746C106.739 93.0139 106.711 93.8532 106.697 94.6786C105.894 94.2029 105.077 93.7273 104.275 93.2377C104.402 92.86 104.528 92.4963 104.655 92.1187V92.1326Z" fill="#316A9D"/>
<path d="M75.5673 156.172C76.4825 156.396 77.3835 156.634 78.2987 156.857C78.4958 157.221 78.6929 157.571 78.89 157.935C78.5239 157.935 78.1579 157.935 77.8059 157.935C77.1442 157.963 76.4825 157.977 75.8207 158.005C75.6799 157.613 75.5251 157.235 75.3843 156.843C75.4547 156.606 75.511 156.382 75.5814 156.144L75.5673 156.172Z" fill="#C1D5E2"/>
<path d="M61.6992 158.285C61.8118 158.425 61.9385 158.55 62.0512 158.69C62.0793 159.46 62.1075 160.243 62.1216 161.012C61.9808 161.152 61.8259 161.278 61.6851 161.418C60.1645 160.131 60.1645 159.837 61.6851 158.285H61.6992Z" fill="#B5CCDB"/>
<path d="M88.6891 81.0259C88.1541 81.0259 87.6332 80.9979 87.0981 80.9839C87.3234 80.3964 87.5487 79.8229 87.7599 79.2354C88.1963 79.4452 88.6187 79.641 89.0552 79.8508C88.9284 80.2425 88.8017 80.6342 88.675 81.0259H88.6891Z" fill="#B5CCDB"/>
<path d="M68.7952 95.4062C68.5277 95.4901 68.2602 95.588 67.9786 95.672C67.8941 95.5461 67.8237 95.4202 67.7393 95.3083C67.7393 94.9725 67.7533 94.6228 67.7674 94.2871C68.1053 94.6648 68.4432 95.0285 68.7811 95.4062H68.7952Z" fill="#B5CCDB"/>
<path d="M34.977 145.849L35.9484 146.03C35.7936 146.338 35.6246 146.632 35.4697 146.94C35.3993 146.87 35.3289 146.8 35.2586 146.73C35.16 146.436 35.0614 146.156 34.9629 145.863L34.977 145.849Z" fill="#D7E5EB"/>
<path d="M34.9768 145.849C35.0754 146.142 35.1739 146.422 35.2725 146.716C35.0472 146.52 34.8219 146.338 34.5967 146.142C34.7234 146.044 34.8501 145.947 34.9768 145.849Z" fill="#FCFDFE"/>
<path d="M61.995 102.778C61.5585 102.778 61.1362 102.778 60.6997 102.792C61.1362 102.792 61.5585 102.792 61.995 102.778Z" fill="#963A23"/>
<path d="M73.4273 141.834C73.6385 141.96 73.8497 142.086 74.0609 142.212C73.8215 142.324 73.5963 142.435 73.3569 142.547C73.3851 142.31 73.4132 142.072 73.4273 141.834Z" fill="#B8664D"/>
<path d="M73.3427 90.0764C73.3145 89.9645 73.3145 89.8526 73.3286 89.7407C73.5539 89.7827 73.765 89.8107 73.9903 89.8526C74.0466 89.9366 74.0607 90.0345 74.0325 90.1324C73.8073 90.1184 73.582 90.1044 73.3427 90.0904V90.0764Z" fill="#83A8C6"/>
<path d="M83.8319 102.764L83.6911 102.834L83.5503 102.764C83.6488 102.708 83.7333 102.708 83.8319 102.764Z" fill="#963A23"/>
<path d="M67.3036 89.7549C67.2049 89.8668 67.1062 89.9787 67.0074 90.0766C66.9087 90.0207 66.8664 89.9507 66.8946 89.8388C67.0356 89.8108 67.1767 89.7829 67.3036 89.7549Z" fill="#83A8C6"/>
<path d="M79.2288 102.806L79.1016 102.877L78.9744 102.806C79.0592 102.75 79.144 102.75 79.2146 102.806H79.2288Z" fill="#963A23"/>
<path d="M82.4106 102.778L82.2834 102.849L82.1562 102.778C82.241 102.722 82.3258 102.722 82.4106 102.778Z" fill="#963A23"/>
<path d="M290.135 95.7559C290.261 95.7559 290.388 95.7698 290.529 95.7838C290.402 95.7838 290.275 95.7698 290.135 95.7559Z" fill="#0064A9"/>
<path d="M86.6335 120.152C83.3671 120.25 80.0866 120.362 76.8203 120.46C75.7784 120.488 74.7225 120.488 73.6806 120.502C73.582 120.376 73.4694 120.264 73.3708 120.138C73.6384 119.676 73.9059 118.809 74.1734 118.809C78.4112 118.795 82.6491 118.893 86.901 118.949C86.8165 119.341 86.732 119.746 86.6335 120.138V120.152Z" fill="#AC4523"/>
<path d="M95.2501 130.293C94.7855 130.139 94.1238 130.125 93.8844 129.804C92.3639 127.789 90.9559 125.705 89.4917 123.635C89.8437 123.635 90.1816 123.635 90.5336 123.635C92.1104 125.845 93.6732 128.069 95.2501 130.279V130.293Z" fill="#5B83A7"/>
<path d="M90.5334 123.663C90.1814 123.663 89.8435 123.663 89.4915 123.663C88.689 122.81 87.9006 121.97 87.0981 121.117C86.9432 120.809 86.7883 120.487 86.6194 120.18C86.7039 119.788 86.7883 119.382 86.8869 118.991C88.0977 120.557 89.3226 122.124 90.5334 123.677V123.663Z" fill="#316A9D"/>
<path d="M71.5265 100.61C71.5265 101.309 71.5265 102.008 71.5406 102.722C71.3013 102.722 71.076 102.75 70.8367 102.75C70.7099 102.75 70.5973 102.75 70.4706 102.736C70.006 102.736 69.5414 102.736 69.0768 102.736C68.95 102.022 68.8374 101.309 68.7107 100.582C69.6399 100.582 70.5832 100.61 71.5125 100.61H71.5265Z" fill="#165692"/>
<path d="M68.7248 100.568C68.8515 101.281 68.9641 101.995 69.0908 102.722C68.4854 102.82 67.88 102.904 67.2746 103.002C67.0775 103.002 66.8663 102.988 66.6692 102.974C66.6129 102.876 66.5706 102.778 66.5425 102.666C66.7959 101.855 67.0493 101.057 67.3028 100.246C67.7815 100.358 68.2461 100.47 68.7248 100.582V100.568Z" fill="#C1D5E2"/>
<path d="M73.2161 103.016C73.8356 102.442 74.4691 102.149 75.1168 102.988C74.5395 103.114 73.9763 103.254 73.3991 103.38C73.3428 103.254 73.2865 103.142 73.2301 103.016H73.2161Z" fill="#B8664D"/>
<path d="M73.385 104.065C73.385 105.002 73.3991 105.939 73.4132 106.877C73.4132 105.939 73.3991 105.002 73.385 104.065Z" fill="#B8664D"/>
<path d="M66.6691 102.96C66.8662 102.96 67.0774 102.988 67.2745 102.988C67.2041 103.31 67.1337 103.645 67.0633 103.967C66.9225 103.631 66.7958 103.296 66.655 102.96H66.6691Z" fill="#D7E5EB"/>
<path d="M73.3992 139.386C73.4274 139.47 73.4697 139.554 73.4838 139.652C73.4838 139.679 73.4274 139.721 73.3992 139.763C73.3992 139.638 73.3992 139.512 73.3992 139.386Z" fill="#B8664D"/>
<path d="M73.3708 120.152C73.4696 120.278 73.5824 120.39 73.6812 120.516L73.5401 120.53H73.3991C73.3991 120.404 73.3991 120.278 73.385 120.152H73.3708Z" fill="#B8664D"/>
<path d="M67.1056 119.802C67.0492 119.69 67.0633 119.578 67.148 119.48C67.1621 119.564 67.1903 119.634 67.1903 119.718C67.1903 119.746 67.1338 119.774 67.0915 119.802H67.1056Z" fill="#D7E5EB"/>
<path d="M67.0495 112.108C67.0495 111.996 67.0495 111.884 67.0636 111.772C67.0918 111.856 67.12 111.926 67.12 112.01C67.12 112.038 67.0636 112.08 67.0354 112.108H67.0495Z" fill="#D7E5EB"/>
<path d="M73.385 111.059C73.4132 111.143 73.4555 111.227 73.4696 111.311C73.4696 111.339 73.4132 111.381 73.385 111.423C73.385 111.297 73.385 111.171 73.385 111.059Z" fill="#B8664D"/>
<path d="M70.4846 102.736C70.6113 102.736 70.724 102.736 70.8507 102.75C70.724 102.75 70.6113 102.75 70.4846 102.736Z" fill="#D7E5EB"/>
<path d="M104.979 147.093C104.641 146.73 104.289 146.352 103.951 145.988C104.289 146.352 104.627 146.73 104.979 147.093Z" fill="#195B95"/>
<path d="M67.3029 100.232C67.0494 101.043 66.796 101.841 66.5426 102.652C66.3173 102.624 66.092 102.61 65.8809 102.582C66.0076 101.687 66.1343 100.805 66.2751 99.9102C66.6271 100.008 66.965 100.12 67.3169 100.218L67.3029 100.232Z" fill="#83A8C6"/>
<path d="M73.3429 90.0765C73.5681 90.0905 73.7934 90.1045 74.0328 90.1185C73.906 91.1676 73.7793 92.2167 73.6385 93.2519C73.0613 93.8394 72.484 94.4129 71.8927 95.0004C71.6393 95.1263 71.3718 95.2662 71.1184 95.3921C70.344 95.3921 69.5697 95.3921 68.8094 95.3921C68.4715 95.0144 68.1336 94.6507 67.7957 94.273C67.7112 93.9373 67.6267 93.6156 67.5422 93.2799C67.5141 93.14 67.4859 92.9861 67.4578 92.8462C67.7534 92.0629 67.8238 90.9298 68.387 90.5521C69.457 89.8667 72.0757 90.5381 73.188 91.6012C73.2584 90.9718 73.3147 90.5241 73.357 90.0625L73.3429 90.0765Z" fill="#FAFCFD"/>
<path d="M87.774 79.2354C87.5487 79.8229 87.3234 80.3964 87.1122 80.984C86.0985 81.7533 85.1271 82.5647 84.0711 83.2641C83.2405 83.8096 82.5787 83.2361 82.5647 82.5087C82.5224 79.739 81.3961 77.6827 78.8196 76.4797C81.5369 73.3322 85.9577 74.0876 87.8162 77.8365C87.788 77.9485 87.8162 78.0604 87.8866 78.1583C87.8584 78.522 87.8162 78.8717 87.788 79.2354H87.774Z" fill="#195B95"/>
<path d="M75.3701 78.1722C75.7361 77.9204 76.1022 77.6686 76.4683 77.4028C76.6935 78.1442 76.8343 78.9416 77.1863 79.627C77.7776 80.7601 78.5661 81.7952 79.1856 82.9143C79.5516 83.5858 79.974 84.3551 79.9177 85.0546C79.8895 85.4602 78.9603 86.0897 78.4394 86.1037C76.947 86.1317 75.4123 86.0617 73.9762 85.684C72.6106 85.3203 72.4557 83.9914 73.6806 83.2221C75.2434 82.2289 75.7361 80.9419 75.4123 79.2353C75.4123 78.8856 75.3982 78.5359 75.3842 78.1722H75.3701Z" fill="#195B95"/>
<path d="M78.7632 78.1021C80.5372 79.2631 81.1004 80.7599 81.4383 82.4805C79.7065 82.7183 78.4535 80.7459 78.7632 78.1021Z" fill="#125A95"/>
<path d="M73.6807 78.5498C73.7934 78.5358 73.906 78.5078 74.0046 78.4658C74.3002 78.7316 74.5818 78.9834 74.8775 79.2492C74.2298 80.7879 73.7089 82.4665 71.5407 82.4386C71.4985 82.1588 71.3295 81.8091 71.4421 81.6272C72.1461 80.5781 72.9205 79.5709 73.6667 78.5498H73.6807Z" fill="#115791"/>
<path d="M74.8773 79.2495C74.5816 78.9837 74.3001 78.7319 74.0044 78.4661C74.4549 78.3682 74.9195 78.2703 75.3701 78.1724C75.3701 78.5221 75.3842 78.8718 75.3982 79.2355C75.2293 79.2355 75.0603 79.2355 74.8773 79.2355V79.2495Z" fill="#B5CCDB"/>
<path d="M87.8726 78.1723C87.8021 78.0744 87.7739 77.9625 87.8021 77.8506C87.8444 77.9205 87.8867 77.9905 87.9149 78.0604C87.9149 78.0884 87.8867 78.1304 87.8726 78.1723Z" fill="#B5CCDB"/>
<path d="M52.3788 121.201C50.1825 124.502 48.0706 127.859 45.297 130.741C45.1139 130.615 44.945 130.475 44.762 130.349C47.1273 127.174 49.5067 123.998 51.872 120.837L52.3788 121.215V121.201Z" fill="#5B83A7"/>
<path d="M68.7107 159.599C68.7107 160.313 68.7107 161.026 68.7247 161.739C68.4854 161.991 68.246 162.243 68.0208 162.495C67.8518 161.432 67.6829 160.383 67.5139 159.319C67.6547 159.277 67.8096 159.222 67.9504 159.18C66.81 158.116 65.6555 157.067 64.5854 156.074C65.7259 155.249 66.7114 154.605 67.5984 153.836C67.8377 153.626 67.7533 153.067 67.8518 152.675C68.0067 151.961 68.1897 151.248 68.3587 150.535C68.4854 150.675 68.6121 150.8 68.7388 150.94C68.7388 151.654 68.7388 152.367 68.7388 153.067C68.7388 153.416 68.7388 153.752 68.7388 154.102C67.3872 155.585 67.6125 157.081 68.7388 158.564C68.7388 158.914 68.7247 159.264 68.7107 159.613V159.599Z" fill="#5B83A7"/>
<path d="M62.1358 161.012C62.1077 160.243 62.0795 159.459 62.0654 158.69C62.2907 158.452 62.53 158.228 62.7553 157.977C62.9243 157.781 63.1214 157.361 63.2199 157.389C63.7268 157.529 64.4167 157.655 64.656 158.019C65.191 158.886 65.5008 159.893 65.895 160.844C65.3177 161.04 64.7546 161.376 64.1773 161.39C63.5156 161.418 62.8398 161.152 62.164 161.026L62.1358 161.012Z" fill="#195B95"/>
<path d="M62.3046 154.452C61.136 152.353 61.7414 151.332 64.149 151.304C64.7262 151.304 65.3176 151.304 65.8948 151.304C66.5143 153.333 64.7966 154.2 63.6703 155.613C63.2057 155.221 62.7551 154.829 62.2905 154.438L62.3046 154.452Z" fill="#155B95"/>
<path d="M68.7388 150.927C68.6121 150.787 68.4854 150.661 68.3586 150.521C68.3586 149.892 68.3586 149.262 68.3586 148.619C69.5835 147.416 70.8507 147.625 72.146 148.521C72.0756 149.444 71.9911 150.381 71.9207 151.304C70.8647 151.178 69.8088 151.039 68.7529 150.913L68.7388 150.927Z" fill="#195B95"/>
<path d="M68.0209 162.481C68.2603 162.229 68.4996 161.977 68.7249 161.726C69.2317 161.712 69.7527 161.628 70.2595 161.684C70.9635 161.768 71.6674 161.949 72.3573 162.089C72.0898 162.803 71.8364 163.516 71.5689 164.229C70.8649 164.453 70.175 164.663 69.4711 164.887L69.3444 164.985C68.8938 164.146 68.4574 163.32 68.0068 162.481H68.0209Z" fill="#195B95"/>
<path d="M75.8067 158.019C76.4684 157.991 77.1302 157.977 77.7919 157.949C78.0875 158.858 78.3691 159.781 78.7915 161.082H74.089C73.9623 160.928 73.8356 160.774 73.6948 160.607C74.3988 159.739 75.1027 158.886 75.8067 158.019Z" fill="#165692"/>
<path d="M68.7107 159.6C68.7107 159.25 68.7248 158.9 68.7388 158.55C70.2031 158.55 71.8785 159.194 72.6951 157.25C73.1034 157.389 73.5258 157.529 73.9341 157.655C73.8355 157.753 73.737 157.851 73.6384 157.949C73.5258 158.047 73.4131 158.159 73.3146 158.257C72.8359 158.9 72.3431 159.544 71.8644 160.173C71.0056 160.005 69.8652 159.795 68.7107 159.586V159.6Z" fill="#316A9D"/>
<path d="M73.9482 157.655C73.5399 157.515 73.1175 157.375 72.7092 157.249C72.7374 156.662 72.7655 156.074 72.7937 155.473C73.2302 155.333 73.6525 155.193 74.089 155.053C74.5818 155.417 75.0745 155.795 75.5814 156.158C75.511 156.396 75.4547 156.62 75.3843 156.858C74.9056 157.124 74.4269 157.389 73.9482 157.655Z" fill="#5B83A7"/>
<path d="M69.4851 164.887C70.1891 164.663 70.8789 164.453 71.5829 164.229C71.597 164.565 71.6111 164.915 71.6251 165.251C70.9071 165.125 70.2031 165.013 69.4851 164.887Z" fill="#155B95"/>
<path d="M73.3147 158.256C73.4275 158.159 73.5404 158.047 73.6391 157.949C73.5263 158.061 73.4134 158.159 73.3147 158.256Z" fill="#5B83A7"/>
<path d="M74.7084 151.234C74.9478 151.248 75.173 151.248 75.4124 151.304C76.3838 151.514 77.3553 151.724 78.3409 151.948C78.0733 153.011 77.8058 154.06 77.5383 155.123C77.1864 155.165 76.8344 155.193 76.4824 155.235C76.3698 155.179 76.2712 155.137 76.1586 155.081C75.5391 154.34 74.807 153.654 74.3564 152.815C74.1593 152.451 74.5817 151.78 74.7225 151.248L74.7084 151.234Z" fill="#195B95"/>
<path d="M68.7389 150.926C69.7949 151.052 70.8508 151.192 71.9068 151.318C71.78 151.877 71.6674 152.423 71.5407 152.983C70.5974 153.011 69.6541 153.025 68.7249 153.053C68.7249 152.339 68.7249 151.626 68.7249 150.926H68.7389Z" fill="#E4EFF5"/>
<path d="M68.7248 153.053C69.6681 153.025 70.6114 153.011 71.5406 152.983C72.3854 153.682 73.2301 154.368 74.0749 155.067C73.6384 155.207 73.216 155.347 72.7796 155.487C72.0052 154.997 71.2309 154.494 70.4565 154.004C70.2453 153.99 70.0341 153.976 69.8089 153.962L68.7107 154.116C68.7107 153.766 68.7107 153.431 68.7107 153.081L68.7248 153.053Z" fill="#316A9D"/>
<path d="M65.5569 78.5358C65.8948 78.5358 66.4157 78.4099 66.5283 78.5638C67.4153 79.9207 68.2319 81.3195 69.0626 82.7044C66.7255 82.7464 65.6695 81.4874 65.5569 78.5358Z" fill="#195B95"/>
<path d="M66.4438 75.5424C67.8377 75.2486 69.2175 74.9409 70.6113 74.6891C72.4416 74.3673 73.399 75.5843 74.4127 76.8153C73.7369 77.2909 73.1456 77.7106 72.5683 78.1302C72.0896 78.7597 71.625 79.4172 71.1041 80.0047C70.6958 80.4663 70.1889 80.83 70.0481 80.9559C68.8373 79.599 67.7955 78.3261 66.641 77.179C66.0637 76.6055 65.5991 76.1998 66.4438 75.5424Z" fill="#195B95"/>
<path d="M56.4196 74.6053C57.912 74.7032 59.517 74.3955 60.6997 75.7104C60.939 76.0741 61.1784 76.4378 61.1502 76.3818C60.1225 77.7247 59.3059 78.8158 58.4752 79.893C57.3066 80.8442 57.4474 82.1451 57.4896 83.4181C54.8427 83.2922 52.7168 81.7534 52.576 79.6132C52.4211 77.2771 53.111 75.1089 56.4337 74.5913L56.4196 74.6053Z" fill="#195B95"/>
<path d="M67.4437 92.8604C67.4719 93.0002 67.5001 93.1541 67.5283 93.294C67.486 93.1961 67.4296 93.1121 67.4014 93.0142C67.4014 92.9723 67.4155 92.9163 67.4296 92.8604H67.4437Z" fill="#B5CCDB"/>
<path d="M59.5591 83.0401C58.0245 82.8023 59.1227 81.7252 58.9256 81.0677C59.7421 80.1165 60.5728 79.1653 61.3894 78.228C61.5865 78.3679 61.7836 78.5218 61.9807 78.6617C62.023 80.5361 60.6432 81.7112 59.5591 83.0401Z" fill="#11548C"/>
<path d="M70.4566 153.976C71.2309 154.465 72.0053 154.969 72.7796 155.459C72.7515 156.046 72.7233 156.634 72.6952 157.235C71.8786 159.18 70.2031 158.536 68.7389 158.536C67.6126 157.053 67.3732 155.571 68.7389 154.074C69.105 154.018 69.471 153.976 69.8371 153.92C70.0483 153.934 70.2595 153.948 70.4847 153.962L70.4566 153.976Z" fill="#FAFCFD"/>
<path d="M511.296 167.116C510.953 167.116 510.636 167.088 510.344 167.033C510.057 166.982 509.828 166.921 509.657 166.852L510.24 164.891C510.606 164.997 510.932 165.048 511.219 165.044C511.506 165.039 511.758 164.949 511.976 164.772C512.198 164.601 512.386 164.313 512.538 163.91L512.754 163.333L508.886 152.428H511.553L514.01 160.495H514.122L516.586 152.428H519.26L514.99 164.404C514.79 164.97 514.527 165.454 514.198 165.857C513.869 166.265 513.467 166.576 512.99 166.789C512.518 167.007 511.953 167.116 511.296 167.116Z" fill="#0064A9"/>
<path d="M506.165 152.428V154.376H500.034V152.428H506.165ZM501.547 149.869H504.061V159.898C504.061 160.236 504.112 160.496 504.214 160.676C504.32 160.853 504.459 160.973 504.63 161.038C504.802 161.103 504.991 161.135 505.2 161.135C505.357 161.135 505.5 161.124 505.63 161.101C505.764 161.078 505.866 161.057 505.936 161.038L506.359 163.006C506.225 163.053 506.033 163.104 505.783 163.159C505.538 163.215 505.237 163.247 504.88 163.257C504.251 163.275 503.684 163.18 503.179 162.971C502.675 162.758 502.274 162.429 501.978 161.984C501.686 161.539 501.543 160.982 501.547 160.315V149.869Z" fill="#0064A9"/>
<path d="M494.274 163.111V152.428H496.788V163.111H494.274ZM495.538 150.912C495.14 150.912 494.798 150.78 494.511 150.516C494.224 150.247 494.08 149.925 494.08 149.549C494.08 149.169 494.224 148.847 494.511 148.583C494.798 148.314 495.14 148.179 495.538 148.179C495.941 148.179 496.283 148.314 496.566 148.583C496.853 148.847 496.996 149.169 496.996 149.549C496.996 149.925 496.853 150.247 496.566 150.516C496.283 150.78 495.941 150.912 495.538 150.912Z" fill="#0064A9"/>
<path d="M490.506 155.252L488.215 155.502C488.15 155.27 488.037 155.052 487.875 154.848C487.717 154.644 487.505 154.48 487.236 154.355C486.968 154.229 486.639 154.167 486.25 154.167C485.727 154.167 485.287 154.28 484.931 154.508C484.579 154.735 484.405 155.029 484.41 155.391C484.405 155.701 484.519 155.954 484.75 156.149C484.986 156.344 485.375 156.504 485.917 156.629L487.736 157.018C488.745 157.236 489.495 157.581 489.986 158.054C490.481 158.527 490.731 159.146 490.736 159.911C490.731 160.583 490.534 161.177 490.145 161.692C489.761 162.202 489.227 162.6 488.541 162.888C487.856 163.175 487.069 163.319 486.181 163.319C484.875 163.319 483.825 163.045 483.028 162.498C482.232 161.947 481.758 161.179 481.605 160.196L484.056 159.96C484.167 160.442 484.403 160.806 484.764 161.052C485.125 161.297 485.595 161.42 486.174 161.42C486.771 161.42 487.25 161.297 487.611 161.052C487.977 160.806 488.16 160.502 488.16 160.141C488.16 159.835 488.042 159.582 487.805 159.383C487.574 159.183 487.213 159.03 486.722 158.924L484.903 158.541C483.88 158.328 483.123 157.969 482.633 157.463C482.142 156.953 481.899 156.309 481.904 155.53C481.899 154.872 482.077 154.301 482.438 153.819C482.804 153.332 483.311 152.957 483.959 152.692C484.611 152.424 485.364 152.289 486.215 152.289C487.465 152.289 488.449 152.556 489.166 153.089C489.888 153.622 490.335 154.343 490.506 155.252Z" fill="#0064A9"/>
<path d="M472.858 163.111V152.428H475.296V154.209H475.407C475.601 153.592 475.934 153.117 476.406 152.783C476.883 152.445 477.427 152.275 478.038 152.275C478.177 152.275 478.332 152.282 478.503 152.296C478.679 152.306 478.825 152.322 478.941 152.345V154.661C478.834 154.624 478.665 154.591 478.434 154.563C478.207 154.531 477.987 154.515 477.774 154.515C477.316 154.515 476.904 154.614 476.538 154.814C476.177 155.009 475.893 155.28 475.684 155.627C475.476 155.975 475.372 156.376 475.372 156.831V163.111H472.858Z" fill="#0064A9"/>
<path d="M464.523 163.319C463.454 163.319 462.53 163.096 461.753 162.651C460.98 162.202 460.385 161.566 459.968 160.746C459.552 159.92 459.343 158.949 459.343 157.832C459.343 156.733 459.552 155.769 459.968 154.939C460.389 154.104 460.977 153.455 461.732 152.991C462.486 152.523 463.373 152.289 464.391 152.289C465.048 152.289 465.669 152.396 466.252 152.609C466.84 152.818 467.358 153.142 467.807 153.583C468.261 154.023 468.617 154.584 468.877 155.266C469.136 155.943 469.265 156.749 469.265 157.686V158.458H460.524V156.761H466.856C466.851 156.279 466.747 155.85 466.544 155.474C466.34 155.094 466.055 154.795 465.69 154.577C465.328 154.359 464.907 154.25 464.426 154.25C463.912 154.25 463.461 154.375 463.072 154.626C462.683 154.872 462.38 155.196 462.162 155.599C461.949 155.998 461.841 156.436 461.836 156.914V158.395C461.836 159.016 461.949 159.55 462.176 159.995C462.403 160.435 462.72 160.774 463.127 161.01C463.535 161.242 464.012 161.358 464.558 161.358C464.923 161.358 465.254 161.307 465.551 161.205C465.847 161.098 466.104 160.943 466.321 160.739C466.539 160.535 466.703 160.282 466.814 159.981L469.161 160.245C469.013 160.866 468.731 161.409 468.314 161.872C467.902 162.331 467.374 162.688 466.731 162.943C466.088 163.194 465.352 163.319 464.523 163.319Z" fill="#0064A9"/>
<path d="M456.959 152.428L453.161 163.11H450.383L446.585 152.428H449.265L451.716 160.363H451.827L454.285 152.428H456.959Z" fill="#0064A9"/>
<path d="M440.868 163.111V152.428H443.381V163.111H440.868ZM442.131 150.912C441.733 150.912 441.391 150.78 441.104 150.516C440.817 150.247 440.673 149.925 440.673 149.549C440.673 149.169 440.817 148.847 441.104 148.583C441.391 148.314 441.733 148.179 442.131 148.179C442.534 148.179 442.876 148.314 443.159 148.583C443.446 148.847 443.589 149.169 443.589 149.549C443.589 149.925 443.446 150.247 443.159 150.516C442.876 150.78 442.534 150.912 442.131 150.912Z" fill="#0064A9"/>
<path d="M430 156.851V163.11H427.486V152.428H429.889V154.243H430.014C430.259 153.645 430.65 153.17 431.187 152.818C431.729 152.465 432.398 152.289 433.194 152.289C433.93 152.289 434.571 152.447 435.117 152.762C435.668 153.077 436.094 153.534 436.395 154.132C436.7 154.73 436.851 155.456 436.846 156.309V163.11H434.333V156.698C434.333 155.984 434.147 155.426 433.777 155.022C433.411 154.619 432.904 154.417 432.256 154.417C431.817 154.417 431.426 154.515 431.083 154.709C430.745 154.899 430.479 155.175 430.285 155.537C430.095 155.898 430 156.337 430 156.851Z" fill="#0064A9"/>
<path d="M420.755 148.868H423.331V158.173C423.331 159.193 423.091 160.09 422.609 160.864C422.132 161.638 421.461 162.244 420.596 162.679C419.73 163.111 418.718 163.326 417.561 163.326C416.399 163.326 415.386 163.111 414.52 162.679C413.654 162.244 412.983 161.638 412.506 160.864C412.03 160.09 411.791 159.193 411.791 158.173V148.868H414.367V157.957C414.367 158.551 414.497 159.079 414.756 159.543C415.02 160.006 415.39 160.37 415.867 160.635C416.344 160.894 416.909 161.024 417.561 161.024C418.214 161.024 418.779 160.894 419.255 160.635C419.737 160.37 420.107 160.006 420.366 159.543C420.626 159.079 420.755 158.551 420.755 157.957V148.868Z" fill="#0064A9"/>
<path d="M394.496 156.851V163.11H391.982V152.428H394.385V154.243H394.51C394.755 153.645 395.146 153.17 395.683 152.818C396.225 152.465 396.893 152.289 397.69 152.289C398.426 152.289 399.067 152.447 399.613 152.762C400.164 153.077 400.59 153.534 400.891 154.132C401.196 154.73 401.347 155.456 401.342 156.309V163.11H398.828V156.698C398.828 155.984 398.643 155.426 398.273 155.022C397.907 154.619 397.4 154.417 396.752 154.417C396.313 154.417 395.921 154.515 395.579 154.709C395.241 154.899 394.975 155.175 394.78 155.537C394.591 155.898 394.496 156.337 394.496 156.851Z" fill="#0064A9"/>
<path d="M382.357 163.326C381.681 163.326 381.073 163.205 380.531 162.964C379.994 162.719 379.568 162.357 379.254 161.879C378.943 161.402 378.788 160.813 378.788 160.113C378.788 159.51 378.899 159.012 379.122 158.618C379.344 158.224 379.647 157.908 380.031 157.672C380.415 157.435 380.848 157.257 381.33 157.136C381.816 157.011 382.318 156.921 382.836 156.865C383.461 156.8 383.968 156.742 384.357 156.691C384.746 156.636 385.028 156.552 385.204 156.441C385.385 156.325 385.475 156.147 385.475 155.905V155.864C385.475 155.34 385.32 154.934 385.01 154.647C384.699 154.359 384.253 154.215 383.67 154.215C383.054 154.215 382.566 154.35 382.204 154.619C381.848 154.888 381.607 155.205 381.482 155.572L379.136 155.238C379.321 154.589 379.626 154.046 380.052 153.61C380.478 153.17 380.999 152.841 381.614 152.623C382.23 152.4 382.91 152.289 383.656 152.289C384.169 152.289 384.681 152.349 385.19 152.47C385.699 152.59 386.165 152.79 386.586 153.068C387.007 153.342 387.345 153.715 387.6 154.188C387.859 154.661 387.988 155.252 387.988 155.961V163.11H385.572V161.643H385.489C385.336 161.94 385.121 162.218 384.843 162.477C384.57 162.732 384.225 162.939 383.808 163.096C383.396 163.249 382.913 163.326 382.357 163.326ZM383.01 161.476C383.514 161.476 383.952 161.376 384.322 161.177C384.693 160.973 384.977 160.704 385.176 160.37C385.38 160.036 385.482 159.672 385.482 159.278V158.02C385.403 158.084 385.269 158.145 385.079 158.2C384.894 158.256 384.686 158.305 384.454 158.346C384.223 158.388 383.994 158.425 383.767 158.458C383.54 158.49 383.343 158.518 383.177 158.541C382.802 158.592 382.466 158.676 382.17 158.792C381.874 158.907 381.64 159.07 381.468 159.278C381.297 159.482 381.212 159.747 381.212 160.071C381.212 160.535 381.381 160.885 381.718 161.121C382.056 161.358 382.487 161.476 383.01 161.476Z" fill="#0064A9"/>
<path d="M372.724 163.111V152.428H375.237V163.111H372.724ZM373.987 150.912C373.589 150.912 373.247 150.78 372.96 150.516C372.673 150.247 372.529 149.925 372.529 149.549C372.529 149.169 372.673 148.847 372.96 148.583C373.247 148.314 373.589 148.179 373.987 148.179C374.39 148.179 374.733 148.314 375.015 148.583C375.302 148.847 375.446 149.169 375.446 149.549C375.446 149.925 375.302 150.247 375.015 150.516C374.733 150.78 374.39 150.912 373.987 150.912Z" fill="#0064A9"/>
<path d="M369.155 152.428V154.376H363.024V152.428H369.155ZM364.538 149.869H367.051V159.898C367.051 160.236 367.102 160.496 367.204 160.676C367.311 160.853 367.449 160.973 367.621 161.038C367.792 161.103 367.982 161.135 368.19 161.135C368.347 161.135 368.491 161.124 368.621 161.101C368.755 161.078 368.857 161.057 368.926 161.038L369.35 163.006C369.215 163.053 369.023 163.104 368.773 163.159C368.528 163.215 368.227 163.247 367.871 163.257C367.241 163.275 366.674 163.18 366.17 162.971C365.665 162.758 365.265 162.429 364.968 161.984C364.677 161.539 364.533 160.982 364.538 160.315V149.869Z" fill="#0064A9"/>
<path d="M360.061 155.252L357.77 155.502C357.705 155.27 357.592 155.052 357.43 154.848C357.272 154.644 357.059 154.48 356.791 154.355C356.522 154.229 356.194 154.167 355.805 154.167C355.282 154.167 354.842 154.28 354.486 154.508C354.134 154.735 353.96 155.029 353.965 155.391C353.96 155.701 354.074 155.954 354.305 156.149C354.541 156.344 354.93 156.504 355.472 156.629L357.291 157.018C358.3 157.236 359.05 157.581 359.54 158.054C360.036 158.527 360.286 159.146 360.29 159.911C360.286 160.583 360.089 161.177 359.7 161.692C359.316 162.202 358.781 162.6 358.096 162.888C357.411 163.175 356.624 163.319 355.735 163.319C354.43 163.319 353.379 163.045 352.583 162.498C351.787 161.947 351.312 161.179 351.16 160.196L353.611 159.96C353.722 160.442 353.958 160.806 354.319 161.052C354.68 161.297 355.15 161.42 355.728 161.42C356.326 161.42 356.805 161.297 357.166 161.052C357.531 160.806 357.714 160.502 357.714 160.141C357.714 159.835 357.596 159.582 357.36 159.383C357.129 159.183 356.768 159.03 356.277 158.924L354.458 158.541C353.435 158.328 352.678 157.969 352.187 157.463C351.697 156.953 351.454 156.309 351.458 155.53C351.454 154.872 351.632 154.301 351.993 153.819C352.359 153.332 352.865 152.957 353.513 152.692C354.166 152.424 354.918 152.289 355.77 152.289C357.02 152.289 358.004 152.556 358.721 153.089C359.443 153.622 359.89 154.343 360.061 155.252Z" fill="#0064A9"/>
<path d="M345.067 163.111V152.428H347.581V163.111H345.067ZM346.331 150.912C345.933 150.912 345.59 150.78 345.303 150.516C345.016 150.247 344.873 149.925 344.873 149.549C344.873 149.169 345.016 148.847 345.303 148.583C345.59 148.314 345.933 148.179 346.331 148.179C346.734 148.179 347.076 148.314 347.359 148.583C347.646 148.847 347.789 149.169 347.789 149.549C347.789 149.925 347.646 150.247 347.359 150.516C347.076 150.78 346.734 150.912 346.331 150.912Z" fill="#0064A9"/>
<path d="M335.848 163.111V152.428H338.286V154.209H338.397C338.591 153.592 338.924 153.117 339.396 152.783C339.873 152.445 340.417 152.275 341.028 152.275C341.167 152.275 341.322 152.282 341.493 152.296C341.669 152.306 341.815 152.322 341.931 152.345V154.661C341.824 154.624 341.655 154.591 341.424 154.563C341.197 154.531 340.977 154.515 340.764 154.515C340.306 154.515 339.894 154.614 339.528 154.814C339.167 155.009 338.883 155.28 338.674 155.627C338.466 155.975 338.362 156.376 338.362 156.831V163.111H335.848Z" fill="#0064A9"/>
<path d="M324.905 156.851V163.111H322.391V148.868H324.849V154.244H324.974C325.224 153.641 325.611 153.166 326.134 152.818C326.661 152.465 327.333 152.289 328.147 152.289C328.888 152.289 329.534 152.445 330.084 152.755C330.635 153.066 331.061 153.52 331.362 154.118C331.668 154.716 331.82 155.447 331.82 156.309V163.111H329.307V156.698C329.307 155.98 329.122 155.421 328.751 155.022C328.386 154.619 327.872 154.417 327.21 154.417C326.765 154.417 326.367 154.515 326.016 154.709C325.668 154.9 325.395 155.175 325.196 155.537C325.002 155.899 324.905 156.337 324.905 156.851Z" fill="#0064A9"/>
<path d="M318.677 153.673H316.08C316.006 153.247 315.869 152.869 315.67 152.54C315.471 152.206 315.223 151.923 314.927 151.691C314.631 151.459 314.293 151.285 313.913 151.17C313.539 151.049 313.133 150.989 312.698 150.989C311.925 150.989 311.24 151.183 310.643 151.573C310.046 151.958 309.578 152.523 309.241 153.27C308.903 154.012 308.734 154.918 308.734 155.989C308.734 157.079 308.903 157.997 309.241 158.743C309.583 159.485 310.051 160.046 310.643 160.426C311.24 160.802 311.923 160.989 312.691 160.989C313.117 160.989 313.515 160.934 313.886 160.822C314.261 160.706 314.596 160.537 314.892 160.315C315.193 160.092 315.446 159.819 315.649 159.494C315.858 159.17 316.001 158.799 316.08 158.381L318.677 158.395C318.579 159.072 318.369 159.707 318.045 160.301C317.725 160.894 317.306 161.418 316.788 161.873C316.27 162.322 315.663 162.675 314.969 162.93C314.275 163.18 313.504 163.305 312.657 163.305C311.407 163.305 310.291 163.015 309.31 162.436C308.329 161.856 307.556 161.019 306.991 159.925C306.426 158.831 306.144 157.519 306.144 155.989C306.144 154.454 306.428 153.142 306.998 152.053C307.567 150.959 308.343 150.122 309.324 149.542C310.305 148.963 311.416 148.673 312.657 148.673C313.448 148.673 314.184 148.784 314.865 149.007C315.545 149.229 316.152 149.556 316.684 149.987C317.216 150.414 317.654 150.938 317.996 151.559C318.343 152.176 318.57 152.88 318.677 153.673Z" fill="#0064A9"/>
<path d="M289.209 156.851V163.11H286.696V152.428H289.098V154.243H289.223C289.469 153.645 289.86 153.17 290.397 152.818C290.938 152.465 291.607 152.289 292.403 152.289C293.139 152.289 293.78 152.447 294.327 152.762C294.877 153.077 295.303 153.534 295.604 154.132C295.91 154.73 296.06 155.456 296.056 156.309V163.11H293.542V156.698C293.542 155.984 293.357 155.426 292.987 155.022C292.621 154.619 292.114 154.417 291.466 154.417C291.026 154.417 290.635 154.515 290.292 154.709C289.955 154.899 289.688 155.175 289.494 155.537C289.304 155.898 289.209 156.337 289.209 156.851Z" fill="#0064A9"/>
<path d="M277.071 163.326C276.395 163.326 275.786 163.205 275.245 162.964C274.708 162.719 274.282 162.357 273.967 161.879C273.657 161.402 273.502 160.813 273.502 160.113C273.502 159.51 273.613 159.012 273.835 158.618C274.057 158.224 274.361 157.908 274.745 157.672C275.129 157.435 275.562 157.257 276.043 157.136C276.529 157.011 277.032 156.921 277.55 156.865C278.175 156.8 278.682 156.742 279.071 156.691C279.459 156.636 279.742 156.552 279.918 156.441C280.098 156.325 280.188 156.147 280.188 155.905V155.864C280.188 155.34 280.033 154.934 279.723 154.647C279.413 154.359 278.966 154.215 278.383 154.215C277.768 154.215 277.279 154.35 276.918 154.619C276.562 154.888 276.321 155.205 276.196 155.572L273.849 155.238C274.034 154.589 274.34 154.046 274.766 153.61C275.192 153.17 275.712 152.841 276.328 152.623C276.944 152.4 277.624 152.289 278.369 152.289C278.883 152.289 279.395 152.349 279.904 152.47C280.413 152.59 280.878 152.79 281.299 153.068C281.721 153.342 282.059 153.715 282.313 154.188C282.572 154.661 282.702 155.252 282.702 155.961V163.11H280.286V161.643H280.202C280.05 161.94 279.834 162.218 279.557 162.477C279.283 162.732 278.939 162.939 278.522 163.096C278.11 163.249 277.626 163.326 277.071 163.326ZM277.724 161.476C278.228 161.476 278.666 161.376 279.036 161.177C279.406 160.973 279.691 160.704 279.89 160.37C280.094 160.036 280.195 159.672 280.195 159.278V158.02C280.117 158.084 279.982 158.145 279.793 158.2C279.608 158.256 279.399 158.305 279.168 158.346C278.936 158.388 278.707 158.425 278.48 158.458C278.254 158.49 278.057 158.518 277.89 158.541C277.515 158.592 277.18 158.676 276.883 158.792C276.587 158.907 276.353 159.07 276.182 159.278C276.011 159.482 275.925 159.747 275.925 160.071C275.925 160.535 276.094 160.885 276.432 161.121C276.77 161.358 277.2 161.476 277.724 161.476Z" fill="#0064A9"/>
<path d="M267.437 158.618V152.428H269.951V163.11H267.514V161.212H267.403C267.162 161.81 266.766 162.299 266.215 162.679C265.669 163.059 264.996 163.249 264.195 163.249C263.496 163.249 262.878 163.094 262.341 162.784C261.809 162.468 261.392 162.012 261.091 161.413C260.79 160.811 260.64 160.083 260.64 159.23V152.428H263.153V158.84C263.153 159.517 263.339 160.055 263.709 160.454C264.079 160.852 264.565 161.052 265.167 161.052C265.537 161.052 265.896 160.961 266.243 160.781C266.59 160.6 266.875 160.331 267.097 159.974C267.324 159.612 267.437 159.16 267.437 158.618Z" fill="#0064A9"/>
<path d="M245.328 148.868H248.237L251.716 155.168H251.855L255.334 148.868H258.243L253.07 157.797V163.111H250.501V157.797L245.328 148.868Z" fill="#0064A9"/>
<path d="M230.824 167.339C229.921 167.339 229.146 167.216 228.498 166.97C227.85 166.729 227.329 166.404 226.936 165.996C226.542 165.588 226.269 165.136 226.116 164.64L228.38 164.091C228.482 164.3 228.63 164.506 228.824 164.71C229.019 164.918 229.28 165.09 229.609 165.224C229.942 165.364 230.361 165.433 230.866 165.433C231.578 165.433 232.169 165.259 232.636 164.912C233.104 164.568 233.337 164.003 233.337 163.215V161.191H233.212C233.083 161.45 232.893 161.717 232.643 161.991C232.398 162.264 232.071 162.494 231.664 162.679C231.261 162.865 230.754 162.957 230.143 162.957C229.324 162.957 228.581 162.765 227.915 162.38C227.253 161.991 226.725 161.411 226.332 160.641C225.943 159.867 225.748 158.898 225.748 157.734C225.748 156.561 225.943 155.572 226.332 154.765C226.725 153.954 227.255 153.339 227.922 152.922C228.588 152.5 229.331 152.289 230.15 152.289C230.775 152.289 231.289 152.396 231.692 152.609C232.099 152.818 232.423 153.07 232.664 153.367C232.905 153.659 233.087 153.935 233.212 154.195H233.351V152.428H235.83V163.284C235.83 164.198 235.613 164.953 235.177 165.551C234.742 166.149 234.147 166.597 233.393 166.894C232.638 167.19 231.782 167.339 230.824 167.339ZM230.845 160.982C231.377 160.982 231.831 160.852 232.206 160.593C232.581 160.333 232.865 159.96 233.06 159.473C233.254 158.986 233.351 158.402 233.351 157.721C233.351 157.048 233.254 156.459 233.06 155.954C232.87 155.449 232.588 155.057 232.213 154.779C231.842 154.496 231.386 154.355 230.845 154.355C230.285 154.355 229.817 154.501 229.442 154.793C229.067 155.085 228.785 155.486 228.595 155.996C228.405 156.501 228.31 157.076 228.31 157.721C228.31 158.374 228.405 158.947 228.595 159.438C228.789 159.925 229.074 160.305 229.449 160.579C229.829 160.848 230.294 160.982 230.845 160.982Z" fill="#0064A9"/>
<path d="M215.318 156.851V163.11H212.804V152.428H215.207V154.243H215.332C215.577 153.645 215.968 153.17 216.505 152.818C217.047 152.465 217.716 152.289 218.512 152.289C219.248 152.289 219.889 152.447 220.435 152.762C220.986 153.077 221.412 153.534 221.713 154.132C222.018 154.73 222.169 155.456 222.164 156.309V163.11H219.65V156.698C219.65 155.984 219.465 155.426 219.095 155.022C218.729 154.619 218.222 154.417 217.574 154.417C217.135 154.417 216.743 154.515 216.401 154.709C216.063 154.899 215.797 155.175 215.602 155.537C215.413 155.898 215.318 156.337 215.318 156.851Z" fill="#0064A9"/>
<path d="M206.24 158.618V152.428H208.753V163.11H206.316V161.212H206.205C205.965 161.81 205.569 162.299 205.018 162.679C204.472 163.059 203.798 163.249 202.997 163.249C202.298 163.249 201.68 163.094 201.144 162.784C200.611 162.468 200.195 162.012 199.894 161.413C199.593 160.811 199.442 160.083 199.442 159.23V152.428H201.956V158.84C201.956 159.517 202.141 160.055 202.511 160.454C202.882 160.852 203.368 161.052 203.969 161.052C204.34 161.052 204.699 160.961 205.046 160.781C205.393 160.6 205.678 160.331 205.9 159.974C206.127 159.612 206.24 159.16 206.24 158.618Z" fill="#0064A9"/>
<path d="M188.498 156.851V163.111H185.985V148.868H188.443V154.244H188.568C188.818 153.641 189.204 153.166 189.727 152.818C190.255 152.465 190.926 152.289 191.741 152.289C192.481 152.289 193.127 152.445 193.678 152.755C194.229 153.066 194.655 153.52 194.956 154.118C195.261 154.716 195.414 155.447 195.414 156.309V163.111H192.9V156.698C192.9 155.98 192.715 155.421 192.345 155.022C191.979 154.619 191.465 154.417 190.803 154.417C190.359 154.417 189.961 154.515 189.609 154.709C189.262 154.9 188.989 155.175 188.79 155.537C188.595 155.899 188.498 156.337 188.498 156.851Z" fill="#0064A9"/>
<path d="M182.27 153.673H179.673C179.599 153.247 179.463 152.869 179.264 152.54C179.065 152.206 178.817 151.923 178.521 151.691C178.224 151.459 177.887 151.285 177.507 151.17C177.132 151.049 176.727 150.989 176.292 150.989C175.519 150.989 174.834 151.183 174.237 151.573C173.639 151.958 173.172 152.523 172.834 153.27C172.496 154.012 172.327 154.918 172.327 155.989C172.327 157.079 172.496 157.997 172.834 158.743C173.177 159.485 173.644 160.046 174.237 160.426C174.834 160.802 175.517 160.989 176.285 160.989C176.711 160.989 177.109 160.934 177.479 160.822C177.854 160.706 178.19 160.537 178.486 160.315C178.787 160.092 179.039 159.819 179.243 159.494C179.451 159.17 179.595 158.799 179.673 158.381L182.27 158.395C182.173 159.072 181.962 159.707 181.638 160.301C181.319 160.894 180.9 161.418 180.382 161.873C179.863 162.322 179.257 162.675 178.562 162.93C177.868 163.18 177.097 163.305 176.25 163.305C175 163.305 173.885 163.015 172.903 162.436C171.922 161.856 171.149 161.019 170.584 159.925C170.02 158.831 169.737 157.519 169.737 155.989C169.737 154.454 170.022 153.142 170.591 152.053C171.161 150.959 171.936 150.122 172.917 149.542C173.899 148.963 175.01 148.673 176.25 148.673C177.042 148.673 177.778 148.784 178.458 149.007C179.139 149.229 179.745 149.556 180.277 149.987C180.81 150.414 181.247 150.938 181.59 151.559C181.937 152.176 182.164 152.88 182.27 153.673Z" fill="#0064A9"/>
</g>
<defs>
<clipPath id="clip0_156_60">
<rect width="525" height="117" fill="white" transform="translate(11 54)"/>
</clipPath>
</defs>
</svg>
