<svg width="39" height="674" viewBox="0 0 39 674" fill="none" xmlns="http://www.w3.org/2000/svg">
<line x1="19.5" y1="2.18557e-08" x2="19.5" y2="324" stroke="white"/>
<path d="M31.2727 367.136L8 367.136L8 364.455L31.2727 364.455L31.2727 367.136ZM7.63636 379.139C7.63636 377.563 8.01136 376.181 8.76136 374.991C9.51136 373.81 10.5606 372.885 11.9091 372.219C13.2576 371.56 14.8333 371.23 16.6364 371.23C18.4545 371.23 20.0417 371.56 21.3977 372.219C22.7538 372.885 23.8068 373.81 24.5568 374.991C25.3068 376.181 25.6818 377.563 25.6818 379.139C25.6818 380.715 25.3068 382.094 24.5568 383.276C23.8068 384.465 22.7538 385.389 21.3977 386.048C20.0417 386.715 18.4545 387.048 16.6364 387.048C14.8333 387.048 13.2576 386.715 11.9091 386.048C10.5606 385.389 9.51136 384.465 8.76136 383.276C8.01136 382.094 7.63636 380.715 7.63636 379.139ZM10.0455 379.139C10.0455 380.336 10.3523 381.321 10.9659 382.094C11.5795 382.866 12.3864 383.438 13.3864 383.81C14.3864 384.181 15.4697 384.366 16.6364 384.366C17.803 384.366 18.8902 384.181 19.8977 383.81C20.9053 383.438 21.7197 382.866 22.3409 382.094C22.9621 381.321 23.2727 380.336 23.2727 379.139C23.2727 377.942 22.9621 376.957 22.3409 376.185C21.7197 375.412 20.9053 374.84 19.8977 374.469C18.8902 374.098 17.803 373.912 16.6364 373.912C15.4697 373.912 14.3864 374.098 13.3864 374.469C12.3864 374.84 11.5795 375.412 10.9659 376.185C10.3523 376.957 10.0455 377.942 10.0455 379.139ZM7.63636 398.233C7.63636 396.657 8.01136 395.275 8.76136 394.085C9.51136 392.903 10.5606 391.979 11.9091 391.312C13.2576 390.653 14.8333 390.324 16.6364 390.324C18.4545 390.324 20.0417 390.653 21.3977 391.312C22.7538 391.979 23.8068 392.903 24.5568 394.085C25.3068 395.275 25.6818 396.657 25.6818 398.233C25.6818 399.809 25.3068 401.187 24.5568 402.369C23.8068 403.559 22.7538 404.483 21.3977 405.142C20.0417 405.809 18.4545 406.142 16.6364 406.142C14.8333 406.142 13.2576 405.809 11.9091 405.142C10.5606 404.483 9.51136 403.559 8.76136 402.369C8.01136 401.187 7.63636 399.809 7.63636 398.233ZM10.0455 398.233C10.0455 399.43 10.3523 400.415 10.9659 401.187C11.5795 401.96 12.3864 402.532 13.3864 402.903C14.3864 403.275 15.4697 403.46 16.6364 403.46C17.803 403.46 18.8902 403.275 19.8977 402.903C20.9053 402.532 21.7197 401.96 22.3409 401.187C22.9621 400.415 23.2727 399.43 23.2727 398.233C23.2727 397.036 22.9621 396.051 22.3409 395.278C21.7197 394.506 20.9053 393.934 19.8977 393.562C18.8902 393.191 17.803 393.006 16.6364 393.006C15.4697 393.006 14.3864 393.191 13.3864 393.562C12.3864 393.934 11.5795 394.506 10.9659 395.278C10.3523 396.051 10.0455 397.036 10.0455 398.233ZM14.3636 412.736L17.6818 412.69L17.6818 413.236L25.4545 420.872L25.4545 424.19L17.2273 416.054L17.2273 415.827L14.3636 412.736ZM8 410.236L31.2727 410.236L31.2727 412.918L8 412.918L8 410.236ZM8 421.327L16.6364 414.509L18.5 416.418L8 424.736L8 421.327ZM8 440.597L25.4545 435.278L25.4545 438.097L12.0909 441.869L12.0909 442.051L25.4545 445.778L25.4545 448.642L12.1364 452.324L12.1364 452.506L25.4545 456.278L25.4545 459.097L8 453.778L8 451.142L21.4091 447.324L21.4091 447.051L8 443.233L8 440.597ZM18.5 465.324L8 465.324L8 462.642L31.2727 462.642L31.2727 465.324L22.7273 465.324L22.7273 465.551C23.6288 465.96 24.3447 466.574 24.875 467.392C25.4129 468.218 25.6818 469.316 25.6818 470.687C25.6818 471.877 25.4432 472.919 24.9659 473.812C24.4962 474.706 23.7727 475.4 22.7955 475.892C21.8258 476.392 20.5909 476.642 19.0909 476.642L7.99999 476.642L8 473.96L18.9091 473.96C20.2955 473.96 21.3674 473.6 22.125 472.881C22.8901 472.169 23.2727 471.18 23.2727 469.915C23.2727 469.036 23.0871 468.248 22.7159 467.551C22.3447 466.862 21.803 466.316 21.0909 465.915C20.3788 465.521 19.5151 465.324 18.5 465.324ZM7.5909 486.685C7.5909 485.579 7.79924 484.575 8.2159 483.673C8.64015 482.772 9.24999 482.056 10.0454 481.526C10.8485 480.995 11.8182 480.73 12.9545 480.73C13.9545 480.73 14.7651 480.927 15.3864 481.321C16.0151 481.715 16.5076 482.241 16.8636 482.901C17.2197 483.56 17.4848 484.287 17.6591 485.082C17.8409 485.885 17.9848 486.692 18.0909 487.503C18.2273 488.563 18.3295 489.423 18.3977 490.082C18.4735 490.749 18.5985 491.234 18.7727 491.537C18.947 491.848 19.25 492.003 19.6818 492.003L19.7727 492.003C20.8939 492.003 21.7651 491.696 22.3864 491.082C23.0076 490.476 23.3182 489.556 23.3182 488.321C23.3182 487.041 23.0379 486.037 22.4773 485.31C21.9167 484.582 21.3182 484.071 20.6818 483.776L21.5909 481.23C22.6515 481.685 23.4773 482.291 24.0682 483.048C24.6667 483.813 25.0833 484.647 25.3182 485.548C25.5606 486.457 25.6818 487.351 25.6818 488.23C25.6818 488.791 25.6136 489.435 25.4773 490.162C25.3485 490.897 25.0795 491.605 24.6705 492.287C24.2614 492.976 23.6439 493.548 22.8182 494.003C21.9924 494.457 20.8864 494.685 19.5 494.685L7.99999 494.685L7.99999 492.003L10.3636 492.003L10.3636 491.866C9.98484 491.685 9.57954 491.382 9.14772 490.957C8.7159 490.533 8.34848 489.969 8.04545 489.264C7.74242 488.56 7.5909 487.7 7.5909 486.685ZM9.99999 487.094C9.99999 488.154 10.2083 489.048 10.625 489.776C11.0417 490.51 11.5795 491.063 12.2386 491.435C12.8977 491.813 13.5909 492.003 14.3182 492.003L16.7727 492.003C16.6364 491.889 16.5114 491.639 16.3977 491.253C16.2917 490.874 16.197 490.435 16.1136 489.935C16.0379 489.442 15.9697 488.961 15.9091 488.491C15.8561 488.029 15.8106 487.654 15.7727 487.366C15.6818 486.67 15.5341 486.018 15.3295 485.412C15.1326 484.813 14.8333 484.329 14.4318 483.957C14.0379 483.594 13.5 483.412 12.8182 483.412C11.8864 483.412 11.1818 483.757 10.7045 484.446C10.2348 485.143 9.99999 486.026 9.99999 487.094ZM25.4545 507.17L23.1818 507.17L23.1818 498.125L25.4545 498.125L25.4545 507.17ZM29.6364 500.761L29.6364 503.443L13 503.443C12.2424 503.443 11.6742 503.553 11.2954 503.773C10.9242 504 10.6742 504.288 10.5454 504.636C10.4242 504.992 10.3636 505.367 10.3636 505.761C10.3636 506.057 10.3788 506.299 10.4091 506.489C10.447 506.678 10.4773 506.83 10.5 506.943L8.0909 507.489C8.02272 507.307 7.95454 507.053 7.88636 506.727C7.8106 506.402 7.77272 505.989 7.77272 505.489C7.77272 504.731 7.9356 503.989 8.26136 503.261C8.58712 502.542 9.08333 501.943 9.74999 501.466C10.4167 500.996 11.2576 500.761 12.2727 500.761L29.6364 500.761ZM7.99999 524.159L25.4545 518.841L25.4545 521.659L12.0909 525.432L12.0909 525.614L25.4545 529.341L25.4545 532.205L12.1364 535.886L12.1364 536.068L25.4545 539.841L25.4545 542.659L7.99999 537.341L7.99999 534.705L21.4091 530.886L21.4091 530.614L7.99999 526.795L7.99999 524.159ZM7.63636 552.929C7.63636 551.247 8.00757 549.796 8.74999 548.577C9.49999 547.365 10.5454 546.429 11.8864 545.77C13.2348 545.118 14.803 544.793 16.5909 544.793C18.3788 544.793 19.9545 545.118 21.3182 545.77C22.6894 546.429 23.7576 547.346 24.5227 548.52C25.2954 549.702 25.6818 551.08 25.6818 552.656C25.6818 553.565 25.5303 554.463 25.2273 555.349C24.9242 556.236 24.4318 557.043 23.75 557.77C23.0757 558.497 22.1818 559.077 21.0682 559.509C19.9545 559.94 18.5833 560.156 16.9545 560.156L15.8182 560.156L15.8182 546.702L18.1364 546.702L18.1364 557.429C19.1212 557.429 20 557.232 20.7727 556.838C21.5454 556.452 22.1553 555.899 22.6023 555.179C23.0492 554.467 23.2727 553.626 23.2727 552.656C23.2727 551.588 23.0076 550.664 22.4773 549.884C21.9545 549.111 21.2727 548.516 20.4318 548.099C19.5909 547.683 18.6894 547.474 17.7273 547.474L16.1818 547.474C14.8636 547.474 13.7462 547.702 12.8295 548.156C11.9204 548.618 11.2273 549.259 10.75 550.077C10.2803 550.895 10.0454 551.846 10.0454 552.929C10.0454 553.634 10.1439 554.27 10.3409 554.838C10.5454 555.414 10.8485 555.91 11.25 556.327C11.6591 556.743 12.1667 557.065 12.7727 557.293L12.0454 559.884C11.1667 559.611 10.3939 559.152 9.72726 558.509C9.06817 557.865 8.55302 557.069 8.18181 556.122C7.81817 555.175 7.63636 554.111 7.63636 552.929ZM7.63635 580.327C7.63635 578.69 8.02272 577.281 8.79545 576.099C9.56817 574.918 10.6326 574.009 11.9886 573.372C13.3447 572.736 14.8939 572.418 16.6364 572.418C18.4091 572.418 19.9735 572.743 21.3295 573.395C22.6932 574.054 23.7576 574.971 24.5227 576.145C25.2954 577.327 25.6818 578.705 25.6818 580.281C25.6818 581.509 25.4545 582.615 25 583.599C24.5454 584.584 23.9091 585.391 23.0909 586.02C22.2727 586.649 21.3182 587.039 20.2273 587.19L20.2273 584.509C21.0227 584.304 21.7273 583.849 22.3409 583.145C22.9621 582.448 23.2727 581.509 23.2727 580.327C23.2727 579.281 23 578.365 22.4545 577.577C21.9167 576.796 21.1553 576.187 20.1704 575.747C19.1932 575.315 18.0454 575.099 16.7273 575.099C15.3788 575.099 14.2045 575.312 13.2045 575.736C12.2045 576.168 11.428 576.774 10.875 577.554C10.322 578.342 10.0454 579.266 10.0454 580.327C10.0454 581.024 10.1667 581.656 10.4091 582.224C10.6515 582.793 11 583.274 11.4545 583.668C11.9091 584.062 12.4545 584.342 13.0909 584.509L13.0909 587.19C12.0606 587.039 11.1326 586.664 10.3068 586.065C9.48863 585.474 8.83711 584.69 8.35226 583.713C7.87499 582.743 7.63635 581.615 7.63635 580.327ZM7.5909 596.247C7.5909 595.141 7.79923 594.137 8.2159 593.236C8.64014 592.334 9.24999 591.618 10.0454 591.088C10.8485 590.558 11.8182 590.293 12.9545 590.293C13.9545 590.293 14.7651 590.49 15.3864 590.884C16.0151 591.277 16.5076 591.804 16.8636 592.463C17.2197 593.122 17.4848 593.849 17.6591 594.645C17.8409 595.448 17.9848 596.255 18.0909 597.065C18.2273 598.126 18.3295 598.986 18.3977 599.645C18.4735 600.312 18.5985 600.796 18.7727 601.099C18.947 601.41 19.25 601.565 19.6818 601.565L19.7727 601.565C20.8939 601.565 21.7651 601.259 22.3864 600.645C23.0076 600.039 23.3182 599.118 23.3182 597.884C23.3182 596.603 23.0379 595.599 22.4773 594.872C21.9167 594.145 21.3182 593.634 20.6818 593.338L21.5909 590.793C22.6515 591.247 23.4773 591.853 24.0682 592.611C24.6667 593.376 25.0833 594.209 25.3182 595.111C25.5606 596.02 25.6818 596.914 25.6818 597.793C25.6818 598.353 25.6136 598.997 25.4773 599.724C25.3485 600.459 25.0795 601.168 24.6704 601.849C24.2614 602.539 23.6439 603.111 22.8182 603.565C21.9924 604.02 20.8864 604.247 19.5 604.247L7.99999 604.247L7.99999 601.565L10.3636 601.565L10.3636 601.429C9.98484 601.247 9.57954 600.944 9.14772 600.52C8.7159 600.096 8.34847 599.531 8.04544 598.827C7.74241 598.122 7.5909 597.262 7.5909 596.247ZM9.99999 596.656C9.99999 597.717 10.2083 598.611 10.625 599.338C11.0417 600.073 11.5795 600.626 12.2386 600.997C12.8977 601.376 13.5909 601.565 14.3182 601.565L16.7727 601.565C16.6364 601.452 16.5114 601.202 16.3977 600.815C16.2917 600.437 16.197 599.997 16.1136 599.497C16.0379 599.005 15.9697 598.524 15.9091 598.054C15.8561 597.592 15.8106 597.217 15.7727 596.929C15.6818 596.232 15.5341 595.58 15.3295 594.974C15.1326 594.376 14.8333 593.891 14.4318 593.52C14.0379 593.156 13.5 592.974 12.8182 592.974C11.8864 592.974 11.1818 593.319 10.7045 594.009C10.2348 594.705 9.99999 595.588 9.99999 596.656ZM18.5 611.824L7.99999 611.824L7.99999 609.142L25.4545 609.142L25.4545 611.733L22.7273 611.733L22.7273 611.96C23.6136 612.369 24.3257 612.991 24.8636 613.824C25.4091 614.657 25.6818 615.733 25.6818 617.051C25.6818 618.233 25.4394 619.267 24.9545 620.153C24.4773 621.04 23.75 621.729 22.7727 622.222C21.803 622.714 20.5757 622.96 19.0909 622.96L7.99999 622.96L7.99999 620.278L18.9091 620.278C20.2803 620.278 21.3485 619.922 22.1136 619.21C22.8864 618.498 23.2727 617.521 23.2727 616.278C23.2727 615.422 23.0871 614.657 22.7159 613.983C22.3447 613.316 21.803 612.79 21.0909 612.403C20.3788 612.017 19.5151 611.824 18.5 611.824ZM7.63635 643.452C7.63635 641.997 8.00378 640.713 8.73862 639.599C9.48105 638.486 10.5265 637.615 11.875 636.986C13.231 636.357 14.8333 636.043 16.6818 636.043C18.5151 636.043 20.106 636.357 21.4545 636.986C22.803 637.615 23.8447 638.49 24.5795 639.611C25.3144 640.732 25.6818 642.027 25.6818 643.497C25.6818 644.634 25.4924 645.531 25.1136 646.19C24.7424 646.857 24.3182 647.365 23.8409 647.713C23.3712 648.069 22.9848 648.346 22.6818 648.543L22.6818 648.77L31.2727 648.77L31.2727 651.452L7.99999 651.452L7.99999 648.861L10.6818 648.861L10.6818 648.543C10.3636 648.346 9.96211 648.065 9.47726 647.702C8.99999 647.338 8.57196 646.819 8.19317 646.145C7.82196 645.471 7.63635 644.573 7.63635 643.452ZM10.0454 643.815C10.0454 644.891 10.3257 645.8 10.8864 646.543C11.4545 647.285 12.2386 647.849 13.2386 648.236C14.2462 648.622 15.4091 648.815 16.7273 648.815C18.0303 648.815 19.1704 648.626 20.1477 648.247C21.1326 647.868 21.8977 647.308 22.4432 646.565C22.9962 645.823 23.2727 644.906 23.2727 643.815C23.2727 642.679 22.981 641.732 22.3977 640.974C21.822 640.224 21.0379 639.66 20.0454 639.281C19.0606 638.91 17.9545 638.724 16.7273 638.724C15.4848 638.724 14.356 638.914 13.3409 639.293C12.3333 639.679 11.5303 640.247 10.9318 640.997C10.3409 641.755 10.0454 642.694 10.0454 643.815ZM7.63635 663.827C7.63635 662.251 8.01135 660.868 8.76135 659.679C9.51135 658.497 10.5606 657.573 11.9091 656.906C13.2576 656.247 14.8333 655.918 16.6364 655.918C18.4545 655.918 20.0417 656.247 21.3977 656.906C22.7538 657.573 23.8068 658.497 24.5568 659.679C25.3068 660.868 25.6818 662.251 25.6818 663.827C25.6818 665.402 25.3068 666.781 24.5568 667.963C23.8068 669.152 22.7538 670.077 21.3977 670.736C20.0417 671.402 18.4545 671.736 16.6364 671.736C14.8333 671.736 13.2576 671.402 11.9091 670.736C10.5606 670.077 9.51135 669.152 8.76135 667.963C8.01135 666.781 7.63635 665.402 7.63635 663.827ZM10.0454 663.827C10.0454 665.024 10.3523 666.009 10.9659 666.781C11.5795 667.554 12.3864 668.126 13.3864 668.497C14.3864 668.868 15.4697 669.054 16.6364 669.054C17.803 669.054 18.8901 668.868 19.8977 668.497C20.9053 668.126 21.7197 667.554 22.3409 666.781C22.9621 666.009 23.2727 665.024 23.2727 663.827C23.2727 662.63 22.9621 661.645 22.3409 660.872C21.7197 660.099 20.9053 659.527 19.8977 659.156C18.8901 658.785 17.803 658.599 16.6364 658.599C15.4697 658.599 14.3864 658.785 13.3864 659.156C12.3864 659.527 11.5795 660.099 10.9659 660.872C10.3523 661.645 10.0454 662.63 10.0454 663.827Z" fill="white"/>
</svg>
