<?xml version="1.0" encoding="utf-8"?>
<!-- Generator: Adobe Illustrator 26.0.3, SVG Export Plug-In . SVG Version: 6.00 Build 0)  -->
<svg version="1.1" id="圖層_1" xmlns="http://www.w3.org/2000/svg" xmlns:xlink="http://www.w3.org/1999/xlink" x="0px" y="0px"
	 viewBox="0 0 241.1 76.6" style="enable-background:new 0 0 241.1 76.6;" xml:space="preserve">
<style type="text/css">
	.st0{fill:#ACA199;}
</style>
<g>
	<g>
		<g>
			<path class="st0" d="M29.8,46.9c-4.2,0-7.8,2.9-7.8,7.9C22,60.9,27.3,67,33.1,67c3.6,0,7.5-2.4,7.5-8.1
				C40.6,50.8,33.5,46.9,29.8,46.9"/>
		</g>
		<g>
			<path class="st0" d="M14.5,63.3c-1.9,0-2,1.1-2,2.3c0,4,7,11,10.6,11c1.1,0,2.1-0.5,2.1-2.1C25.2,70.9,18.5,63.4,14.5,63.3"/>
		</g>
		<g>
			<path class="st0" d="M22.5,38.3c0-5.3-3-9.6-6.7-9.6c-3.6,0-6.6,4.3-6.6,9.6c0,5.3,2.9,9.5,6.6,9.6
				C19.5,47.9,22.5,43.6,22.5,38.3"/>
		</g>
		<g>
			<path class="st0" d="M4.9,45.3c-1.2,0-1.7,2-1.7,3.8c0,4,2.9,11.3,5.9,11.4c1.1,0,1.7-1.4,1.7-3.1C10.8,53.4,8.2,45.3,4.9,45.3"
				/>
		</g>
		<g>
			<path class="st0" d="M29.8,29.7c3.7,0,10.8-3.9,10.8-11.9c0-5.8-3.9-8.2-7.5-8.1c-5.8,0-11.1,6-11.1,12.2
				C22,26.9,25.7,29.8,29.8,29.7"/>
		</g>
		<g>
			<path class="st0" d="M14.5,13.3c4,0,10.7-7.6,10.7-11.2c0-1.6-1-2.1-2.1-2.1c-3.6,0-10.6,7-10.6,11
				C12.5,12.2,12.6,13.3,14.5,13.3"/>
		</g>
		<g>
			<path class="st0" d="M4.9,31.4c3.3,0,5.9-8.1,5.9-12c0-1.7-0.6-3.1-1.7-3.1c-3,0-5.9,7.3-5.9,11.4C3.2,29.4,3.7,31.4,4.9,31.4"/>
		</g>
		<g>
			<path class="st0" d="M49.5,26.7c-6.4,0-11.6,5.2-11.6,11.6c0,6.4,5.2,11.6,11.6,11.6c6.5,0,11.7-5.2,11.7-11.6
				C61.2,31.9,56,26.7,49.5,26.7"/>
		</g>
		<g>
			<path class="st0" d="M1.1,31.9c-0.6,0-1.2,2.9-1.1,6.4c0,3.6,0.5,6.4,1.1,6.4c0.6,0,1.2-2.9,1.2-6.4C2.3,34.8,1.8,31.9,1.1,31.9"
				/>
		</g>
	</g>
	<g>
		<path class="st0" d="M77.8,35c-0.4,0.3-0.7,0.6-1.1,0.9c-0.4-0.5-1.1-1.3-1.7-1.6c2.2-1.6,3.8-3.6,4.7-5.4l2.4,0.5
			c-0.3,0.5-0.6,1-1,1.5h3.1c-0.2-0.5-0.4-1-0.6-1.4l2.2-0.6c0.4,0.6,0.7,1.4,1,2.1h5.7v1.8h-6.1v0.8h5.2v1.5h-5.2V36h5.2v1.5h-5.2
			v0.9h6.6v1.8H80.2v0.5h-2.4V35z M82.7,44.5c-1.4,1.1-3.9,2.2-6,2.7c-0.3-0.5-1-1.4-1.5-1.8c2-0.3,4.4-0.9,5.7-1.7L82.7,44.5z
			 M85.7,43.3v4.4h-2.4v-4.4h-7.8v-1.9h7.8v-1h2.4v1h7.8v1.9H85.7z M84.2,32.8h-4v0.8h4V32.8z M84.2,35.2h-4V36h4V35.2z M84.2,37.5
			h-4v0.9h4V37.5z M87.8,43.5c1.8,0.6,4.4,1.5,5.8,2.2l-1.5,1.6c-1.3-0.6-3.9-1.7-5.7-2.3L87.8,43.5z"/>
		<path class="st0" d="M96.4,45.4c0.9-1.2,1.7-3,2.1-4.6l2.2,0.8c-0.5,1.7-1.2,3.7-2.1,5L96.4,45.4z M104.6,39.3h-6.3v-9.5h14.3v9.5
			h-7.6c1.3,0.7,2.9,1.7,3.7,2.5l-1.7,1.6c-0.8-0.9-2.5-2.1-3.9-2.9L104.6,39.3z M100.6,33.6h3.8v-1.7h-3.8V33.6z M100.6,37.3h3.8
			v-1.8h-3.8V37.3z M107.7,45.2c0.8,0,1-0.3,1.1-2.3c0.5,0.4,1.5,0.7,2.1,0.9c-0.3,2.8-1,3.6-3,3.6h-3.3c-2.6,0-3.3-0.7-3.3-2.8
			v-3.3h2.4v3.3c0,0.6,0.2,0.7,1.2,0.7H107.7z M110.3,31.9h-3.7v1.7h3.7V31.9z M110.3,35.5h-3.7v1.8h3.7V35.5z M112.2,40.6
			c1.1,1.5,2.2,3.4,2.6,4.8l-2.3,1c-0.3-1.3-1.4-3.4-2.4-4.9L112.2,40.6z"/>
		<path class="st0" d="M130.1,30.9c1.8,1.7,4.2,4.2,5.3,5.9l-2,1.5c-0.3-0.4-0.6-1-1-1.5c-10.6,0.5-12,0.6-13.1,0.9
			c-0.1-0.5-0.5-1.7-0.8-2.3c0.5-0.1,1-0.5,1.7-1.2c0.7-0.6,2.9-3,4.2-5.4l2.4,1c-1.3,1.9-2.8,3.6-4.4,5.1l8.2-0.3
			c-0.8-0.9-1.6-1.7-2.3-2.5L130.1,30.9z M119.8,38.9h13.5v8.8h-2.6v-1h-8.5v1h-2.4V38.9z M122.3,41.2v3.2h8.5v-3.2H122.3z"/>
		<path class="st0" d="M149.4,36.8c1.3,3.9,3.7,7,7.5,8.6c-0.6,0.5-1.4,1.6-1.8,2.2c-3.6-1.7-5.9-4.6-7.5-8.5
			c-1.1,3.3-3.2,6.5-7.5,8.5c-0.4-0.7-1.1-1.5-1.8-2c4.6-2,6.5-5.4,7.3-8.8h-6.9v-2.5h7.3c0.2-1.9,0.2-3.7,0.2-5.3h2.6
			c0,1.6,0,3.5-0.2,5.3h7.9v2.5H149.4z"/>
		<path class="st0" d="M170.3,29.6c-0.1,0.1-0.2,0.3-0.3,0.4c1.8,1.6,5.1,3,8.3,3.6c-0.5,0.4-1.2,1.3-1.5,1.8
			c-0.4-0.1-0.8-0.2-1.2-0.4v5.2h-13.9v-5c-0.4,0.1-0.8,0.3-1.2,0.4c-0.2-0.4-0.9-1.4-1.3-1.8c3.7-0.9,7.2-2.5,9.1-4.8L170.3,29.6z
			 M174.8,34.8c-0.9-0.3-1.8-0.8-2.7-1.2v0.5h-7v-0.4c-0.8,0.4-1.6,0.8-2.4,1.1H174.8z M162.8,40.9h11.8v6.8h-2.4v-0.5h-7v0.5h-2.3
			V40.9z M165,38.8c-0.1-0.6-0.4-1.4-0.7-2.1l1.5-0.4h-2.3v2.5H165z M165.1,42.4v0.8h7v-0.8H165.1z M172.1,45.6v-0.8h-7v0.8H172.1z
			 M167.5,36.2H166c0.4,0.7,0.7,1.5,0.8,2.1l-1.3,0.4h2V36.2z M170.4,32.5c-0.6-0.4-1.2-0.9-1.7-1.3c-0.5,0.4-1.1,0.9-1.7,1.3H170.4
			z M169.5,36.2v2.5h1.9l-1.2-0.3c0.3-0.6,0.6-1.5,0.8-2.2H169.5z M173.4,36.2h-2.1l1.6,0.4c-0.4,0.8-0.8,1.6-1.1,2.1h1.6V36.2z"/>
		<path class="st0" d="M186.8,34.2h-6.5v-1.9h2.8c-0.2-0.7-0.6-1.8-1-2.6l1.7-0.6c0.5,0.8,1,2,1.1,2.7l-1.5,0.6h3.4V34.2z
			 M186.3,46.6h-3.7v0.8h-1.7v-6.8h5.4V46.6z M181,35.1h5.3v1.8H181V35.1z M181,37.8h5.3v1.8H181V37.8z M182.6,42.4v2.4h2v-2.4
			H182.6z M198,43c-0.5,0.8-1.2,1.5-1.9,2.2c0.3,0.5,0.6,0.8,1,0.8c0.3,0,0.5-0.5,0.6-1.6c0.4,0.4,0.9,0.6,1.4,0.8
			c-0.3,1.9-0.9,2.6-2.1,2.6c-1,0-1.8-0.5-2.4-1.4c-0.7,0.4-1.4,0.8-2,1.1c-0.2-0.4-0.7-0.9-1.1-1.2c0.8-0.3,1.7-0.8,2.5-1.4
			c-0.3-0.8-0.5-1.8-0.6-2.9h-1.9v0.8l1.6-0.2l0,1.7l-1.6,0.2v1.3c0,0.9-0.2,1.3-0.8,1.6c-0.6,0.3-1.5,0.3-2.7,0.3
			c-0.1-0.5-0.3-1.2-0.6-1.7c0.7,0,1.4,0,1.7,0c0.2,0,0.3-0.1,0.3-0.3v-1c-0.9,0.1-1.7,0.2-2.4,0.3l-0.2-1.8
			c0.8-0.1,1.6-0.1,2.6-0.2v-1h-2.5v-1.7h2.5v-0.9c-0.6,0.1-1.3,0.1-1.9,0.2c-0.1-0.4-0.3-1-0.5-1.4c1.7-0.2,3.7-0.5,4.9-0.8
			l1.2,1.4c0-0.4,0-0.8,0-1.1h2c0,0.9,0,1.8,0.1,2.6h2.1c-0.4-0.6-1.2-1.3-1.9-1.8l1.4-0.9c0.7,0.5,1.6,1.3,2,1.8l-1.3,0.9h1.4V42
			h-3.5c0.1,0.6,0.2,1,0.3,1.5c0.4-0.4,0.7-0.8,0.9-1.2L198,43z M198.7,37.2h-11.9v-1.7h4.8v-0.8h-3.6v-1.5h3.6v-0.8h-4.2v-1.6h2.2
			c-0.2-0.4-0.5-0.9-0.8-1.2l1.7-0.6c0.4,0.6,0.9,1.3,1.1,1.8h2.5c0.3-0.6,0.7-1.3,0.9-1.8l2.1,0.5c-0.3,0.5-0.6,0.9-0.9,1.3h2.2
			v1.6h-4.4v0.8h3.8v1.5h-3.8v0.8h4.8L198.7,37.2z M193.1,40.3c0-0.5-0.1-1-0.1-1.5c-0.5,0.1-1.1,0.3-1.7,0.4v1.1H193.1z"/>
		<path class="st0" d="M218.8,32.5v10h-2.5v-1h-4.5v6.2h-2.5v-6.2h-4.5v1.1h-2.4V32.5h6.9V29h2.5v3.5H218.8z M209.3,39.1v-4.3h-4.5
			v4.3H209.3z M216.3,39.1v-4.3h-4.5v4.3H216.3z"/>
		<path class="st0" d="M226.2,36.3c-0.3,2.6-0.8,6-1.5,8.3l-2.4-1c0.7-2.1,1.3-5.1,1.5-7.8L226.2,36.3z M230,34.7V44
			c0,0.9,0.2,1.1,1.1,1.1h2.9c1,0,1.2-0.6,1.3-3.8c0.6,0.4,1.6,0.8,2.2,1c-0.3,3.8-0.9,5-3.4,5h-3.3c-2.6,0-3.3-0.8-3.3-3.3v-9.3
			H230z M229.8,29.3c1.8,1.1,4.3,2.9,5.5,4.1l-1.8,1.9c-1.1-1.2-3.5-3.1-5.4-4.4L229.8,29.3z M238.5,35.3c1.1,2.4,2.2,5.4,2.6,7.4
			l-2.4,1c-0.3-2-1.3-5.2-2.4-7.5L238.5,35.3z"/>
	</g>
</g>
</svg>
