<svg width="1164" height="1323" viewBox="0 0 1164 1323" fill="none" xmlns="http://www.w3.org/2000/svg">
<g clip-path="url(#clip0_379_113)">
<path d="M1117.78 714.192C1142.08 724.776 1148.08 748.68 1139.49 768.258C1134.98 778.507 1126.86 784.906 1119.33 788.164L1111.74 772.107C1116.55 769.641 1120.45 766.792 1122.75 761.53C1126.71 752.46 1122.37 741.208 1109.22 735.493C1095.62 729.568 1085.1 732.95 1080.69 742.978C1078.06 748.94 1078.88 754.988 1080.75 759.777L1063.98 765.27C1059.72 755.631 1060.09 745.099 1064.48 735.108C1073.22 715.288 1093 703.471 1117.78 714.192Z" fill="white"/>
<path d="M1117.36 810.349L1105.91 829.575L1053.45 797.291L1037.06 824.813L1022.15 815.616L1050.02 768.883L1117.36 810.349Z" fill="white"/>
<path d="M1077.27 874.015L1064.06 892.059L1001.42 843.443L1014.63 825.398L1077.27 874.015Z" fill="white"/>
<path d="M1022.18 881.458C1041.23 900.193 1039.04 925.198 1024.8 940.961C1017.31 949.23 1007.75 952.525 999.724 952.988L997.911 934.917C1003.13 934.262 1007.68 932.887 1011.51 928.658C1018.12 921.37 1017.74 909.009 1007.41 898.903C996.749 888.419 985.917 887.971 978.653 896.031C974.305 900.827 973.09 906.911 973.305 912.183L956.05 911.556C955.224 900.783 958.96 890.844 966.276 882.763C980.717 866.828 1002.84 862.451 1022.23 881.527L1022.18 881.458Z" fill="white"/>
<path d="M990.303 974.245L973.333 988.41L955.462 964.473L955.065 964.782L956.725 1002.25L938.168 1017.74L937.843 975.636L886.45 956.575L905.007 941.085L937.672 953.974L937.299 940.175L925.339 924.135L942.309 909.97L990.285 974.282L990.303 974.245Z" fill="white"/>
<path d="M895.22 1047.02L874.536 1057.91L850.018 1033.29C846.838 1029.86 843.693 1025.92 840.41 1022.26L839.962 1022.5C840.539 1027.54 841.46 1032.74 841.934 1037.55L844.871 1073.55L824.186 1084.44L791.159 1010.1L808.671 1000.86L818.434 1022.84C821.779 1030.39 825.341 1042.76 827.756 1050.68L828.204 1050.44L826.362 1029.39L824.413 1000.06L834.738 994.603L854.648 1014.46L868.418 1029.24L868.866 1029C864.659 1022.03 857.977 1011.3 854.632 1003.75L844.869 981.772L862.158 972.658L895.186 1047L895.22 1047.02Z" fill="white"/>
<path d="M798.285 1094.37L748.366 1111.3L743.693 1093.69L773.194 1083.69L769.891 1071.21L744.681 1079.76L740.009 1062.15L765.219 1053.6L761.454 1039.42L730.764 1049.81L726.092 1032.19L777.218 1014.85L798.268 1094.32L798.285 1094.37Z" fill="white"/>
<path d="M696.473 1123.84L667.723 1127.76C650.997 1130.03 637.172 1127.55 635.942 1111.19C635.386 1104.05 638.724 1095.32 644.671 1091.95L644.62 1091.43C636.821 1090.16 630.234 1084.86 629.408 1073.91C628.111 1056.8 641.818 1047.45 659.043 1045.09L690.256 1040.84L696.473 1123.84ZM661.771 1061.75C653.434 1062.87 649.725 1066.49 650.163 1072.63C650.6 1078.77 654.731 1080.52 663.085 1079.36L671.698 1078.18L670.384 1060.57L661.771 1061.75ZM665.78 1095.28C658.906 1096.24 655.938 1099.97 656.308 1105.09C656.679 1110.21 660.051 1111.8 666.907 1110.87L674.039 1109.9L672.859 1094.33L665.728 1095.3L665.78 1095.28Z" fill="white"/>
<path d="M598.259 1132.91L572.668 1132.51L553.675 1048.47L576.062 1048.81L582.573 1089.63C584.024 1097.64 585.367 1107.85 586.765 1116.24L587.265 1116.25C589.518 1107.77 592.152 1097.76 594.628 1089.8L606.338 1049.24L627.985 1049.55L598.276 1132.87L598.259 1132.91ZM608.243 1084.22L569.133 1083.64L570.229 1066.53L609.339 1067.11L608.243 1084.22Z" fill="white"/>
<path d="M545.548 1088.73C540.059 1116.46 518.838 1129.3 499.055 1126.1C488.673 1124.42 481.262 1117.94 476.864 1111.2L490.49 1098.97C493.652 1103.15 496.987 1106.33 502.29 1107.2C511.45 1108.71 521.193 1101.09 524.163 1086.07C527.237 1070.56 522.207 1060.79 512.066 1059.13C506.023 1058.14 500.56 1060.66 496.421 1063.94L488.284 1048.43C496.545 1041.38 506.383 1038.75 516.524 1040.4C536.53 1043.67 551.14 1060.5 545.548 1088.73Z" fill="white"/>
<path d="M454.985 1115.42L435.088 1108.88L445.402 1079.09L444.954 1078.88L415.672 1102.47L393.916 1095.33L427.592 1070.24L417.181 1013.92L438.937 1021.07L444.956 1057.3L455.854 1048.83L462.759 1028.91L482.656 1035.45L454.985 1115.42Z" fill="white"/>
<path d="M324.057 1038.02L341.673 1049.34L331.813 1065.26L278.981 1031.27L288.841 1015.35L306.458 1026.66L341.15 970.674L358.766 981.992L324.074 1037.98L324.057 1038.02Z" fill="white"/>
<path d="M294.72 991.439C277.049 1012.83 255.983 1014.96 239.492 1000.35C223.035 985.75 221.849 963.746 239.433 942.449C257.104 921.059 278.653 918.348 295.145 932.96C311.636 947.572 312.391 970.049 294.702 991.476L294.72 991.439ZM255.546 956.704C245.814 968.508 244.573 979.212 251.727 985.534C258.88 991.856 268.891 988.951 278.624 977.147C288.357 965.344 290.081 954.057 282.927 947.735C275.773 941.413 265.279 944.901 255.546 956.704Z" fill="white"/>
<path d="M184.684 912.192L197.279 929.294L183.017 941.086L145.215 889.818L159.477 878.025L172.072 895.127L222.239 853.677L234.834 870.779L184.667 912.229L184.684 912.192Z" fill="white"/>
<path d="M172.807 857.207C149.568 871.491 129.427 866.094 118.955 846.255C108.466 826.454 114.478 804.947 137.613 790.705C160.852 776.422 181.63 781.443 192.12 801.245C202.609 821.046 196.028 842.871 172.807 857.207ZM147.879 810.087C135.07 817.975 130.473 827.78 135.005 836.38C139.537 844.98 149.732 845.713 162.541 837.825C175.349 829.937 180.602 819.72 176.052 811.157C171.503 802.594 160.671 802.236 147.862 810.124L147.879 810.087Z" fill="white"/>
<path d="M93.6646 789.792L83.9472 761.45C78.1545 744.525 79.2335 727.45 98.3114 719.444C116.821 711.666 129.907 723.063 135.443 739.283L138.288 747.631L162.243 737.55L169.252 758.058L93.6301 789.866L93.6646 789.792ZM119.965 746.863C117.206 738.78 111.922 736.617 105.184 739.438C98.4455 742.259 97.4028 747.885 100.111 755.719L102.459 762.621L122.484 754.205L119.948 746.81L119.965 746.863Z" fill="white"/>
</g>
<mask id="path-17-outside-1_379_113" maskUnits="userSpaceOnUse" x="50.7647" y="541.02" width="107.886" height="87.364" fill="black">
<rect fill="white" x="50.7647" y="541.02" width="107.886" height="87.364"/>
<path d="M106.787 625.096C73.4193 626.403 53.5571 604.218 52.5755 579.174C52.071 566.044 57.7798 555.104 64.5453 547.79L81.9045 560.888C77.8046 565.952 74.9223 570.953 75.2132 577.691C75.6485 589.293 86.767 598.986 104.825 598.266C123.51 597.533 133.582 588.58 133.084 575.763C132.773 568.121 128.564 562.167 123.805 558.068L139.814 543.662C149.92 551.674 155.293 562.956 155.791 575.808C156.78 601.164 140.783 623.844 106.824 625.164L106.787 625.096Z"/>
</mask>
<path d="M106.787 625.096C73.4193 626.403 53.5571 604.218 52.5755 579.174C52.071 566.044 57.7798 555.104 64.5453 547.79L81.9045 560.888C77.8046 565.952 74.9223 570.953 75.2132 577.691C75.6485 589.293 86.767 598.986 104.825 598.266C123.51 597.533 133.582 588.58 133.084 575.763C132.773 568.121 128.564 562.167 123.805 558.068L139.814 543.662C149.92 551.674 155.293 562.956 155.791 575.808C156.78 601.164 140.783 623.844 106.824 625.164L106.787 625.096Z" fill="#1881FE"/>
<path d="M106.787 625.096L107.671 624.628L107.377 624.072L106.748 624.096L106.787 625.096ZM52.5755 579.174L51.5762 579.213L51.5762 579.213L52.5755 579.174ZM64.5453 547.79L65.1477 546.992L64.4255 546.447L63.8112 547.111L64.5453 547.79ZM81.9045 560.888L82.6817 561.517L83.3329 560.713L82.5068 560.09L81.9045 560.888ZM75.2132 577.691L76.2126 577.654L76.2123 577.648L75.2132 577.691ZM104.825 598.266L104.786 597.267L104.785 597.267L104.825 598.266ZM133.084 575.763L134.083 575.724L134.083 575.722L133.084 575.763ZM123.805 558.068L123.136 557.324L122.292 558.084L123.153 558.825L123.805 558.068ZM139.814 543.662L140.435 542.878L139.773 542.354L139.145 542.919L139.814 543.662ZM155.791 575.808L154.792 575.847L154.792 575.847L155.791 575.808ZM106.824 625.164L105.94 625.632L106.234 626.188L106.862 626.163L106.824 625.164ZM106.748 624.096C73.9267 625.382 54.5345 603.622 53.5747 579.135L51.5762 579.213C52.5797 604.814 72.9118 627.424 106.826 626.095L106.748 624.096ZM53.5747 579.136C53.0826 566.328 58.651 555.635 65.2794 548.469L63.8112 547.111C56.9085 554.573 51.0593 565.761 51.5762 579.213L53.5747 579.136ZM63.943 548.588L81.3022 561.686L82.5068 560.09L65.1477 546.992L63.943 548.588ZM81.1273 560.259C76.9697 565.394 73.9076 570.635 74.2142 577.734L76.2123 577.648C75.937 571.272 78.6395 566.51 82.6817 561.517L81.1273 560.259ZM74.2139 577.729C74.6772 590.075 86.4676 599.998 104.865 599.265L104.785 597.267C87.0664 597.973 76.6199 588.511 76.2125 577.654L74.2139 577.729ZM104.864 599.265C114.344 598.893 121.769 596.433 126.782 592.319C131.825 588.181 134.344 582.433 134.083 575.724L132.085 575.802C132.322 581.91 130.053 587.047 125.513 590.773C120.944 594.523 113.991 596.906 104.786 597.267L104.864 599.265ZM134.083 575.722C133.757 567.713 129.346 561.52 124.458 557.31L123.153 558.825C127.783 562.814 131.789 568.53 132.085 575.803L134.083 575.722ZM124.474 558.811L140.483 544.405L139.145 542.919L123.136 557.324L124.474 558.811ZM139.193 544.446C149.055 552.265 154.304 563.267 154.792 575.847L156.79 575.769C156.281 562.644 150.784 551.083 140.435 542.878L139.193 544.446ZM154.792 575.847C155.278 588.306 151.59 600.048 143.67 608.83C135.758 617.603 123.539 623.513 106.785 624.165L106.862 626.163C124.067 625.494 136.827 619.405 145.156 610.169C153.477 600.942 157.293 588.666 156.79 575.769L154.792 575.847ZM107.707 624.696L107.671 624.628L105.903 625.563L105.94 625.632L107.707 624.696Z" fill="white" mask="url(#path-17-outside-1_379_113)"/>
<path d="M56.1061 518.097L56.0285 518.591L56.5226 518.669L154.867 534.081L155.361 534.158L155.439 533.665L165.405 470.516L165.483 470.021L164.988 469.944L143.181 466.541L142.687 466.464L142.61 466.957L136.838 503.62L60.759 491.689L60.2651 491.612L60.1876 492.105L56.1061 518.097Z" fill="#148DFF" stroke="white"/>
<path d="M73.6433 428.497L73.4977 428.976L73.9767 429.121L169.281 457.986L169.759 458.131L169.905 457.653L177.557 432.485L177.702 432.006L177.223 431.861L81.9188 402.996L81.4407 402.851L81.2954 403.329L73.6433 428.497Z" fill="#1293FF" stroke="white"/>
<path d="M135.896 398.114L136.11 397.662L135.896 398.114C151.362 405.43 165.356 405.914 176.873 401.637C188.384 397.361 197.363 388.349 202.846 376.777C208.424 365.057 208.92 352.448 203.611 340.499L203.439 340.113L203.029 340.218L182.186 345.589L181.638 345.73L181.845 346.256C184.105 352.004 185.067 359.059 181.855 365.814L181.855 365.816C179.177 371.495 174.659 375.117 168.748 376.359C162.819 377.605 155.436 376.464 147.05 372.494C130.871 364.834 125.757 351.41 130.585 341.24C133.401 335.322 138.143 332.286 144.068 329.702L144.541 329.495L144.319 329.029L134.997 309.388L134.803 308.98L134.378 309.131C124.884 312.506 114.651 319.66 108.929 331.682C98.0353 354.566 105.482 383.727 135.896 398.114Z" fill="#1099FF" stroke="white"/>
<path d="M140 279.411L139.999 279.412M139.999 279.412V279.412ZM139.594 279.108L139.981 279.436L139.73 279.773L219.563 339.163L219.964 339.461L220.262 339.061L236.016 317.951L236.315 317.55L235.913 317.251L216.135 302.532L211.306 287.793L254.42 292.867L254.706 292.901L254.879 292.67L272.086 269.615L272.615 268.906L271.734 268.819L203.412 262.053L188.815 214.483L188.525 213.541L187.936 214.33L170.729 237.385L170.57 237.597L170.657 237.848L185.191 279.574L156.046 257.897L155.646 257.599L155.347 257.999L139.594 279.108Z" fill="#0CA5FF" stroke="white"/>
<path d="M234.963 166.373L235.636 165.876L258.279 149.131L258.558 148.924L258.849 149.114L295.184 172.84L295.19 172.845L295.197 172.849C297.595 174.523 300.012 176.361 302.444 178.222C302.672 178.397 302.9 178.572 303.128 178.747C305.179 180.318 307.241 181.897 309.319 183.408C308.478 180.989 307.562 178.56 306.651 176.142C306.55 175.873 306.449 175.604 306.348 175.336C305.269 172.471 304.209 169.625 303.307 166.852L303.305 166.844L290.606 125.621L290.501 125.282L290.786 125.071L313.429 108.326L313.83 108.03L314.127 108.43L373.421 188.272L373.72 188.674L373.317 188.972L354.135 203.171L353.733 203.468L353.436 203.067L335.91 179.474C330.594 172.333 324.164 160.9 319.343 152.328C319.033 151.776 318.729 151.237 318.433 150.711L325.439 172.989L325.442 172.999L325.442 172.999L335.221 206.71L335.317 207.044L335.038 207.251L323.735 215.64L323.456 215.847L323.165 215.658L293.69 196.54L293.683 196.536L293.676 196.531L274.703 183.272C275.153 183.741 275.615 184.222 276.087 184.714C282.882 191.793 291.874 201.16 297.116 208.242L234.963 166.373ZM234.963 166.373L235.677 166.71L294.896 246.451L295.194 246.852L295.595 246.555L314.538 232.535L314.94 232.237L314.642 231.835L297.116 208.242L234.963 166.373Z" fill="#07B5FF" stroke="white"/>
<path d="M439.232 134.193L403.625 150.132L396.773 134.834L425.968 121.785L426.425 121.581L426.22 121.124L417.2 101.024L416.996 100.569L416.54 100.773L387.345 113.821L381.373 100.485L415.602 85.2026L416.059 84.9983L415.854 84.5413L406.835 64.4415L406.63 63.9859L406.174 64.1897L347.55 90.3969L346.863 90.4124L347.171 91.1L387.869 181.825L388.074 182.28L388.53 182.077L448.66 155.206L449.117 155.001L448.912 154.544L439.892 134.444L439.688 133.989L439.232 134.193Z" fill="#07B5FF" stroke="white"/>
<path d="M473.462 43.9807L473.475 44.5566L473.555 44.5433L489.71 142.106L489.792 142.599L490.285 142.517L528.659 136.195L528.659 136.195C539.298 134.435 548.714 130.626 555.056 124.662C561.421 118.677 564.661 110.547 562.961 100.266C561.875 93.6707 559.097 88.8181 555.316 85.4668C551.676 82.2403 547.134 80.4303 542.345 79.7713C545.772 77.5342 548.261 73.8733 549.743 69.7604C551.287 65.4781 551.756 60.6621 551.037 56.3482C550.229 51.4525 548.507 47.599 546.03 44.6354C543.554 41.6717 540.345 39.6239 536.604 38.3063C529.142 35.6779 519.529 35.9441 509.236 37.6392L509.235 37.6392L473.88 43.4761L473.95 43.9001L473.461 43.9459L473.462 43.9807ZM509.998 97.4002L520.086 95.748L520.087 95.7479C525.218 94.9053 528.991 94.9868 531.611 96.1049C534.174 97.1993 535.709 99.3229 536.292 102.816C536.876 106.313 536.136 109.06 534.076 111.149C532.022 113.231 528.594 114.724 523.634 115.571L523.599 115.538L523.353 115.578L513.264 117.23L509.998 97.4002ZM503.794 60.0274L512.078 58.6598L512.079 58.6597C516.285 57.9604 519.36 58.0744 521.486 59.0341C523.562 59.9714 524.816 61.7555 525.299 64.648C525.783 67.5487 525.232 70.0371 523.595 71.971C521.947 73.9175 519.14 75.3723 514.975 76.0647L506.69 77.4325L503.794 60.0274Z" fill="#05BAFF" stroke="white"/>
<path d="M598.835 30.0555L598.823 30.0551L598.81 30.0554L598.775 30.0562L598.424 30.0641L598.312 30.3964L565.113 128.903L564.897 129.543L565.572 129.563L592.509 130.347L592.905 130.359L593.007 129.976L598.48 109.373L625.475 110.154L629.739 131.011L629.818 131.399L630.214 131.411L658.092 132.208L658.767 132.228L658.589 131.577L631.154 31.3403L631.056 30.9831L630.686 30.9725L598.835 30.0555ZM619.801 82.3999L621.088 88.6933L604.103 88.2023L605.751 81.9969C608.184 73.664 610.654 63.4297 612.866 54.2674C613.094 53.3238 613.319 52.3916 613.541 51.474C614.429 55.6706 615.318 60.239 616.209 64.8201C617.4 70.9412 618.596 77.085 619.8 82.3948C619.8 82.3965 619.801 82.3982 619.801 82.3999Z" fill="#03C2FF" stroke="white"/>
<path d="M753.551 63.6622L753.906 63.3815L753.662 63.0002C748.229 54.5188 738.991 46.1423 725.954 43.3037C701.246 37.8734 674.584 51.5163 667.229 84.0702L667.194 84.071L667.109 84.4545C663.436 101.143 666.101 114.862 672.862 125.107C679.619 135.346 690.433 142.062 702.964 144.813L702.965 144.813C715.661 147.584 728.087 145.232 738.554 137.397L738.893 137.143L738.698 136.766L728.796 117.694L728.534 117.19L728.067 117.514C722.961 121.057 716.264 123.543 708.954 121.943L708.954 121.943C702.818 120.604 698.27 117.018 695.731 111.545C693.184 106.054 692.637 98.6161 694.628 89.5649C698.479 72.1225 710.458 64.1111 721.47 66.5223C727.875 67.9351 731.914 71.8641 735.765 77.0585L736.072 77.4727L736.477 77.1531L753.551 63.6622Z" fill="#01C6FF" stroke="white"/>
<path d="M791.643 133.036L796.307 176.13L796.338 176.417L796.602 176.533L822.948 188.143L823.757 188.499L823.646 187.622L815.01 119.626L858.213 94.825L859.071 94.3326L858.166 93.9338L831.82 82.3243L831.578 82.2174L831.353 82.3581L793.869 105.833L808.51 72.6325L808.712 72.1749L808.254 71.9732L784.16 61.356L784.018 61.6798L783.5 61.5768L743.34 152.558L743.138 153.015L743.596 153.217L767.725 163.834L768.183 164.035L768.384 163.578L778.327 141.039L791.643 133.036Z" fill="#04C0FF" stroke="white"/>
<path d="M939.801 179.93L887.902 236.779L887.564 237.149L887.934 237.486L907.417 255.195L907.787 255.53L908.123 255.162L959.991 198.348L979.104 215.722L979.474 216.057L979.81 215.688L994.662 199.397L994.999 199.027L994.629 198.69L936.215 145.528L935.845 145.192L935.509 145.561L920.657 161.853L920.319 162.223L920.69 162.559L939.801 179.93Z" fill="#09AEFF" stroke="white"/>
<path d="M1024.2 317.657L1024.21 317.657C1037.38 307.902 1044.97 296.455 1047.16 284.616C1049.36 272.771 1046.14 260.606 1037.87 249.451C1029.59 238.297 1018.9 231.667 1006.92 230.307C994.948 228.948 981.765 232.862 968.519 242.653C955.272 252.444 947.502 264.024 945.135 275.985C942.767 287.953 945.821 300.238 954.1 311.398C962.38 322.558 973.267 329.05 985.431 330.273C997.59 331.495 1010.96 327.448 1024.2 317.657ZM1018.84 263.529C1022.3 268.182 1023.06 273.423 1021.19 278.831C1019.31 284.264 1014.77 289.9 1007.56 295.243C1000.34 300.587 993.43 303.427 987.482 303.774C981.556 304.119 976.573 301.994 973.128 297.355C969.682 292.715 969.098 287.347 971.154 281.793C973.218 276.218 977.952 270.445 985.167 265.102C992.383 259.758 999.102 257.056 1004.86 256.841C1010.58 256.628 1015.39 258.876 1018.84 263.529Z" fill="#0DA3FF" stroke="white"/>
<path d="M1018.48 427.359L1090.34 399.766L1099.63 423.84L1099.81 424.306L1100.28 424.127L1120.85 416.224L1121.32 416.045L1121.14 415.578L1092.77 341.923L1092.59 341.457L1092.13 341.636L1071.55 349.539L1071.08 349.718L1071.26 350.186L1080.56 374.278L1008.65 401.886L1008.18 402.065L1008.36 402.532L1017.83 427.072L1018.01 427.538L1018.48 427.359Z" fill="#1195FF" stroke="white"/>
<path d="M1136.97 480.432C1134.61 466.743 1128.05 456.015 1117.96 449.419C1107.88 442.827 1094.35 440.403 1078.11 443.199L1078.11 443.199C1061.87 446.012 1049.71 452.876 1042.2 462.502C1034.69 472.133 1031.88 484.476 1034.24 498.154C1036.6 511.85 1043.4 522.537 1053.71 529.09C1064.01 535.639 1077.77 538.023 1094.01 535.228L1094.01 535.228C1110.18 532.434 1122.12 525.608 1129.42 516.013C1136.72 506.415 1139.34 494.104 1136.97 480.432ZM1136.97 480.432L1136.48 480.517M1136.97 480.432C1136.97 480.432 1136.97 480.432 1136.97 480.432L1136.48 480.517M1136.48 480.517C1141.17 507.632 1126.08 529.179 1093.93 534.735L1034.73 498.069C1030.05 470.953 1045.89 449.286 1078.19 443.691C1110.49 438.132 1131.8 453.366 1136.48 480.517ZM1113.65 484.477C1114.64 490.182 1112.96 495.201 1108.85 499.189C1104.73 503.196 1098.13 506.186 1089.27 507.715C1080.42 509.244 1072.96 508.676 1067.49 506.316C1062.05 503.964 1058.56 499.831 1057.57 494.143C1056.58 488.455 1058.47 483.396 1062.81 479.359C1067.16 475.306 1073.99 472.275 1082.84 470.746C1091.7 469.217 1098.93 469.826 1104.16 472.221C1109.38 474.605 1112.66 478.773 1113.65 484.477Z" fill="#148DFF" stroke="white"/>
<path d="M1144.09 559.714L1143.6 559.71L1143.61 559.261L1044.13 555.416L1043.64 555.397L1043.62 555.897L1042.61 582.167L1042.59 582.667L1043.09 582.686L1074.13 583.869L1073.73 594.051C1073.31 604.514 1075.58 614.664 1081.06 622.332C1086.56 630.018 1095.24 635.163 1107.55 635.642L1107.56 635.642C1120.25 636.13 1128.85 631.737 1134.38 624.42C1139.87 617.133 1142.26 607.009 1142.68 596.106L1144.07 560.279L1144.1 560.281L1144.09 559.749L1144.09 559.714ZM1120.92 594.066L1120.92 594.068C1120.74 599.075 1119.75 602.889 1117.79 605.402C1115.86 607.882 1112.91 609.172 1108.58 608.999C1104.23 608.824 1100.91 607.5 1098.72 605.021C1096.52 602.538 1095.39 598.815 1095.58 593.69L1095.94 584.725L1121.25 585.693L1120.92 594.066Z" fill="#1880FE" stroke="white"/>
<path d="M825.735 725.977L825.734 725.976C818.522 723.716 811.32 721.368 804.113 719.018C781.336 711.592 758.511 704.149 735.17 699.428L735.169 699.428C701.273 692.613 666.526 688.856 631.99 686.602C599.721 684.499 566.987 683.947 534.8 686.653L534.841 687.136L534.8 686.653C477.856 691.463 422.373 703.94 368.707 724.183L368.706 724.184C365.346 725.46 361.163 726.141 357.045 726.097C352.924 726.054 348.914 725.286 345.881 723.707L345.881 723.707C341.648 721.506 338.978 718.346 338.074 714.498C337.166 710.641 338.011 706.004 340.993 700.819C374.289 643.206 407.303 585.395 440.309 527.6C451.417 508.149 462.524 488.699 473.64 469.26L473.64 469.26C481.819 454.947 490.028 440.647 498.238 426.346C516.331 394.831 534.427 363.309 552.212 331.624C557.508 322.247 563.446 314.737 570.977 309.722C578.498 304.714 587.649 302.169 599.425 302.79C607.719 303.237 614.448 305.331 620.034 308.907C625.621 312.484 630.094 317.563 633.844 324.02L633.844 324.021C656.314 362.586 678.481 401.303 700.642 440.008C704.028 445.921 707.413 451.833 710.799 457.745L711.233 457.496L710.799 457.745C755.955 536.549 801.01 615.403 846.014 694.307C848.184 698.127 849.733 702.263 850.717 704.891C851.006 705.664 851.247 706.307 851.44 706.773C851.248 716.233 848.65 722.196 844.299 725.223C839.926 728.265 833.614 728.461 825.735 725.977Z" fill="url(#paint0_radial_379_113)" stroke="white"/>
<defs>
<radialGradient id="paint0_radial_379_113" cx="0" cy="0" r="1" gradientUnits="userSpaceOnUse" gradientTransform="translate(603.456 302.198) rotate(90) scale(630.074 1283.01)">
<stop stop-color="#41D6FE"/>
<stop offset="1" stop-color="#332DFD"/>
</radialGradient>
<clipPath id="clip0_379_113">
<rect width="652.434" height="971.25" fill="white" transform="translate(1156.36 732.279) rotate(115.121)"/>
</clipPath>
</defs>
</svg>
