<svg width="1164" height="1323" viewBox="0 0 1164 1323" fill="none" xmlns="http://www.w3.org/2000/svg">
<g clip-path="url(#clip0_379_113)">
<path d="M1117.78 714.185C1142.08 724.769 1148.08 748.673 1139.49 768.251C1134.98 778.5 1126.86 784.899 1119.33 788.157L1111.74 772.1C1116.55 769.634 1120.45 766.785 1122.75 761.523C1126.71 752.453 1122.37 741.201 1109.22 735.486C1095.62 729.561 1085.1 732.943 1080.69 742.971C1078.06 748.933 1078.88 754.982 1080.75 759.77L1063.98 765.263C1059.72 755.624 1060.09 745.092 1064.48 735.101C1073.22 715.281 1093 703.465 1117.78 714.185Z" fill="white"/>
<path d="M1117.36 810.342L1105.91 829.569L1053.45 797.284L1037.06 824.806L1022.15 815.609L1050.02 768.876L1117.36 810.342Z" fill="white"/>
<path d="M1077.27 874.008L1064.06 892.052L1001.42 843.436L1014.63 825.392L1077.27 874.008Z" fill="white"/>
<path d="M1022.18 881.451C1041.23 900.186 1039.04 925.191 1024.8 940.954C1017.31 949.224 1007.75 952.518 999.724 952.981L997.911 934.91C1003.13 934.255 1007.68 932.881 1011.51 928.651C1018.12 921.363 1017.74 909.002 1007.41 898.896C996.749 888.412 985.917 887.964 978.653 896.024C974.305 900.82 973.09 906.905 973.305 912.176L956.05 911.55C955.224 900.776 958.96 890.837 966.276 882.756C980.717 866.821 1002.84 862.445 1022.23 881.52L1022.18 881.451Z" fill="white"/>
<path d="M990.303 974.238L973.333 988.404L955.462 964.467L955.065 964.775L956.725 1002.24L938.168 1017.73L937.843 975.63L886.45 956.568L905.007 941.078L937.672 953.967L937.299 940.168L925.339 924.128L942.309 909.963L990.285 974.275L990.303 974.238Z" fill="white"/>
<path d="M895.22 1047.01L874.536 1057.91L850.018 1033.28C846.838 1029.86 843.693 1025.91 840.41 1022.26L839.962 1022.5C840.539 1027.53 841.46 1032.73 841.934 1037.54L844.871 1073.54L824.186 1084.43L791.159 1010.09L808.671 1000.85L818.434 1022.83C821.779 1030.38 825.341 1042.75 827.756 1050.68L828.204 1050.44L826.362 1029.38L824.413 1000.05L834.738 994.596L854.648 1014.45L868.418 1029.23L868.866 1028.99C864.659 1022.02 857.977 1011.29 854.632 1003.74L844.869 981.766L862.158 972.651L895.186 1047L895.22 1047.01Z" fill="white"/>
<path d="M798.285 1094.37L748.366 1111.29L743.693 1093.68L773.194 1083.68L769.891 1071.2L744.681 1079.75L740.009 1062.14L765.219 1053.59L761.454 1039.42L730.764 1049.8L726.092 1032.19L777.218 1014.84L798.268 1094.31L798.285 1094.37Z" fill="white"/>
<path d="M696.473 1123.83L667.723 1127.75C650.997 1130.03 637.172 1127.54 635.942 1111.19C635.386 1104.05 638.724 1095.31 644.671 1091.94L644.62 1091.42C636.821 1090.15 630.234 1084.86 629.408 1073.9C628.111 1056.79 641.818 1047.44 659.043 1045.08L690.256 1040.83L696.473 1123.83ZM661.771 1061.74C653.434 1062.87 649.725 1066.48 650.163 1072.62C650.6 1078.76 654.731 1080.52 663.085 1079.35L671.698 1078.18L670.384 1060.56L661.771 1061.74ZM665.78 1095.27C658.906 1096.23 655.938 1099.97 656.308 1105.09C656.679 1110.21 660.051 1111.79 666.907 1110.87L674.039 1109.89L672.859 1094.32L665.728 1095.3L665.78 1095.27Z" fill="white"/>
<path d="M598.259 1132.9L572.668 1132.51L553.675 1048.47L576.062 1048.8L582.573 1089.62C584.024 1097.63 585.367 1107.84 586.765 1116.23L587.265 1116.24C589.518 1107.76 592.152 1097.76 594.628 1089.79L606.338 1049.24L627.985 1049.54L598.276 1132.87L598.259 1132.9ZM608.243 1084.21L569.133 1083.64L570.229 1066.52L609.339 1067.1L608.243 1084.21Z" fill="white"/>
<path d="M545.548 1088.72C540.059 1116.45 518.838 1129.3 499.055 1126.09C488.673 1124.42 481.262 1117.93 476.864 1111.19L490.49 1098.96C493.652 1103.14 496.987 1106.33 502.29 1107.2C511.45 1108.7 521.193 1101.09 524.163 1086.07C527.237 1070.56 522.207 1060.78 512.066 1059.13C506.023 1058.14 500.56 1060.66 496.421 1063.93L488.284 1048.42C496.545 1041.37 506.383 1038.75 516.524 1040.4C536.53 1043.66 551.14 1060.5 545.548 1088.72Z" fill="white"/>
<path d="M454.985 1115.41L435.088 1108.87L445.402 1079.08L444.954 1078.87L415.672 1102.46L393.916 1095.32L427.592 1070.24L417.181 1013.92L438.937 1021.06L444.956 1057.29L455.854 1048.82L462.759 1028.9L482.656 1035.44L454.985 1115.41Z" fill="white"/>
<path d="M324.057 1038.01L341.673 1049.33L331.813 1065.26L278.981 1031.27L288.841 1015.34L306.458 1026.66L341.15 970.667L358.766 981.985L324.074 1037.98L324.057 1038.01Z" fill="white"/>
<path d="M294.72 991.432C277.049 1012.82 255.983 1014.95 239.492 1000.34C223.035 985.743 221.849 963.739 239.433 942.443C257.104 921.052 278.653 918.341 295.145 932.953C311.636 947.565 312.391 970.042 294.702 991.469L294.72 991.432ZM255.546 956.697C245.814 968.501 244.573 979.205 251.727 985.527C258.88 991.849 268.891 988.944 278.624 977.141C288.357 965.337 290.081 954.05 282.927 947.728C275.773 941.406 265.279 944.894 255.546 956.697Z" fill="white"/>
<path d="M184.684 912.185L197.279 929.287L183.017 941.08L145.215 889.811L159.477 878.018L172.072 895.12L222.239 853.67L234.834 870.772L184.667 912.222L184.684 912.185Z" fill="white"/>
<path d="M172.807 857.2C149.568 871.484 129.427 866.087 118.955 846.248C108.466 826.447 114.478 804.94 137.613 790.698C160.852 776.415 181.63 781.436 192.12 801.238C202.609 821.039 196.028 842.864 172.807 857.2ZM147.879 810.08C135.07 817.968 130.473 827.773 135.005 836.373C139.537 844.973 149.732 845.706 162.541 837.818C175.349 829.93 180.602 819.713 176.052 811.15C171.503 802.587 160.671 802.229 147.862 810.117L147.879 810.08Z" fill="white"/>
<path d="M93.6646 789.785L83.9472 761.443C78.1545 744.518 79.2335 727.443 98.3114 719.437C116.821 711.659 129.907 723.056 135.443 739.276L138.288 747.624L162.243 737.543L169.252 758.051L93.6301 789.859L93.6646 789.785ZM119.965 746.856C117.206 738.773 111.922 736.61 105.184 739.431C98.4455 742.252 97.4028 747.878 100.111 755.712L102.459 762.614L122.484 754.198L119.948 746.803L119.965 746.856Z" fill="white"/>
</g>
<mask id="path-17-outside-1_379_113" maskUnits="userSpaceOnUse" x="50.7623" y="541.013" width="107.886" height="87.364" fill="black">
<rect fill="white" x="50.7623" y="541.013" width="107.886" height="87.364"/>
<path d="M106.785 625.089C73.4168 626.397 53.5547 604.211 52.573 579.168C52.0685 566.038 57.7773 555.097 64.5429 547.784L81.9021 560.882C77.8022 565.945 74.9198 570.947 75.2108 577.685C75.6461 589.287 86.7645 598.979 104.823 598.26C123.507 597.526 133.579 588.574 133.082 575.756C132.77 568.115 128.562 562.161 123.803 558.061L139.812 543.656C149.917 551.668 155.29 562.95 155.789 575.801C156.777 601.158 140.781 623.837 106.821 625.158L106.785 625.089Z"/>
</mask>
<path d="M106.785 625.089C73.4168 626.397 53.5547 604.211 52.573 579.168C52.0685 566.038 57.7773 555.097 64.5429 547.784L81.9021 560.882C77.8022 565.945 74.9198 570.947 75.2108 577.685C75.6461 589.287 86.7645 598.979 104.823 598.26C123.507 597.526 133.579 588.574 133.082 575.756C132.77 568.115 128.562 562.161 123.803 558.061L139.812 543.656C149.917 551.668 155.29 562.95 155.789 575.801C156.777 601.158 140.781 623.837 106.821 625.158L106.785 625.089Z" fill="#1881FE"/>
<path d="M106.785 625.089L107.669 624.621L107.374 624.065L106.746 624.09L106.785 625.089ZM52.573 579.168L51.5738 579.206L51.5738 579.207L52.573 579.168ZM64.5429 547.784L65.1452 546.985L64.4231 546.44L63.8088 547.105L64.5429 547.784ZM81.9021 560.882L82.6793 561.511L83.3304 560.707L82.5044 560.083L81.9021 560.882ZM75.2108 577.685L76.2101 577.647L76.2099 577.642L75.2108 577.685ZM104.823 598.26L104.783 597.261L104.783 597.261L104.823 598.26ZM133.082 575.756L134.081 575.718L134.081 575.716L133.082 575.756ZM123.803 558.061L123.134 557.318L122.29 558.078L123.15 558.819L123.803 558.061ZM139.812 543.656L140.433 542.872L139.771 542.347L139.143 542.912L139.812 543.656ZM155.789 575.801L154.789 575.84L154.789 575.84L155.789 575.801ZM106.821 625.158L105.937 625.626L106.231 626.182L106.86 626.157L106.821 625.158ZM106.746 624.09C73.9243 625.376 54.5321 603.615 53.5723 579.129L51.5738 579.207C52.5773 604.808 72.9094 627.417 106.824 626.088L106.746 624.09ZM53.5723 579.129C53.0801 566.321 58.6486 555.628 65.277 548.463L63.8088 547.105C56.9061 554.567 51.0569 565.755 51.5738 579.206L53.5723 579.129ZM63.9406 548.582L81.2997 561.68L82.5044 560.083L65.1452 546.985L63.9406 548.582ZM81.1249 560.252C76.9673 565.387 73.9051 570.628 74.2117 577.728L76.2099 577.642C75.9345 571.266 78.6371 566.503 82.6793 561.511L81.1249 560.252ZM74.2115 577.722C74.6747 590.069 86.4652 599.992 104.862 599.259L104.783 597.261C87.0639 597.966 76.6174 588.505 76.2101 577.647L74.2115 577.722ZM104.862 599.259C114.342 598.887 121.767 596.426 126.78 592.313C131.823 588.174 134.341 582.427 134.081 575.718L132.082 575.795C132.319 581.903 130.051 587.041 125.511 590.766C120.941 594.517 113.988 596.899 104.783 597.261L104.862 599.259ZM134.081 575.716C133.754 567.707 129.343 561.514 124.456 557.304L123.15 558.819C127.78 562.807 131.786 568.523 132.082 575.797L134.081 575.716ZM124.472 558.805L140.48 544.399L139.143 542.912L123.134 557.318L124.472 558.805ZM139.19 544.439C149.053 552.259 154.302 563.261 154.789 575.84L156.788 575.763C156.279 562.638 150.781 551.077 140.433 542.872L139.19 544.439ZM154.789 575.84C155.275 588.299 151.588 600.041 143.668 608.823C135.756 617.597 123.537 623.507 106.782 624.159L106.86 626.157C124.065 625.488 136.824 619.398 145.153 610.163C153.474 600.936 157.291 588.66 156.788 575.763L154.789 575.84ZM107.705 624.69L107.669 624.621L105.901 625.557L105.937 625.626L107.705 624.69Z" fill="white" mask="url(#path-17-outside-1_379_113)"/>
<path d="M56.1036 518.091L56.026 518.585L56.5202 518.663L154.865 534.075L155.358 534.152L155.436 533.659L165.403 470.509L165.481 470.015L164.986 469.937L143.178 466.535L142.685 466.458L142.607 466.951L136.835 503.614L60.7565 491.683L60.2627 491.605L60.1851 492.099L56.1036 518.091Z" fill="#148DFF" stroke="white"/>
<path d="M73.6408 428.491L73.4952 428.97L73.9743 429.115L169.279 457.98L169.757 458.125L169.902 457.647L177.554 432.478L177.7 432L177.221 431.855L81.9163 402.989L81.4383 402.845L81.293 403.322L73.6408 428.491Z" fill="#1293FF" stroke="white"/>
<path d="M135.893 398.108L136.107 397.656L135.893 398.108C151.36 405.424 165.354 405.908 176.87 401.63C188.382 397.355 197.361 388.343 202.843 376.771C208.422 365.051 208.918 352.441 203.609 340.493L203.437 340.106L203.027 340.212L182.183 345.583L181.636 345.724L181.843 346.25C184.103 351.997 185.065 359.053 181.853 365.808L181.852 365.809C179.174 371.489 174.657 375.111 168.746 376.352C162.816 377.598 155.434 376.457 147.048 372.488C130.868 364.828 125.755 351.404 130.582 341.234C133.398 335.316 138.14 332.28 144.065 329.695L144.538 329.489L144.317 329.023L134.994 309.382L134.801 308.974L134.375 309.125C124.881 312.5 114.649 319.654 108.927 331.676C98.0329 354.56 105.48 383.721 135.893 398.108Z" fill="#1099FF" stroke="white"/>
<path d="M139.997 279.405L139.997 279.405M139.997 279.405V279.405ZM139.592 279.102L139.979 279.43L139.728 279.767L219.561 339.157L219.961 339.455L220.26 339.054L236.013 317.945L236.313 317.544L235.911 317.245L216.133 302.526L211.303 287.787L254.417 292.861L254.704 292.894L254.876 292.663L272.083 269.609L272.613 268.9L271.732 268.812L203.409 262.047L188.812 214.476L188.523 213.534L187.933 214.324L170.726 237.378L170.568 237.591L170.655 237.842L185.189 279.568L156.044 257.891L155.643 257.593L155.345 257.993L139.592 279.102Z" fill="#0CA5FF" stroke="white"/>
<path d="M234.961 166.367L235.634 165.869L258.276 149.124L258.556 148.917L258.847 149.108L295.181 172.834L295.188 172.838L295.194 172.843C297.592 174.517 300.01 176.355 302.441 178.216C302.669 178.391 302.897 178.565 303.125 178.74C305.177 180.312 307.239 181.891 309.316 183.402C308.475 180.982 307.56 178.553 306.649 176.136C306.548 175.867 306.446 175.598 306.345 175.329C305.267 172.464 304.206 169.619 303.304 166.845L303.302 166.838L290.603 125.614L290.499 125.276L290.784 125.065L313.426 108.32L313.827 108.023L314.125 108.424L373.419 188.266L373.717 188.668L373.315 188.966L354.132 203.165L353.731 203.462L353.433 203.061L335.908 179.468C330.591 172.327 324.162 160.894 319.34 152.321C319.03 151.77 318.727 151.23 318.431 150.705L325.436 172.982L325.44 172.993L325.44 172.993L335.218 206.704L335.315 207.037L335.036 207.245L323.732 215.634L323.454 215.841L323.162 215.652L293.688 196.534L293.681 196.529L293.674 196.524L274.701 183.266C275.15 183.734 275.612 184.216 276.085 184.708C282.88 191.786 291.872 201.153 297.113 208.235L234.961 166.367ZM234.961 166.367L235.675 166.703L294.894 246.445L295.191 246.845L295.593 246.548L314.535 232.529L314.938 232.231L314.639 231.829L297.114 208.236L234.961 166.367Z" fill="#07B5FF" stroke="white"/>
<path d="M439.23 134.186L403.622 150.126L396.771 134.827L425.965 121.779L426.422 121.575L426.217 121.118L417.198 101.018L416.993 100.563L416.538 100.766L387.343 113.815L381.371 100.479L415.599 85.1962L416.057 84.992L415.852 84.535L406.832 64.4351L406.628 63.9796L406.172 64.1834L347.548 90.3906L346.86 90.4061L347.169 91.0936L387.867 181.819L388.071 182.274L388.527 182.07L448.657 155.199L449.114 154.995L448.909 154.538L439.89 134.438L439.685 133.982L439.23 134.186Z" fill="#07B5FF" stroke="white"/>
<path d="M473.459 43.9743L473.472 44.5502L473.552 44.537L489.708 142.099L489.789 142.592L490.282 142.511L528.656 136.189L528.657 136.189C539.296 134.429 548.711 130.619 555.054 124.655C561.418 118.671 564.659 110.541 562.958 100.26C561.873 93.6643 559.095 88.8118 555.314 85.4605C551.673 82.234 547.131 80.4239 542.342 79.765C545.77 77.5279 548.258 73.867 549.741 69.754C551.284 65.4717 551.754 60.6557 551.035 56.3419C550.226 51.4461 548.504 47.5926 546.028 44.6291C543.552 41.6653 540.343 39.6175 536.602 38.3C529.139 35.6716 519.526 35.9377 509.233 37.6328L509.233 37.6329L473.878 43.4697L473.948 43.8938L473.458 43.9395L473.459 43.9743ZM509.995 97.3939L520.084 95.7416L520.084 95.7416C525.215 94.899 528.989 94.9804 531.608 96.0986C534.172 97.1929 535.707 99.3166 536.29 102.81C536.873 106.307 536.134 109.053 534.073 111.142C532.02 113.225 528.591 114.718 523.631 115.564L523.597 115.531L523.351 115.571L513.261 117.224L509.995 97.3939ZM503.791 60.0211L512.076 58.6535L512.076 58.6534C516.283 57.9541 519.357 58.0681 521.483 59.0278C523.56 59.965 524.814 61.7492 525.297 64.6417C525.781 67.5424 525.23 70.0308 523.593 71.9646C521.945 73.9111 519.138 75.366 514.973 76.0584L506.688 77.4261L503.791 60.0211Z" fill="#05BAFF" stroke="white"/>
<path d="M598.833 30.0491L598.82 30.0488L598.807 30.0491L598.773 30.0498L598.422 30.0577L598.31 30.39L565.11 128.897L564.895 129.537L565.57 129.557L592.507 130.341L592.903 130.352L593.005 129.969L598.477 109.367L625.472 110.147L629.736 131.005L629.816 131.393L630.212 131.404L658.09 132.202L658.765 132.221L658.587 131.57L631.152 31.3339L631.054 30.9768L630.684 30.9661L598.833 30.0491ZM619.799 82.3936L621.085 88.687L604.1 88.196L605.749 81.9905C608.181 73.6576 610.652 63.4233 612.864 54.261C613.091 53.3175 613.316 52.3852 613.538 51.4676C614.427 55.6642 615.316 60.2326 616.207 64.8138C617.398 70.9349 618.593 77.0787 619.797 82.3884C619.798 82.3902 619.798 82.3919 619.799 82.3936Z" fill="#03C2FF" stroke="white"/>
<path d="M753.548 63.6559L753.904 63.3752L753.659 62.9939C748.227 54.5124 738.988 46.1359 725.952 43.2974C701.244 37.867 674.582 51.5099 667.227 84.0638L667.191 84.0646L667.107 84.4482C663.433 101.137 666.099 114.856 672.86 125.1C679.617 135.34 690.431 142.056 702.962 144.806L702.962 144.807C715.658 147.577 728.084 145.225 738.551 137.391L738.891 137.136L738.695 136.76L728.793 117.688L728.532 117.184L728.065 117.508C722.959 121.051 716.262 123.537 708.951 121.937L708.951 121.937C702.815 120.598 698.268 117.012 695.729 111.539C693.181 106.048 692.635 98.6097 694.626 89.5585C698.476 72.1161 710.456 64.1048 721.468 66.5159C727.873 67.9287 731.911 71.8577 735.763 77.0522L736.07 77.4664L736.474 77.1467L753.548 63.6559Z" fill="#01C6FF" stroke="white"/>
<path d="M791.64 133.03L796.305 176.123L796.336 176.41L796.6 176.527L822.945 188.136L823.754 188.493L823.643 187.616L815.008 119.62L858.211 94.8186L859.068 94.3262L858.163 93.9274L831.818 82.3179L831.575 82.2111L831.351 82.3517L793.866 105.827L808.508 72.6262L808.71 72.1685L808.252 71.9669L784.158 61.3496L784.015 61.6735L783.498 61.5705L743.338 152.551L743.136 153.009L743.594 153.211L767.723 163.827L768.18 164.028L768.382 163.571L778.324 141.033L791.64 133.03Z" fill="#04C0FF" stroke="white"/>
<path d="M939.799 179.924L887.899 236.772L887.561 237.142L887.932 237.479L907.415 255.188L907.784 255.524L908.12 255.155L959.988 198.342L979.102 215.715L979.471 216.051L979.808 215.682L994.66 199.39L994.997 199.021L994.627 198.684L936.212 145.522L935.843 145.185L935.506 145.555L920.654 161.846L920.317 162.216L920.688 162.553L939.799 179.924Z" fill="#09AEFF" stroke="white"/>
<path d="M1024.2 317.651L1024.2 317.651C1037.38 307.896 1044.96 296.449 1047.16 284.609C1049.35 272.765 1046.14 260.6 1037.87 249.445C1029.59 238.291 1018.9 231.661 1006.92 230.301C994.946 228.942 981.762 232.856 968.516 242.647C955.27 252.437 947.5 264.017 945.133 275.979C942.765 287.947 945.819 300.232 954.098 311.391C962.377 322.551 973.265 329.043 985.429 330.267C997.587 331.489 1010.96 327.442 1024.2 317.651ZM1018.84 263.523C1022.3 268.175 1023.05 273.417 1021.19 278.825C1019.31 284.258 1014.77 289.893 1007.55 295.237C1000.34 300.58 993.427 303.421 987.479 303.767C981.553 304.113 976.571 301.988 973.125 297.348C969.68 292.709 969.095 287.34 971.152 281.787C973.216 276.212 977.95 270.439 985.165 265.096C992.38 259.752 999.1 257.049 1004.85 256.835C1010.58 256.621 1015.38 258.87 1018.84 263.523Z" fill="#0DA3FF" stroke="white"/>
<path d="M1018.47 427.353L1090.34 399.76L1099.63 423.834L1099.81 424.3L1100.27 424.121L1120.85 416.218L1121.32 416.038L1121.14 415.571L1092.77 341.917L1092.59 341.45L1092.12 341.629L1071.55 349.532L1071.08 349.712L1071.26 350.179L1080.55 374.271L1008.65 401.879L1008.18 402.059L1008.36 402.526L1017.83 427.066L1018.01 427.532L1018.47 427.353Z" fill="#1195FF" stroke="white"/>
<path d="M1136.97 480.425C1134.61 466.737 1128.05 456.009 1117.96 449.413C1107.88 442.82 1094.34 440.397 1078.1 443.192L1078.1 443.192C1061.86 446.005 1049.7 452.87 1042.2 462.496C1034.69 472.126 1031.88 484.469 1034.24 498.148C1036.6 511.843 1043.4 522.531 1053.71 529.084C1064.01 535.633 1077.77 538.017 1094.01 535.221L1094.01 535.221C1110.18 532.427 1122.12 525.601 1129.42 516.007C1136.72 506.409 1139.33 494.098 1136.97 480.425ZM1136.97 480.425L1136.48 480.51M1136.97 480.425C1136.97 480.425 1136.97 480.425 1136.97 480.425L1136.48 480.51M1136.48 480.51C1141.16 507.626 1126.08 529.172 1093.92 534.729L1034.73 498.063C1030.05 470.947 1045.89 449.279 1078.19 443.685C1110.49 438.126 1131.79 453.36 1136.48 480.51ZM1113.65 484.471C1114.64 490.176 1112.96 495.194 1108.85 499.183C1104.73 503.189 1098.13 506.179 1089.27 507.709C1080.41 509.238 1072.96 508.67 1067.49 506.309C1062.04 503.958 1058.55 499.825 1057.57 494.137C1056.58 488.449 1058.47 483.39 1062.8 479.353C1067.16 475.3 1073.98 472.269 1082.84 470.74C1091.7 469.211 1098.92 469.819 1104.16 472.214C1109.38 474.599 1112.65 478.767 1113.65 484.471Z" fill="#2789FF" stroke="white"/>
<path d="M1144.09 559.708L1143.59 559.704L1143.61 559.254L1044.13 555.41L1043.63 555.39L1043.61 555.89L1042.6 582.161L1042.58 582.66L1043.08 582.68L1074.13 583.862L1073.73 594.045C1073.31 604.508 1075.58 614.658 1081.06 622.326C1086.55 630.011 1095.24 635.157 1107.55 635.636L1107.55 635.636C1120.24 636.124 1128.85 631.731 1134.37 624.413C1139.87 617.126 1142.26 607.003 1142.68 596.1L1144.07 560.273L1144.1 560.274L1144.09 559.743L1144.09 559.708ZM1120.91 594.06L1120.91 594.062C1120.73 599.068 1119.75 602.883 1117.79 605.396C1115.86 607.876 1112.91 609.166 1108.58 608.992C1104.23 608.818 1100.91 607.494 1098.71 605.015C1096.52 602.532 1095.38 598.809 1095.58 593.683L1095.94 584.719L1121.25 585.687L1120.91 594.06Z" fill="#107CFF" stroke="white"/>
<path d="M829.507 803.778L829.506 803.778C822.294 801.518 815.092 799.17 807.885 796.82C785.108 789.393 762.283 781.951 738.942 777.23L738.942 777.23C705.046 770.415 670.298 766.658 635.763 764.404C603.493 762.3 570.759 761.748 538.572 764.455L538.613 764.938L538.572 764.455C481.628 769.265 426.146 781.742 372.479 801.985L372.478 801.985C369.118 803.262 364.935 803.942 360.818 803.899C356.696 803.856 352.686 803.088 349.654 801.509L349.653 801.509C345.42 799.308 342.751 796.148 341.846 792.3C340.939 788.443 341.783 783.806 344.765 778.621C378.061 721.007 411.075 663.197 444.081 605.401C455.189 585.95 466.296 566.501 477.412 547.062L477.412 547.062C485.592 532.748 493.801 518.449 502.01 504.148C520.103 472.632 538.199 441.111 555.984 409.426C561.281 400.049 567.218 392.539 574.749 387.524C582.271 382.516 591.421 379.971 603.197 380.592C611.491 381.038 618.22 383.133 623.806 386.709C629.394 390.286 633.866 395.364 637.616 401.822L637.616 401.822C660.087 440.388 682.254 479.104 704.415 517.81C707.8 523.723 711.185 529.635 714.571 535.547L715.005 535.298L714.571 535.547C759.727 614.351 804.782 693.205 849.786 772.109C851.956 775.928 853.505 780.064 854.489 782.693C854.779 783.466 855.019 784.109 855.213 784.575C855.02 794.035 852.422 799.998 848.071 803.025C843.698 806.067 837.386 806.263 829.507 803.778Z" fill="url(#paint0_radial_379_113)" stroke="white"/>
<defs>
<radialGradient id="paint0_radial_379_113" cx="0" cy="0" r="1" gradientUnits="userSpaceOnUse" gradientTransform="translate(607.228 379.999) rotate(90) scale(630.074 1283.01)">
<stop stop-color="#41D6FE"/>
<stop offset="1" stop-color="#332DFD"/>
</radialGradient>
<clipPath id="clip0_379_113">
<rect width="652.434" height="971.25" fill="white" transform="translate(1156.36 732.272) rotate(115.121)"/>
</clipPath>
</defs>
</svg>
