<svg width="66" height="66" viewBox="0 0 66 66" fill="none" xmlns="http://www.w3.org/2000/svg">
<g clip-path="url(#clip0_199_3)">
<path d="M33 63C49.5685 63 63 49.5685 63 33C63 16.4315 49.5685 3 33 3C16.4315 3 3 16.4315 3 33C3 49.5685 16.4315 63 33 63Z" fill="#41D6FE"/>
<path d="M33 64.5C50.397 64.5 64.5 50.397 64.5 33C64.5 15.603 50.397 1.5 33 1.5C15.603 1.5 1.5 15.603 1.5 33C1.5 50.397 15.603 64.5 33 64.5Z" stroke="white" stroke-opacity="0.85" stroke-width="3"/>
<path d="M34.8672 24.2862C34.074 22.8903 32.0623 22.8903 31.2692 24.2862L21.3085 41.817C20.9171 42.5059 21.6083 43.3043 22.3461 43.0158C29.2399 40.3195 36.8965 40.3195 43.7902 43.0158C44.5281 43.3043 45.2192 42.5059 44.8278 41.817L34.8672 24.2862Z" fill="white"/>
</g>
<defs>
<clipPath id="clip0_199_3">
<rect width="66" height="66" fill="white"/>
</clipPath>
</defs>
</svg>
