<svg width="1164" height="1323" viewBox="0 0 1164 1323" fill="none" xmlns="http://www.w3.org/2000/svg">
<g clip-path="url(#clip0_379_113)">
<path d="M1117.78 714.192C1142.08 724.776 1148.08 748.68 1139.49 768.258C1134.98 778.507 1126.86 784.906 1119.33 788.164L1111.74 772.107C1116.55 769.641 1120.45 766.792 1122.75 761.53C1126.71 752.46 1122.37 741.208 1109.22 735.493C1095.62 729.568 1085.1 732.95 1080.69 742.978C1078.06 748.94 1078.88 754.988 1080.75 759.777L1063.98 765.27C1059.72 755.631 1060.09 745.099 1064.48 735.108C1073.22 715.288 1093 703.471 1117.78 714.192Z" fill="white"/>
<path d="M1117.36 810.349L1105.91 829.575L1053.45 797.291L1037.06 824.813L1022.15 815.616L1050.02 768.883L1117.36 810.349Z" fill="white"/>
<path d="M1077.27 874.015L1064.06 892.059L1001.42 843.443L1014.63 825.398L1077.27 874.015Z" fill="white"/>
<path d="M1022.18 881.458C1041.23 900.193 1039.04 925.198 1024.8 940.961C1017.31 949.23 1007.75 952.525 999.724 952.988L997.911 934.917C1003.13 934.262 1007.68 932.887 1011.51 928.658C1018.12 921.37 1017.74 909.009 1007.41 898.903C996.749 888.419 985.917 887.971 978.653 896.031C974.305 900.827 973.09 906.911 973.305 912.183L956.05 911.556C955.224 900.783 958.96 890.844 966.276 882.763C980.717 866.828 1002.84 862.451 1022.23 881.527L1022.18 881.458Z" fill="white"/>
<path d="M990.303 974.245L973.333 988.41L955.462 964.473L955.065 964.782L956.725 1002.25L938.168 1017.74L937.843 975.636L886.45 956.575L905.007 941.085L937.672 953.974L937.299 940.175L925.339 924.135L942.309 909.97L990.285 974.282L990.303 974.245Z" fill="white"/>
<path d="M895.22 1047.02L874.536 1057.91L850.018 1033.29C846.838 1029.86 843.693 1025.92 840.41 1022.26L839.962 1022.5C840.539 1027.54 841.46 1032.74 841.934 1037.55L844.871 1073.55L824.186 1084.44L791.159 1010.1L808.671 1000.86L818.434 1022.84C821.779 1030.39 825.341 1042.76 827.756 1050.68L828.204 1050.44L826.362 1029.39L824.413 1000.06L834.738 994.603L854.648 1014.46L868.418 1029.24L868.866 1029C864.659 1022.03 857.977 1011.3 854.632 1003.75L844.869 981.772L862.158 972.658L895.186 1047L895.22 1047.02Z" fill="white"/>
<path d="M798.285 1094.37L748.366 1111.3L743.693 1093.69L773.194 1083.69L769.891 1071.21L744.681 1079.76L740.009 1062.15L765.219 1053.6L761.454 1039.42L730.764 1049.81L726.092 1032.19L777.218 1014.85L798.268 1094.32L798.285 1094.37Z" fill="white"/>
<path d="M696.473 1123.84L667.723 1127.76C650.997 1130.03 637.172 1127.55 635.942 1111.19C635.386 1104.05 638.724 1095.32 644.671 1091.95L644.62 1091.43C636.821 1090.16 630.234 1084.86 629.408 1073.91C628.111 1056.8 641.818 1047.45 659.043 1045.09L690.256 1040.84L696.473 1123.84ZM661.771 1061.75C653.434 1062.87 649.725 1066.49 650.163 1072.63C650.6 1078.77 654.731 1080.52 663.085 1079.36L671.698 1078.18L670.384 1060.57L661.771 1061.75ZM665.78 1095.28C658.906 1096.24 655.938 1099.97 656.308 1105.09C656.679 1110.21 660.051 1111.8 666.907 1110.87L674.039 1109.9L672.859 1094.33L665.728 1095.3L665.78 1095.28Z" fill="white"/>
<path d="M598.259 1132.91L572.668 1132.51L553.675 1048.47L576.062 1048.81L582.573 1089.63C584.024 1097.64 585.367 1107.85 586.765 1116.24L587.265 1116.25C589.518 1107.77 592.152 1097.76 594.628 1089.8L606.338 1049.24L627.985 1049.55L598.276 1132.87L598.259 1132.91ZM608.243 1084.22L569.133 1083.64L570.229 1066.53L609.339 1067.11L608.243 1084.22Z" fill="white"/>
<path d="M545.548 1088.73C540.059 1116.46 518.838 1129.3 499.055 1126.1C488.673 1124.42 481.262 1117.94 476.864 1111.2L490.49 1098.97C493.652 1103.15 496.987 1106.33 502.29 1107.2C511.45 1108.71 521.193 1101.09 524.163 1086.07C527.237 1070.56 522.207 1060.79 512.066 1059.13C506.023 1058.14 500.56 1060.66 496.421 1063.94L488.284 1048.43C496.545 1041.38 506.383 1038.75 516.524 1040.4C536.53 1043.67 551.14 1060.5 545.548 1088.73Z" fill="white"/>
<path d="M454.985 1115.42L435.088 1108.88L445.402 1079.09L444.954 1078.88L415.672 1102.47L393.916 1095.33L427.592 1070.24L417.181 1013.92L438.937 1021.07L444.956 1057.3L455.854 1048.83L462.759 1028.91L482.656 1035.45L454.985 1115.42Z" fill="white"/>
<path d="M324.057 1038.02L341.673 1049.34L331.813 1065.26L278.981 1031.27L288.841 1015.35L306.458 1026.66L341.15 970.674L358.766 981.992L324.074 1037.98L324.057 1038.02Z" fill="white"/>
<path d="M294.72 991.439C277.049 1012.83 255.983 1014.96 239.492 1000.35C223.035 985.75 221.849 963.746 239.433 942.449C257.104 921.059 278.653 918.348 295.145 932.96C311.636 947.572 312.391 970.049 294.702 991.476L294.72 991.439ZM255.546 956.704C245.814 968.508 244.573 979.212 251.727 985.534C258.88 991.856 268.891 988.951 278.624 977.147C288.357 965.344 290.081 954.057 282.927 947.735C275.773 941.413 265.279 944.901 255.546 956.704Z" fill="white"/>
<path d="M184.684 912.192L197.279 929.294L183.017 941.086L145.215 889.818L159.477 878.025L172.072 895.127L222.239 853.677L234.834 870.779L184.667 912.229L184.684 912.192Z" fill="white"/>
<path d="M172.807 857.207C149.568 871.491 129.427 866.094 118.955 846.255C108.466 826.454 114.478 804.947 137.613 790.705C160.852 776.422 181.63 781.443 192.12 801.245C202.609 821.046 196.028 842.871 172.807 857.207ZM147.879 810.087C135.07 817.975 130.473 827.78 135.005 836.38C139.537 844.98 149.732 845.713 162.541 837.825C175.349 829.937 180.602 819.72 176.052 811.157C171.503 802.594 160.671 802.236 147.862 810.124L147.879 810.087Z" fill="white"/>
<path d="M93.6646 789.792L83.9472 761.45C78.1545 744.525 79.2335 727.45 98.3114 719.444C116.821 711.666 129.907 723.063 135.443 739.283L138.288 747.631L162.243 737.55L169.252 758.058L93.6301 789.866L93.6646 789.792ZM119.965 746.863C117.206 738.78 111.922 736.617 105.184 739.438C98.4455 742.259 97.4028 747.885 100.111 755.719L102.459 762.621L122.484 754.205L119.948 746.81L119.965 746.863Z" fill="white"/>
</g>
<path d="M52.5555 579.175C53.5374 604.227 73.4041 626.418 106.775 625.116L106.806 625.174L106.812 625.185L106.824 625.184C123.809 624.524 136.303 618.522 144.428 609.513C152.552 600.504 156.306 588.49 155.811 575.807C155.313 562.95 149.937 551.662 139.826 543.646L139.813 543.636L139.801 543.647L123.792 558.053L123.775 558.068L123.792 558.083C128.549 562.18 132.753 568.13 133.064 575.764C133.313 582.166 130.921 587.602 126.135 591.53C121.348 595.459 114.164 597.88 104.824 598.246C86.773 598.965 75.668 589.277 75.2332 577.69L75.2332 577.69C74.9426 570.96 77.8213 565.963 81.92 560.901L81.9331 560.885L81.9165 560.872L64.5574 547.774L64.5429 547.763L64.5307 547.776C57.7624 555.093 52.0507 566.039 52.5555 579.175L52.5555 579.175Z" fill="#1881FE" stroke="white" stroke-width="0.04"/>
<path d="M56.5803 518.172L56.5772 518.192L56.5969 518.195L154.942 533.607L154.962 533.61L154.965 533.59L164.931 470.441L164.934 470.421L164.914 470.418L143.107 467.015L143.087 467.012L143.084 467.032L137.237 504.169L60.6846 492.163L60.6648 492.16L60.6617 492.18L56.5803 518.172Z" fill="#148DFF" stroke="white" stroke-width="0.04"/>
<path d="M74.1025 428.637L74.0967 428.656L74.1158 428.662L169.42 457.527L169.439 457.533L169.445 457.514L177.097 432.345L177.103 432.326L177.084 432.32L81.7796 403.455L81.7605 403.449L81.7547 403.468L74.1025 428.637Z" fill="#1293FF" stroke="white" stroke-width="0.04"/>
<path d="M134.563 309.594L134.555 309.577L134.538 309.583C125.137 312.925 115.018 320.005 109.363 331.888C98.5841 354.53 105.925 383.406 136.101 397.68C151.47 404.95 165.329 405.412 176.706 401.187C188.082 396.961 196.975 388.048 202.412 376.571C207.935 364.969 208.421 352.506 203.173 340.694L203.166 340.679L203.149 340.683L182.305 346.054L182.284 346.06L182.292 346.081C184.581 351.902 185.578 359.104 182.289 366.02L182.289 366.02C179.549 371.83 174.911 375.555 168.847 376.829C162.783 378.103 155.291 376.926 146.845 372.928C130.518 365.198 125.17 351.527 130.151 341.034C133.041 334.961 137.911 331.864 143.876 329.262L143.895 329.253L143.886 329.235L134.563 309.594Z" fill="#1099FF" stroke="white" stroke-width="0.04"/>
<path d="M139.979 279.396L140.009 279.421L140.031 279.399L219.85 338.778L219.866 338.79L219.878 338.774L235.631 317.664L235.643 317.648L235.627 317.636L215.727 302.826L210.615 287.229L254.476 292.39L254.487 292.392L254.494 292.382L271.701 269.328L271.722 269.3L271.687 269.296L203.046 262.499L188.356 214.624L188.344 214.586L188.32 214.618L171.113 237.672L171.107 237.68L171.111 237.69L185.813 279.902L185.46 280.372L155.76 258.282L155.744 258.27L155.732 258.286L139.979 279.396Z" fill="#0CA5FF" stroke="white" stroke-width="0.04"/>
<path d="M235.922 166.262L235.895 166.281L235.925 166.296L235.991 166.327L295.281 246.165L295.293 246.181L295.309 246.169L314.252 232.149L314.268 232.137L314.256 232.121L296.731 208.528C291.509 201.473 282.543 192.133 275.744 185.05C274.737 184.001 273.778 183.002 272.885 182.067L273.335 181.73L293.951 196.137L293.951 196.138L323.426 215.256L323.438 215.263L323.449 215.255L334.752 206.865L334.763 206.857L334.76 206.844L324.981 173.133L324.981 173.133L317.408 149.051L317.858 148.714C318.458 149.775 319.095 150.908 319.763 152.095C324.587 160.672 330.999 172.074 336.295 179.188L353.821 202.781L353.833 202.797L353.849 202.785L373.032 188.586L373.048 188.574L373.036 188.558L313.742 108.716L313.73 108.7L313.714 108.712L291.072 125.457L291.06 125.466L291.064 125.479L303.763 166.703L303.763 166.703C304.661 169.465 305.718 172.301 306.797 175.166C306.898 175.435 306.999 175.704 307.101 175.974C308.079 178.571 309.066 181.188 309.96 183.794L309.504 184.135C307.262 182.518 305.04 180.816 302.836 179.128C302.608 178.953 302.38 178.778 302.152 178.604C299.72 176.742 297.31 174.91 294.922 173.243L294.921 173.242L258.587 149.516L258.575 149.508L258.564 149.516L235.922 166.262Z" fill="#07B5FF" stroke="white" stroke-width="0.04"/>
<path d="M439.428 134.631L403.383 150.766L396.139 134.592L425.772 121.347L425.79 121.339L425.782 121.321L416.762 101.221L416.754 101.203L416.736 101.211L387.103 114.455L380.739 100.243L415.406 84.7643L415.424 84.7561L415.416 84.7378L406.397 64.638L406.389 64.6198L406.37 64.6279L347.658 90.8746L347.627 90.8753L347.597 90.876L347.609 90.9035L388.307 181.628L388.315 181.647L388.334 181.639L448.464 154.767L448.482 154.759L448.474 154.741L439.455 134.641L439.446 134.623L439.428 134.631Z" fill="#07B5FF" stroke="white" stroke-width="0.04"/>
<path d="M473.941 43.9699L473.942 43.9929L473.95 43.9916L490.183 142.027L490.187 142.047L490.206 142.044L528.581 135.722L528.578 135.702L528.581 135.722C539.165 133.971 548.479 130.188 554.728 124.312C560.977 118.435 564.161 110.465 562.487 100.345C561.417 93.8461 558.688 89.0969 554.998 85.8261C551.311 82.5587 546.667 80.7676 541.763 80.1805L541.684 79.6197C545.205 77.4852 547.776 73.802 549.292 69.5976C550.809 65.3886 551.269 60.6554 550.564 56.4264C549.767 51.6004 548.074 47.8304 545.662 44.9432C543.25 42.056 540.118 40.0528 536.445 38.7591C529.099 36.1718 519.585 36.4213 509.314 38.1128L509.316 38.129L509.314 38.1128L473.983 43.9456L473.98 43.9314L473.941 43.9351L473.941 43.9699ZM523.448 116.057L523.441 116.05L523.431 116.052L512.868 117.781L509.446 97.0042L520.009 95.2743L520.005 95.2545L520.009 95.2743C525.16 94.4283 529.049 94.4893 531.799 95.6635C534.547 96.8367 536.163 99.1227 536.766 102.737C537.369 106.352 536.608 109.265 534.418 111.486C532.227 113.707 528.605 115.238 523.476 116.084L523.448 116.057ZM525.772 64.569C526.275 67.5777 525.708 70.2176 523.961 72.2811C522.214 74.345 519.284 75.835 515.054 76.5382L506.296 77.9841L503.241 59.6321L512 58.1862C516.232 57.4827 519.424 57.5767 521.683 58.5966C523.941 59.6156 525.27 61.5606 525.772 64.569Z" fill="#05BAFF" stroke="white" stroke-width="0.04"/>
<path d="M598.822 30.5353L598.821 30.5353L598.786 30.5361L598.772 30.5364L598.767 30.5497L565.568 129.057L565.559 129.082L565.586 129.083L592.523 129.867L592.539 129.868L592.543 129.852L598.113 108.882L625.869 109.685L630.209 130.915L630.212 130.93L630.228 130.931L658.106 131.729L658.133 131.729L658.126 131.703L630.691 31.467L630.687 31.4527L630.672 31.4523L598.822 30.5353ZM620.269 82.2938L621.679 89.1906L603.483 88.6646L605.289 81.8682C607.718 73.5461 610.187 63.3213 612.399 54.1551C612.688 52.9574 612.973 51.7778 613.253 50.6228L613.848 50.6094C614.795 55.0367 615.739 59.887 616.684 64.746C617.873 70.8558 619.064 76.9795 620.269 82.2938Z" fill="#03C2FF" stroke="white" stroke-width="0.04"/>
<path d="M753.253 63.2856L753.267 63.2744L753.258 63.2591C747.877 54.8593 738.737 46.5783 725.852 43.7727C701.311 38.3786 674.796 51.9793 667.616 84.5416L667.597 84.542L667.581 84.5424L667.578 84.5577C663.928 101.14 666.584 114.723 673.263 124.842C679.941 134.961 690.638 141.616 703.067 144.344L703.071 144.324L703.067 144.344C715.636 147.087 727.918 144.758 738.266 137.013L738.279 137.002L738.272 136.987L728.37 117.916L728.359 117.895L728.341 117.908C723.166 121.5 716.334 124.05 708.851 122.412L708.847 122.431L708.851 122.412C702.575 121.042 697.901 117.362 695.296 111.747C692.69 106.131 692.154 98.5779 694.159 89.4618C698.045 71.8593 710.213 63.5662 721.573 66.0534C728.146 67.5029 732.273 71.5424 736.151 76.7727L736.163 76.7892L736.179 76.7765L753.253 63.2856Z" fill="#01C6FF" stroke="white" stroke-width="0.04"/>
<path d="M792.039 132.238L796.784 176.078L796.785 176.089L796.796 176.094L823.141 187.704L823.174 187.718L823.169 187.683L814.494 119.369L857.974 94.4087L858.008 94.389L857.972 94.373L831.627 82.7635L831.617 82.7592L831.608 82.7649L793.67 106.524L793.136 106.305L808.071 72.4388L808.079 72.4205L808.061 72.4125L783.978 61.8004L783.978 61.7783L783.94 61.7707L743.78 152.751L743.771 152.77L743.79 152.778L767.919 163.394L767.937 163.402L767.945 163.384L777.949 140.706L792.039 132.238Z" fill="#04C0FF" stroke="white" stroke-width="0.04"/>
<path d="M907.768 254.838L959.959 197.671L979.427 215.366L979.442 215.38L979.455 215.365L994.307 199.073L994.321 199.059L994.306 199.045L935.892 145.883L935.877 145.87L935.863 145.884L921.011 162.176L920.998 162.191L921.013 162.204L940.48 179.899L940.461 179.92L940.46 179.92L888.256 237.102L888.242 237.117L888.257 237.13L907.74 254.839L907.755 254.853L907.768 254.838Z" fill="#09AEFF" stroke="white" stroke-width="0.04"/>
<path d="M1037.48 249.737C1029.27 238.672 1018.69 232.127 1006.87 230.784C995.043 229.442 981.978 233.302 968.804 243.039C955.63 252.776 947.944 264.261 945.606 276.079C943.267 287.897 946.277 300.046 954.486 311.112C962.695 322.178 973.466 328.587 985.479 329.795C997.493 331.003 1010.75 327.009 1023.92 317.271C1037.02 307.57 1044.52 296.221 1046.69 284.528C1048.86 272.835 1045.69 260.803 1037.48 249.737ZM1019.23 263.243C1022.78 268.025 1023.56 273.432 1021.64 278.988C1019.72 284.545 1015.1 290.252 1007.84 295.629C1000.58 301.006 993.582 303.899 987.509 304.253C981.438 304.607 976.293 302.422 972.742 297.641C969.191 292.86 968.597 287.318 970.704 281.627C972.811 275.935 977.622 270.093 984.882 264.716C992.142 259.339 998.954 256.581 1004.84 256.361C1010.72 256.142 1015.68 258.461 1019.23 263.243Z" fill="#0DA3FF" stroke="white" stroke-width="0.04"/>
<path d="M1018.3 426.911L1090.62 399.146L1100.08 423.667L1100.09 423.686L1100.1 423.679L1120.68 415.776L1120.7 415.769L1120.69 415.75L1092.32 342.095L1092.32 342.077L1092.3 342.084L1071.72 349.987L1071.7 349.994L1071.71 350.013L1081.17 374.541L1081.15 374.564L1008.82 402.334L1008.8 402.341L1008.81 402.36L1018.28 426.899L1018.28 426.918L1018.3 426.911Z" fill="#1195FF" stroke="white" stroke-width="0.04"/>
<path d="M1093.93 534.755L1093.93 534.735L1093.93 534.755C1110.01 531.976 1121.83 525.198 1129.04 515.723C1136.24 506.247 1138.84 494.076 1136.5 480.513C1134.16 466.934 1127.66 456.332 1117.7 449.821C1107.75 443.31 1094.34 440.891 1078.19 443.672L1078.19 443.691L1078.19 443.672C1062.04 446.469 1050 453.287 1042.58 462.797C1035.16 472.308 1032.37 484.51 1034.71 498.072C1037.06 511.652 1043.78 522.214 1053.97 528.685C1064.15 535.156 1077.78 537.535 1093.93 534.755ZM1114.12 484.395C1115.14 490.258 1113.4 495.436 1109.19 499.533C1104.97 503.631 1098.27 506.649 1089.36 508.188C1080.44 509.727 1072.89 509.166 1067.3 506.756C1061.72 504.347 1058.11 500.088 1057.09 494.225C1056.08 488.363 1058.04 483.145 1062.48 479.008C1066.92 474.87 1073.85 471.812 1082.76 470.273C1091.68 468.734 1099.01 469.335 1104.36 471.784C1109.72 474.233 1113.1 478.532 1114.12 484.395Z" fill="#148DFF" stroke="white" stroke-width="0.04"/>
<path d="M1143.61 559.725L1143.57 559.725L1143.57 559.726L1143.57 559.74L1044.12 555.896L1044.1 555.895L1044.1 555.915L1043.09 582.185L1043.08 582.205L1043.1 582.206L1074.63 583.407L1074.21 594.07C1073.8 604.46 1076.05 614.496 1081.45 622.053C1086.86 629.611 1095.4 634.689 1107.57 635.163L1107.57 635.143L1107.57 635.163C1120.13 635.645 1128.58 631.307 1133.99 624.131C1139.41 616.956 1141.78 606.946 1142.2 596.088L1143.61 559.781L1143.61 559.781L1143.61 559.76L1143.61 559.725ZM1121.4 594.085L1121.4 594.085C1121.21 599.129 1120.22 603.066 1118.17 605.697C1116.12 608.327 1113 609.656 1108.57 609.478C1104.12 609.3 1100.66 607.946 1098.36 605.339C1096.05 602.732 1094.9 598.87 1095.1 593.672L1095.48 584.227L1121.75 585.232L1121.4 594.085Z" fill="#1880FE" stroke="white" stroke-width="0.04"/>
<path d="M851.942 706.677C851.589 725.853 841.46 731.46 825.584 726.453C795.548 717.041 765.763 706.126 735.071 699.918C701.204 693.109 666.48 689.354 631.958 687.101C599.703 684.998 566.996 684.448 534.842 687.151C477.943 691.958 422.506 704.424 368.884 724.651C362.03 727.255 351.9 727.405 345.65 724.15C336.982 719.644 334.513 711.083 340.56 700.569C385.061 623.567 429.058 546.214 473.206 469.012C499.413 423.151 525.922 377.44 551.776 331.379C562.409 312.554 575.714 301.039 599.452 302.29C616.183 303.192 626.716 310.752 634.276 323.769C660.18 368.228 685.681 412.887 711.233 457.496C756.389 536.301 801.444 615.156 846.449 694.06C849.322 699.117 851.136 704.775 851.942 706.677Z" fill="url(#paint0_radial_379_113)"/>
<defs>
<radialGradient id="paint0_radial_379_113" cx="0" cy="0" r="1" gradientUnits="userSpaceOnUse" gradientTransform="translate(603.456 302.198) rotate(90) scale(630.074 1283.01)">
<stop stop-color="#41D6FE"/>
<stop offset="1" stop-color="#332DFD"/>
</radialGradient>
<clipPath id="clip0_379_113">
<rect width="652.434" height="971.25" fill="white" transform="translate(1156.36 732.279) rotate(115.121)"/>
</clipPath>
</defs>
</svg>
