<svg width="66" height="75" viewBox="0 0 66 75" fill="none" xmlns="http://www.w3.org/2000/svg">
<g clip-path="url(#clip0_379_113)">
<path d="M62.9785 40.2127C64.3476 40.8091 64.6859 42.1559 64.2019 43.2589C63.9476 43.8364 63.49 44.1969 63.0657 44.3805L62.6383 43.4758C62.9093 43.3369 63.1288 43.1763 63.2584 42.8799C63.4814 42.3689 63.237 41.7349 62.4962 41.4129C61.7302 41.079 61.137 41.2696 60.8886 41.8346C60.7406 42.1705 60.7866 42.5113 60.8919 42.7811L59.9473 43.0906C59.7075 42.5475 59.7279 41.9541 59.9753 41.3912C60.4682 40.2745 61.5823 39.6087 62.9785 40.2127Z" fill="white"/>
<path d="M62.955 45.6305L62.3098 46.7138L59.3544 44.8947L58.4309 46.4454L57.5905 45.9272L59.161 43.2942L62.955 45.6305Z" fill="white"/>
<path d="M60.696 49.2177L59.952 50.2344L56.4227 47.4952L57.1667 46.4786L60.696 49.2177Z" fill="white"/>
<path d="M57.5923 49.637C58.6656 50.6926 58.542 52.1014 57.74 52.9895C57.3181 53.4555 56.7792 53.6411 56.327 53.6672L56.2249 52.649C56.519 52.6121 56.7753 52.5347 56.9911 52.2964C57.3634 51.8857 57.3422 51.1893 56.76 50.6199C56.1594 50.0292 55.5491 50.0039 55.1399 50.4581C54.8949 50.7283 54.8264 51.0711 54.8385 51.3681L53.8663 51.3328C53.8198 50.7258 54.0303 50.1658 54.4425 49.7105C55.2561 48.8127 56.5024 48.5661 57.5952 49.6409L57.5923 49.637Z" fill="white"/>
<path d="M55.7962 54.8649L54.84 55.663L53.8331 54.3143L53.8108 54.3317L53.9043 56.4428L52.8588 57.3155L52.8404 54.9433L49.9448 53.8693L50.9904 52.9966L52.8308 53.7227L52.8098 52.9453L52.136 52.0416L53.0921 51.2435L55.7952 54.867L55.7962 54.8649Z" fill="white"/>
<path d="M50.4389 58.9651L49.2735 59.579L47.8922 58.1915C47.713 57.9985 47.5358 57.7761 47.3508 57.5703L47.3255 57.5838C47.3581 57.8676 47.41 58.1605 47.4367 58.4314L47.6021 60.4597L46.4367 61.0735L44.5758 56.8848L45.5626 56.3645L46.1126 57.6028C46.3011 58.0281 46.5018 58.7252 46.6378 59.1715L46.6631 59.158L46.5593 57.9719L46.4495 56.3193L47.0312 56.0119L48.153 57.1307L48.9288 57.9632L48.9541 57.9497C48.717 57.5573 48.3406 56.9527 48.1521 56.5273L47.602 55.289L48.5761 54.7754L50.437 58.9642L50.4389 58.9651Z" fill="white"/>
<path d="M44.9774 61.6332L42.1648 62.5869L41.9016 61.5945L43.5637 61.0311L43.3776 60.3283L41.9572 60.8099L41.694 59.8175L43.1144 59.3359L42.9022 58.5372L41.1731 59.1223L40.9099 58.1299L43.7905 57.1524L44.9765 61.6302L44.9774 61.6332Z" fill="white"/>
<path d="M39.241 63.2933L37.6212 63.5142C36.6788 63.6423 35.8999 63.5025 35.8306 62.5808C35.7992 62.1785 35.9873 61.6866 36.3224 61.4966L36.3195 61.4674C35.8801 61.3956 35.509 61.0974 35.4624 60.4803C35.3893 59.5163 36.1616 58.9891 37.1322 58.8565L38.8908 58.6171L39.241 63.2933ZM37.2858 59.795C36.8161 59.8584 36.6071 60.0619 36.6318 60.4079C36.6564 60.7539 36.8892 60.8529 37.3599 60.7873L37.8451 60.721L37.7711 59.7286L37.2858 59.795ZM37.5117 61.6844C37.1244 61.7384 36.9572 61.9488 36.9781 62.2372C36.9989 62.5257 37.189 62.6148 37.5752 62.5629L37.977 62.508L37.9106 61.6307L37.5088 61.6855L37.5117 61.6844Z" fill="white"/>
<path d="M33.7074 63.8045L32.2656 63.782L31.1954 59.047L32.4568 59.0659L32.8236 61.3659C32.9054 61.8172 32.9811 62.3923 33.0598 62.865L33.088 62.8655C33.2149 62.3879 33.3633 61.8242 33.5029 61.3753L34.1626 59.0905L35.3823 59.1075L33.7084 63.8024L33.7074 63.8045ZM34.2699 61.0611L32.0664 61.0286L32.1282 60.0645L34.3317 60.097L34.2699 61.0611Z" fill="white"/>
<path d="M30.7375 61.3152C30.4283 62.8777 29.2326 63.6015 28.118 63.4209C27.5331 63.3265 27.1155 62.9609 26.8677 62.5813L27.6354 61.8924C27.8136 62.1279 28.0015 62.3073 28.3003 62.3562C28.8164 62.4411 29.3653 62.0119 29.5327 61.1657C29.7059 60.2918 29.4225 59.7409 28.8511 59.6478C28.5106 59.592 28.2028 59.734 27.9696 59.9185L27.5111 59.0449C27.9766 58.6475 28.5309 58.4995 29.1022 58.5926C30.2295 58.7766 31.0526 59.725 30.7375 61.3152Z" fill="white"/>
<path d="M25.635 62.8189L24.5139 62.4503L25.095 60.772L25.0698 60.7602L23.42 62.0893L22.1942 61.6868L24.0916 60.2737L23.505 57.1004L24.7308 57.5029L25.0699 59.5442L25.684 59.0671L26.073 57.9448L27.1941 58.3134L25.635 62.8189Z" fill="white"/>
<path d="M18.2581 58.4581L19.2507 59.0958L18.6951 59.9931L15.7185 58.078L16.274 57.1807L17.2666 57.8184L19.2212 54.6637L20.2138 55.3014L18.2591 58.4561L18.2581 58.4581Z" fill="white"/>
<path d="M16.6053 55.8336C15.6097 57.0388 14.4228 57.1587 13.4936 56.3354C12.5664 55.513 12.4995 54.2733 13.4903 53.0734C14.4859 51.8682 15.7001 51.7155 16.6292 52.5388C17.5584 53.362 17.6009 54.6284 16.6043 55.8357L16.6053 55.8336ZM14.3982 53.8766C13.8498 54.5416 13.7799 55.1447 14.1829 55.5009C14.586 55.8571 15.15 55.6934 15.6984 55.0284C16.2468 54.3633 16.3439 53.7274 15.9408 53.3712C15.5378 53.015 14.9465 53.2115 14.3982 53.8766Z" fill="white"/>
<path d="M10.4056 51.3688L11.1152 52.3323L10.3116 52.9968L8.18176 50.1082L8.98532 49.4437L9.69496 50.4073L12.5215 48.0719L13.2312 49.0354L10.4046 51.3708L10.4056 51.3688Z" fill="white"/>
<path d="M9.73638 48.2708C8.42704 49.0755 7.29228 48.7714 6.70225 47.6537C6.11124 46.538 6.44997 45.3263 7.75348 44.5239C9.06281 43.7191 10.2335 44.002 10.8245 45.1177C11.4155 46.2334 11.0448 47.463 9.73638 48.2708ZM8.33191 45.6159C7.61022 46.0603 7.35119 46.6128 7.60655 47.0973C7.8619 47.5818 8.43626 47.6231 9.15795 47.1787C9.87964 46.7343 10.1756 46.1586 9.91925 45.6762C9.66292 45.1937 9.05262 45.1735 8.33093 45.618L8.33191 45.6159Z" fill="white"/>
<path d="M5.27728 44.4723L4.72978 42.8754C4.4034 41.9218 4.4642 40.9598 5.5391 40.5087C6.58195 40.0705 7.3193 40.7126 7.63118 41.6265L7.79147 42.0968L9.14117 41.5289L9.5361 42.6843L5.27534 44.4765L5.27728 44.4723ZM6.75912 42.0536C6.60366 41.5981 6.30597 41.4763 5.92631 41.6352C5.54665 41.7941 5.4879 42.1111 5.64048 42.5526L5.77276 42.9414L6.90107 42.4672L6.75815 42.0506L6.75912 42.0536Z" fill="white"/>
</g>
<mask id="mask0_379_113" style="mask-type:alpha" maskUnits="userSpaceOnUse" x="1" y="0" width="65" height="39">
<path d="M4.36216 31.8521C4.13591 32.1345 3.97829 32.4153 3.99452 32.7912C4.01926 33.4504 4.651 34.0012 5.67704 33.9603C6.73869 33.9186 7.31097 33.4099 7.2827 32.6817L7.26272 32.6825C7.26272 32.6825 7.26272 32.6824 7.26272 32.6824M4.36216 31.8521L7.26272 32.6824M4.36216 31.8521L4.36267 31.8524L4.37472 31.8365L4.35917 31.8239C4.35903 31.8241 4.35889 31.8242 4.35874 31.8244L3.38838 31.0923C3.00397 31.5078 2.67959 32.1295 2.70826 32.8755L4.36216 31.8521ZM7.26272 32.6824C7.24532 32.2556 7.01024 31.9221 6.74244 31.6914L6.72523 31.6765L6.74211 31.6614L7.65172 30.8428L7.66428 30.8315L7.67752 30.842C8.25657 31.3011 8.56436 31.9477 8.59288 32.6834C8.62114 33.4082 8.40666 34.0959 7.94125 34.6119C7.47569 35.1282 6.76066 35.4709 5.79137 35.5086L5.77881 35.5091L5.77673 35.5052C3.87744 35.5738 2.74436 34.3072 2.68828 32.8763L2.68827 32.8763C2.65936 32.1238 2.98654 31.4972 3.3737 31.0787L3.38598 31.0654L3.40043 31.0763L4.38676 31.8205L4.40328 31.833L4.39026 31.8491C4.15846 32.1354 3.99828 32.4148 4.0145 32.7904L4.01451 32.7905C4.03868 33.4348 4.65699 33.9809 5.67625 33.9403L5.67626 33.9403C6.20433 33.9196 6.60809 33.7828 6.8759 33.563C7.14312 33.3437 7.27662 33.0405 7.26272 32.6824Z" fill="white" stroke="white" stroke-width="0.04"/>
<path d="M2.91718 29.4066L2.91408 29.4263L2.93384 29.4294L8.52173 30.3051L8.54147 30.3082L8.54458 30.2885L9.11086 26.7004L9.11399 26.6806L9.09419 26.6775L7.8551 26.4842L7.83537 26.4811L7.83226 26.5008L7.50298 28.5923L3.17195 27.9131L3.15219 27.91L3.14909 27.9297L2.91718 29.4066Z" fill="white" stroke="white" stroke-width="0.04"/>
<path d="M3.91327 24.3166L3.90744 24.3357L3.92661 24.3415L9.34174 25.9816L9.36086 25.9874L9.36667 25.9683L9.80147 24.5383L9.80729 24.5191L9.78813 24.5133L4.37299 22.8732L4.35387 22.8674L4.34806 22.8865L3.91327 24.3166Z" fill="white" stroke="white" stroke-width="0.04"/>
<path d="M7.38368 17.5502L7.37594 17.5339L7.35892 17.5399C6.82111 17.7311 6.24168 18.1363 5.91774 18.8169C5.30077 20.1129 5.72202 21.7648 7.44595 22.5803C8.32303 22.9952 9.11579 23.0224 9.76772 22.7802C10.4194 22.5381 10.9281 22.0278 11.2388 21.372C11.5548 20.7081 11.5828 19.9942 11.2822 19.3177L11.2753 19.3023L11.2589 19.3065L10.0746 19.6117L10.0527 19.6173L10.061 19.6384C10.1899 19.9662 10.2452 20.3696 10.0613 20.7563L10.0613 20.7563C9.90807 21.0813 9.64926 21.2889 9.31074 21.3601C8.97146 21.4313 8.55008 21.3659 8.07256 21.1398C7.15065 20.7034 6.85601 19.9363 7.133 19.3528C7.29429 19.0138 7.56597 18.8402 7.90331 18.6931L7.92224 18.6848L7.91338 18.6662L7.38368 17.5502Z" fill="white" stroke="white" stroke-width="0.04"/>
<path d="M7.65934 15.8311L7.6749 15.8443L7.66536 15.8571L12.2014 19.2316L12.2174 19.2435L12.2294 19.2275L13.1245 18.0281L13.1364 18.012L13.1204 18.0001L11.9945 17.1621L11.7151 16.3096L14.1779 16.5995L14.1894 16.6008L14.1963 16.5916L15.174 15.2816L15.1951 15.2533L15.1599 15.2498L11.2723 14.8648L10.4412 12.1566L10.4297 12.1189L10.4061 12.1505L9.42839 13.4604L9.42204 13.4689L9.42553 13.4789L10.2576 15.8679L10.2549 15.8715L8.58239 14.6276L8.56637 14.6157L8.55443 14.6317L7.65934 15.8311Z" fill="white" stroke="white" stroke-width="0.04"/>
<path d="M13.0877 9.41888L13.1146 9.39898L14.4012 8.44753L14.4123 8.43926L14.424 8.44687L16.4885 9.79498L16.489 9.79532L16.489 9.79533C16.6251 9.89034 16.7623 9.99466 16.9005 10.1004C16.9134 10.1103 16.9264 10.1203 16.9393 10.1302C17.0609 10.2233 17.1832 10.317 17.3065 10.4063L17.3103 10.4034C17.2608 10.26 17.2065 10.1159 17.1525 9.97258C17.1468 9.9573 17.141 9.94202 17.1353 9.92676C17.074 9.76396 17.0138 9.60245 16.9626 9.44508L16.9625 9.44478L16.241 7.10247L16.2368 7.08893L16.2482 7.08051L17.5347 6.12906L17.5508 6.1172L17.5627 6.13322L20.9317 10.6698L20.9437 10.6859L20.9276 10.6978L19.8376 11.5046L19.8216 11.5164L19.8097 11.5004L18.8139 10.1599C18.5122 9.75458 18.1471 9.10552 17.8731 8.61835C17.8415 8.56202 17.811 8.50786 17.782 8.45648L18.2041 9.7989L18.2043 9.79932L18.2043 9.79932L18.7599 11.7147L18.7637 11.7281L18.7526 11.7364L18.1103 12.2131L18.0992 12.2213L18.0875 12.2138L16.4128 11.1275L16.4122 11.1271L16.4122 11.1271L15.2645 10.3251C15.308 10.3705 15.354 10.4185 15.402 10.4685C15.7882 10.8708 16.2986 11.4025 16.5961 11.8044L13.0877 9.41888ZM13.0877 9.41888L13.1175 9.43289L16.4835 13.9654L16.4954 13.9815L16.5114 13.9696L17.5878 13.173L17.6039 13.1611L17.5919 13.145L16.5961 11.8045L13.0877 9.41888Z" fill="white" stroke="white" stroke-width="0.04"/>
<path d="M22.2541 7.62415L23.9206 6.87932L23.9389 6.87114L23.9307 6.85287L23.4182 5.71081L23.4101 5.69259L23.3918 5.70074L21.7253 6.44558L21.3791 5.67247L23.3316 4.8007L23.3499 4.79253L23.3417 4.77425L22.8293 3.63219L22.8211 3.61397L22.8029 3.62212L19.4703 5.11189L19.4422 5.11252L19.4546 5.14002L21.767 10.295L21.7752 10.3132L21.7934 10.305L25.21 8.77822L25.2283 8.77005L25.2201 8.75177L24.7076 7.60971L24.6994 7.59148L24.6812 7.59965L22.6503 8.50873L22.2541 7.62415Z" fill="white" stroke="white" stroke-width="0.04"/>
<path d="M26.6316 2.48908L26.631 2.46604L26.631 2.46407L26.6505 2.46224L26.6478 2.44586L28.6566 2.11421L28.6567 2.11421C29.2411 2.01796 29.7856 2.00313 30.2076 2.15175C30.419 2.2262 30.5999 2.34177 30.7395 2.50883C30.8791 2.67587 30.9764 2.89335 31.0221 3.17029C31.0221 3.1703 31.0221 3.17031 31.0221 3.17032L31.0024 3.17358C31.0825 3.65375 30.898 4.24853 30.4978 4.49063L26.6316 2.48908ZM26.6316 2.48908L26.6348 2.48854L26.6316 2.48908ZM30.5202 4.50614L30.5194 4.5008L30.5202 4.50614ZM30.5202 4.50614C30.7965 4.54162 31.0587 4.6443 31.268 4.82974C31.4812 5.01875 31.6382 5.29266 31.6996 5.66571C31.6996 5.66572 31.6996 5.66572 31.6996 5.66573L31.6799 5.66898C31.87 6.81829 30.9568 7.47886 29.7543 7.67778L30.5202 4.50614ZM28.6889 5.49455L29.2705 5.39931L29.2705 5.39931C29.5624 5.35138 29.7788 5.35565 29.9299 5.42016C30.0788 5.48372 30.1675 5.60723 30.2009 5.80783C30.2344 6.00858 30.192 6.16756 30.0727 6.28858C29.9536 6.4093 29.7554 6.49484 29.4706 6.54293L29.4686 6.54102L29.4588 6.54263L28.8772 6.63788L28.6889 5.49455ZM28.8154 3.29199L28.8155 3.29199C29.0549 3.25218 29.2317 3.25831 29.3548 3.31389C29.476 3.36858 29.5485 3.47277 29.5763 3.63915C29.6041 3.80586 29.5725 3.9499 29.4776 4.06205C29.3822 4.17471 29.2206 4.25799 28.9828 4.29752L28.5038 4.3766L28.3364 3.37107L28.8154 3.29199Z" fill="white" stroke="white" stroke-width="0.04"/>
<path d="M33.7461 1.68344L33.7461 1.68342L33.745 1.68344L33.7431 1.68348L33.729 1.6838L33.7245 1.69709L31.8382 7.29419L31.8295 7.31979L31.8565 7.32057L33.3871 7.36513L33.4029 7.36559L33.407 7.35028L33.7197 6.17322L35.2668 6.21794L35.5104 7.40957L35.5136 7.4251L35.5295 7.42555L37.1135 7.47088L37.1405 7.47166L37.1333 7.44561L35.5745 1.75026L35.5706 1.73597L35.5558 1.73554L33.7461 1.68344ZM34.9457 4.64714L35.021 5.01551L34.0347 4.987L34.1311 4.62406C34.2693 4.15077 34.4096 3.56943 34.5353 3.04876C34.5506 2.98558 34.5656 2.92329 34.5804 2.86219L34.5841 2.86211C34.6366 3.10861 34.6891 3.37848 34.7418 3.64904C34.8094 3.99663 34.8773 4.34537 34.9457 4.64714Z" fill="white" stroke="white" stroke-width="0.04"/>
<path d="M41.5374 4.31271C41.3205 4.02323 41.0875 3.80022 40.7204 3.71926C40.0741 3.57775 39.3823 4.04963 39.1614 5.05017M41.5374 4.31271L39.9971 6.92373C39.2832 6.76794 38.9335 6.08643 39.1614 5.05017M41.5374 4.31271L41.537 4.31306L41.5494 4.32875M39.1614 5.05017L39.181 5.05448M39.1614 5.05017L39.181 5.05447C39.181 5.05447 39.181 5.05448 39.181 5.05448M39.181 5.05448C39.0676 5.56989 39.0985 5.99454 39.2442 6.30871C39.3896 6.62218 39.6503 6.82757 40.0014 6.90419L40.0014 6.90419C40.4197 6.99576 40.8026 6.8534 41.094 6.65124L41.1126 6.63828L41.1231 6.65845L41.6857 7.7421L41.6935 7.75716L41.68 7.76732C41.0873 8.21093 40.3838 8.34415 39.6647 8.18722L39.6646 8.18721C38.9544 8.0313 38.342 7.65079 37.9595 7.0711C37.5768 6.49122 37.4255 5.71409 37.6338 4.76771L37.6372 4.75237L37.6392 4.75233C38.054 2.90248 39.5664 2.12803 40.9673 2.43597C41.7054 2.59669 42.2286 3.07095 42.5364 3.55142L42.5461 3.56668L42.5319 3.5779L41.5618 4.34444L41.5456 4.35723L41.5333 4.34066C41.314 4.04488 41.083 3.8197 40.7161 3.73879C40.0843 3.60047 39.4004 4.06062 39.181 5.05448Z" fill="white" stroke="white" stroke-width="0.04"/>
<path d="M44.7084 7.51239L44.9749 9.974L44.9761 9.98549L44.9867 9.99015L46.4836 10.6498L46.516 10.6641L46.5115 10.629L46.0202 6.75992L48.4798 5.34795L48.5141 5.32825L48.4779 5.3123L46.981 4.65266L46.9713 4.64838L46.9623 4.65401L44.8149 5.99884L44.8114 5.99742L45.6522 4.09089L45.6603 4.07258L45.642 4.06452L44.273 3.46125L44.2675 3.47367L44.2465 3.4695L41.9647 8.63896L41.9566 8.65728L41.9749 8.66534L43.3459 9.26857L43.3642 9.27661L43.3723 9.25833L43.9383 7.97527L44.7084 7.51239Z" fill="white" stroke="white" stroke-width="0.04"/>
<path d="M53.1317 10.1903L50.1771 13.4266L50.1636 13.4414L50.1784 13.4549L51.2854 14.4611L51.3002 14.4745L51.3137 14.4598L54.2664 11.2255L55.3586 12.2183L55.3734 12.2317L55.3869 12.217L56.2307 11.2913L56.2442 11.2765L56.2294 11.263L52.9104 8.24238L52.8956 8.22893L52.8821 8.24369L52.0383 9.16937L52.0248 9.18417L52.0396 9.19764L53.1317 10.1903Z" fill="white" stroke="white" stroke-width="0.04"/>
<path d="M57.9105 18.0096L57.9105 18.0096C58.658 17.4563 59.0873 16.8076 59.2116 16.1374C59.3358 15.4671 59.1542 14.7782 58.6851 14.146C58.2161 13.5138 57.6104 13.1385 56.9325 13.0616C56.2548 12.9846 55.5078 13.2061 54.7564 13.7615C54.005 14.3168 53.565 14.9731 53.431 15.6503C53.297 16.3276 53.4698 17.0233 53.939 17.6557C54.4082 18.2882 55.0247 18.6556 55.7132 18.7248C56.4015 18.794 57.1591 18.565 57.9105 18.0096ZM57.6175 14.9358C57.8156 15.2025 57.8591 15.5032 57.7521 15.8131C57.6448 16.1239 57.3853 16.4454 56.9746 16.7496C56.5638 17.0538 56.1695 17.2161 55.8294 17.2359C55.4901 17.2557 55.2042 17.1339 55.0066 16.8678C54.8089 16.6017 54.7756 16.2936 54.8933 15.9757C55.0113 15.6569 55.2816 15.3277 55.6924 15.0235C56.1031 14.7193 56.4866 14.5647 56.8157 14.5524C57.1439 14.5402 57.4195 14.6692 57.6175 14.9358Z" fill="white" stroke="white" stroke-width="0.04"/>
<path d="M57.587 24.2416L61.6783 22.6708L62.209 24.0465L62.2162 24.0652L62.2348 24.058L63.4041 23.609L63.4228 23.6018L63.4156 23.5831L61.8037 19.3981L61.7965 19.3795L61.7778 19.3866L60.6086 19.8357L60.5899 19.8428L60.5971 19.8615L61.1283 21.2383L57.0347 22.81L57.016 22.8172L57.0232 22.8358L57.5611 24.2302L57.5683 24.2488L57.587 24.2416Z" fill="white" stroke="white" stroke-width="0.04"/>
<path d="M60.9796 25.1579L60.9795 25.1579C60.0583 25.3174 59.3696 25.7066 58.9446 26.2515C58.5195 26.7967 58.3601 27.4955 58.4941 28.2707C58.628 29.0468 59.0128 29.6519 59.5964 30.0228C60.1796 30.3935 60.9592 30.5289 61.8804 30.3703L61.8804 30.3703C62.7977 30.2118 63.4738 29.8248 63.8869 29.2818C64.3002 28.7385 64.4486 28.0415 64.3147 27.2665C64.1808 26.4907 63.8089 25.8833 63.2382 25.5101C62.6677 25.1369 61.9008 24.9993 60.9796 25.1579ZM63.0059 27.4936C63.0627 27.8205 62.9662 28.1084 62.731 28.3369C62.4951 28.5662 62.1184 28.7366 61.6141 28.8236C61.1099 28.9107 60.6845 28.8786 60.3718 28.7436C60.06 28.6089 59.8596 28.3719 59.8029 28.0456C59.7462 27.7194 59.8549 27.4292 60.1031 27.198C60.3519 26.9662 60.7416 26.7936 61.2459 26.7065C61.7502 26.6195 62.1625 26.6539 62.4622 26.7909C62.7609 26.9276 62.9491 27.1666 63.0059 27.4936Z" fill="white" stroke="white" stroke-width="0.04"/>
<path d="M64.6992 31.7698L64.719 31.77L64.7191 31.772L64.7196 31.7932L64.7182 31.7932L64.6389 33.8372L64.6389 33.8372L64.6189 33.8365C64.5715 35.0701 64.0784 36.1104 62.6525 36.0556L64.6992 31.7698ZM64.6992 31.7698L64.6998 31.7524L59.0476 31.534L59.0276 31.5332L59.0268 31.5532L58.9694 33.0459L58.9687 33.0659L58.9887 33.0666L60.7609 33.1342L60.7378 33.7211L64.6992 31.7698ZM63.419 33.722L63.419 33.7221C63.4087 34.0072 63.3527 34.2261 63.2397 34.3709C63.1278 34.5145 62.9573 34.5884 62.7096 34.5785C62.4606 34.5685 62.2694 34.4928 62.1429 34.3497C62.0162 34.2064 61.9515 33.9925 61.9625 33.7L61.9625 33.6999L61.9832 33.1822L63.4385 33.2378L63.419 33.722Z" fill="white" stroke="white" stroke-width="0.04"/>
</mask>
<g mask="url(#mask0_379_113)">
<ellipse cx="33.6899" cy="31.7122" rx="32" ry="32" transform="rotate(-1.28953 33.6899 31.7122)" fill="url(#paint0_radial_379_113)"/>
</g>
<path d="M48.0006 39.7894C47.9807 40.8698 47.41 41.1858 46.5155 40.9037C44.8232 40.3733 43.145 39.7584 41.4158 39.4086C39.5076 39.025 37.5512 38.8134 35.6061 38.6865C33.7888 38.568 31.946 38.537 30.1344 38.6893C26.9285 38.9601 23.8051 39.6625 20.7838 40.8021C20.3977 40.9488 19.8269 40.9573 19.4748 40.7739C18.9864 40.52 18.8473 40.0377 19.188 39.4453C21.6953 35.1068 24.1742 30.7485 26.6616 26.3987C28.1382 23.8148 29.6318 21.2394 31.0884 18.6442C31.6876 17.5835 32.4372 16.9347 33.7746 17.0052C34.7173 17.056 35.3108 17.482 35.7367 18.2154C37.1962 20.7203 38.633 23.2365 40.0727 25.7499C42.6169 30.19 45.1554 34.6329 47.6911 39.0786C47.853 39.3635 47.9552 39.6822 48.0006 39.7894Z" fill="url(#paint1_radial_379_113)"/>
<defs>
<radialGradient id="paint0_radial_379_113" cx="0" cy="0" r="1" gradientUnits="userSpaceOnUse" gradientTransform="translate(33.69 3.21218) rotate(90) scale(74 129.814)">
<stop stop-color="#00C9FF"/>
<stop offset="0.989865" stop-color="#332DFD"/>
</radialGradient>
<radialGradient id="paint1_radial_379_113" cx="0" cy="0" r="1" gradientUnits="userSpaceOnUse" gradientTransform="translate(34.0002 17) rotate(90) scale(35.5 72.2881)">
<stop stop-color="#41D6FE"/>
<stop offset="1" stop-color="#332DFD"/>
</radialGradient>
<clipPath id="clip0_379_113">
<rect width="36.7598" height="54.7228" fill="white" transform="translate(65.1525 41.2319) rotate(115.121)"/>
</clipPath>
</defs>
</svg>
