<svg width="65" height="73" viewBox="0 0 65 73" fill="none" xmlns="http://www.w3.org/2000/svg">
<g clip-path="url(#clip0_379_113)">
<path d="M62.5327 40.6515C63.9221 41.2203 64.3372 42.4713 63.9246 43.4866C63.7077 44.0181 63.2768 44.3463 62.8682 44.5111L62.3915 43.6684C62.6511 43.543 62.8586 43.3971 62.969 43.1242C63.1589 42.6538 62.8793 42.0639 62.1276 41.7568C61.3502 41.4384 60.7751 41.6076 60.5633 42.1277C60.437 42.4369 60.5029 42.7529 60.6231 43.004L59.7076 43.279C59.4381 42.7733 59.4227 42.2242 59.6337 41.7061C60.0542 40.6782 61.1159 40.0754 62.5327 40.6515Z" fill="white"/>
<path d="M62.8337 45.6672L62.2606 46.6623L59.2294 44.9423L58.4092 46.3667L57.5472 45.8768L58.9425 43.4582L62.8337 45.6672Z" fill="white"/>
<path d="M60.8145 48.9607L60.1397 49.8929L56.4861 47.3141L57.1609 46.3819L60.8145 48.9607Z" fill="white"/>
<path d="M57.7706 49.3112C58.8951 50.3015 58.8571 51.6043 58.1173 52.4168C57.728 52.843 57.2063 53.0083 56.7607 53.027L56.5988 52.0831C56.8874 52.0525 57.1362 51.9839 57.3353 51.766C57.6789 51.3903 57.6163 50.7453 57.0065 50.211C56.3773 49.6569 55.7723 49.6261 55.3948 50.0416C55.1688 50.2888 55.1216 50.6053 55.1513 50.8804L54.1879 50.8359C54.1056 50.2734 54.2802 49.7575 54.6605 49.341C55.4113 48.5197 56.6289 48.3065 57.7737 49.3148L57.7706 49.3112Z" fill="white"/>
<path d="M56.3076 54.1295L55.41 54.8567L54.3337 53.5959L54.3126 53.6117L54.5314 55.5673L53.5498 56.3626L53.3897 54.1661L50.4623 53.1367L51.4439 52.3414L53.3072 53.036L53.2399 52.316L52.5195 51.4712L53.4172 50.7439L56.3068 54.1314L56.3076 54.1295Z" fill="white"/>
<path d="M51.2558 57.8605L50.1402 58.4146L48.6913 57.1133C48.5026 56.9325 48.314 56.7244 48.1188 56.5317L48.0946 56.5438C48.1438 56.807 48.2126 57.0788 48.2553 57.3299L48.5402 59.2097L47.4246 59.7639L45.334 55.8633L46.2785 55.3936L46.8965 56.5467C47.1083 56.9428 47.3484 57.5905 47.5097 58.0054L47.5338 57.9932L47.3602 56.8938L47.1528 55.3625L47.7096 55.085L48.8857 56.1344L49.7027 56.9145L49.7268 56.9023C49.4689 56.5362 49.0605 55.9718 48.8487 55.5758L48.2307 54.4226L49.1632 53.959L51.2538 57.8596L51.2558 57.8605Z" fill="white"/>
<path d="M46.0151 60.2642L43.2911 61.1129L42.9714 60.1909L44.5812 59.6896L44.3551 59.0366L42.9795 59.4652L42.6598 58.5433L44.0355 58.1146L43.7779 57.3726L42.1032 57.8934L41.7835 56.9714L44.5733 56.1014L46.014 60.2614L46.0151 60.2642Z" fill="white"/>
<path d="M40.4424 61.7314L38.8539 61.9162C37.9298 62.0234 37.1512 61.8846 37.0275 61.0304C36.9724 60.6576 37.129 60.2044 37.4489 60.0326L37.4444 60.0055C37.0056 59.9337 36.6208 59.6532 36.5378 59.0813C36.4079 58.1879 37.1399 57.7092 38.0917 57.5982L39.8162 57.3979L40.4424 61.7314ZM38.2998 58.4689C37.8391 58.522 37.6447 58.7078 37.6897 59.0284C37.7348 59.349 37.9708 59.4435 38.4324 59.3885L38.9082 59.333L38.7756 58.4134L38.2998 58.4689ZM38.6361 60.2209C38.2565 60.2662 38.1037 60.4589 38.1416 60.7263C38.1795 60.9936 38.3727 61.0784 38.7515 61.035L39.1456 60.9891L39.0274 60.1761L38.6333 60.2219L38.6361 60.2209Z" fill="white"/>
<path d="M35.0014 62.1376L33.5744 62.0993L32.2329 57.7025L33.4813 57.7354L33.9817 59.8692C34.0895 60.288 34.1987 60.8213 34.3049 61.2599L34.3328 61.2607C34.4297 60.8202 34.5427 60.3 34.6538 59.8862L35.1694 57.7789L36.3765 57.8095L35.0023 62.1357L35.0014 62.1376ZM35.3935 59.6046L33.2127 59.5477L33.2161 58.6559L35.3969 58.7127L35.3935 59.6046Z" fill="white"/>
<path d="M31.9158 59.7966C31.7036 61.2394 30.5646 61.895 29.4517 61.7142C28.8677 61.6197 28.4329 61.2762 28.1652 60.9217L28.8831 60.2933C29.0733 60.5135 29.2699 60.6818 29.5682 60.7307C30.0836 60.8156 30.6007 60.425 30.7155 59.6436C30.8345 58.8366 30.5213 58.3232 29.9508 58.23C29.6108 58.1743 29.3149 58.3019 29.0954 58.4699L28.5898 57.6555C29.0262 57.2933 29.5655 57.163 30.136 57.2562C31.2616 57.4402 32.1323 58.3282 31.9158 59.7966Z" fill="white"/>
<path d="M26.9606 61.127L25.83 60.7722L26.3042 59.2255L26.2786 59.2143L24.7268 60.4248L23.4906 60.0372L25.2822 58.7519L24.5123 55.807L25.7484 56.1945L26.2059 58.0885L26.7845 57.6542L27.102 56.6199L28.2326 56.9748L26.9606 61.127Z" fill="white"/>
<path d="M19.4055 57.0002L20.4251 57.6026L19.9294 58.4265L16.8715 56.6174L17.3672 55.7935L18.3868 56.3959L20.1307 53.499L21.1503 54.1014L19.4063 56.9983L19.4055 57.0002Z" fill="white"/>
<path d="M17.6141 54.5504C16.7017 55.6541 15.5353 55.7506 14.5673 54.9772C13.6013 54.2045 13.461 53.0559 14.3688 51.9571C15.2812 50.8534 16.4726 50.7268 17.4406 51.5003C18.4086 52.2737 18.5264 53.4467 17.6132 54.5523L17.6141 54.5504ZM15.3146 52.7117C14.8121 53.3207 14.7791 53.8783 15.199 54.2129C15.6188 54.5476 16.1667 54.4029 16.6692 53.7939C17.1716 53.1848 17.2296 52.5973 16.8097 52.2626C16.3899 51.9279 15.817 52.1027 15.3146 52.7117Z" fill="white"/>
<path d="M11.2167 50.3412L11.9761 51.2419L11.2213 51.8473L8.94243 49.1471L9.69723 48.5417L10.4566 49.4424L13.1117 47.3146L13.871 48.2153L11.2159 50.3431L11.2167 50.3412Z" fill="white"/>
<path d="M10.3696 47.465C9.12312 48.1942 7.98289 47.8989 7.33259 46.8569C6.68146 45.8168 6.94387 44.6991 8.18475 43.972C9.43125 43.2429 10.6058 43.519 11.2569 44.5591C11.908 45.5992 11.615 46.7331 10.3696 47.465ZM8.82204 44.9901C8.13503 45.3927 7.91197 45.901 8.19345 46.3527C8.47494 46.8044 9.04533 46.8496 9.73234 46.447C10.4193 46.0443 10.6775 45.5149 10.3952 45.0651C10.1129 44.6154 9.50821 44.5893 8.8212 44.992L8.82204 44.9901Z" fill="white"/>
<path d="M5.73331 43.8943L5.0964 42.4092C4.71662 41.5224 4.71917 40.6325 5.75502 40.228C6.75996 39.8349 7.52746 40.4383 7.89053 41.2882L8.07717 41.7256L9.37774 41.2162L9.83739 42.2907L5.73164 43.8981L5.73331 43.8943ZM7.05381 41.673C6.87284 41.2495 6.5712 41.1331 6.2053 41.2756C5.83941 41.4181 5.80029 41.7109 5.97756 42.1214L6.13163 42.483L7.21891 42.0577L7.05267 41.6703L7.05381 41.673Z" fill="white"/>
</g>
<mask id="mask0_379_113" style="mask-type:alpha" maskUnits="userSpaceOnUse" x="3" y="0" width="62" height="35">
<g clip-path="url(#clip1_379_113)">
<path d="M6.02083 33.1438C4.1237 33.1754 3.0238 31.8897 3.00006 30.4659C2.98819 29.7194 3.32647 29.1052 3.72014 28.6984L4.68948 29.4646C4.45011 29.747 4.27998 30.0275 4.28789 30.4106C4.29778 31.0702 4.91697 31.635 5.94368 31.6172C7.00599 31.5994 7.58957 31.1038 7.5777 30.375C7.56979 29.9406 7.33834 29.597 7.07325 29.358L8.00105 28.5602C8.56485 29.0282 8.85565 29.6759 8.86752 30.4066C8.89126 31.8483 7.95357 33.1161 6.02281 33.1477L6.02083 33.1438Z" fill="white"/>
<path d="M3.30664 27.0058L3.57172 25.5346L7.90605 26.3146L8.28587 24.2114L9.52029 24.4326L8.87341 28.0071L3.30664 27.0058Z" fill="white"/>
<path d="M4.41638 21.9423L4.88325 20.5224L10.2601 22.284L9.79324 23.7039L4.41638 21.9423Z" fill="white"/>
<path d="M7.97727 20.2617C6.28192 19.4125 5.9021 17.7635 6.54305 16.4917C6.87935 15.8242 7.46293 15.4352 8.00101 15.2575L8.50546 16.3851C8.16322 16.5253 7.88231 16.6951 7.71021 17.0368C7.41347 17.6273 7.70032 18.4113 8.61822 18.8714C9.56777 19.3473 10.3155 19.1775 10.642 18.5238C10.8378 18.1348 10.7903 17.724 10.6677 17.3903L11.8586 17.1118C12.1415 17.7892 12.0979 18.4962 11.7696 19.1479C11.1227 20.4374 9.70427 21.1267 7.97727 20.2617Z" fill="white"/>
<path d="M8.34912 13.5495L9.27098 12.3705L10.9307 13.664L10.9525 13.6364L10.1711 11.2192L11.178 9.93156L11.9515 12.6707L15.8427 13.1446L14.8358 14.4322L12.3491 14.0827L12.6201 14.9773L13.7319 15.8442L12.8101 17.0232L8.3511 13.5475L8.34912 13.5495Z" fill="white"/>
<path d="M13.9436 7.24567L15.2512 6.32342L17.2848 7.71766C17.5519 7.91317 17.8229 8.1462 18.0999 8.35553L18.1276 8.33578C18.0227 8.00598 17.8922 7.67224 17.7972 7.35626L17.1286 4.99831L18.4362 4.07606L21.7023 8.6873L20.5944 9.46934L19.6291 8.1067C19.2967 7.63867 18.8892 6.85268 18.6202 6.35107L18.5925 6.37082L18.9921 7.74925L19.5044 9.67669L18.8516 10.1388L17.2018 9.01512L16.0484 8.16989L16.0208 8.18964C16.4045 8.61028 17.0119 9.25605 17.3422 9.72409L18.3076 11.0867L17.2136 11.8589L13.9476 7.24765L13.9436 7.24567Z" fill="white"/>
<path d="M20.3867 3.10635L23.7557 1.69039L24.2423 2.84369L22.2522 3.67905L22.5964 4.49663L24.2977 3.78174L24.7844 4.93504L23.0831 5.64993L23.4748 6.58008L25.544 5.70918L26.0307 6.86248L22.5806 8.31201L20.3848 3.10635L20.3867 3.10635Z" fill="white"/>
<path d="M27.6212 0.602358L29.637 0.316004C30.8082 0.150118 31.7993 0.308105 31.9555 1.40809C32.0248 1.88995 31.827 2.48042 31.4214 2.71345L31.4254 2.74703C31.9813 2.82602 32.4719 3.17754 32.5767 3.9181C32.7409 5.07141 31.8131 5.71125 30.6064 5.88306L28.4184 6.19312L27.6212 0.600381L27.6212 0.602358ZM30.3413 4.76333C30.9269 4.68039 31.1741 4.43354 31.1148 4.0208C31.0554 3.60806 30.7587 3.49154 30.1712 3.57448L29.5678 3.6594L29.736 4.84628L30.3393 4.76136L30.3413 4.76333ZM29.914 2.5061C30.3967 2.43698 30.5886 2.18222 30.5391 1.8386C30.4897 1.49498 30.2463 1.38834 29.7636 1.45746L29.2632 1.52855L29.4135 2.57719L29.914 2.5061Z" fill="white"/>
<path d="M34.731 -3.53295e-05L36.5391 0.0927821L37.9694 5.82178L36.3868 5.74081L35.8843 2.96616C35.7735 2.42111 35.6687 1.72795 35.5599 1.15722L35.5243 1.15722C35.3739 1.72202 35.1999 2.39149 35.0317 2.92272L34.2463 5.63219L32.7172 5.5532L34.729 -3.53294e-05L34.731 -3.53295e-05ZM34.0742 3.26437L36.8378 3.40655L36.7785 4.55986L34.0149 4.41767L34.0742 3.26437Z" fill="white"/>
<path d="M38.5708 3.15574C39.0198 1.31519 40.5431 0.576601 41.9298 0.914298C42.6578 1.09006 43.1662 1.57192 43.461 2.05575L42.4738 2.80027C42.2602 2.49812 42.0307 2.26311 41.6588 2.17227C41.0159 2.01626 40.3136 2.47244 40.0703 3.46776C39.819 4.49863 40.1534 5.18784 40.8635 5.35965C41.2869 5.46234 41.6786 5.32608 41.9773 5.1286L42.5154 6.22463C41.9179 6.65119 41.2176 6.76771 40.5075 6.5959C39.1029 6.25425 38.1118 5.02986 38.5688 3.15574L38.5708 3.15574Z" fill="white"/>
<path d="M45.2077 2.0124L46.5628 2.64632L45.6706 4.55204L45.7022 4.56586L47.8882 3.26444L49.3699 3.95761L46.8674 5.32025L47.273 9.21265L45.7913 8.51948L45.5776 6.02131L44.7646 6.4854L44.1671 7.76114L42.8101 7.12722L45.2077 2.01042L45.2077 2.0124Z" fill="white"/>
<path d="M53.9496 8.92022L52.8655 7.88936L53.73 6.98291L56.9803 10.0775L56.1158 10.9839L55.0317 9.95306L51.9931 13.1345L50.9091 12.1037L53.9476 8.9222L53.9496 8.92022Z" fill="white"/>
<path d="M55.4767 12.5442C56.998 11.4718 58.4639 11.7345 59.3679 13.0122C60.272 14.2899 60.0247 15.7612 58.5113 16.8296C56.9901 17.9019 55.4807 17.6689 54.5766 16.3912C53.6726 15.1134 53.9555 13.6165 55.4767 12.5442ZM57.6271 15.5815C58.4658 14.989 58.7072 14.3077 58.3155 13.7547C57.9238 13.2018 57.1998 13.2018 56.361 13.7942C55.5222 14.3867 55.2374 15.0976 55.629 15.6506C56.0207 16.2035 56.7883 16.1739 57.6271 15.5815Z" fill="white"/>
<path d="M61.6924 20.1572L61.186 18.7511L62.365 18.3285L63.8823 22.5487L62.7033 22.9713L62.1969 21.5652L58.0524 23.0503L57.546 21.6442L61.6904 20.1591L61.6924 20.1572Z" fill="white"/>
<path d="M61.4332 24.0811C63.275 23.8066 64.4659 24.6992 64.6973 26.2475C64.9288 27.7938 64.0445 28.9984 62.2107 29.2729C60.3689 29.5474 59.1266 28.6627 58.8951 27.1144C58.6637 25.5681 59.5915 24.3575 61.4332 24.0811ZM61.9852 27.7602C63.002 27.6081 63.5242 27.1085 63.4233 26.439C63.3224 25.7695 62.6756 25.4437 61.6587 25.5958C60.6419 25.7478 60.0682 26.2554 60.1691 26.9248C60.27 27.5943 60.9683 27.9122 61.9852 27.7602Z" fill="white"/>
<path d="M65 30.7561L64.8733 32.8198C64.7982 34.0521 64.2819 35.081 62.8575 34.9941C61.4767 34.9092 60.9426 33.7974 61.0158 32.6184L61.0534 32.0121L59.2631 31.9035L59.3541 30.4125L65 30.7581L65 30.7561ZM62.2007 32.6224C62.1651 33.2128 62.4421 33.5071 62.9465 33.5387C63.451 33.5703 63.6627 33.2523 63.6963 32.6796L63.7279 32.176L62.2344 32.0852L62.2007 32.6224Z" fill="white"/>
</g>
</mask>
<g mask="url(#mask0_379_113)">
<circle cx="34" cy="30" r="32" fill="url(#paint0_radial_379_113)"/>
</g>
<g filter="url(#filter0_d_379_113)">
<path d="M48.0004 40.7894C47.9805 41.8698 47.4097 42.1858 46.5153 41.9037C44.8229 41.3733 43.1448 40.7584 41.4155 40.4086C39.5074 40.025 37.5509 39.8134 35.6059 39.6865C33.7886 39.568 31.9457 39.537 30.1341 39.6893C26.9283 39.9601 23.8048 40.6625 20.7836 41.8021C20.3974 41.9488 19.8267 41.9573 19.4746 41.7739C18.9862 41.52 18.847 41.0377 19.1878 40.4453C21.6951 36.1068 24.174 31.7485 26.6614 27.3987C28.1379 24.8148 29.6315 22.2394 31.0882 19.6442C31.6873 18.5835 32.437 17.9347 33.7744 18.0052C34.7171 18.056 35.3106 18.482 35.7365 19.2154C37.196 21.7203 38.6328 24.2365 40.0724 26.7499C42.6166 31.19 45.1552 35.6329 47.6909 40.0786C47.8527 40.3635 47.9549 40.6822 48.0004 40.7894Z" fill="url(#paint1_radial_379_113)"/>
</g>
<defs>
<filter id="filter0_d_379_113" x="15" y="16" width="37.0004" height="32.0015" filterUnits="userSpaceOnUse" color-interpolation-filters="sRGB">
<feFlood flood-opacity="0" result="BackgroundImageFix"/>
<feColorMatrix in="SourceAlpha" type="matrix" values="0 0 0 0 0 0 0 0 0 0 0 0 0 0 0 0 0 0 127 0" result="hardAlpha"/>
<feOffset dy="2"/>
<feGaussianBlur stdDeviation="2"/>
<feComposite in2="hardAlpha" operator="out"/>
<feColorMatrix type="matrix" values="0 0 0 0 1 0 0 0 0 1 0 0 0 0 1 0 0 0 0.55 0"/>
<feBlend mode="normal" in2="BackgroundImageFix" result="effect1_dropShadow_379_113"/>
<feBlend mode="normal" in="SourceGraphic" in2="effect1_dropShadow_379_113" result="shape"/>
</filter>
<radialGradient id="paint0_radial_379_113" cx="0" cy="0" r="1" gradientUnits="userSpaceOnUse" gradientTransform="translate(34 2.33441e-06) rotate(90) scale(75.5 132.445)">
<stop stop-color="#41D6FE"/>
<stop offset="1" stop-color="#332DFD"/>
</radialGradient>
<radialGradient id="paint1_radial_379_113" cx="0" cy="0" r="1" gradientUnits="userSpaceOnUse" gradientTransform="translate(34 18) rotate(90) scale(35.5 72.2881)">
<stop stop-color="#41D6FE"/>
<stop offset="1" stop-color="#332DFD"/>
</radialGradient>
<clipPath id="clip0_379_113">
<rect width="33.443" height="55.0192" fill="white" transform="translate(64.7432 41.6216) rotate(113.694)"/>
</clipPath>
<clipPath id="clip1_379_113">
<rect width="35" height="62" fill="white" transform="translate(3 35) rotate(-90)"/>
</clipPath>
</defs>
</svg>
