<svg width="547" height="225" viewBox="0 0 547 225" fill="none" xmlns="http://www.w3.org/2000/svg">
<path d="M96.9041 29.5H44.4041V47.5H60.4041V102.5H80.9041V47.5H96.9041V29.5Z" fill="#7EC513"/>
<path fill-rule="evenodd" clip-rule="evenodd" d="M142.904 106C165.548 106 183.904 88.0914 183.904 66C183.904 43.9086 165.548 26 142.904 26C120.26 26 101.904 43.9086 101.904 66C101.904 88.0914 120.26 106 142.904 106ZM144.187 50.5049C143.445 49.0472 141.363 49.0472 140.621 50.5049L127.861 75.5933C127.184 76.9239 128.151 78.5 129.644 78.5H155.164C156.657 78.5 157.624 76.9239 156.947 75.5933L144.187 50.5049Z" fill="#7EC513"/>
<path d="M276.404 30.5H256.404V102.5H300.404V84.5H276.404V30.5Z" fill="#00A3EE"/>
<path d="M332.404 30.5H312.904V102.5H332.404V30.5Z" fill="#00A3EE"/>
<path d="M344.404 102.5V30.5H363.404L397.904 81V30.5H415.404V102.5H397.904L363.404 54.5V102.5H344.404Z" fill="#00A3EE"/>
<path d="M427.404 102.5V30.5H446.904V62L470.404 30.5H491.904L466.404 65.5L496.404 102.5H470.404L446.904 70.5V102.5H427.404Z" fill="#00A3EE"/>
<path d="M466.944 174.064V176.44H496.032V174.064H466.944ZM466.944 180.616V182.992H496.032V180.616H466.944ZM466.944 167.584V169.888H496.032V167.584H466.944ZM458.808 163.12H504.6V187.384H458.808V163.12ZM484.656 184.936H493.08V190.264C493.08 192.064 493.656 192.208 496.536 192.208C497.832 192.208 503.448 192.208 505.248 192.208C507.552 192.208 507.984 191.488 508.344 186.808C510 187.888 513.24 188.968 515.4 189.328C514.536 196.744 512.376 198.688 506.112 198.688C504.312 198.688 497.184 198.688 495.456 198.688C486.816 198.688 484.656 196.816 484.656 190.336V184.936ZM468.816 185.368H477.24C475.44 193.792 470.472 197.68 451.392 199.48C450.888 197.608 449.088 194.512 447.72 192.928C463.992 192.064 467.376 190.264 468.816 185.368ZM488.472 142.96H510.792V147.712H488.472V142.96ZM488.4 135.616H514.032V140.944H488.4V135.616ZM463.776 136.12H470.544V142.96H463.776V136.12ZM463.776 150.52H470.544V157.36H463.776V150.52ZM455.856 141.448H479.472V153.256H455.856V148.792H472.2V145.984H455.856V141.448ZM504.024 153.616V157.216H506.976V153.616H504.024ZM496.896 153.616V157.216H499.848V153.616H496.896ZM489.912 153.616V157.216H492.72V153.616H489.912ZM484.224 149.656H512.952V161.176H484.224V149.656ZM487.68 131.944L495.096 133.168C492.936 138.712 489.84 143.896 484.656 148.144C483.36 146.488 480.768 144.184 479.04 143.32C483.504 140.08 486.24 135.832 487.68 131.944ZM480.912 134.032V138.928H458.664V156.208H481.56V161.032H451.32V134.032H480.912Z" fill="#858585"/>
<path d="M380.184 159.376H426.408V166.576H380.184V159.376ZM378.24 171.472H429.648V178.744H378.24V171.472ZM389.328 153.4H397.248V174.856H389.328V153.4ZM385.728 174.136H393.648V192.28H385.728V174.136ZM407.976 153.4H416.04V174.784H407.976V153.4ZM370.032 134.968H378.744V156.352C378.744 169.024 377.592 187.816 370.032 199.696C368.304 198.328 364.416 196.096 362.256 195.232C369.456 184.144 370.032 167.872 370.032 156.352V134.968ZM375.36 134.968H425.76V154.624H375.36V147.352H417.048V142.24H375.36V134.968ZM378.312 190.624C385.368 189.904 395.952 188.464 406.104 186.952L406.464 194.368C397.104 195.952 387.024 197.392 379.536 198.544L378.312 190.624ZM405.96 174.496C409.776 183.784 417.912 190.12 430.44 192.424C428.712 194.152 426.408 197.392 425.328 199.552C411.72 196.168 403.512 188.248 398.832 176.008L405.96 174.496ZM420.576 177.808L427.056 182.2C423.168 185.008 418.344 187.672 414.672 189.4L409.128 185.296C412.728 183.424 417.696 180.184 420.576 177.808Z" fill="#858585"/>
<path d="M309.696 160.96H333.456V167.8H309.696V160.96ZM303.144 172.192H340.512V179.176H303.144V172.192ZM306.456 137.488H317.904V143.176H306.456V137.488ZM304.944 147.856L307.68 144.184C309.984 145.264 312.864 146.992 314.232 148.36L311.496 152.464C310.056 151.096 307.248 149.08 304.944 147.856ZM300.624 153.544L303.72 150.16C305.952 151.528 308.688 153.616 309.984 154.984L306.816 158.728C305.52 157.216 302.856 154.984 300.624 153.544ZM329.136 184.504L335.688 181.12C339 184.864 342.96 189.976 344.616 193.504L337.704 197.248C336.12 193.792 332.448 188.392 329.136 184.504ZM315.6 137.488H316.896L318.192 137.272L322.872 138.928C319.776 153.976 312.288 164.488 302.28 170.32C301.344 168.592 299.328 165.928 297.816 164.632C306.384 160.168 313.296 150.232 315.6 138.712V137.488ZM329.136 136.984H339.936V143.104H329.136V136.984ZM306.888 132.088L313.512 133.528C310.776 142.6 305.736 150.736 299.904 155.92C298.824 154.696 296.16 152.464 294.72 151.456C300.336 146.992 304.728 139.864 306.888 132.088ZM337.128 136.984H338.712L340.08 136.552L344.832 139.288C342.672 145.768 339.144 152.752 335.472 157.072C334.464 155.56 332.232 153.328 330.864 152.248C333.6 148.648 336.048 142.672 337.128 138.352V136.984ZM317.76 175.432H325.896V191.488C325.896 195.16 325.248 197.104 322.8 198.256C320.352 199.408 317.184 199.48 312.864 199.48C312.504 197.32 311.28 194.224 310.272 192.208C312.864 192.28 315.816 192.28 316.68 192.28C317.472 192.28 317.76 192.064 317.76 191.344V175.432ZM305.16 181.48L312.576 183.496C310.488 188.608 306.96 194.08 303.72 197.464C302.208 196.24 299.04 194.296 297.24 193.36C300.48 190.336 303.504 185.872 305.16 181.48ZM326.328 133.168C329.28 146.92 335.544 158.368 346.488 163.552C344.832 164.992 342.528 167.944 341.448 169.96C329.424 163.48 323.088 150.808 319.56 134.464L326.328 133.168ZM280.752 134.968H295.44V142.672H288.24V199.552H280.752V134.968ZM293.064 134.968H294.288L295.368 134.68L300.552 137.632C299.04 144.112 297.096 152.536 295.44 158.296C298.824 164.2 299.544 169.6 299.544 174.064C299.544 178.816 298.68 181.984 296.808 183.496C295.8 184.36 294.648 184.792 293.208 185.008C292.2 185.152 290.904 185.224 289.536 185.224C289.536 183.208 289.176 180.184 288.096 178.24C288.888 178.312 289.608 178.312 290.184 178.312C290.76 178.312 291.336 178.096 291.696 177.664C292.344 177.016 292.56 175.216 292.56 172.984C292.56 169.312 292.128 164.416 288.96 159.016C290.544 152.392 292.272 141.952 293.064 137.416V134.968Z" fill="#858585"/>
<path d="M206.664 149.944H246.84V155.992H206.664V149.944ZM235.608 146.056L239.424 142.312C241.872 143.464 244.824 145.336 246.264 146.92L242.304 151.024C240.864 149.44 237.984 147.424 235.608 146.056ZM238.56 158.008L245.256 159.304C241.656 172.048 234.672 181.84 225.24 187.888C224.376 186.592 222 183.856 220.56 182.704C229.56 177.592 235.752 169.024 238.56 158.008ZM205.872 177.448C211.128 176.872 218.688 175.936 226.248 174.928L226.464 180.688C219.48 181.768 212.424 182.848 206.664 183.712L205.872 177.448ZM214.08 163.696V168.304H218.904V163.696H214.08ZM208.536 159.088H224.664V172.84H208.536V159.088ZM225.96 143.752H233.16C233.664 161.68 236.112 178.6 240.864 179.752C241.656 179.968 242.232 177.16 242.592 172.912C243.888 174.28 246.48 176.296 247.92 177.016C246.84 185.944 242.952 188.68 238.2 186.52C229.2 183.64 227.04 164.488 225.96 143.752ZM195.936 134.968H257.64V199.696H249.072V142.744H204.072V199.696H195.936V134.968ZM201.048 188.968H253.752V196.672H201.048V188.968Z" fill="#858585"/>
<path d="M108.888 134.608H135.456V142.312H108.888V134.608ZM116.664 149.944H129.336V156.928H116.664V149.944ZM137.544 180.328H148.344V186.088H137.544V180.328ZM160.08 180.328H171.024V186.088H160.08V180.328ZM116.664 164.56H129.336V171.616H116.664V164.56ZM112.128 138.712H119.256V183.856H112.128V138.712ZM124.8 138.64H132V199.48H124.8V138.64ZM155.832 167.44H162.816V199.48H155.832V167.44ZM135.24 169.672H141.504V188.752H135.24V169.672ZM166.92 169.672H173.4V188.608H166.92V169.672ZM107.592 182.056C112.992 181.336 120.696 180.04 128.256 178.744L128.904 186.16C122.064 187.528 114.936 188.968 109.032 190.048L107.592 182.056ZM145.464 167.512H152.376V180.328C152.376 188.392 150.864 195.52 140.712 199.84C139.92 198.184 137.904 195.376 136.464 194.224C144.384 190.84 145.464 185.8 145.464 180.184V167.512ZM133.368 160.672C138.12 160.384 144.672 159.88 151.512 159.376L151.584 164.92C145.392 165.496 139.272 166.144 134.16 166.576L133.368 160.672ZM134.232 146.056L137.832 141.016C141.072 143.68 144.96 147.352 146.544 150.088L142.872 155.632C141.288 152.824 137.544 148.792 134.232 146.056ZM147.12 155.992L152.16 154.552C153.888 157.864 155.328 162.256 155.544 165.136L150.216 166.864C150.072 163.984 148.776 159.448 147.12 155.992ZM142.872 131.872L149.856 133.96C147.264 138.496 144.384 143.824 142.152 147.064L137.616 145.264C139.488 141.592 141.72 135.832 142.872 131.872ZM148.2 141.16L154.464 143.392C150.432 150.232 145.176 158.584 141 163.624L136.608 161.752C140.712 156.28 145.464 147.496 148.2 141.16ZM154.248 160.456C159.072 160.168 165.624 159.664 172.392 159.16L172.536 164.56C166.416 165.28 160.368 165.928 155.328 166.432L154.248 160.456ZM153.6 145.912L156.984 140.656C160.512 143.248 164.472 146.92 166.128 149.728L162.456 155.488C160.872 152.608 157.056 148.576 153.6 145.912ZM167.136 156.064L172.248 154.408C174.264 158.152 175.992 163.048 176.28 166.216L170.808 168.088C170.52 164.92 169.008 159.952 167.136 156.064ZM162.456 131.872L169.584 134.032C166.992 138.64 164.112 143.896 161.808 147.208L156.912 145.264C158.928 141.592 161.232 135.904 162.456 131.872ZM167.928 140.944L174.624 143.32C170.52 150.088 165.336 158.44 161.088 163.552L156.552 161.464C160.584 156.064 165.264 147.208 167.928 140.944Z" fill="#858585"/>
<path d="M54.816 153.472H84.768V162.184H54.816V153.472ZM24 187.24H89.808V195.952H24V187.24ZM49.92 132.736H59.208V192.064H49.92V132.736Z" fill="#858585"/>
<path fill-rule="evenodd" clip-rule="evenodd" d="M222 30.5H191V77.5V79.5V102.5H210V79.5H222V79.3676C222.809 79.4551 223.63 79.5 224.462 79.5C237.461 79.5 248 68.531 248 55C248 41.469 237.461 30.5 224.462 30.5C223.63 30.5 222.809 30.5449 222 30.6324V30.5ZM211 46H220.154H220.411V46.0045C224.625 46.1513 228 49.8987 228 54.5C228 59.1013 224.625 62.8487 220.411 62.9955V63H220.154H211V46Z" fill="#7EC513"/>
</svg>
